<?xml version="1.0" encoding="UTF-8" standalone="no"?>
<!-- Created with Inkscape (http://www.inkscape.org/) -->

<svg
   width="200"
   height="118"
   viewBox="0 0 52.916664 31.220835"
   version="1.1"
   id="svg1171"
   inkscape:version="1.1.1 (3bf5ae0d25, 2021-09-20)"
   sodipodi:docname="flimstrip.svg"
   xmlns:inkscape="http://www.inkscape.org/namespaces/inkscape"
   xmlns:sodipodi="http://sodipodi.sourceforge.net/DTD/sodipodi-0.dtd"
   xmlns="http://www.w3.org/2000/svg"
   xmlns:svg="http://www.w3.org/2000/svg">
  <sodipodi:namedview
     id="namedview1173"
     pagecolor="#ffffff"
     bordercolor="#666666"
     borderopacity="1.0"
     inkscape:pageshadow="2"
     inkscape:pageopacity="0.0"
     inkscape:pagecheckerboard="0"
     inkscape:document-units="mm"
     showgrid="false"
     units="px"
     inkscape:zoom="0.74742565"
     inkscape:cx="396.69498"
     inkscape:cy="561.25984"
     inkscape:window-width="3840"
     inkscape:window-height="2124"
     inkscape:window-x="5760"
     inkscape:window-y="0"
     inkscape:window-maximized="1"
     inkscape:current-layer="layer1" />
  <defs
     id="defs1168" />
  <g
     inkscape:label="Layer 1"
     inkscape:groupmode="layer"
     id="layer1">
    <path
       style="fill:#000000;stroke-width:0.352778"
       id="path1285"
       d="" />
    <path
       style="fill:#000000;stroke-width:0.352778"
       id="path1265"
       d="" />
    <path
       style="fill:#000000;stroke-width:0.352778"
       id="path1245"
       d="" />
    <path
       style="fill:#000000;stroke-width:0.352778"
       id="path1483"
       d="" />
    <path
       style="fill:#7300eb;fill-opacity:1;stroke-width:0.0990808"
       d="m 52.899893,30.417028 c -0.204973,0.189555 -0.343437,0.190563 -26.169832,0.190563 -25.82640272,0 -25.96486761,-8.49e-4 -26.16983879,-0.190563 -0.20427787,-0.188912 -0.20606195,-0.317606 -0.20606195,-14.863989 0,-14.5463839 0.001773,-14.67507221 0.20606195,-14.8639886 0.20497118,-0.189555 0.34343607,-0.19056337 26.16983879,-0.19056337 25.826395,0 25.964859,8.421e-4 26.169832,0.19056337 0.20428,0.18891639 0.206061,0.3176047 0.206061,14.8639886 0,14.546383 -0.0021,14.675077 -0.206061,14.863989 z M 49.911997,25.748211 H 48.05744 v 1.810358 1.810357 h 1.854557 1.854554 v -1.810357 -1.810358 z m -5.177302,-19.1285182 -7.031846,0.02448 v 8.9088652 8.908865 l 7.031846,0.02448 7.031856,0.02448 V 15.553039 6.595211 Z M 49.911997,1.7371543 H 48.05744 v 1.8103554 1.8103585 h 1.854557 1.854554 V 3.5475097 1.7371543 Z M 44.811969,25.748211 h -1.906068 v 1.810358 1.810357 h 1.906068 1.906072 v -1.810357 -1.810358 z m 0,-24.0110567 h -1.906068 v 1.8103554 1.8103585 h 1.906068 1.906072 V 3.5475097 1.7371543 Z M 39.608918,25.748211 h -1.957584 v 1.810358 1.810357 h 1.957584 1.957578 v -1.810357 -1.810358 z m 0,-24.0110567 h -1.957584 v 1.8103554 1.8103585 h 1.957584 1.957578 V 3.5475097 1.7371543 Z M 34.457376,25.748211 H 32.49979 v 1.810358 1.810357 h 1.957586 1.957587 V 27.558569 25.748211 Z M 26.730061,6.5965336 H 17.04516 v 8.9565054 8.956507 h 9.684901 9.684902 V 15.553039 6.5965336 Z M 34.457376,1.7371543 H 32.49979 v 1.8103554 1.8103585 h 1.957586 1.957587 V 3.5475097 1.7371543 Z M 29.305833,25.748211 h -1.957587 v 1.810358 1.810357 h 1.957587 1.957587 v -1.810357 -1.810358 z m 0,-24.0110567 h -1.957587 v 1.8103554 1.8103585 h 1.957587 1.957587 V 3.5475097 1.7371543 Z M 24.15429,25.748211 h -1.957587 v 1.810358 1.810357 h 1.957587 1.957586 v -1.810357 -1.810358 z m 0,-24.0110567 h -1.957587 v 1.8103554 1.8103585 h 1.957587 1.957586 V 3.5475097 1.7371543 Z M 19.002747,25.748211 H 17.04516 v 1.810358 1.810357 h 1.957587 1.957586 v -1.810357 -1.810358 z m 0,-24.0110567 H 17.04516 v 1.8103554 1.8103585 h 1.957587 1.957586 V 3.5475097 1.7371543 Z M 13.851203,25.748211 h -1.957587 v 1.810358 1.810357 h 1.957587 1.957586 V 27.558569 25.748211 Z M 8.7254174,6.6196928 1.6935621,6.5952114 v 8.9571666 8.957168 h 6.988926 c 3.8439099,0 7.0200739,-0.02881 7.0581429,-0.06401 0.03807,-0.03521 0.05739,-4.054914 0.04293,-8.932686 L 15.757273,6.6441746 Z M 13.851203,1.7371543 h -1.957587 v 1.8103554 1.8103585 h 1.957587 1.957586 V 3.5475097 1.7371543 Z M 8.6481444,25.748211 H 6.7420733 v 1.810358 1.810357 h 1.9060711 1.9060716 v -1.810357 -1.810358 z m 0,-24.0110567 H 6.7420733 V 3.5475097 5.3578682 H 8.6481444 10.554216 V 3.5475097 1.7371543 Z M 3.5481172,25.748211 H 1.6935621 v 1.810358 1.810357 H 3.5481172 5.402672 v -1.810357 -1.810358 z m 0,-24.0110567 H 1.6935621 V 3.5475097 5.3578682 H 3.5481172 5.402672 V 3.5475097 1.7371543 Z"
       id="path1639" />
  </g>
</svg>
