<?xml version="1.0" encoding="UTF-8" standalone="no"?>
<!-- Created with Inkscape (http://www.inkscape.org/) -->

<svg
   width="100"
   height="100"
   viewBox="0 0 26.458333 26.458334"
   version="1.1"
   id="svg1456"
   inkscape:version="1.1.1 (3bf5ae0d25, 2021-09-20)"
   sodipodi:docname="send_plane_square.svg"
   xmlns:inkscape="http://www.inkscape.org/namespaces/inkscape"
   xmlns:sodipodi="http://sodipodi.sourceforge.net/DTD/sodipodi-0.dtd"
   xmlns="http://www.w3.org/2000/svg"
   xmlns:svg="http://www.w3.org/2000/svg">
  <sodipodi:namedview
     id="namedview1458"
     pagecolor="#ffffff"
     bordercolor="#666666"
     borderopacity="1.0"
     inkscape:pageshadow="2"
     inkscape:pageopacity="0.0"
     inkscape:pagecheckerboard="0"
     inkscape:document-units="mm"
     showgrid="false"
     units="px"
     inkscape:zoom="8.4561559"
     inkscape:cx="69.180371"
     inkscape:cy="62.912748"
     inkscape:window-width="2181"
     inkscape:window-height="1531"
     inkscape:window-x="2808"
     inkscape:window-y="294"
     inkscape:window-maximized="0"
     inkscape:current-layer="layer1" />
  <defs
     id="defs1453" />
  <g
     inkscape:label="Layer 1"
     inkscape:groupmode="layer"
     id="layer1">
    <path
       style="fill:#7300eb;fill-opacity:1;stroke-width:0.0516741"
       d="M 9.067206,20.849399 C 8.9791804,20.776278 8.9332773,20.610567 8.827467,19.983856 8.755482,19.557546 8.4574341,17.884383 8.165122,16.26572 L 7.6336436,13.322696 3.9458721,11.37668 C 1.917598,10.306373 0.21577427,9.3783942 0.16404156,9.3145069 0.00931571,9.1234285 0.07554361,8.8127443 0.2953052,8.6987214 0.44463199,8.6212477 25.869304,3.3706191 26.095142,3.3706191 c 0.211143,0 0.432001,0.1909442 0.432001,0.3734902 0,0.1971 -6.196361,16.9499007 -6.317179,17.0794507 -0.119433,0.128062 -0.339658,0.152014 -0.520124,0.05658 -0.06208,-0.03283 -1.234956,-0.788566 -2.606394,-1.679409 -1.37144,-0.890844 -2.505493,-1.619716 -2.52012,-1.619716 -0.01467,0 -1.159002,0.755734 -2.543058,1.679409 -2.6573228,1.773415 -2.7020414,1.797477 -2.953062,1.588981 z m 13.403619,-8.50941 c 1.463613,-3.9767607 2.661116,-7.2482465 2.661116,-7.2699687 0,-0.021721 -2.976954,2.1490248 -6.615454,4.8238805 -3.638497,2.6748572 -6.596609,4.8822192 -6.573577,4.9052492 0.02303,0.02303 1.773371,1.168009 3.889643,2.544395 l 3.847765,2.502521 0.0647,-0.137798 c 0.03558,-0.07579 1.262197,-3.391515 2.725812,-7.368276 z m -10.461702,5.877028 1.759088,-1.172589 -0.506114,-0.328119 c -1.599616,-1.037048 -1.880777,-1.214188 -1.89869,-1.196232 -0.02271,0.02276 -1.165294,3.783228 -1.165294,3.835209 0,0.01888 0.01171,0.03432 0.02596,0.03432 0.01436,0 0.817549,-0.527665 1.785049,-1.172587 z m -1.264256,-3.645325 c 0.02794,-0.04935 2.410291,-1.824528 5.294085,-3.94484 2.883796,-2.1203122 5.254891,-3.8682861 5.269101,-3.8843879 0.02964,-0.03358 -0.0401,0.00203 -7.324809,3.7336679 -4.1362395,2.118848 -5.4387023,2.808078 -5.4387023,2.87802 0,0.08989 0.8480273,4.849977 0.9095339,5.105317 0.022473,0.09326 0.1991464,-0.416698 0.6355434,-1.834432 0.332435,-1.079989 0.627297,-2.003995 0.655248,-2.053345 z m 4.710192,-5.8325142 c 4.057561,-2.07777 7.39582,-3.7948662 7.418355,-3.8157677 0.02253,-0.020893 -0.3844,0.05012 -0.904297,0.1578139 C 21.449218,5.1889223 16.71616,6.1671319 11.45121,7.2550169 6.1862633,8.3429011 1.8785771,9.2468184 1.8785771,9.2637222 c 0,0.039603 6.0509193,3.2441988 6.1354064,3.2493408 0.035025,0.0022 3.3835175,-1.696114 7.4410755,-3.7738852 z"
       id="path3268" />
  </g>
</svg>
