<?xml version="1.0" encoding="UTF-8" standalone="no"?>
<!-- Created with Inkscape (http://www.inkscape.org/) -->

<svg
   width="128mm"
   height="128mm"
   viewBox="0 0 128 128"
   version="1.1"
   id="svg5"
   inkscape:version="1.1.1 (3bf5ae0d25, 2021-09-20)"
   sodipodi:docname="trashcan_red.svg"
   xmlns:inkscape="http://www.inkscape.org/namespaces/inkscape"
   xmlns:sodipodi="http://sodipodi.sourceforge.net/DTD/sodipodi-0.dtd"
   xmlns="http://www.w3.org/2000/svg"
   xmlns:svg="http://www.w3.org/2000/svg">
  <sodipodi:namedview
     id="namedview7"
     pagecolor="#ffffff"
     bordercolor="#666666"
     borderopacity="1.0"
     inkscape:pageshadow="2"
     inkscape:pageopacity="0.0"
     inkscape:pagecheckerboard="0"
     inkscape:document-units="mm"
     showgrid="false"
     width="128mm"
     inkscape:zoom="0.65655864"
     inkscape:cx="-74.631567"
     inkscape:cy="561.25984"
     inkscape:window-width="1567"
     inkscape:window-height="1048"
     inkscape:window-x="3631"
     inkscape:window-y="689"
     inkscape:window-maximized="0"
     inkscape:current-layer="layer1" />
  <defs
     id="defs2" />
  <g
     inkscape:label="Layer 1"
     inkscape:groupmode="layer"
     id="layer1">
    <path
       style="fill:#ff0000;fill-opacity:1;stroke-width:0.225879"
       d="m 37.672614,117.26867 c -2.200163,-0.47425 -4.555372,-1.73693 -6.28673,-3.37045 -1.76433,-1.66463 -2.970943,-3.58875 -3.827146,-6.10291 L 26.94335,105.98827 26.88205,71.162323 26.82074,36.336372 25.978532,36.064108 c -3.334394,-1.077923 -6.096828,-4.456076 -6.66954,-8.156112 -0.770443,-4.977485 2.259973,-9.737992 7.268778,-11.418598 0.834606,-0.280035 2.612898,-0.370815 8.89253,-0.453963 l 7.849302,-0.103927 0.0018,-1.72862 c 0.0039,-3.961104 1.03497,-6.87952 3.192873,-9.037423 1.407065,-1.407164 3.827611,-2.66305 5.727549,-2.971753 0.766323,-0.124512 6.852178,-0.21907 14.004512,-0.217592 13.641046,0.0028 14.51591,0.06548 16.754857,1.200038 1.443118,0.731285 3.232651,2.351702 4.114077,3.725277 1.127925,1.757719 1.579127,3.401371 1.746439,6.361972 l 0.150824,2.66869 7.816625,0.09758 c 7.166632,0.08946 7.926292,0.136247 9.135502,0.562632 5.85,2.062786 8.66735,8.639511 6.0617,14.150191 -1.1359,2.402337 -3.49074,4.585493 -5.73677,5.31855 l -0.84087,0.274436 -0.0706,34.713458 c -0.0665,32.741486 -0.0938,34.790446 -0.47971,36.068726 -1.61875,5.36215 -5.476884,9.12633 -10.417209,10.16357 -2.297691,0.48241 -54.565935,0.47084 -56.808624,-0.0125 z m 57.422757,-5.92407 c 2.601264,-1.28069 4.213165,-3.58811 4.688542,-6.7116 0.16417,-1.07876 0.221217,-12.13155 0.17952,-34.785401 L 99.902333,36.64335 66.076939,36.58614 32.251524,36.52893 v 33.758567 c 0,24.134985 0.0724,34.099783 0.253974,34.955543 0.48609,2.29096 2.022516,4.58501 3.838601,5.73146 1.976732,1.24785 0.760187,1.20122 30.132978,1.15508 l 27.110361,-0.0426 z M 48.783572,99.99669 c -1.486192,-0.90612 -1.411713,0.65359 -1.345374,-28.174232 0.05649,-24.548325 0.08448,-26.179725 0.458618,-26.730288 0.755256,-1.111413 2.572193,-1.465739 3.706136,-0.722756 1.250459,0.819333 1.20357,-0.26623 1.20357,27.864997 0,28.826719 0.08928,27.126789 -1.463336,27.863549 -0.999041,0.47408 -1.658735,0.44798 -2.559614,-0.10127 z m 16.067052,0.0931 c -1.511703,-0.7455 -1.427778,0.89185 -1.427778,-27.855409 0,-28.131227 -0.04689,-27.045664 1.203571,-27.864997 1.133942,-0.742983 2.950879,-0.388657 3.706135,0.722756 0.374138,0.550563 0.402129,2.181963 0.458619,26.730288 0.06634,28.827822 0.140818,27.268112 -1.345375,28.174232 -0.893463,0.54473 -1.626139,0.57102 -2.595172,0.0931 z m 16.009668,-0.0135 c -1.488039,-0.73335 -1.40002,1.03049 -1.40002,-28.055631 V 45.597725 l 0.760779,-0.80666 c 0.664078,-0.704133 0.896634,-0.80666 1.829622,-0.80666 0.908694,0 1.180876,0.112034 1.816566,0.747725 0.533606,0.533601 0.788985,1.034889 0.891816,1.750562 0.07925,0.551557 0.113783,12.488796 0.07673,26.527191 -0.0657,24.894287 -0.07825,25.540447 -0.508815,26.176337 -0.445023,0.65725 -1.57422,1.27235 -2.318307,1.26285 -0.2214,-0.003 -0.738168,-0.17055 -1.148376,-0.37271 z M 103.42908,31.107646 c 2.46895,-0.461611 4.1105,-2.400058 4.08868,-4.828191 -0.017,-1.891076 -0.92178,-3.355859 -2.6461,-4.283837 l -0.90352,-0.486245 -37.157106,-0.06027 c -25.766301,-0.04176 -37.515211,0.01392 -38.325191,0.181729 -0.829464,0.171832 -1.465664,0.503949 -2.194722,1.14569 -3.029256,2.666457 -1.659674,7.538783 2.346324,8.34711 1.290093,0.260311 73.396235,0.244886 74.791645,-0.01598 z M 83.481362,13.660141 C 83.366927,11.111439 83.018326,10.081278 81.887685,8.950638 80.362605,7.425559 81.228513,7.504929 66.115751,7.504929 H 52.432412 l -1.105778,0.683613 c -0.684073,0.422897 -1.365573,1.103811 -1.786996,1.785444 -0.627393,1.014789 -0.68784,1.295397 -0.765066,3.551629 l -0.08385,2.449784 h 17.447299 17.447295 z"
       id="path1622" />
  </g>
</svg>
