<?xml version="1.0" encoding="UTF-8" standalone="no"?>
<!-- Created with Inkscape (http://www.inkscape.org/) -->

<svg
   width="128mm"
   height="128mm"
   viewBox="0 0 128 128"
   version="1.1"
   id="svg5"
   inkscape:version="1.1.1 (3bf5ae0d25, 2021-09-20)"
   sodipodi:docname="undo_trashcan.svg"
   xmlns:inkscape="http://www.inkscape.org/namespaces/inkscape"
   xmlns:sodipodi="http://sodipodi.sourceforge.net/DTD/sodipodi-0.dtd"
   xmlns="http://www.w3.org/2000/svg"
   xmlns:svg="http://www.w3.org/2000/svg">
  <sodipodi:namedview
     id="namedview7"
     pagecolor="#ffffff"
     bordercolor="#666666"
     borderopacity="1.0"
     inkscape:pageshadow="2"
     inkscape:pageopacity="0.0"
     inkscape:pagecheckerboard="0"
     inkscape:document-units="mm"
     showgrid="false"
     width="128mm"
     inkscape:zoom="2"
     inkscape:cx="289.5"
     inkscape:cy="288.75"
     inkscape:window-width="2179"
     inkscape:window-height="1496"
     inkscape:window-x="3103"
     inkscape:window-y="369"
     inkscape:window-maximized="0"
     inkscape:current-layer="layer1" />
  <defs
     id="defs2" />
  <g
     inkscape:label="Layer 1"
     inkscape:groupmode="layer"
     id="layer1">
    <path
       style="fill:#7300ed;fill-opacity:1;stroke-width:0.849581;stroke-miterlimit:6;stroke-dasharray:none"
       d="m 53.958583,125.91846 c -1.870806,-0.39518 -3.876092,-1.45964 -5.352686,-2.84133 -1.504714,-1.40801 -2.53653,-3.03841 -3.272722,-5.17131 l -0.52913,-1.53303 -0.17405,-29.586109 -0.174059,-29.586124 -0.0019,-3.66729 66.773574,-0.34456 0.0266,3.73571 0.0616,29.491022 c 0.0582,27.815721 0.0422,29.556501 -0.28121,30.643811 -1.35643,4.56109 -4.62092,7.77244 -8.81433,8.67093 -1.95031,0.41789 -46.354771,0.59112 -48.261736,0.18837 z m 48.762677,-5.23388 c 2.20542,-1.09712 3.56672,-3.06303 3.95964,-5.71825 0.1357,-0.91704 0.14545,-10.30712 0.0307,-29.552522 l -0.1682,-28.208411 -28.736518,0.0699 -28.736537,0.0699 0.118232,28.679544 c 0.08453,20.503849 0.180935,28.969169 0.338187,29.695549 0.420981,1.94458 1.734285,3.8881 3.281151,4.85572 1.683701,1.05317 0.650023,1.01783 25.603476,0.87575 l 23.031419,-0.13115 z m -39.383869,-9.47841 c -1.265766,-0.76459 -1.197028,0.56019 -1.241634,-23.930666 -0.03798,-20.855197 -0.01992,-22.241247 0.296002,-22.710287 0.637734,-0.94684 2.180069,-1.25422 3.146011,-0.62699 1.065195,0.69168 1.021559,-0.2304 1.120082,23.66845 0.100959,24.489693 0.170855,23.045203 -1.145588,23.676563 -0.847075,0.40625 -1.407608,0.38639 -2.174872,-0.077 z m 13.65007,0.0228 c -1.286877,-0.62804 -1.209844,0.76267 -1.310525,-23.659519 -0.09852,-23.898844 -0.13456,-22.976444 0.924901,-23.676884 0.960737,-0.63517 2.505554,-0.34052 3.151073,0.60103 0.319777,0.46642 0.34927,1.85228 0.483237,22.707078 0.157323,24.490395 0.215131,23.165095 -1.044289,23.940085 -0.757132,0.46592 -1.379484,0.49081 -2.204397,0.0882 z m 13.600944,-0.0676 c -1.26673,-0.6178 -1.185776,0.88036 -1.287644,-23.829714 l -0.09254,-22.447539 0.643494,-0.68796 c 0.561701,-0.60052 0.758909,-0.68844 1.551528,-0.6917 0.771979,-0.003 1.003604,0.091 1.54588,0.62886 0.455193,0.45145 0.673906,0.87643 0.763772,1.48407 0.06926,0.46829 0.140408,10.60944 0.158095,22.535867 0.03138,21.149136 0.02297,21.698126 -0.340586,22.239846 -0.375766,0.55992 -1.33292,1.08644 -1.965093,1.08098 -0.18807,-0.003 -0.627706,-0.14231 -0.976905,-0.31262 z"
       id="path1622"
       sodipodi:nodetypes="cssccccccccsccssscccsssscsssssssscssssscccscssssssccc" />
    <path
       d="m 63.785151,14.064401 -0.370756,-0.65421 c -1.467878,-2.590062 -1.256437,-6.2913371 0.510496,-8.9362514 2.376972,-3.55807297 7.008346,-4.79702004 11.108852,-2.9717464 0.683253,0.3041457 1.848471,1.2688239 5.826789,4.82398 l 4.972742,4.4438098 0.994158,-1.0808877 c 2.27781,-2.4770947 4.599602,-3.7115178 7.189839,-3.8226319 1.689026,-0.072511 3.925515,0.5318326 5.29205,1.4299879 0.551151,0.3622369 4.414729,3.7989397 8.890679,7.9083697 8.53649,7.837684 9.04819,8.379351 9.79788,10.375593 0.48321,1.286696 0.6725,3.328911 0.43518,4.694973 -0.30369,1.748107 -0.96544,3.036083 -2.56136,4.985295 l -1.43857,1.757026 4.83653,4.551181 c 4.43433,4.172737 4.88297,4.638368 5.39491,5.599853 2.47671,4.65155 0.46229,10.386433 -4.33413,12.338921 -2.09096,0.851178 -4.81897,0.86498 -6.6459,0.03362 l -0.68396,-0.311238 M 109.35214,56.236738 88.212974,36.770661 67.073796,17.304573 m 47.665664,37.493129 c 1.81052,1.129304 3.95151,0.858946 5.33265,-0.673405 1.07566,-1.19343 1.35074,-2.630005 0.80451,-4.201346 L 120.5904,49.099597 97.367613,27.717751 C 81.263958,12.890687 73.878073,6.1766432 73.274683,5.8164153 72.6568,5.4474999 72.06781,5.2899293 71.242845,5.2728112 67.815086,5.2017084 65.873529,9.0381276 67.91664,11.845236 c 0.657966,0.904 45.79958,42.314175 46.82285,42.952447 z m -2.46337,-22.379349 c 1.39243,-1.661025 1.76599,-2.506069 1.70777,-3.863233 -0.0785,-1.830629 0.41786,-1.283548 -9.04153,-9.964751 L 96.377642,10.730271 95.292821,10.52297 c -0.671097,-0.128253 -1.4888,-0.09353 -2.144126,0.09104 -0.975622,0.274785 -1.174647,0.415702 -2.519029,1.783564 l -1.459707,1.485202 10.920631,10.022225 10.92063,10.022226 z"
       style="fill:#7300ed;fill-opacity:1;stroke-width:0.849581;stroke-miterlimit:6;stroke-dasharray:none"
       id="path885" />
    <g
       id="g6209"
       transform="rotate(8.5107098,70.968539,105.8043)">
      <g
         id="g5290"
         transform="matrix(1.8950795,1.4525454,-1.4525454,1.8950795,9.0709364,-41.96903)"
         style="stroke-width:2.23813;stroke-miterlimit:10;stroke-dasharray:none">
        <line
           x1="21.676376"
           y1="9.0026665"
           x2="14.807124"
           y2="21.389778"
           fill="none"
           stroke="#7300eb"
           stroke-linecap="round"
           stroke-linejoin="round"
           stroke-width="1.05833"
           id="line6"
           style="stroke-width:2.23813;stroke-miterlimit:10;stroke-dasharray:none" />
        <line
           x1="28.429552"
           y1="25.270088"
           x2="14.807124"
           y2="21.389778"
           fill="none"
           stroke="#7300eb"
           stroke-linecap="round"
           stroke-linejoin="round"
           stroke-width="1.05833"
           id="line6-3"
           style="stroke-width:2.23813;stroke-miterlimit:10;stroke-dasharray:none" />
      </g>
      <path
         d="m 11.954162,21.634953 c 16.088328,-0.977655 31.181535,7.832388 38.24114,22.321685"
         fill="none"
         stroke="#7300eb"
         stroke-linecap="round"
         stroke-miterlimit="10"
         stroke-width="5.63269"
         id="path5498"
         sodipodi:nodetypes="cc"
         style="stroke-width:6.35;stroke-miterlimit:10;stroke-dasharray:none" />
    </g>
  </g>
</svg>
