<?xml version="1.0" encoding="UTF-8" standalone="no"?>
<svg
   xmlns:dc="http://purl.org/dc/elements/1.1/"
   xmlns:cc="http://creativecommons.org/ns#"
   xmlns:rdf="http://www.w3.org/1999/02/22-rdf-syntax-ns#"
   xmlns:svg="http://www.w3.org/2000/svg"
   xmlns="http://www.w3.org/2000/svg"
   xmlns:sodipodi="http://sodipodi.sourceforge.net/DTD/sodipodi-0.dtd"
   xmlns:inkscape="http://www.inkscape.org/namespaces/inkscape"
   viewBox="0 0 100 100"
   version="1.1"
   id="svg12"
   sodipodi:docname="AW-icon-history.svg"
   inkscape:version="1.0.2 (e86c870879, 2021-01-15)">
  <metadata
     id="metadata16">
    <rdf:RDF>
      <cc:Work
         rdf:about="">
        <dc:format>image/svg+xml</dc:format>
        <dc:type
           rdf:resource="http://purl.org/dc/dcmitype/StillImage" />
        <dc:title></dc:title>
      </cc:Work>
    </rdf:RDF>
  </metadata>
  <sodipodi:namedview
     pagecolor="#ffffff"
     bordercolor="#666666"
     borderopacity="1"
     objecttolerance="10"
     gridtolerance="10"
     guidetolerance="10"
     inkscape:pageopacity="0"
     inkscape:pageshadow="2"
     inkscape:window-width="2560"
     inkscape:window-height="990"
     id="namedview14"
     showgrid="false"
     inkscape:zoom="1.4654788"
     inkscape:cx="-146.67906"
     inkscape:cy="31.016856"
     inkscape:window-x="0"
     inkscape:window-y="30"
     inkscape:window-maximized="1"
     inkscape:current-layer="g32" />
  <defs
     id="defs4">
    <style
       id="style2">.c{fill:#fff;}.d{fill:none;stroke:#7300eb;stroke-linecap:round;stroke-linejoin:round;stroke-width:4px;}</style>
  </defs>
  <g
     id="a">
    <circle
       class="c"
       cx="50"
       cy="50"
       r="50"
       id="circle6" />
  </g>
  <g
     id="g32"
     transform="matrix(1.2390476,0,0,1.2171875,72.937186,-6.9517987)"
     style="stroke-width:0.999944;stroke-miterlimit:4;stroke-dasharray:none">
    <path
       d="M 0,0 H 48 V 48 H 0 Z"
       fill="none"
       id="path18"
       style="stroke-width:0.999944;stroke-miterlimit:4;stroke-dasharray:none" />
    <path
       d="m -16.091173,27.509924 c -9.95,0 -17.99,8.06 -17.99,18 h -6 l 7.79,7.79 0.14,0.29 8.07,-8.08 h -6 c 0,-7.73 6.27,-14 14,-14 7.73,0 14.0000004,6.27 14.0000004,14 0,7.73 -6.2700004,14 -14.0000004,14 -3.87,0 -7.36,-1.58 -9.89,-4.11 l -2.83,2.83 c 3.25,3.26 7.74,5.28 12.71,5.28 9.9500004,0 18.0100004,-8.06 18.0100004,-18 0,-9.94 -8.06,-18 -18.0100004,-18 z m -1.99,10 v 10 l 8.56,5.08 1.44,-2.43 -7,-4.15 v -8.5 z"
       opacity="0.9"
       id="path20"
       style="fill:#7300eb;fill-opacity:1;fill-rule:nonzero;stroke:none;stroke-width:0.999944;stroke-miterlimit:4;stroke-dasharray:none;stroke-opacity:1" />
  </g>
</svg>
