<?xml version="1.0" encoding="UTF-8" standalone="no"?>
<!-- Created with Inkscape (http://www.inkscape.org/) -->

<svg
   width="128mm"
   height="128mm"
   viewBox="0 0 128 128"
   version="1.1"
   id="svg5"
   inkscape:version="1.1.2 (0a00cf5339, 2022-02-04, custom)"
   sodipodi:docname="AW-icon-award.svg"
   xmlns:inkscape="http://www.inkscape.org/namespaces/inkscape"
   xmlns:sodipodi="http://sodipodi.sourceforge.net/DTD/sodipodi-0.dtd"
   xmlns="http://www.w3.org/2000/svg"
   xmlns:svg="http://www.w3.org/2000/svg">
  <sodipodi:namedview
     id="namedview7"
     pagecolor="#ffffff"
     bordercolor="#666666"
     borderopacity="1.0"
     inkscape:pageshadow="2"
     inkscape:pageopacity="0.0"
     inkscape:pagecheckerboard="0"
     inkscape:document-units="mm"
     showgrid="false"
     width="128mm"
     inkscape:zoom="0.65655864"
     inkscape:cx="-76.15466"
     inkscape:cy="561.25984"
     inkscape:window-width="2560"
     inkscape:window-height="1080"
     inkscape:window-x="0"
     inkscape:window-y="1080"
     inkscape:window-maximized="1"
     inkscape:current-layer="layer1" />
  <defs
     id="defs2" />
  <g
     inkscape:label="Layer 1"
     inkscape:groupmode="layer"
     id="layer1">
    <path
       style="fill:#7300ed;fill-opacity:1;stroke-width:0.201014"
       d="m 47.327769,114.68342 c -0.330591,-0.15489 -0.793336,-0.49773 -1.028326,-0.76186 -0.234993,-0.26414 -1.616691,-3.29323 -3.070441,-6.73131 -1.453751,-3.43809 -2.709618,-6.3292 -2.790815,-6.42471 -0.0812,-0.0955 -3.101931,0.8221 -6.712741,2.03909 -3.674053,1.23832 -6.88936,2.21121 -7.301431,2.20928 -0.914586,-0.004 -1.913473,-0.60203 -2.449934,-1.46606 -0.80883,-1.30271 -0.690934,-1.63609 5.488689,-15.520282 3.727223,-8.374225 5.657868,-12.934597 5.542969,-13.093037 -5.915122,-8.15692 -8.600614,-17.891964 -7.593574,-27.527094 1.351857,-12.934262 8.89172,-24.369417 20.171524,-30.59268 13.214394,-7.2906024 29.323926,-6.28226 41.583525,2.602842 11.266676,8.165484 17.544976,22.209985 16.072806,35.954695 -0.76902,7.179767 -3.17754,13.310743 -7.771268,19.781993 -0.117693,0.165806 1.729924,4.62332 5.447468,13.142381 6.07838,13.929102 6.19383,14.263322 5.37554,15.560082 -0.54259,0.85984 -1.54589,1.45048 -2.45979,1.44807 -0.41218,-7.6e-4 -3.61312,-0.9978 -7.280744,-2.26709 -3.615371,-1.2512 -6.613991,-2.18596 -6.698894,-2.08822 -0.08455,0.0973 -1.363875,2.98111 -2.842967,6.40845 -1.538493,3.56503 -2.912613,6.46957 -3.211241,6.78779 -1.053703,1.12285 -2.94021,1.20244 -4.057761,0.17119 -0.444445,-0.41014 -1.837295,-3.41407 -5.62692,-12.13551 l -5.036273,-11.590477 -4.895971,-0.01796 -4.895973,-0.01796 -5.170881,11.632087 c -4.421152,9.94553 -5.265484,11.70411 -5.823336,12.12889 -0.784906,0.59769 -2.118733,0.76305 -2.96324,0.36736 z m 4.682692,-18.031096 c 1.745716,-3.924672 3.216345,-7.237688 3.268045,-7.362247 0.05173,-0.124567 -0.159511,-0.290697 -0.469368,-0.369181 -1.199209,-0.303747 -5.25171,-2.006598 -6.844339,-2.875977 -2.28596,-1.247858 -4.610245,-2.824991 -6.637646,-4.503956 -0.935439,-0.774673 -1.729484,-1.380249 -1.764547,-1.345723 -0.115024,0.113257 -7.466502,16.684804 -7.425631,16.738708 0.02191,0.02891 2.168079,-0.665374 4.76924,-1.542874 2.601161,-0.877493 4.969637,-1.594573 5.263282,-1.593493 0.293648,7.61e-4 0.888654,0.18515 1.32224,0.409065 0.887853,0.458488 1.254244,1.145858 3.692475,6.927244 0.857613,2.03353 1.403032,3.09709 1.49994,2.92486 0.08375,-0.14886 1.580586,-3.48175 3.326309,-7.406426 z m 33.612334,3.423966 c 0.896081,-2.077452 1.817454,-4.110306 2.0475,-4.51744 0.475688,-0.841847 1.658333,-1.58887 2.508679,-1.584617 0.316116,0.0017 2.68653,0.735476 5.26758,1.630887 2.581052,0.895394 4.711126,1.605019 4.733506,1.576916 0.0224,-0.02808 -0.556977,-1.412288 -1.287447,-3.075979 -0.730462,-1.663691 -2.385818,-5.452581 -3.67855,-8.419739 l -2.350437,-5.394848 -0.731208,0.608023 c -4.479375,3.724764 -9.084613,6.358834 -13.657841,7.811929 -0.804301,0.255564 -1.423882,0.559395 -1.376857,0.675196 0.04706,0.115785 1.542371,3.552334 3.322984,7.636763 2.24759,5.155629 3.288741,7.335099 3.405164,7.128169 0.09224,-0.16393 0.900856,-1.9978 1.796927,-4.07526 z M 70.433358,84.348342 C 81.612669,82.896881 91.173856,76.019895 96.070164,65.908798 99.533653,58.756496 100.34034,50.726853 98.370931,43.00716 95.805887,32.952776 88.156626,24.206316 78.575402,20.372194 66.544493,15.557782 53.015037,18.183053 43.663569,27.146537 37.99165,32.583128 34.558047,39.30303 33.525353,46.988039 c -0.86641,6.447562 0.131028,12.77907 2.946294,18.702419 6.124325,12.885638 19.943966,20.477869 33.961711,18.657884 z M 54.509221,68.805885 c -0.810725,-0.371765 -1.646753,-1.402311 -1.789748,-2.206156 -0.06839,-0.384349 0.267507,-2.816778 0.823963,-5.967141 l 0.939379,-5.318297 -4.106557,-4.167002 c -4.270625,-4.333473 -4.262152,-4.321457 -4.118535,-5.841654 0.06997,-0.740683 0.553476,-1.544424 1.208284,-2.008564 0.468204,-0.331871 1.707623,-0.578574 6.067926,-1.207804 3.013747,-0.434914 5.496892,-0.81057 5.518106,-0.83479 0.02125,-0.0242 1.185089,-2.325273 2.586387,-5.113449 2.399256,-4.773813 2.594354,-5.093018 3.345794,-5.474127 1.010496,-0.512497 1.822374,-0.509523 2.829112,0.01037 0.748645,0.386604 0.941422,0.707229 3.30585,5.498496 1.380968,2.798367 2.529065,5.108903 2.551327,5.134523 0.02228,0.02565 2.495357,0.414227 5.495743,0.86358 4.422027,0.662256 5.569185,0.899005 6.056733,1.249969 0.666059,0.479473 1.144706,1.282243 1.209771,2.028982 0.132546,1.521225 0.141154,1.509203 -4.16179,5.812157 l -4.137624,4.137628 0.903101,5.395618 c 0.552244,3.299409 0.851394,5.627707 0.770015,5.993024 -0.306513,1.375994 -2.036186,2.558233 -3.349864,2.289652 -0.331994,-0.06788 -2.756235,-1.270408 -5.387196,-2.672299 l -4.783575,-2.548883 -4.83861,2.532937 c -5.012255,2.623837 -5.846181,2.913901 -6.937992,2.413235 z m 8.241997,-9.864543 c 1.897033,-0.987362 3.107902,-1.498631 3.545476,-1.497028 0.434447,0.0016 1.671328,0.529346 3.572447,1.524292 1.599362,0.837017 2.934058,1.49583 2.966002,1.464018 0.03198,-0.03177 -0.17722,-1.466198 -0.464798,-3.187526 -0.697198,-4.173193 -0.725541,-4.086929 2.302477,-7.008186 1.282941,-1.237706 2.302753,-2.273376 2.266257,-2.30149 -0.03653,-0.02814 -1.455824,-0.251316 -3.154056,-0.496028 -1.864508,-0.268666 -3.334206,-0.586666 -3.709975,-0.80272 -0.484224,-0.278418 -0.953816,-1.017448 -2.116686,-3.331159 -0.821917,-1.635351 -1.539557,-2.973533 -1.594747,-2.973736 -0.05522,-2.03e-4 -0.782553,1.332687 -1.616362,2.961972 -1.179676,2.305129 -1.654644,3.040698 -2.140883,3.31556 -0.37733,0.213297 -1.849297,0.520519 -3.715719,0.775518 -1.699969,0.232262 -3.117655,0.441859 -3.150419,0.46577 -0.03278,0.02392 0.980513,1.070522 2.251726,2.325789 2.959781,2.922639 2.950369,2.895119 2.298749,6.719839 -0.266007,1.561397 -0.525612,2.997472 -0.576889,3.191281 -0.0513,0.193809 -0.03708,0.35258 0.03164,0.352832 0.06865,2.52e-4 1.421266,-0.6743 3.005787,-1.498998 z"
       id="path21" />
  </g>
</svg>
