<svg xmlns="http://www.w3.org/2000/svg" width="100" height="100" viewBox="0 0 100 100"><circle cx="50" cy="50" r="50" fill="#fff"/><path d="M35.44755,70V26.3633H51.00127a18.08594,18.08594,0,0,1,8.417,1.74707,11.70617,11.70617,0,0,1,5.01758,4.82617A14.66278,14.66278,0,0,1,66.10771,40.043a14.10142,14.10142,0,0,1-1.99219,7.5957A11.50487,11.50487,0,0,1,58.097,52.33693L67.76982,70h-7.5L51.40654,53.48733h-9.375V70Zm6.584-22.18066h8.35254q4.81494,0,6.95605-2.04493a7.55047,7.55047,0,0,0,2.1416-5.73144,7.95419,7.95419,0,0,0-2.15234-5.87012q-2.15185-2.1621-7.03125-2.16308h-8.2666Z" fill="#7300eb"/></svg>