<svg xmlns="http://www.w3.org/2000/svg" width="100" height="100" viewBox="0 0 100 100">
    <circle cx="50" cy="50" r="50" style="fill: #fff;"/>
    <path d="M59.4637,29.3338c4.5103,5.2267,3.9292,13.1199-1.2976,17.63-12.9835,10.3338-28.4538-7.602-16.3322-18.9277,5.2267-4.51,13.1198-3.929,17.6298,1.2977h0Z" style="fill: none; stroke: #7300eb; stroke-dasharray: 0 0 0 7.1381; stroke-linecap: round; stroke-linejoin: round; stroke-width: 3.9676px;"/>
    <line x1="44.7645" y1="55.7161" x2="44.7645" y2="55.7161" style="fill: none; stroke: #7300eb; stroke-linecap: round; stroke-linejoin: round; stroke-width: 4px;"/>
    <path d="M37.991,56.9965c-5.4756,2.5264-7.3921,8.4351-7.864,14.5334" style="fill: none; stroke: #7300eb; stroke-dasharray: 0 0 0 6.9454; stroke-linecap: round; stroke-linejoin: round; stroke-width: 4px;"/>
    <line x1="29.9998" y1="75" x2="29.9998" y2="75" style="fill: none; stroke: #7300eb; stroke-linecap: round; stroke-linejoin: round; stroke-width: 4px;"/>
    <line x1="36.5882" y1="74.9798" x2="66.2352" y2="74.8891" style="fill: none; stroke: #7300eb; stroke-dasharray: 0 0 0 6.5882; stroke-linecap: round; stroke-linejoin: round; stroke-width: 4px;"/>
    <line x1="69.5291" y1="74.879" x2="69.5291" y2="74.879" style="fill: none; stroke: #7300eb; stroke-linecap: round; stroke-linejoin: round; stroke-width: 4px;"/>
    <path d="M68.96,67.964c-1.0876-5.8458-3.9829-10.9106-10.7324-12.1046" style="fill: none; stroke: #7300eb; stroke-dasharray: 0 0 0 6.9454; stroke-linecap: round; stroke-linejoin: round; stroke-width: 4px;"/>
    <line x1="54.7645" y1="55.595" x2="54.7645" y2="55.595" style="fill: none; stroke: #7300eb; stroke-linecap: round; stroke-linejoin: round; stroke-width: 4px;"/>
</svg>