<svg xmlns="http://www.w3.org/2000/svg" width="100" height="100" viewBox="0 0 100 100"><circle cx="50" cy="50" r="50" fill="#fff"/><path d="M69.65729,48.18166a26.17281,26.17281,0,0,1-2.55761,11.99609,18.6825,18.6825,0,0,1-6.999,7.72364A19.06179,19.06179,0,0,1,50.01179,70.5967a19.09781,19.09781,0,0,1-10.10938-2.69531,18.69123,18.69123,0,0,1-7-7.72364,26.18541,26.18541,0,0,1-2.55664-11.99609A26.16817,26.16817,0,0,1,32.90241,36.1758a18.71221,18.71221,0,0,1,7-7.71387,19.10673,19.10673,0,0,1,10.10938-2.69531,19.07071,19.07071,0,0,1,10.08886,2.69531,18.70345,18.70345,0,0,1,6.999,7.71387A26.15559,26.15559,0,0,1,69.65729,48.18166Zm-6.5205,0a21.05766,21.05766,0,0,0-1.71485-8.98047,12.7708,12.7708,0,0,0-4.6875-5.54,12.92424,12.92424,0,0,0-13.44433,0,12.76433,12.76433,0,0,0-4.6875,5.54,21.05711,21.05711,0,0,0-1.71582,8.98047,21.07484,21.07484,0,0,0,1.71582,8.9707,12.75373,12.75373,0,0,0,4.6875,5.54981,12.92424,12.92424,0,0,0,13.44433,0,12.76018,12.76018,0,0,0,4.6875-5.54981A21.07536,21.07536,0,0,0,63.13679,48.18166Z" fill="#7300eb"/></svg>