<svg xmlns="http://www.w3.org/2000/svg" width="100" height="100" viewBox="0 0 100 100">
    <circle cx="50" cy="50" r="50" style="fill: #fff;"/>
    <path d="M66.3733,50.2357c0-8.1012-5.7271-16.2024-15.6742-16.2024-14.1886,0-32.221,16.2024-32.221,16.2024,0,0,18.0324,16.2024,32.221,16.2024,9.9471,0,15.6743-8.1012,15.6743-16.2024" style="fill: none; stroke: #7300eb; stroke-linecap: round; stroke-linejoin: round; stroke-width: 4px;"/>
    <path d="M35.0248,50.2357c0,8.1012,5.7271,16.2024,15.6742,16.2024,14.1886,0,32.221-16.2024,32.221-16.2024,0,0-18.0324-16.2024-32.221-16.2024-9.9471,0-15.6743,8.1012-15.6743,16.2024" style="fill: none; stroke: #7300eb; stroke-linecap: round; stroke-linejoin: round; stroke-width: 4px;"/>
    <line x1="50.7123" y1="34.0333" x2="50.7123" y2="24.0333" style="fill: none; stroke: #7300eb; stroke-linecap: round; stroke-linejoin: round; stroke-width: 4px;"/>
    <line x1="18.4781" y1="50.2357" x2="15.0579" y2="40.8387" style="fill: none; stroke: #7300eb; stroke-linecap: round; stroke-linejoin: round; stroke-width: 4px;"/>
    <line x1="33.5317" y1="39.5092" x2="31.7953" y2="29.6611" style="fill: none; stroke: #7300eb; stroke-linecap: round; stroke-linejoin: round; stroke-width: 4px;"/>
    <line x1="82.9201" y1="50.2357" x2="86.3403" y2="40.8388" style="fill: none; stroke: #7300eb; stroke-linecap: round; stroke-linejoin: round; stroke-width: 4px;"/>
    <line x1="67.8796" y1="39.5092" x2="69.6161" y2="29.6611" style="fill: none; stroke: #7300eb; stroke-linecap: round; stroke-linejoin: round; stroke-width: 4px;"/>
</svg>