<svg xmlns="http://www.w3.org/2000/svg" width="100" height="100" viewBox="0 0 100 100"><circle cx="50" cy="50" r="50" fill="#fff"/><path d="M35.44807,70V26.36328H51.00178a18.08594,18.08594,0,0,1,8.417,1.74707,11.70617,11.70617,0,0,1,5.01758,4.82617A14.66267,14.66267,0,0,1,66.10822,40.043a14.1015,14.1015,0,0,1-1.99218,7.5957,11.50493,11.50493,0,0,1-6.01856,4.69824L67.77033,70h-7.5L51.40705,53.4873h-9.375V70Zm6.584-22.18066h8.35254q4.81494,0,6.95606-2.04493a7.5505,7.5505,0,0,0,2.1416-5.73144,7.9542,7.9542,0,0,0-2.15235-5.87012q-2.15186-2.1621-7.03125-2.16308h-8.2666Z" fill="#7300eb"/></svg>