<svg xmlns="http://www.w3.org/2000/svg" width="100" height="100" viewBox="0 0 100 100"><circle cx="50" cy="50" r="50" fill="#fff"/><path d="M49.27416,70H35.14721V26.3633H49.72143A21.97976,21.97976,0,0,1,60.7478,28.97365a17.43692,17.43692,0,0,1,7.05175,7.47852,25.59978,25.59978,0,0,1,2.46094,11.666,25.76025,25.76025,0,0,1-2.4707,11.71875,17.41851,17.41851,0,0,1-7.16992,7.53125A22.8821,22.8821,0,0,1,49.27416,70Zm-7.543-5.75293h7.18066q7.456,0,11.16406-4.18652,3.70752-4.18653,3.708-11.94239,0-7.71386-3.6543-11.85742-3.65478-4.144-10.81347-4.14453h-7.585Z" fill="#7300eb"/></svg>