<?xml version="1.0" encoding="UTF-8" standalone="no"?>
<svg
   xmlns:dc="http://purl.org/dc/elements/1.1/"
   xmlns:cc="http://creativecommons.org/ns#"
   xmlns:rdf="http://www.w3.org/1999/02/22-rdf-syntax-ns#"
   xmlns:svg="http://www.w3.org/2000/svg"
   xmlns="http://www.w3.org/2000/svg"
   xmlns:sodipodi="http://sodipodi.sourceforge.net/DTD/sodipodi-0.dtd"
   xmlns:inkscape="http://www.inkscape.org/namespaces/inkscape"
   viewBox="0 0 100 100"
   version="1.1"
   id="svg2235"
   sodipodi:docname="AW-icon-post.svg"
   inkscape:version="1.0.2 (e86c870879, 2021-01-15)">
  <metadata
     id="metadata2239">
    <rdf:RDF>
      <cc:Work
         rdf:about="">
        <dc:format>image/svg+xml</dc:format>
        <dc:type
           rdf:resource="http://purl.org/dc/dcmitype/StillImage" />
        <dc:title></dc:title>
      </cc:Work>
    </rdf:RDF>
  </metadata>
  <sodipodi:namedview
     pagecolor="#ffffff"
     bordercolor="#666666"
     borderopacity="1"
     objecttolerance="10"
     gridtolerance="10"
     guidetolerance="10"
     inkscape:pageopacity="0"
     inkscape:pageshadow="2"
     inkscape:window-width="2558"
     inkscape:window-height="1038"
     id="namedview2237"
     showgrid="false"
     inkscape:zoom="5.9326259"
     inkscape:cx="98.293674"
     inkscape:cy="25.249855"
     inkscape:window-x="0"
     inkscape:window-y="20"
     inkscape:window-maximized="1"
     inkscape:current-layer="svg2235" />
  <defs
     id="defs2227">
    <style
       id="style2225">.c{fill:#fff;}.d{fill:none;stroke:#7300eb;stroke-linecap:round;stroke-linejoin:round;stroke-width:4px;}</style>
  </defs>
  <g
     id="a">
    <circle
       class="c"
       cx="50"
       cy="50"
       r="50"
       id="circle2229" />
  </g>
  <g
     id="g2287"
     transform="matrix(1.2143432,0,0,1.3316189,-54.126934,49.265381)"
     style="fill:#7300eb;fill-opacity:1;stroke:none;stroke-opacity:1">
    <path
       style="fill:#7300eb;fill-opacity:1;stroke:none;stroke-width:0.224027;stroke-opacity:1"
       d="m 67.74302,13.047069 c -0.267082,-0.370724 -0.259487,-0.378991 0.08107,-0.08825 0.206667,0.176438 0.375757,0.360507 0.375757,0.409043 0,0.192376 -0.176323,0.06856 -0.456824,-0.320792 z M 64.433543,-0.45133 c 4.9e-5,-5.6564719 0.02806,-7.9370381 0.06224,-5.0679251 0.03418,2.8691142 0.03414,7.4971367 -8.9e-5,10.2844941 -0.03423,2.7873597 -0.0622,0.4399029 -0.06215,-5.216569 z m 42.514187,0 c 5e-5,-5.6564719 0.028,-7.9370381 0.0622,-5.0679251 0.0342,2.8691142 0.0341,7.4971367 -9e-5,10.2844941 -0.0342,2.7873597 -0.0622,0.4399029 -0.0621,-5.216569 z M 70.561743,8.9268292 c 0,-0.048536 0.169091,-0.2326049 0.375757,-0.4090424 0.340555,-0.2907403 0.348149,-0.282473 0.08107,0.08825 -0.280501,0.38935 -0.456825,0.5131682 -0.456825,0.3207921 z M 98.662425,6.7361291 c -0.267081,-0.3707233 -0.259487,-0.3789906 0.08107,-0.08825 0.206666,0.1764375 0.375757,0.3605066 0.375757,0.4090424 0,0.1923761 -0.176324,0.068558 -0.456826,-0.3207921 z M 76.231372,-3.1977575 c -0.409035,-0.5259116 -0.409035,-0.5259116 0.07408,-0.080642 0.454009,0.4184434 0.580864,0.6065538 0.409035,0.6065538 -0.04074,0 -0.258146,-0.2366603 -0.483116,-0.5259117 z m 18.700876,0.058435 c 0.21375,-0.2571124 0.436947,-0.467477 0.495994,-0.467477 0.05905,0 -0.06753,0.2103646 -0.281276,0.467477 -0.21375,0.2571123 -0.436947,0.467477 -0.495995,0.467477 -0.05905,0 0.06753,-0.2103647 0.281277,-0.467477 z m -16.124259,-0.525912 c -0.409035,-0.5259116 -0.409035,-0.5259116 0.07408,-0.080643 0.454009,0.4184439 0.580864,0.6065543 0.409035,0.6065543 -0.04074,0 -0.258146,-0.2366603 -0.483116,-0.5259117 z m 13.547642,0.058435 c 0.213749,-0.2571124 0.436947,-0.4674771 0.495994,-0.4674771 0.05905,0 -0.06753,0.2103647 -0.281276,0.4674771 -0.21375,0.2571123 -0.436947,0.467477 -0.495995,0.467477 -0.05905,0 0.06753,-0.2103647 0.281277,-0.467477 z M 67.55569,-13.745805 c 0,-0.04854 0.16909,-0.232606 0.375757,-0.409042 0.340554,-0.290741 0.348149,-0.282473 0.08107,0.08825 -0.280501,0.389349 -0.456824,0.513168 -0.456824,0.320793 z"
       id="path2301" />
    <path
       style="fill:#7300eb;fill-opacity:1;stroke:none;stroke-width:0.224027;stroke-opacity:1"
       d="m 69.917589,9.6280447 c 0,-0.048536 0.16909,-0.2326048 0.375757,-0.4090424 0.340555,-0.2907403 0.348149,-0.2824729 0.08107,0.08825 -0.280502,0.3893499 -0.456825,0.5131682 -0.456825,0.320792 z m 7.085697,-4.2072931 c 0,-0.048536 0.169091,-0.2326049 0.375757,-0.4090424 0.340555,-0.2907403 0.34815,-0.282473 0.08107,0.08825 -0.280501,0.38935 -0.456825,0.5131682 -0.456825,0.3207921 z m 6.957938,-0.4376613 c -0.409036,-0.5259117 -0.409036,-0.5259117 0.07408,-0.080642 0.454009,0.4184433 0.580864,0.6065537 0.409036,0.6065537 -0.04075,0 -0.258147,-0.2366602 -0.483116,-0.5259117 z m 3.241172,0.058435 c 0.21375,-0.2571124 0.436947,-0.467477 0.495995,-0.467477 0.05905,0 -0.06753,0.2103646 -0.281277,0.467477 -0.213749,0.2571124 -0.436947,0.467477 -0.495994,0.467477 -0.05905,0 0.06753,-0.2103646 0.281276,-0.467477 z m 8.02454,-1.8114734 c -0.267082,-0.3707233 -0.259487,-0.3789906 0.08107,-0.08825 0.206666,0.1764375 0.375756,0.3605066 0.375756,0.4090424 0,0.1923761 -0.176324,0.068558 -0.456825,-0.3207921 z M 79.888473,-2.4965419 79.257826,-3.2561921 79.95566,-2.569681 c 0.650479,0.6399246 0.79653,0.8327892 0.630647,0.8327892 -0.03695,0 -0.350978,-0.3418426 -0.697834,-0.7596501 z m 10.856772,0.686511 c 0,-0.040226 0.314025,-0.382069 0.697834,-0.7596501 l 0.697834,-0.6865111 -0.630647,0.7596502 c -0.587851,0.7081014 -0.765021,0.867088 -0.765021,0.686511 z M 75.3725,-4.1327115 c -0.409036,-0.5259116 -0.409036,-0.5259116 0.07408,-0.080643 0.45401,0.4184429 0.580864,0.6065543 0.409036,0.6065543 -0.04075,0 -0.258147,-0.2366603 -0.483116,-0.5259113 z m 20.41862,0.058435 c 0.21375,-0.2571123 0.436947,-0.467477 0.495995,-0.467477 0.05905,0 -0.06753,0.2103647 -0.281277,0.467477 -0.213749,0.2571124 -0.436947,0.4674771 -0.495994,0.4674771 -0.05905,0 0.06753,-0.2103647 0.281276,-0.4674771 z M 71.722292,-11.144867 c -0.409035,-0.525911 -0.409035,-0.525911 0.07408,-0.08064 0.45401,0.418443 0.580865,0.606554 0.409036,0.606554 -0.04074,0 -0.258147,-0.23666 -0.483116,-0.525912 z m 27.719036,0.05843 c 0.21375,-0.257112 0.436947,-0.467477 0.495995,-0.467477 0.05905,0 -0.06753,0.210365 -0.281277,0.467477 -0.21375,0.257112 -0.436947,0.467477 -0.495994,0.467477 -0.05905,0 0.06753,-0.210365 0.281276,-0.467477 z"
       id="path2299" />
    <path
       style="fill:#7300eb;fill-opacity:1;stroke:none;stroke-width:0.224027;stroke-opacity:1"
       d="m 95.87109,6.9698676 c -0.267081,-0.3707233 -0.259487,-0.3789906 0.08107,-0.08825 0.206666,0.1764375 0.375757,0.3605066 0.375757,0.4090424 0,0.1923761 -0.176325,0.068558 -0.456826,-0.3207921 z M 73.567797,5.8882286 c 0,-0.048536 0.16909,-0.2326049 0.375756,-0.4090424 0.340555,-0.2907403 0.34815,-0.2824729 0.08107,0.08825 -0.280501,0.38935 -0.456824,0.5131683 -0.456824,0.3207921 z m 4.079644,-1.1686925 c 0,-0.048536 0.16909,-0.2326049 0.375756,-0.4090424 0.340555,-0.2907403 0.34815,-0.282473 0.08107,0.08825 -0.280501,0.3893499 -0.456824,0.5131682 -0.456824,0.3207921 z m 5.454911,-0.6713998 c -0.409036,-0.5259117 -0.409036,-0.5259117 0.07408,-0.080642 0.454008,0.4184434 0.580864,0.6065538 0.409036,0.6065538 -0.04075,0 -0.258147,-0.2366602 -0.483116,-0.5259118 z m 4.958917,0.058435 c 0.213749,-0.2571124 0.436947,-0.467477 0.495994,-0.467477 0.05905,0 -0.06753,0.2103646 -0.281276,0.467477 -0.21375,0.2571123 -0.436947,0.467477 -0.495995,0.467477 -0.05905,0 0.06753,-0.2103647 0.281277,-0.467477 z M 91.576728,2.528836 c -0.267082,-0.3707233 -0.259487,-0.3789907 0.08107,-0.08825 0.357667,0.305349 0.471409,0.4972927 0.294688,0.4972927 -0.04459,0 -0.213677,-0.184069 -0.375757,-0.4090423 z M 77.647441,1.6809355 c 0,-0.048536 0.16909,-0.2326049 0.375756,-0.4090424 0.340555,-0.2907403 0.34815,-0.28247297 0.08107,0.08825 -0.280501,0.3893499 -0.456824,0.5131682 -0.456824,0.3207921 z m 3.307729,-3.0087849 c -0.409035,-0.5259116 -0.409035,-0.5259116 0.07408,-0.080642 0.454009,0.41844333 0.580864,0.60655374 0.409035,0.60655374 -0.04074,0 -0.258146,-0.23666024 -0.483116,-0.52591164 z m 9.25328,0.058435 c 0.213749,-0.2571123 0.436947,-0.467477 0.495994,-0.467477 0.05905,0 -0.06753,0.2103647 -0.281276,0.467477 -0.21375,0.2571124 -0.436947,0.46747704 -0.495995,0.46747704 -0.05905,0 0.06753,-0.21036464 0.281277,-0.46747704 z m -16.008058,-4.1488585 -0.739954,-0.8765194 0.805193,0.805502 c 0.749456,0.7497436 0.903917,0.9475368 0.739954,0.9475368 -0.03588,0 -0.398218,-0.3944337 -0.805193,-0.8765194 z m 22.771678,0.058435 c 0.400617,-0.4499467 0.776706,-0.8180848 0.835754,-0.8180848 0.05905,0 -0.220419,0.3681381 -0.621036,0.8180848 -0.400617,0.4499466 -0.776706,0.8180847 -0.835754,0.8180847 -0.05905,0 0.220419,-0.3681381 0.621036,-0.8180847 z m -24.169294,-4.6163355 -0.630647,-0.7596496 0.697834,0.686511 c 0.650479,0.6399245 0.796529,0.8327887 0.630646,0.8327887 -0.03695,0 -0.350978,-0.3418426 -0.697833,-0.7596501 z m 25.028166,0.6865112 c 0,-0.040226 0.314026,-0.3820689 0.697834,-0.7596498 l 0.697834,-0.686511 -0.630646,0.7596496 c -0.587851,0.7081002 -0.765022,0.8670885 -0.765022,0.6865112 z"
       id="path2297" />
    <path
       style="fill:#7300eb;fill-opacity:1;stroke:none;stroke-width:0.224027;stroke-opacity:1"
       d="m 78.468315,16.786967 c 4.053377,-0.03558 10.623751,-0.03556 14.60083,4.4e-5 3.97708,0.03561 0.660682,0.06472 -7.369775,0.06469 -8.030458,-2.3e-5 -11.284432,-0.02916 -7.231055,-0.06474 z m -0.107329,-2.103649 c 4.112441,-0.03553 10.779439,-0.03552 14.815548,4.4e-5 4.036112,0.03556 0.671387,0.06463 -7.477164,0.06461 -8.148552,-2.3e-5 -11.450825,-0.02912 -7.338384,-0.06465 z m 21.160312,-3.973634 c -0.267082,-0.370724 -0.259487,-0.378991 0.08107,-0.08825 0.206666,0.176438 0.375756,0.360507 0.375756,0.409043 0,0.192376 -0.176324,0.06856 -0.456825,-0.320792 z M 74.104592,8.313864 c 0.213749,-0.2571124 0.436946,-0.467477 0.495993,-0.467477 0.05905,0 -0.06753,0.2103646 -0.281275,0.467477 -0.213749,0.2571124 -0.436946,0.467477 -0.495993,0.467477 -0.05905,0 0.06753,-0.2103646 0.281275,-0.467477 z m 26.060858,0.058435 c -0.267079,-0.3707233 -0.259485,-0.3789906 0.0811,-0.08825 0.20667,0.1764375 0.37576,0.3605066 0.37576,0.4090424 0,0.1923761 -0.17633,0.068558 -0.45683,-0.3207921 z M 95.226936,6.2686521 c -0.267082,-0.3707233 -0.259487,-0.3789907 0.08107,-0.08825 0.206666,0.1764375 0.375756,0.3605065 0.375756,0.4090423 0,0.1923762 -0.176324,0.068558 -0.456825,-0.320792 z M 81.930244,2.7625745 81.190289,1.8860551 81.995482,2.6915577 c 0.442856,0.4430256 0.805193,0.8374594 0.805193,0.8765194 0,0.1784874 -0.181698,0.010355 -0.870431,-0.8055026 z m 7.311974,0.058435 c 0.400617,-0.4499466 0.776706,-0.8180848 0.835754,-0.8180848 0.05905,0 -0.220419,0.3681382 -0.621036,0.8180848 -0.400616,0.4499466 -0.776706,0.8180848 -0.835753,0.8180848 -0.05905,0 0.220418,-0.3681382 0.621035,-0.8180848 z m 1.690356,-0.9933887 c -0.267082,-0.3707233 -0.259487,-0.3789906 0.08107,-0.08825 0.357666,0.305349 0.471409,0.4972927 0.294687,0.4972927 -0.04459,0 -0.213676,-0.184069 -0.375756,-0.4090424 z m -9.118531,-2.22051577 c -0.409036,-0.52591164 -0.409036,-0.52591164 0.07408,-0.0806421 0.45401,0.41844335 0.580864,0.60655377 0.409036,0.60655377 -0.04074,0 -0.258147,-0.23666024 -0.483116,-0.52591167 z m 7.535534,0.0584346 c 0.21375,-0.25711235 0.436947,-0.46747701 0.495995,-0.46747701 0.05905,0 -0.06753,0.21036466 -0.281277,0.46747701 -0.213749,0.25711236 -0.436947,0.46747702 -0.495994,0.46747702 -0.05905,0 0.06753,-0.21036466 0.281276,-0.46747702 z M 73.010601,-6.7038351 c -0.409036,-0.5259116 -0.409036,-0.5259116 0.07408,-0.080642 0.45401,0.4184428 0.580864,0.6065542 0.409035,0.6065542 -0.04074,0 -0.258146,-0.2366603 -0.483115,-0.5259122 z m 25.142418,0.058435 c 0.21375,-0.2571124 0.436947,-0.467477 0.495995,-0.467477 0.05905,0 -0.06753,0.2103646 -0.281276,0.467477 -0.21375,0.2571123 -0.436948,0.467477 -0.495995,0.467477 -0.05905,0 0.06753,-0.2103647 0.281276,-0.467477 z m -24.172037,-2.045212 c -0.520544,-0.6427809 -0.520544,-0.6427809 0.06993,-0.076125 0.551888,0.529625 0.688942,0.7189062 0.520545,0.7189062 -0.03846,0 -0.304176,-0.2892514 -0.590475,-0.6427812 z m 23.205806,0.058435 c 0.277362,-0.3213905 0.552605,-0.5843463 0.611652,-0.5843463 0.05905,0 -0.119572,0.2629558 -0.396934,0.5843463 -0.277362,0.3213904 -0.552605,0.5843462 -0.611652,0.5843462 -0.05905,0 0.119572,-0.2629558 0.396934,-0.5843462 z M 78.360986,-15.702687 c 4.112441,-0.03554 10.779439,-0.03552 14.815548,4.3e-5 4.036112,0.03556 0.671387,0.06463 -7.477164,0.06461 -8.148552,-2.3e-5 -11.450825,-0.02912 -7.338384,-0.06465 z m 0.107329,-2.103644 c 4.053377,-0.03558 10.623751,-0.03556 14.60083,4.4e-5 3.97708,0.03561 0.660682,0.06472 -7.369775,0.06469 -8.030458,-2.4e-5 -11.284432,-0.02916 -7.231055,-0.06474 z"
       id="path2295" />
    <path
       style="fill:#7300eb;fill-opacity:1;stroke:none;stroke-width:0.224027;stroke-opacity:1"
       d="m 98.877143,10.008468 c -0.267081,-0.3707231 -0.259486,-0.3789905 0.08107,-0.08825 0.206666,0.176437 0.375757,0.360506 0.375757,0.409042 0,0.192376 -0.176324,0.06856 -0.456827,-0.320792 z m 1.932467,-0.9349539 c -0.26709,-0.3707232 -0.25949,-0.3789906 0.0811,-0.08825 0.20666,0.1764375 0.37575,0.3605066 0.37575,0.4090424 0,0.1923762 -0.17632,0.068558 -0.45682,-0.3207921 z M 96.729962,4.866221 c -0.267081,-0.3707233 -0.259487,-0.3789906 0.08107,-0.08825 0.206666,0.1764375 0.375757,0.3605066 0.375757,0.4090424 0,0.1923761 -0.176324,0.068558 -0.456826,-0.3207921 z M 78.506313,3.7845821 c 0,-0.048536 0.169091,-0.2326049 0.375757,-0.4090424 0.340555,-0.2907403 0.348149,-0.282473 0.08107,0.08825 -0.280501,0.3893499 -0.456825,0.5131682 -0.456825,0.3207921 z M 76.57385,2.849628 c 0,-0.048536 0.169091,-0.2326048 0.375757,-0.4090424 0.340555,-0.2907403 0.348149,-0.2824729 0.08107,0.08825 -0.280501,0.3893499 -0.456825,0.5131682 -0.456825,0.320792 z m 6.429984,-1.95696159 -0.739954,-0.8765194 0.805193,0.80550263 c 0.749456,0.74974196 0.903918,0.94753616 0.739955,0.94753616 -0.03588,0 -0.398219,-0.3944337 -0.805194,-0.87651939 z m 5.164794,0.0584346 c 0.400616,-0.44994663 0.776706,-0.81808477 0.835753,-0.81808477 0.05905,0 -0.220418,0.36813814 -0.621035,0.81808477 -0.400617,0.44994669 -0.776706,0.81808479 -0.835754,0.81808479 -0.05905,0 0.220419,-0.3681381 0.621036,-0.81808479 z m 4.48169,-0.29217313 c -0.267081,-0.3707233 -0.259486,-0.37899063 0.08107,-0.0882503 0.357667,0.30534897 0.47141,0.49729272 0.294688,0.49729272 -0.04459,0 -0.213677,-0.1840691 -0.375757,-0.40904241 z M 72.151728,-7.6387891 c -0.409035,-0.5259116 -0.409035,-0.5259116 0.07408,-0.080643 0.454009,0.4184429 0.580864,0.6065543 0.409035,0.6065543 -0.04074,0 -0.258146,-0.2366603 -0.483116,-0.5259117 z m 26.860164,0.058435 c 0.21375,-0.2571123 0.436947,-0.467477 0.495994,-0.467477 0.05905,0 -0.06753,0.2103647 -0.281276,0.467477 -0.21375,0.2571124 -0.436947,0.4674771 -0.495995,0.4674771 -0.05905,0 0.06753,-0.2103647 0.281277,-0.4674771 z M 74.828717,-7.7556583 c -0.267082,-0.3707224 -0.259487,-0.3789897 0.08107,-0.088249 0.206666,0.1764361 0.375757,0.3605052 0.375757,0.4090424 0,0.1923747 -0.176324,0.068556 -0.456825,-0.3207932 z m 21.28448,0.3207932 c 0,-0.048537 0.169091,-0.2326063 0.375757,-0.4090424 0.340556,-0.2907405 0.348151,-0.2824732 0.08107,0.088249 -0.280501,0.3893494 -0.456826,0.5131679 -0.456826,0.3207932 z"
       id="path2293" />
    <path
       style="fill:#7300eb;fill-opacity:1;stroke:none;stroke-width:0.224027;stroke-opacity:1"
       d="m 66.365824,-0.45133 c 5.1e-5,-5.5279157 0.02814,-7.7559245 0.06241,-4.9511309 0.03428,2.8047943 0.03423,7.3276344 -9.3e-5,10.0507558 -0.03433,2.7231214 -0.06237,0.4282908 -0.06232,-5.0996249 z m 38.649256,0 c 5e-5,-5.5279157 0.0281,-7.7559245 0.0624,-4.9511309 0.0343,2.8047943 0.0342,7.3276344 -9e-5,10.0507558 -0.0343,2.7231214 -0.0624,0.4282908 -0.0623,-5.0996249 z M 72.172129,7.37891 c 0.213749,-0.2571124 0.436946,-0.467477 0.495994,-0.467477 0.05905,0 -0.06753,0.2103646 -0.281276,0.467477 -0.213749,0.2571123 -0.436946,0.467477 -0.495993,0.467477 -0.05905,0 0.06753,-0.2103647 0.281275,-0.467477 z M 97.374117,5.5674365 c -0.267082,-0.3707232 -0.259487,-0.3789906 0.08107,-0.08825 0.357666,0.305349 0.471409,0.4972927 0.294687,0.4972927 -0.04459,0 -0.213676,-0.184069 -0.375756,-0.4090424 z m -3.220772,-0.467477 c -0.267081,-0.3707233 -0.259487,-0.3789906 0.08107,-0.08825 0.206666,0.1764375 0.375757,0.3605066 0.375757,0.4090424 0,0.1923761 -0.176325,0.068558 -0.456826,-0.3207921 z m -14.6808,-2.3958197 c 0.213748,-0.2571123 0.436946,-0.467477 0.495993,-0.467477 0.05905,0 -0.06753,0.2103647 -0.281275,0.467477 -0.213749,0.2571124 -0.436946,0.4674771 -0.495994,0.4674771 -0.05905,0 0.06753,-0.2103647 0.281276,-0.4674771 z M 84.28745,2.2950975 c -0.520543,-0.6427809 -0.520543,-0.6427809 0.06993,-0.076126 0.551888,0.5296257 0.688943,0.7189071 0.520544,0.7189071 -0.03846,0 -0.304174,-0.2892514 -0.590475,-0.6427808 z m 2.592869,0.058435 c 0.277362,-0.3213905 0.552605,-0.5843463 0.611652,-0.5843463 0.05905,0 -0.119572,0.2629558 -0.396934,0.5843463 -0.277362,0.3213904 -0.552605,0.5843462 -0.611652,0.5843462 -0.05905,0 0.119572,-0.2629558 0.396934,-0.5843462 z M 75.587218,-6.9375736 c -0.409036,-0.5259116 -0.409036,-0.5259116 0.07408,-0.080642 0.45401,0.4184428 0.580864,0.6065542 0.409036,0.6065542 -0.04075,0 -0.258147,-0.2366603 -0.483116,-0.5259122 z m 19.989184,0.058435 c 0.21375,-0.2571124 0.436947,-0.467477 0.495995,-0.467477 0.05905,0 -0.06753,0.2103646 -0.281277,0.467477 -0.213749,0.2571123 -0.436947,0.467477 -0.495994,0.467477 -0.05905,0 0.06753,-0.2103647 0.281276,-0.467477 z m -24.596781,-2.045212 -0.739955,-0.8765194 0.805193,0.805502 c 0.749456,0.7497436 0.903917,0.9475368 0.739954,0.9475368 -0.03588,0 -0.398217,-0.3944337 -0.805192,-0.8765194 z m 29.213219,0.058435 c 0.40062,-0.4499467 0.77671,-0.8180848 0.83576,-0.8180848 0.059,0 -0.22042,0.3681381 -0.62104,0.8180848 -0.40062,0.4499466 -0.776707,0.8180847 -0.835754,0.8180847 -0.05905,0 0.220419,-0.3681381 0.621034,-0.8180847 z"
       id="path2291" />
    <path
       style="fill:#7300eb;fill-opacity:1;stroke:none;stroke-width:0.224027;stroke-opacity:1"
       d="m 69.488153,16.512817 c -1.952087,-0.659442 -3.734289,-2.415054 -4.421951,-4.355976 -0.629423,-1.776544 -0.629423,-23.439797 0,-25.216342 0.519212,-1.465475 1.841885,-3.033867 3.232381,-3.832878 1.082211,-0.621862 1.082211,-0.621862 17.400787,-0.621862 18.42418,0 17.32013,-0.129595 19.35348,2.271741 1.70873,2.017962 1.68889,1.844268 1.68889,14.79117 0,12.946902 0.0198,12.773209 -1.68889,14.791169 -2.02818,2.395224 -0.96829,2.266408 -19.031403,2.31303 -8.798075,0.0227 -16.238057,-0.04032 -16.533294,-0.140052 z m 32.744507,-2.27565 c 1.00499,-0.59033 1.83084,-1.505956 2.39107,-2.650964 0.66773,-1.364734 0.61167,-22.830509 -0.0632,-24.191935 -0.5423,-1.094007 -1.38341,-1.993024 -2.43525,-2.602874 -1.16621,-0.676172 -31.685647,-0.676172 -32.851865,0 -1.051833,0.60985 -1.892951,1.508867 -2.435243,2.602874 -0.674852,1.361426 -0.730914,22.827201 -0.06318,24.191935 0.751001,1.534923 1.873977,2.557878 3.355907,3.057001 0.296002,0.0997 7.44674,0.162635 15.89053,0.139866 15.283961,-0.04121 15.356171,-0.04364 16.211211,-0.545903 z m -32.272127,-2.93145 c -0.61308,-0.667389 -0.24949,-1.287264 2.265276,-3.8620171 6.070873,-6.2156889 7.251315,-7.52514806 6.969652,-7.7314036 -0.875107,-0.64082216 -9.707308,-10.4742243 -9.707308,-10.8077103 0,-0.540703 0.522507,-0.979069 1.05544,-0.88548 0.239208,0.04201 1.669718,1.393212 3.178911,3.0026776 C 86.861615,5.03387 85.532746,3.7237703 86.107379,3.231725 c 0.285189,-0.2442029 3.624493,-3.74975696 7.420677,-7.7901229 3.796184,-4.0403655 7.095624,-7.3804891 7.332084,-7.4224961 0.52826,-0.09384 1.05045,0.346336 1.05045,0.88548 0,0.339347 -8.890637,10.22880781 -9.707313,10.79788627 -0.203033,0.14147725 -0.01885,0.45707098 0.689149,1.1809007 5.132602,5.24730323 9.018164,9.41015303 9.018164,9.66173803 0,0.477114 -0.65494,1.073643 -1.09252,0.995097 C 100.6009,11.501227 98.282099,9.260505 95.665167,6.5608252 93.048234,3.8611454 90.81456,1.6144205 90.701449,1.5681006 90.588335,1.521783 89.503071,2.5473107 88.289746,3.847051 87.076421,5.1467937 85.910753,6.2102174 85.69937,6.2102174 c -0.211384,0 -1.379843,-1.0664132 -2.596578,-2.3698092 L 80.890547,1.4705989 80.144295,2.145804 c -0.410439,0.3713637 -2.636244,2.6473737 -4.946234,5.0578021 -4.044075,4.2199099 -4.675218,4.7142319 -5.237528,4.1021109 z"
       id="path2289" />
  </g>
</svg>
