<svg xmlns="http://www.w3.org/2000/svg" width="810" height="110" viewBox="0 0 810 110"><circle cx="53" cy="53" r="50" fill="#7300eb"/><circle cx="154" cy="54" r="50" fill="#7300eb"/><circle cx="255" cy="55" r="50" fill="#7300eb"/><circle cx="357" cy="56" r="50" fill="#7300eb"/><circle cx="457" cy="57" r="50" fill="#7300eb"/><circle cx="558" cy="58" r="50" fill="#7300eb"/><circle cx="659" cy="59" r="50" fill="#7300eb"/><circle cx="760" cy="60" r="50" fill="#7300eb"/><circle cx="50" cy="50" r="50" fill="#fff"/><path d="M37.48291,70H30.49365L46.19678,26.36328h7.60644L69.50635,70H62.51807L58.53369,58.45215H41.48779Zm5.92285-17.08789h13.21L50.18115,34.29h-.34082Z" fill="#7300eb"/><circle cx="750" cy="50" r="50" fill="#fff"/><path d="M749.27416,70h-14.127V26.3633h14.57422a21.97976,21.97976,0,0,1,11.02637,2.61035,17.43692,17.43692,0,0,1,7.05175,7.47852,25.59978,25.59978,0,0,1,2.46094,11.666,25.76025,25.76025,0,0,1-2.4707,11.71875,17.41851,17.41851,0,0,1-7.16992,7.53125A22.8821,22.8821,0,0,1,749.27416,70Zm-7.543-5.75293h7.18066q7.456,0,11.16406-4.18652,3.70752-4.18653,3.708-11.94239,0-7.71386-3.6543-11.85742-3.65478-4.144-10.81347-4.14453h-7.585Z" fill="#7300eb"/><circle cx="650" cy="50" r="50" fill="#fff"/><path d="M637.8667,70V26.3633h6.584V64.33205h19.77246V70Z" fill="#7300eb"/><circle cx="550" cy="50" r="50" fill="#fff"/><path d="M535.44755,70V26.3633h15.55372a18.08594,18.08594,0,0,1,8.417,1.74707,11.70617,11.70617,0,0,1,5.01758,4.82617,14.66278,14.66278,0,0,1,1.67187,7.10645,14.10142,14.10142,0,0,1-1.99219,7.5957,11.50487,11.50487,0,0,1-6.01855,4.69824L567.76982,70h-7.5l-8.86328-16.51269h-9.375V70Zm6.584-22.18066h8.35254q4.81494,0,6.95605-2.04493a7.55047,7.55047,0,0,0,2.1416-5.73144,7.95419,7.95419,0,0,0-2.15234-5.87012q-2.15185-2.1621-7.03125-2.16308h-8.2666Z" fill="#7300eb"/><circle cx="450" cy="50" r="50" fill="#fff"/><path d="M469.65729,48.18166a26.17281,26.17281,0,0,1-2.55761,11.99609,18.6825,18.6825,0,0,1-6.999,7.72364,20.268,20.268,0,0,1-20.19824,0,18.69123,18.69123,0,0,1-7-7.72364,26.18541,26.18541,0,0,1-2.55664-11.99609,26.16817,26.16817,0,0,1,2.55664-12.00586,18.71221,18.71221,0,0,1,7-7.71387,20.268,20.268,0,0,1,20.19824,0,18.70345,18.70345,0,0,1,6.999,7.71387A26.15559,26.15559,0,0,1,469.65729,48.18166Zm-6.5205,0a21.05766,21.05766,0,0,0-1.71485-8.98047,12.7708,12.7708,0,0,0-4.6875-5.54,12.92424,12.92424,0,0,0-13.44433,0,12.76433,12.76433,0,0,0-4.6875,5.54,21.05711,21.05711,0,0,0-1.71582,8.98047,21.07484,21.07484,0,0,0,1.71582,8.9707,12.75373,12.75373,0,0,0,4.6875,5.54981,12.92424,12.92424,0,0,0,13.44433,0,12.76018,12.76018,0,0,0,4.6875-5.54981A21.07536,21.07536,0,0,0,463.13679,48.18166Z" fill="#7300eb"/><circle cx="350" cy="50" r="50" fill="#fff"/><path d="M333.99863,70,321.89609,26.3633h6.9248l8.502,33.793h.40429l8.84278-33.793h6.86035L362.273,60.17775h.4043l8.48047-33.81445h6.94629L365.98007,70h-6.626l-9.1836-32.68457h-.34082L340.64609,70Z" fill="#7300eb"/><circle cx="250" cy="50" r="50" fill="#fff"/><path d="M233.11491,32.03127v-5.668h33.77148v5.668H253.27115V70h-6.56249V32.03127Z" fill="#7300eb"/><circle cx="150" cy="50" r="50" fill="#fff"/><path d="M135.44807,70V26.36328h15.55371a18.08594,18.08594,0,0,1,8.417,1.74707,11.70617,11.70617,0,0,1,5.01758,4.82617,14.66267,14.66267,0,0,1,1.67187,7.10645,14.1015,14.1015,0,0,1-1.99218,7.5957,11.50493,11.50493,0,0,1-6.01856,4.69824L167.77033,70h-7.5l-8.86328-16.5127h-9.375V70Zm6.584-22.18066h8.35254q4.81494,0,6.95606-2.04493a7.5505,7.5505,0,0,0,2.1416-5.73144,7.9542,7.9542,0,0,0-2.15235-5.87012q-2.15186-2.1621-7.03125-2.16308h-8.2666Z" fill="#7300eb"/></svg>