<?xml version="1.0" encoding="iso-8859-1"?>
<!-- Generator: Adobe Illustrator 19.0.0, SVG Export Plug-In . SVG Version: 6.00 Build 0)  -->
<svg version="1.1" id="Layer_1" xmlns="http://www.w3.org/2000/svg" xmlns:xlink="http://www.w3.org/1999/xlink" x="0px" y="0px"
	 viewBox="0 0 512 512" style="enable-background:new 0 0 512 512;" xml:space="preserve">
<g>
	<g>
		<g>
			<path d="M511.997,255.863c-0.028-10.457-0.759-20.89-2.218-31.055c-1.902-13.361-14.312-22.747-27.575-20.724
				c-13.312,1.877-22.577,14.239-20.699,27.551c1.146,7.973,1.707,16.189,1.731,24.405c0,0.015,0.001,0.031,0.001,0.046
				c-0.051,94.206-76.447,170.572-170.665,170.572c-90.748,0-164.951-70.847-170.34-160.241l31.196,31.196
				c9.521,9.521,24.958,9.521,34.48,0s9.521-24.958,0-34.48l-73.143-73.143c-9.521-9.521-24.958-9.521-34.48,0L7.141,263.132
				c-9.521,9.521-9.521,24.958,0,34.48c9.521,9.521,24.959,9.521,34.48,0l31.753-31.753
				c5.163,116.6,101.325,209.561,219.197,209.561c121.18,0,219.429-98.248,219.429-219.429
				C512,255.948,511.997,255.906,511.997,255.863z"/>
			<path d="M399.65,123.066c11.093,8.972,21.041,19.285,29.598,30.671c4.779,6.363,12.117,9.752,19.505,9.752
				c5.096,0,10.216-1.585,14.629-4.901c10.752-8.07,12.922-23.357,4.852-34.133c-10.947-14.604-23.698-27.819-37.912-39.302
				c-10.533-8.46-25.844-6.851-34.328,3.633C387.557,99.27,389.191,114.606,399.65,123.066z"/>
			<path d="M133.191,140.913c4.681,4.389,10.654,6.558,16.628,6.558c6.51,0,13.019-2.609,17.822-7.778
				c9.728-10.435,20.748-19.627,32.67-27.307c11.337-7.266,14.604-22.382,7.314-33.695c-7.266-11.288-22.382-14.58-33.694-7.314
				c-15.336,9.874-29.452,21.675-41.96,35.084C122.78,116.312,123.341,131.745,133.191,140.913z"/>
			<path d="M280.33,85.763c14.287-1,28.696-0.244,42.545,2.243c1.463,0.268,2.901,0.39,4.34,0.39
				c11.581,0,21.845-8.265,23.966-20.065c2.389-13.239-6.412-25.917-19.675-28.306c-17.798-3.218-36.547-4.169-54.565-2.901
				c-13.434,0.951-23.552,12.605-22.626,26.014C255.242,76.571,267.115,86.641,280.33,85.763z"/>
		</g>
	</g>
</g>
<g>
</g>
<g>
</g>
<g>
</g>
<g>
</g>
<g>
</g>
<g>
</g>
<g>
</g>
<g>
</g>
<g>
</g>
<g>
</g>
<g>
</g>
<g>
</g>
<g>
</g>
<g>
</g>
<g>
</g>
</svg>
