<?xml version="1.0" encoding="UTF-8" standalone="no"?>
<svg
   xmlns:dc="http://purl.org/dc/elements/1.1/"
   xmlns:cc="http://creativecommons.org/ns#"
   xmlns:rdf="http://www.w3.org/1999/02/22-rdf-syntax-ns#"
   xmlns:svg="http://www.w3.org/2000/svg"
   xmlns="http://www.w3.org/2000/svg"
   id="svg2126"
   version="1.1"
   viewBox="0 0 132.29166 132.29167"
   height="500"
   width="500">
  <defs
     id="defs2120" />
  <metadata
     id="metadata2123">
    <rdf:RDF>
      <cc:Work
         rdf:about="">
        <dc:format>image/svg+xml</dc:format>
        <dc:type
           rdf:resource="http://purl.org/dc/dcmitype/StillImage" />
        <dc:title></dc:title>
      </cc:Work>
    </rdf:RDF>
  </metadata>
  <g
     transform="translate(0,-164.70832)"
     id="layer1">
    <path
       d="m 38.55346,225.9723 c 11.099099,10.10274 17.570249,21.91784 16.40061,42.12093 -1.169159,20.20308 21.241782,33.92962 44.856408,10.85341 23.615832,-23.07623 24.962462,-56.15206 17.156082,-74.0528 C 99.838063,165.60887 59.524106,167.30565 41.282101,181.42431 23.039962,195.54176 27.45423,215.86956 38.55346,225.9723"
       style="fill:#595cd4;fill-opacity:1;fill-rule:nonzero;stroke:none;stroke-width:0.01199139"
       id="path542" />
    <path
       d="m 24.808935,201.63458 0.08562,0.0852 c 0.148451,0.14631 0.148568,0.38493 8.8e-5,0.53122 l -3.47606,3.44393 c -0.148457,0.14629 -0.389004,0.14629 -0.537455,0 -0.01114,-0.0114 -0.02291,-0.0216 -0.03535,-0.0311 l -0.365376,-0.26502 0.04655,-0.0551 3.744795,-3.70894 c 0.148327,-0.14629 0.388881,-0.14629 0.537216,0"
       style="fill:#3cabdc;fill-opacity:1;fill-rule:nonzero;stroke:none;stroke-width:0.01199139"
       id="path544" />
    <path
       d="m 30.159009,199.41857 0.08537,0.0839 c 0.148457,0.14629 0.148698,0.38493 0,0.53242 l -12.17281,12.06334 c -0.148335,0.14629 -0.388882,0.14629 -0.537333,0 l -0.08538,-0.0852 c -0.148574,-0.14629 -0.14869,-0.38492 0,-0.53122 l 12.173051,-12.06333 c 0.148334,-0.14748 0.38888,-0.14748 0.537215,0"
       style="fill:#3cabdc;fill-opacity:1;fill-rule:nonzero;stroke:none;stroke-width:0.01199139"
       id="path546" />
    <path
       d="m 33.269693,199.41977 0.08538,0.0851 c 0.148573,0.14631 0.14869,0.38493 0,0.53123 l -16.344859,16.19797 c -0.148211,0.14748 -0.388756,0.14748 -0.537331,0 l -0.08538,-0.0839 c -0.148451,-0.14629 -0.148575,-0.38491 0,-0.53121 L 32.732237,199.421 c 0.148334,-0.14749 0.388764,-0.14749 0.537339,-0.001"
       style="fill:#3cabdc;fill-opacity:1;fill-rule:nonzero;stroke:none;stroke-width:0.01199139"
       id="path548" />
    <path
       d="m 35.779493,200.01814 0.08537,0.0839 c 0.148459,0.1475 0.1487,0.38492 0,0.53242 l -19.29929,19.12506 c -0.148211,0.14749 -0.388641,0.14749 -0.537092,0.001 l -0.08538,-0.0852 c -0.148568,-0.14629 -0.148692,-0.38493 0,-0.53122 l 19.299063,-19.12617 c 0.148328,-0.14629 0.388757,-0.14629 0.537332,0"
       style="fill:#3cabdc;fill-opacity:1;fill-rule:nonzero;stroke:none;stroke-width:0.01199139"
       id="path550" />
    <path
       d="m 37.963599,200.93908 0.08538,0.0839 c 0.148334,0.14751 0.148575,0.38493 0,0.53243 l -21.599957,21.40462 c -0.148335,0.1475 -0.388765,0.1475 -0.537341,0.001 l -0.08537,-0.0852 c -0.148334,-0.14629 -0.148698,-0.38492 0,-0.53121 l 21.600082,-21.406 c 0.14821,-0.14629 0.388756,-0.14749 0.537331,0"
       style="fill:#3cabdc;fill-opacity:1;fill-rule:nonzero;stroke:none;stroke-width:0.01199139"
       id="path552" />
    <path
       d="m 39.933784,202.07107 0.0855,0.0852 c 0.148575,0.14629 0.148698,0.38491 0,0.5312 l -23.469055,23.25729 c -0.148211,0.14751 -0.388758,0.14751 -0.537332,0.001 l -0.08538,-0.0852 c -0.148335,-0.14629 -0.148691,-0.38491 0,-0.5312 L 39.396696,202.0707 c 0.148095,-0.14629 0.388641,-0.14629 0.537092,0"
       style="fill:#3cabdc;fill-opacity:1;fill-rule:nonzero;stroke:none;stroke-width:0.01199139"
       id="path554" />
    <path
       d="m 41.752397,203.35655 0.08551,0.0839 c 0.148451,0.14749 0.148567,0.38492 0,0.5324 l -25.023503,24.7982 c -0.148218,0.14629 -0.388763,0.14629 -0.537098,0 l -0.08561,-0.0839 c -0.148451,-0.1475 -0.148451,-0.38493 0,-0.53242 l 25.023377,-24.79818 c 0.148212,-0.14629 0.388758,-0.1475 0.537216,0"
       style="fill:#3cabdc;fill-opacity:1;fill-rule:nonzero;stroke:none;stroke-width:0.01199139"
       id="path556" />
    <path
       d="m 43.44762,204.76313 0.08538,0.0852 c 0.148449,0.14629 0.14869,0.38491 0,0.53122 L 17.20184,231.474 c -0.148334,0.1463 -0.389004,0.14751 -0.537331,0 l -0.08538,-0.0839 c -0.148574,-0.1463 -0.14869,-0.38494 0,-0.53123 l 26.331278,-26.09449 c 0.14821,-0.1475 0.388641,-0.1475 0.537215,-10e-4"
       style="fill:#3cabdc;fill-opacity:1;fill-rule:nonzero;stroke:none;stroke-width:0.01199139"
       id="path558" />
    <path
       d="m 45.043677,206.26685 0.08549,0.0839 c 0.148329,0.1475 0.148451,0.38493 0,0.53242 l -27.438564,27.19166 c -0.148335,0.14629 -0.388765,0.14629 -0.537332,0 l -0.08538,-0.0839 c -0.148334,-0.14749 -0.148574,-0.38492 0,-0.53241 l 27.438444,-27.19167 c 0.148334,-0.14629 0.388765,-0.14629 0.537216,0"
       style="fill:#3cabdc;fill-opacity:1;fill-rule:nonzero;stroke:none;stroke-width:0.01199139"
       id="path560" />
    <path
       d="m 46.558542,207.85092 0.08538,0.0839 c 0.148457,0.14751 0.14869,0.38493 0,0.53242 L 18.26955,236.58589 c -0.148088,0.14629 -0.388518,0.14629 -0.537092,0 l -0.08538,-0.0839 c -0.148568,-0.14629 -0.148692,-0.38492 0,-0.53241 l 28.37425,-28.11859 c 0.148094,-0.14631 0.388649,-0.14751 0.537215,0"
       style="fill:#3cabdc;fill-opacity:1;fill-rule:nonzero;stroke:none;stroke-width:0.01199139"
       id="path562" />
    <path
       d="m 48.002788,209.50453 0.08538,0.0839 c 0.148567,0.1475 0.148691,0.38493 0,0.53243 L 18.92584,239.02009 c -0.148334,0.14749 -0.38888,0.14749 -0.537215,10e-4 l -0.08538,-0.0851 c -0.148567,-0.14631 -0.148691,-0.38493 0,-0.53122 l 29.162327,-28.90044 c 0.148212,-0.14629 0.388765,-0.14629 0.537216,0"
       style="fill:#3cabdc;fill-opacity:1;fill-rule:nonzero;stroke:none;stroke-width:0.01199139"
       id="path564" />
    <path
       d="m 49.387432,211.2169 0.0855,0.0851 c 0.148457,0.1463 0.14869,0.38372 0,0.53123 L 19.676499,241.362 c -0.14821,0.14631 -0.388757,0.14631 -0.537092,0 l -0.0855,-0.0839 c -0.148452,-0.14749 -0.148576,-0.38492 0,-0.53241 L 48.85034,211.21685 c 0.148327,-0.14629 0.388756,-0.14629 0.537091,0"
       style="fill:#3cabdc;fill-opacity:1;fill-rule:nonzero;stroke:none;stroke-width:0.01199139"
       id="path566" />
    <path
       d="m 50.715002,212.98683 0.0855,0.0839 c 0.148451,0.14749 0.148567,0.38492 0,0.5324 l -30.280761,30.00846 c -0.148218,0.14629 -0.388764,0.14629 -0.537099,0 l -0.08561,-0.0852 c -0.148335,-0.14629 -0.148575,-0.38372 0,-0.53122 L 50.17779,212.98676 c 0.148328,-0.1463 0.388757,-0.14749 0.537092,0"
       style="fill:#3cabdc;fill-opacity:1;fill-rule:nonzero;stroke:none;stroke-width:0.01199139"
       id="path568" />
    <path
       d="m 51.994362,214.80352 0.08537,0.0852 c 0.148335,0.14629 0.148451,0.38491 0,0.53122 l -30.637744,30.36218 c -0.148094,0.14629 -0.38864,0.14629 -0.537215,0 l -0.0855,-0.0839 c -0.14821,-0.14629 -0.148575,-0.38491 0,-0.53241 l 30.637743,-30.36099 c 0.148212,-0.1475 0.388765,-0.1475 0.537339,-0.001"
       style="fill:#3cabdc;fill-opacity:1;fill-rule:nonzero;stroke:none;stroke-width:0.01199139"
       id="path570" />
    <path
       d="m 53.229109,216.66458 0.08538,0.0852 c 0.148574,0.1463 0.148691,0.38493 0,0.53122 l -30.879373,30.60201 c -0.148327,0.1475 -0.388874,0.1475 -0.537209,0 l -0.08551,-0.0839 c -0.148452,-0.14629 -0.148568,-0.38492 0,-0.5324 l 30.8795,-30.60089 c 0.14821,-0.14749 0.388641,-0.14749 0.537092,-0.001"
       style="fill:#3cabdc;fill-opacity:1;fill-rule:nonzero;stroke:none;stroke-width:0.01199139"
       id="path572" />
    <path
       d="m 54.4225,218.56762 0.0855,0.0839 c 0.148459,0.14749 0.148575,0.38491 0,0.53242 l -31.011632,30.7327 c -0.148335,0.14631 -0.38888,0.14751 -0.537339,0 l -0.0855,-0.0839 c -0.148335,-0.1475 -0.148451,-0.38492 0,-0.53242 l 31.01164,-30.73271 c 0.148333,-0.14631 0.388639,-0.14631 0.537215,0"
       style="fill:#3cabdc;fill-opacity:1;fill-rule:nonzero;stroke:none;stroke-width:0.01199139"
       id="path574" />
    <path
       d="m 55.675352,220.41548 0.08526,0.0839 c 0.148574,0.14748 0.148698,0.38492 0,0.53241 L 24.61671,251.89525 c -0.148334,0.1475 -0.388765,0.1475 -0.537339,0 l -0.08537,-0.0839 c -0.148451,-0.1463 -0.148574,-0.38492 0,-0.53243 L 55.137782,220.4155 c 0.148334,-0.14629 0.388881,-0.14629 0.537455,0"
       style="fill:#3cabdc;fill-opacity:1;fill-rule:nonzero;stroke:none;stroke-width:0.01199139"
       id="path576" />
    <path
       d="m 57.132662,222.05591 0.08538,0.0852 c 0.148574,0.14629 0.148698,0.38373 0,0.53122 l -31.425698,31.14283 c -0.14821,0.14749 -0.388757,0.14749 -0.537092,0 l -0.08551,-0.0839 c -0.148568,-0.14629 -0.148692,-0.38492 0,-0.53121 l 31.425463,-31.14282 c 0.148211,-0.1475 0.388757,-0.1475 0.537215,-0.001"
       style="fill:#3cabdc;fill-opacity:1;fill-rule:nonzero;stroke:none;stroke-width:0.01199139"
       id="path578" />
    <path
       d="m 58.792516,223.49608 0.08537,0.0851 c 0.148698,0.1463 0.148815,0.38372 0,0.53122 l -31.857025,31.5697 c -0.148218,0.1475 -0.388765,0.1475 -0.537216,0.001 l -0.0855,-0.0852 c -0.148335,-0.1463 -0.148574,-0.38492 0,-0.53122 l 31.857032,-31.57091 c 0.148088,-0.1463 0.388633,-0.1463 0.537092,0"
       style="fill:#3cabdc;fill-opacity:1;fill-rule:nonzero;stroke:none;stroke-width:0.01199139"
       id="path580" />
    <path
       d="m 60.657294,224.73239 0.0855,0.0852 c 0.148574,0.14629 0.148698,0.38493 0,0.53122 L 28.299861,257.5001 c -0.148094,0.14749 -0.388641,0.14749 -0.537215,0 l -0.08537,-0.0839 c -0.148451,-0.14629 -0.148574,-0.38491 0,-0.53122 l 32.442929,-32.15129 c 0.148211,-0.14749 0.388997,-0.14749 0.537207,-0.001"
       style="fill:#3cabdc;fill-opacity:1;fill-rule:nonzero;stroke:none;stroke-width:0.01199139"
       id="path582" />
    <path
       d="m 62.72017,225.77324 0.08551,0.0852 c 0.148567,0.14629 0.148567,0.38493 0,0.53122 l -33.175846,32.87791 c -0.148218,0.14629 -0.388765,0.14629 -0.537216,0 l -0.08551,-0.0839 c -0.148327,-0.14749 -0.148566,-0.38492 0,-0.53242 l 33.175727,-32.87677 c 0.148211,-0.14749 0.388641,-0.14749 0.537215,-0.001"
       style="fill:#3cabdc;fill-opacity:1;fill-rule:nonzero;stroke:none;stroke-width:0.01199139"
       id="path584" />
    <path
       d="m 64.974555,226.62463 0.08537,0.0852 c 0.148457,0.14629 0.148814,0.38372 0,0.53122 l -34.049774,33.74374 c -0.148335,0.14631 -0.388641,0.14631 -0.537215,0 l -0.0855,-0.0839 c -0.148212,-0.14749 -0.148567,-0.38492 0,-0.53241 L 64.4371,226.62463 c 0.14821,-0.1463 0.388757,-0.1463 0.537208,0"
       style="fill:#3cabdc;fill-opacity:1;fill-rule:nonzero;stroke:none;stroke-width:0.01199139"
       id="path586" />
    <path
       d="m 67.416121,227.29015 0.08561,0.0852 c 0.148334,0.14629 0.148575,0.38373 8.7e-5,0.53122 l -35.06469,34.74863 c -0.148335,0.14749 -0.38888,0.14749 -0.537331,7.2e-4 l -0.08538,-0.0852 c -0.14845,-0.1463 -0.148574,-0.38492 0,-0.53121 l 35.064967,-34.74845 c 0.148088,-0.1475 0.388641,-0.1475 0.537092,-10e-4"
       style="fill:#3cabdc;fill-opacity:1;fill-rule:nonzero;stroke:none;stroke-width:0.01199139"
       id="path588" />
    <path
       d="m 70.03384,227.7806 0.08561,0.0852 c 0.148335,0.14629 0.148335,0.38493 0,0.53121 l -36.205225,35.87943 c -0.148212,0.14748 -0.388641,0.14748 -0.537216,7.2e-4 l -0.08537,-0.0851 c -0.148576,-0.14631 -0.148576,-0.38493 0,-0.53124 L 69.49698,227.78159 c 0.148094,-0.1475 0.388764,-0.1475 0.537098,-0.001"
       style="fill:#3cabdc;fill-opacity:1;fill-rule:nonzero;stroke:none;stroke-width:0.01199139"
       id="path590" />
    <path
       d="m 72.823512,228.10196 0.08526,0.0839 c 0.148335,0.14748 0.148575,0.38491 0,0.53242 l -37.469113,37.13131 c -0.148334,0.14749 -0.38888,0.14749 -0.537339,0 l -0.08537,-0.0839 c -0.14845,-0.14629 -0.148698,-0.38492 0,-0.53122 l 37.469113,-37.13252 c 0.148459,-0.1463 0.388758,-0.1463 0.537456,0"
       style="fill:#3cabdc;fill-opacity:1;fill-rule:nonzero;stroke:none;stroke-width:0.01199139"
       id="path592" />
    <path
       d="m 75.766555,228.27224 0.08514,0.0839 c 0.148698,0.14749 0.148698,0.38493 0.0014,0.53242 L 37.01668,267.3749 c -0.148327,0.14631 -0.388874,0.1475 -0.537332,0 l -0.08538,-0.0839 c -0.148452,-0.1475 -0.148567,-0.38494 0,-0.53242 L 75.22986,228.27223 c 0.148451,-0.14629 0.388401,-0.14629 0.537092,0"
       style="fill:#3cabdc;fill-opacity:1;fill-rule:nonzero;stroke:none;stroke-width:0.01199139"
       id="path594" />
    <path
       d="m 78.849543,228.30463 0.08514,0.0851 c 0.148691,0.14631 0.148691,0.38373 0,0.53122 l -40.291288,39.92891 c -0.148335,0.14631 -0.388641,0.1475 -0.537216,0 l -0.0855,-0.0839 c -0.148459,-0.14748 -0.148691,-0.38491 0,-0.53122 L 78.31137,228.30458 c 0.148698,-0.14631 0.389725,-0.14631 0.538415,0"
       style="fill:#3cabdc;fill-opacity:1;fill-rule:nonzero;stroke:none;stroke-width:0.01199139"
       id="path596" />
    <path
       d="m 82.034455,228.23268 0.08514,0.0839 c 0.148692,0.14748 0.148692,0.38491 0.0014,0.5324 l -41.797466,41.42065 c -0.148334,0.14748 -0.388881,0.14748 -0.537215,7.2e-4 l -0.0855,-0.0851 c -0.148451,-0.14631 -0.148451,-0.38493 0,-0.53122 l 41.796762,-41.42171 c 0.14869,-0.14631 0.388524,-0.14631 0.537215,0"
       style="fill:#3cabdc;fill-opacity:1;fill-rule:nonzero;stroke:none;stroke-width:0.01199139"
       id="path598" />
    <path
       d="m 85.288917,228.09356 0.08513,0.0839 c 0.148698,0.14629 0.148698,0.38492 0,0.53122 L 42.05578,271.63789 c -0.14821,0.14748 -0.388757,0.14748 -0.537214,0 l -0.08537,-0.0839 c -0.148457,-0.14631 -0.148574,-0.38493 0,-0.53243 L 84.751948,228.0936 c 0.14749,-0.14748 0.388517,-0.14748 0.537215,0"
       style="fill:#3cabdc;fill-opacity:1;fill-rule:nonzero;stroke:none;stroke-width:0.01199139"
       id="path600" />
    <path
       d="m 88.443851,228.05161 0.08513,0.0852 c 0.148698,0.14628 0.148698,0.38371 0,0.53121 l -44.683246,44.28179 c -0.148342,0.14629 -0.388887,0.14749 -0.537339,0 l -0.08538,-0.0839 c -0.148568,-0.14749 -0.148692,-0.38493 0,-0.53242 L 87.90711,228.05167 c 0.14749,-0.1463 0.388517,-0.1463 0.537215,0"
       style="fill:#3cabdc;fill-opacity:1;fill-rule:nonzero;stroke:none;stroke-width:0.01199139"
       id="path602" />
    <path
       d="m 91.149103,228.45572 0.08514,0.0839 c 0.14869,0.1463 0.14869,0.38492 0,0.53122 l -45.541362,45.13317 c -0.148211,0.14629 -0.388874,0.14629 -0.537331,0 l -0.08537,-0.0839 c -0.148457,-0.14749 -0.148698,-0.38493 0,-0.53242 l 45.542075,-45.13196 c 0.148691,-0.1475 0.388517,-0.1475 0.537208,0"
       style="fill:#3cabdc;fill-opacity:1;fill-rule:nonzero;stroke:none;stroke-width:0.01199139"
       id="path604" />
    <path
       d="m 93.610936,229.10085 0.08514,0.0851 c 0.14869,0.1463 0.14869,0.38373 0,0.53122 L 47.60383,275.39476 c -0.14821,0.14749 -0.388756,0.14749 -0.537207,0 l -0.08538,-0.0839 c -0.148457,-0.14628 -0.148698,-0.38493 0,-0.5312 l 46.092842,-45.6776 c 0.147492,-0.14749 0.388517,-0.14749 0.537209,-0.001"
       style="fill:#3cabdc;fill-opacity:1;fill-rule:nonzero;stroke:none;stroke-width:0.01199139"
       id="path606" />
    <path
       d="m 95.895292,229.92106 0.08634,0.0852 c 0.148684,0.14629 0.148684,0.38492 0,0.53122 l -46.398618,45.98096 c -0.148218,0.1475 -0.388641,0.1475 -0.537216,7.2e-4 l -0.08551,-0.0851 c -0.148327,-0.1463 -0.148566,-0.38493 0,-0.53122 l 46.398146,-45.98079 c 0.148692,-0.14749 0.389718,-0.14749 0.537216,-0.001"
       style="fill:#3cabdc;fill-opacity:1;fill-rule:nonzero;stroke:none;stroke-width:0.01199139"
       id="path608" />
    <path
       d="m 98.035752,230.88637 0.08514,0.0839 c 0.14869,0.1463 0.14869,0.38493 7.28e-4,0.53122 l -46.491376,46.07329 c -0.148212,0.14751 -0.388765,0.14751 -0.537216,0 l -0.0855,-0.0839 c -0.148335,-0.1463 -0.148451,-0.38493 0,-0.53243 L 97.49848,230.88637 c 0.148706,-0.1475 0.388525,-0.1475 0.537223,0"
       style="fill:#3cabdc;fill-opacity:1;fill-rule:nonzero;stroke:none;stroke-width:0.01199139"
       id="path610" />
    <path
       d="m 100.03952,231.98477 0.0851,0.0852 c 0.14869,0.14629 0.14869,0.38492 0,0.53121 l -46.365407,45.94853 c -0.148094,0.14749 -0.388763,0.14749 -0.537098,0 l -0.08537,-0.0839 c -0.148574,-0.14628 -0.148691,-0.38492 0,-0.53121 l 46.365883,-45.94858 c 0.147498,-0.1475 0.388524,-0.1475 0.537222,-0.001"
       style="fill:#3cabdc;fill-opacity:1;fill-rule:nonzero;stroke:none;stroke-width:0.01199139"
       id="path612" />
    <path
       d="m 101.91257,233.21868 0.0851,0.0839 c 0.1487,0.14629 0.1487,0.38492 7.3e-4,0.53122 l -46.024697,45.61043 c -0.148211,0.14748 -0.38888,0.14748 -0.537215,0 l -0.08537,-0.0839 c -0.148574,-0.14629 -0.148698,-0.38492 0,-0.53122 l 46.024272,-45.61043 c 0.1487,-0.14748 0.38852,-0.14748 0.53722,0"
       style="fill:#3cabdc;fill-opacity:1;fill-rule:nonzero;stroke:none;stroke-width:0.01199139"
       id="path614" />
    <path
       d="m 103.64532,234.5857 0.0851,0.0852 c 0.14869,0.1463 0.14869,0.38493 0,0.53122 l -45.451191,45.04324 c -0.148327,0.14629 -0.388756,0.14748 -0.537207,0 l -0.08538,-0.0839 c -0.148574,-0.1475 -0.148574,-0.38493 0,-0.53242 L 103.10842,234.587 c 0.14869,-0.14749 0.38852,-0.14749 0.53721,-10e-4"
       style="fill:#3cabdc;fill-opacity:1;fill-rule:nonzero;stroke:none;stroke-width:0.01199139"
       id="path616" />
    <path
       d="m 105.23299,236.09783 0.0851,0.0852 c 0.1487,0.14628 0.1487,0.38492 0,0.53121 L 60.6923,280.93966 c -0.148327,0.1463 -0.388756,0.1463 -0.537331,0 l -0.08537,-0.0852 c -0.148335,-0.14629 -0.148575,-0.38493 0,-0.53122 l 44.626531,-44.22422 c 0.14749,-0.1475 0.38852,-0.1475 0.53722,-0.001"
       style="fill:#3cabdc;fill-opacity:1;fill-rule:nonzero;stroke:none;stroke-width:0.01199139"
       id="path618" />
    <path
       d="m 106.66596,237.76222 0.0852,0.0852 c 0.14869,0.14631 0.14869,0.38493 7.2e-4,0.53123 l -43.526046,43.13419 c -0.148094,0.14751 -0.388765,0.14751 -0.537215,0 l -0.08537,-0.0839 c -0.148459,-0.1463 -0.148574,-0.38493 0,-0.53242 l 43.525601,-43.13301 c 0.14869,-0.14749 0.38852,-0.14749 0.53721,-0.001"
       style="fill:#3cabdc;fill-opacity:1;fill-rule:nonzero;stroke:none;stroke-width:0.01199139"
       id="path620" />
    <path
       d="m 107.92025,239.60409 0.0864,0.0839 c 0.14869,0.1475 0.14869,0.38492 0,0.53241 l -42.105352,41.72643 c -0.148218,0.14749 -0.388764,0.14749 -0.537215,0 l -0.08538,-0.0839 c -0.148451,-0.1475 -0.148691,-0.38493 0,-0.53122 l 42.104867,-41.72763 c 0.14869,-0.14629 0.38972,-0.14629 0.53721,0"
       style="fill:#3cabdc;fill-opacity:1;fill-rule:nonzero;stroke:none;stroke-width:0.01199139"
       id="path622" />
    <path
       d="m 108.97789,241.64144 0.0852,0.0852 c 0.14869,0.14629 0.14869,0.38493 0,0.53122 l -40.324095,39.96123 c -0.148094,0.14748 -0.388756,0.14748 -0.537091,7.2e-4 l -0.08562,-0.0852 c -0.148335,-0.14629 -0.148568,-0.38493 0,-0.53121 l 40.324626,-39.96112 c 0.1475,-0.1475 0.38851,-0.1475 0.53721,-0.001"
       style="fill:#3cabdc;fill-opacity:1;fill-rule:nonzero;stroke:none;stroke-width:0.01199139"
       id="path624" />
    <path
       d="m 109.79691,243.91501 0.0852,0.0852 c 0.14868,0.14629 0.14868,0.38492 0,0.53121 l -38.109221,37.76687 c -0.148335,0.14628 -0.388757,0.1475 -0.537331,0 l -0.08526,-0.0839 c -0.148457,-0.14629 -0.148698,-0.38491 0,-0.5312 l 38.110062,-37.76688 c 0.14749,-0.14749 0.38851,-0.14749 0.5372,-0.001"
       style="fill:#3cabdc;fill-opacity:1;fill-rule:nonzero;stroke:none;stroke-width:0.01199139"
       id="path626" />
    <path
       d="m 110.32692,246.47516 0.0852,0.0839 c 0.14869,0.14628 0.14869,0.38491 7.2e-4,0.53121 l -35.375386,35.05681 c -0.148211,0.1475 -0.388881,0.1475 -0.537215,7.3e-4 l -0.0855,-0.0852 c -0.148451,-0.14629 -0.148692,-0.38492 0,-0.53121 l 35.374981,-35.05664 c 0.14868,-0.1475 0.38852,-0.1475 0.5372,0"
       style="fill:#3cabdc;fill-opacity:1;fill-rule:nonzero;stroke:none;stroke-width:0.01199139"
       id="path628" />
    <path
       d="m 110.49,249.39866 0.0851,0.0839 c 0.1487,0.1463 0.1487,0.38492 7.3e-4,0.53122 l -31.976043,31.68843 c -0.14869,0.14749 -0.388524,0.14749 -0.537215,7.2e-4 l -0.08513,-0.0851 c -0.148698,-0.14629 -0.148698,-0.38492 -0.0014,-0.53121 L 109.95226,249.3982 c 0.14868,-0.14748 0.38852,-0.14748 0.53721,0"
       style="fill:#3cabdc;fill-opacity:1;fill-rule:nonzero;stroke:none;stroke-width:0.01199139"
       id="path630" />
    <path
       d="m 110.16023,252.81262 0.0852,0.0839 c 0.14868,0.14749 0.14868,0.38492 0,0.53241 l -27.662932,27.41351 c -0.14869,0.14749 -0.388517,0.14749 -0.537207,7.2e-4 l -0.08514,-0.0851 c -0.148698,-0.14629 -0.148698,-0.38372 -0.0014,-0.53121 l 27.664119,-27.41469 c 0.14749,-0.14628 0.38851,-0.14748 0.53721,0"
       style="fill:#3cabdc;fill-opacity:1;fill-rule:nonzero;stroke:none;stroke-width:0.01199139"
       id="path632" />
    <path
       d="m 109.099,256.95204 0.0852,0.0839 c 0.1487,0.14631 0.1487,0.38493 0,0.53122 l -21.969402,21.77276 c -0.148698,0.1463 -0.388524,0.1463 -0.537214,0 l -0.08514,-0.0839 c -0.14869,-0.14748 -0.14869,-0.38492 -0.0014,-0.53242 l 21.970486,-21.77156 c 0.14749,-0.1475 0.38852,-0.1475 0.53721,0"
       style="fill:#3cabdc;fill-opacity:1;fill-rule:nonzero;stroke:none;stroke-width:0.01199139"
       id="path634" />
    <path
       d="m 106.62879,262.48485 0.0851,0.0839 c 0.1487,0.14629 0.1487,0.38492 0,0.53122 l -13.451925,13.33201 c -0.147492,0.14631 -0.388517,0.14631 -0.537209,0 l -0.08514,-0.0839 c -0.148684,-0.1475 -0.148684,-0.38492 0,-0.53242 L 106.0915,262.48483 c 0.14752,-0.14748 0.38854,-0.14748 0.53724,0"
       style="fill:#3cabdc;fill-opacity:1;fill-rule:nonzero;stroke:none;stroke-width:0.01199139"
       id="path636" />
    <path
       d="m 28.719442,271.56953 c 14.149956,4.82654 26.155968,-2.85154 36.875665,-10.74667 10.719458,-7.89633 22.709641,1.13917 29.372053,9.21177 8.14695,9.87011 23.7969,10.74788 31.94386,0.16428 6.5269,-8.4779 6.43216,-23.03064 -7.07493,-30.26864 -12.96029,-6.94541 -23.154161,-15.51805 -25.51287,-27.36314 -2.357502,-11.84389 -4.073472,-24.45523 -17.579364,-28.84288 -10.440422,-3.38997 -19.253608,3.09617 -20.15332,13.70855 -0.911102,10.74788 -6.53902,13.87403 -15.061058,15.1895 -8.522156,1.31664 -15.436389,1.97377 -21.546476,6.74514 -6.110211,4.77017 -10.3446092,10.96612 -11.4165156,22.37233 -1.0719127,11.40621 6.0031236,25.00443 20.1529556,29.82976"
       style="fill:#fd3259;fill-opacity:1;fill-rule:nonzero;stroke:none;stroke-width:0.01199139"
       id="path638" />
    <path
       d="m 126.51529,225.02978 c 0,-3.64299 -2.95227,-6.59527 -6.59526,-6.59527 -3.64178,0 -6.59526,2.95228 -6.59526,6.59527 0,3.64178 2.95348,6.59525 6.59526,6.59525 3.64299,0 6.59526,-2.95347 6.59526,-6.59525"
       style="fill:#3cabdc;fill-opacity:1;fill-rule:nonzero;stroke:none;stroke-width:0.01199139"
       id="path640" />
    <path
       d="m 24.522821,233.40935 c 0.985092,-1.951 0.202652,-4.33008 -1.747746,-5.31579 -1.950157,-0.98448 -4.329969,-0.20264 -5.314939,1.74716 -0.985216,1.95099 -0.202777,4.33009 1.747505,5.31578 1.950275,0.98449 4.330087,0.20264 5.31518,-1.74715"
       style="fill:#ffcc30;fill-opacity:1;fill-rule:nonzero;stroke:none;stroke-width:0.01199139"
       id="path642" />
    <path
       d="m 104.938,195.93507 c 5.51244,1.38262 11.20954,8.13975 10.60758,13.20492 -0.60197,5.06515 3.82165,6.00649 5.97411,4.95243 3.85762,-1.88983 7.33271,-8.88801 4.78216,-18.97876 -3.3408,-13.2097 -13.06102,-18.87803 -20.84343,-20.06398 -6.143184,-0.93533 -13.844054,2.72325 -13.898016,9.76338 -0.06118,8.17694 9.807756,10.22626 13.377596,11.12201"
       style="fill:#ffcc30;fill-opacity:1;fill-rule:nonzero;stroke:none;stroke-width:0.01199139"
       id="path644" />
    <path
       d="m 18.924765,197.80933 c 2.758733,6.80392 7.583589,8.23568 10.543057,8.08339 2.478985,-0.12711 5.594222,-0.83699 7.198434,-4.76298 1.604204,-3.92598 3.996609,-5.81702 7.594742,-6.8195 3.598133,-1.00367 7.753508,-2.38629 5.99077,-7.41906 -1.758292,-5.02079 -5.05796,-7.45865 -8.307746,-9.36288 -6.668529,-3.90679 -15.310721,-1.50612 -19.606392,3.02303 -3.971548,4.18859 -6.171607,10.45408 -3.412865,17.258"
       style="fill:#fd3259;fill-opacity:1;fill-rule:nonzero;stroke:none;stroke-width:0.01199139"
       id="path646" />
    <path
       d="M 47.969572,268.78753 C 46.848498,258.33104 36.454487,258.3958 33.235997,257.23264 c -4.773047,-1.72557 -7.951724,-5.14791 -9.831611,-11.78034 -1.88001,-6.63243 -9.381339,-5.96331 -12.861844,-3.53626 -4.9309763,3.43793 -9.74491229,9.3185 -8.4696326,18.64661 1.2752873,9.32808 5.6935127,14.83813 11.7775786,19.0459 6.084189,4.20778 12.697077,4.28213 17.044192,4.04231 6.941812,-0.38133 18.07054,-5.576 17.074892,-14.86333"
       style="fill:#ffcc30;fill-opacity:1;fill-rule:nonzero;stroke:none;stroke-width:0.01199139"
       id="path648" />
    <path
       d="m 118.93434,256.91487 -1.96539,-2.11169 c -0.12597,-0.13551 -0.32977,-0.13551 -0.45568,0 l -1.96539,2.11169 c -0.12597,0.13549 -0.33094,0.13549 -0.45686,0 l -1.96538,-2.11169 c -0.12597,-0.13551 -0.32978,-0.13551 -0.45567,0 l -1.9654,2.11169 c -0.12584,0.13549 -0.33095,0.13549 -0.45687,0 l -1.9654,-2.11169 c -0.12597,-0.13551 -0.32975,-0.13551 -0.45566,0 l -1.9654,2.11169 c -0.12591,0.13549 -0.33095,0.13549 -0.45687,0 l -1.96538,-2.11169 c -0.12591,-0.13551 -0.32977,-0.13551 -0.45567,0 l -1.73756,1.86587 c -0.12591,0.13669 -0.329751,0.13669 -0.456865,0 -0.125908,-0.13551 -0.125908,-0.35495 0,-0.49046 l 2.194425,-2.35751 c 0.1259,-0.1355 0.32976,-0.1355 0.45567,0 l 1.96538,2.11169 c 0.12593,0.1355 0.33097,0.1355 0.45687,0 l 1.9654,-2.11169 c 0.12597,-0.1355 0.32976,-0.1355 0.45566,0 l 1.9654,2.11169 c 0.12597,0.1355 0.33097,0.1355 0.45687,0 l 1.9654,-2.11169 c 0.12584,-0.1355 0.32975,-0.1355 0.45567,0 l 1.96538,2.11169 c 0.12597,0.1355 0.33095,0.1355 0.45686,0 l 1.96539,-2.11169 c 0.12585,-0.1355 0.32977,-0.1355 0.45568,0 l 1.96539,2.11169 c 0.12597,0.1355 0.33096,0.1355 0.45686,0 l 1.73637,-1.86706 c 0.1271,-0.13551 0.33096,-0.13551 0.45686,0 0.12598,0.1367 0.12598,0.35615 0,0.49164 l -2.19323,2.35752 c -0.12584,0.13549 -0.33095,0.13549 -0.45686,0"
       style="fill:#ffc61e;fill-opacity:1;fill-rule:nonzero;stroke:none;stroke-width:0.01199139"
       id="path938" />
    <path
       d="m 25.281756,197.5575 -1.965027,-2.11287 c -0.126035,-0.1343 -0.330489,-0.1343 -0.456636,0 l -1.965028,2.11287 c -0.126148,0.13551 -0.33048,0.13551 -0.456635,0 l -1.965027,-2.11287 c -0.126149,-0.1343 -0.330598,-0.1343 -0.456505,0 l -1.965274,2.11287 c -0.126034,0.13551 -0.330357,0.13551 -0.456512,0 l -1.965027,-2.11287 c -0.126035,-0.1343 -0.330482,-0.1343 -0.456629,0 l -1.965027,2.11287 c -0.126149,0.13551 -0.330605,0.13551 -0.456635,0 l -1.9650276,-2.11287 c -0.1261485,-0.1343 -0.3306042,-0.1343 -0.4567514,0 l -1.7367168,1.86706 c -0.1260219,0.1355 -0.3303574,0.1355 -0.4565046,0 -0.1261485,-0.13551 -0.1261485,-0.35495 0,-0.49046 l 2.1932214,-2.35749 c 0.1261484,-0.13551 0.3306042,-0.13551 0.4567514,0 l 1.9650276,2.11167 c 0.126034,0.13551 0.330481,0.13551 0.456635,0 l 1.965027,-2.11167 c 0.126149,-0.13551 0.330598,-0.13551 0.456629,0 l 1.965027,2.11167 c 0.126161,0.13551 0.330481,0.13551 0.456512,0 l 1.965274,-2.11167 c 0.125908,-0.13551 0.330358,-0.13551 0.456505,0 l 1.965027,2.11167 c 0.126149,0.13551 0.330488,0.13551 0.456635,0 l 1.965028,-2.11167 c 0.126148,-0.13551 0.330605,-0.13551 0.456636,0 l 1.965027,2.11167 c 0.126149,0.13551 0.330597,0.13551 0.456752,0 l 1.736709,-1.86705 c 0.126034,-0.1355 0.330481,-0.1355 0.456628,0 0.126035,0.13551 0.126035,0.35614 0,0.49164 l -2.193337,2.3575 c -0.126149,0.13551 -0.330605,0.13551 -0.456752,0"
       style="fill:#ffcc30;fill-opacity:1;fill-rule:nonzero;stroke:none;stroke-width:0.01199139"
       id="path940" />
    <path
       d="m 92.219933,197.9892 c -1.820287,0 -3.29763,1.47614 -3.29763,3.29763 0,1.8215 1.477343,3.29763 3.29763,3.29763 1.821494,0 3.29763,-1.47613 3.29763,-3.29763 0,-1.82149 -1.476136,-3.29763 -3.29763,-3.29763 z m 0,1.31906 c 1.09122,0 1.978573,0.88736 1.978573,1.97857 0,1.09122 -0.887353,1.97857 -1.978573,1.97857 -1.091213,0 -1.978572,-0.88735 -1.978572,-1.97857 0,-1.09121 0.887359,-1.97857 1.978572,-1.97857"
       style="fill:#ffcc30;fill-opacity:1;fill-rule:nonzero;stroke:none;stroke-width:0.01199139"
       id="path942" />
    <path
       d="m 25.56811,271.4772 c -0.01905,0.76145 -0.03826,1.52291 -0.05733,2.28556 -0.02132,0.84898 1.297708,0.84898 1.318936,0 0.01921,-0.76265 0.03841,-1.52411 0.05747,-2.28556 0.02125,-0.84898 -1.297947,-0.84898 -1.31905,0"
       style="fill:#595cd4;fill-opacity:1;fill-rule:nonzero;stroke:none;stroke-width:0.01199139"
       id="path944" />
    <path
       d="m 25.705525,265.99234 c -0.01921,0.76146 -0.03841,1.52411 -0.05733,2.28556 -0.02132,0.84899 1.297708,0.84899 1.319051,0 0.01905,-0.76145 0.03812,-1.5241 0.05733,-2.28556 0.02124,-0.84899 -1.29783,-0.84899 -1.319058,0"
       style="fill:#595cd4;fill-opacity:1;fill-rule:nonzero;stroke:none;stroke-width:0.01199139"
       id="path946" />
    <path
       d="m 24.667918,269.17846 c -0.761816,-0.0192 -1.523632,-0.0384 -2.285324,-0.0576 -0.84911,-0.0217 -0.848746,1.29746 0,1.31904 0.761692,0.0192 1.523508,0.0384 2.285324,0.0575 0.849109,0.0204 0.848746,-1.29867 0,-1.31904"
       style="fill:#595cd4;fill-opacity:1;fill-rule:nonzero;stroke:none;stroke-width:0.01199139"
       id="path948" />
    <path
       d="m 30.152651,269.31515 c -0.761691,-0.0192 -1.5235,-0.0384 -2.285315,-0.0575 -0.849111,-0.0204 -0.848748,1.29867 0,1.31906 0.761815,0.0192 1.523624,0.0384 2.285315,0.0575 0.849111,0.0217 0.848754,-1.29745 0,-1.31903"
       style="fill:#595cd4;fill-opacity:1;fill-rule:nonzero;stroke:none;stroke-width:0.01199139"
       id="path950" />
  </g>
</svg>
