<?xml version="1.0" encoding="UTF-8" standalone="no"?>
<svg
   xmlns:dc="http://purl.org/dc/elements/1.1/"
   xmlns:cc="http://creativecommons.org/ns#"
   xmlns:rdf="http://www.w3.org/1999/02/22-rdf-syntax-ns#"
   xmlns:svg="http://www.w3.org/2000/svg"
   xmlns="http://www.w3.org/2000/svg"
   xml:space="preserve"
   width="64px"
   viewBox="0 0 64 64"
   version="1.1"
   style="enable-background:new 0 0 64 64;"
   id="Image"
   height="64px"><metadata
     id="metadata5036"><rdf:RDF><cc:Work
         rdf:about=""><dc:format>image/svg+xml</dc:format><dc:type
           rdf:resource="http://purl.org/dc/dcmitype/StillImage" /><dc:title></dc:title></cc:Work></rdf:RDF></metadata><defs
     id="defs5034" /><g
     transform="matrix(-1.2030484,0,0,1.2079096,64.570467,-6.6531073)"
     id="g5029"><circle
       id="circle4987"
       style="fill:#424242"
       r="1"
       cy="16"
       cx="34" /><circle
       id="circle4989"
       style="fill:#424242"
       r="1"
       cy="16"
       cx="40" /><circle
       id="circle4991"
       style="fill:#424242"
       r="1"
       cy="14"
       cx="37" /><circle
       id="circle4993"
       style="fill:#424242"
       r="1"
       cy="12"
       cx="40" /><circle
       id="circle4995"
       style="fill:#424242"
       r="1"
       cy="20"
       cx="40" /><circle
       id="circle4997"
       style="fill:#424242"
       r="1"
       cy="16"
       cx="46" /><circle
       id="circle4999"
       style="fill:#424242"
       r="1"
       cy="12"
       cx="46" /><circle
       id="circle5001"
       style="fill:#424242"
       r="1"
       cy="8"
       cx="46" /><circle
       id="circle5003"
       style="fill:#424242"
       r="1"
       cy="24"
       cx="46" /><circle
       id="circle5005"
       style="fill:#424242"
       r="1"
       cy="20"
       cx="46" /><circle
       id="circle5007"
       style="fill:#424242"
       r="1"
       cy="18"
       cx="37" /><circle
       id="circle5009"
       style="fill:#424242"
       r="1"
       cy="14"
       cx="43" /><circle
       id="circle5011"
       style="fill:#424242"
       r="1"
       cy="10"
       cx="43" /><circle
       id="circle5013"
       style="fill:#424242"
       r="1"
       cy="18"
       cx="43" /><circle
       id="circle5015"
       style="fill:#424242"
       r="1"
       cy="22"
       cx="43" /><polyline
       id="polyline5017"
       style="fill:none;stroke:#424242;stroke-width:2;stroke-linejoin:round;stroke-miterlimit:10"
       points="23,19 23,13    29,13 29,19  " /><path
       id="path5019"
       style="fill:none;stroke:#424242;stroke-width:2;stroke-linejoin:round;stroke-miterlimit:10"
       d="m 18,24 0.204,-1.02 C 18.667,20.666 20.699,19 23.059,19 h 5.881 c 2.36,0 4.392,1.666 4.855,3.979 L 34,24" /><path
       id="path5021"
       style="fill:none;stroke:#424242;stroke-width:2;stroke-linejoin:round;stroke-miterlimit:10"
       d="m 34,24 c 0.552,0 1,0.448 1,1 v 29.171 c 0,0.531 -0.211,1.04 -0.586,1.415 l -0.828,0.828 C 33.211,56.789 32.702,57 32.171,57 H 19.829 c -0.531,0 -1.04,-0.211 -1.415,-0.586 L 17.586,55.586 C 17.211,55.211 17,54.702 17,54.171 V 25 c 0,-0.552 0.448,-1 1,-1 z" /><line
       id="line5023"
       y2="33"
       y1="29"
       x2="21"
       x1="21"
       style="fill:none;stroke:#424242;stroke-width:2;stroke-linejoin:round;stroke-miterlimit:10" /><line
       id="line5025"
       y2="52"
       y1="35"
       x2="21"
       x1="21"
       style="fill:none;stroke:#424242;stroke-width:2;stroke-linejoin:round;stroke-miterlimit:10" /><line
       id="line5027"
       y2="16"
       y1="16"
       x2="27"
       x1="29"
       style="fill:none;stroke:#424242;stroke-width:2;stroke-linejoin:round;stroke-miterlimit:10" /></g></svg>