<?xml version="1.0" encoding="UTF-8" standalone="no"?>
<svg
   xmlns:dc="http://purl.org/dc/elements/1.1/"
   xmlns:cc="http://creativecommons.org/ns#"
   xmlns:rdf="http://www.w3.org/1999/02/22-rdf-syntax-ns#"
   xmlns:svg="http://www.w3.org/2000/svg"
   xmlns="http://www.w3.org/2000/svg"
   id="svg89"
   version="1.1"
   viewBox="0 0 79.374998 79.375002"
   height="300"
   width="300">
  <defs
     id="defs83" />
  <metadata
     id="metadata86">
    <rdf:RDF>
      <cc:Work
         rdf:about="">
        <dc:format>image/svg+xml</dc:format>
        <dc:type
           rdf:resource="http://purl.org/dc/dcmitype/StillImage" />
        <dc:title></dc:title>
      </cc:Work>
    </rdf:RDF>
  </metadata>
  <g
     transform="translate(0,-217.62498)"
     id="layer1">
    <path
       d="m 144.3565,211.0485 -3.23674,3.2378 -8.70161,-8.70162 3.23779,-3.2378 c 0.43215,-0.43215 1.13736,-0.43215 1.56951,0 l 7.13105,7.13247 c 0.43321,0.43215 0.43321,1.13735 0,1.56915 z m -6.77474,6.77616 -8.70198,-8.70162 1.74061,-1.74061 8.70197,8.70162 z m -43.905674,32.66337 2.54,2.5407 -3.41312,0.87271 z m 5.40315,1.80869 -4.67078,-4.67222 0.91757,-3.58881 7.343074,7.34272 z m 6.066364,-2.03701 -8.700564,-8.70052 30.637344,-30.63839 8.70162,8.70161 z m 41.00971,-42.57812 -7.13246,-7.13246 c -1.42275,-1.42522 -3.74156,-1.42522 -5.16431,0 L 93.748056,240.6596 c -0.16157,0.16158 -0.27693,0.36266 -0.33302,0.5835 l -3.60645,14.1061 c -0.11183,0.43575 0.0148,0.89613 0.33267,1.21391 0.32385,0.32565 0.7941,0.4432 1.21426,0.33309 l 14.105824,-3.6069 c 0.22119,-0.0557 0.42227,-0.17099 0.58349,-0.33264 l 40.11048,-40.1104 c 0,0 0,0 0.001,0 1.42134,-1.42381 1.42134,-3.74051 -0.001,-5.16467"
       style="fill:#100f0d;fill-opacity:1;fill-rule:nonzero;stroke:none;stroke-width:0.03527778"
       id="path46" />
    <path
       transform="matrix(1.2942959,0,0,1.2942959,-4.1102429,-67.792732)"
       id="path4080"
       d="m 7.7485117,226.69641 c 0,-0.83235 1.9796953,-1.6174 5.4806543,-2.30799 0.234067,-0.0851 0.744736,-0.2223 1.627786,-0.22599 0,0 4e-6,0 4e-6,0 1.111876,0.0933 1.701489,0.277 1.539983,0.12712 -0.139475,-0.0396 0.231323,-0.24806 1.564434,-0.21193 0.787307,0.0762 1.098904,0.15186 0.866223,0.0529 -0.183985,-0.0209 -0.139527,-0.0824 0.186851,-0.12277 0.317297,-0.0895 0.900888,-0.11078 1.771939,0.011 0,0 9e-6,0 9e-6,0 1.103178,0.2968 1.543167,0.49805 1.251596,0.34512 -0.375603,-0.0695 -0.226423,-0.25508 1.08989,-0.0793 1.06214,0.18592 1.576198,0.36146 1.469865,0.27327 -0.111307,-0.0352 0.33729,-0.1161 1.523031,0.0542 1.192072,0.26345 1.928932,0.54356 2.245258,0.65754 0.546882,0.16437 1.4372,0.29517 2.68993,0.66113 0.650034,0.19145 1.191313,0.37401 1.62222,0.49818 0.416909,0.11792 1.007001,0.2844 1.742153,0.55796 0.567335,0.21697 1.115283,0.46599 1.641146,0.74423 0.351417,0.18521 0.691868,0.37589 1.043285,0.5611 0.321932,0.17265 0.645748,0.34696 0.971385,0.5229 0.365669,0.12592 1.293822,0.61736 2.633306,1.75024 0,0 8e-6,1e-5 8e-6,1e-5 0.765945,0.6874 0.719341,0.77376 0.04617,0.12858 0,0 -7e-6,-1e-5 -7e-6,-1e-5 -0.676315,-0.36484 -0.383034,-0.29811 0.687879,0.29854 1.113765,0.81123 1.72813,1.41438 1.882845,1.70972 0.251522,0.18385 0.06223,0.0723 -0.526748,-0.43774 -0.243036,-0.1401 -0.195875,-0.12959 0.14105,0.0587 0,0 1.2e-5,0 1.2e-5,0 0.372852,0.14635 0.926601,0.59887 1.642522,1.37513 0.707907,1.08491 0.984815,1.60182 0.875541,1.50438 -0.05684,-0.12634 -0.05779,-0.14896 -0.01125,-0.0612 0.104626,0.16027 0.314308,0.52917 0.595111,1.12789 0.307671,0.59635 0.524951,1.46382 0.606252,2.59886 0.05476,1.08546 -0.0309,0.98251 -0.07926,-0.10186 0.110795,-0.58089 -0.09209,-0.91419 -0.655821,-1.05237 0,0 6e-6,1e-5 6e-6,1e-5 0.387695,0.68606 0.780767,1.37471 1.17907,2.06555 0,0 6e-6,1e-5 6e-6,1e-5 0.221822,0.5109 0.508794,1.67542 0.576442,3.53001 0.03834,0.78281 -0.04151,0.41598 -0.07985,-0.36683 -0.336505,-0.96165 -0.443465,-1.35488 -0.422343,-1.14912 0,0 5e-6,0 5e-6,0 0.191017,0.0267 0.557526,0.83999 1.033657,2.46219 0,0 1.3e-5,4e-5 1.3e-5,4e-5 0.07362,0.72601 0.08999,1.11743 0.06169,1.17117 0,0 0,0 0,0 4.46e-4,0.009 7.83e-4,0.002 0.0016,-0.0207 0,0 0,0 0,0 -10e-7,-1.1e-4 0.0028,0.37809 0.0028,0.37798 0.0026,0.37682 0.0048,0.75481 0.0065,1.13393 0.0017,0.37688 0.003,0.75487 0.0038,1.13392 0.0059,-0.12417 0.01106,0.12418 -0.01363,0.75586 -0.229963,1.37597 -0.366724,1.85688 -0.301457,1.49621 0.01214,-0.0671 0.03113,-0.16282 0.05766,-0.28708 0.04293,-0.60518 0.08061,-0.62956 0.03769,-0.0244 0.123527,0.66259 -0.253753,1.8012 -1.181631,3.35683 -1.089318,1.24312 -1.224117,1.28423 -0.253099,0.20366 0,0 1.6e-5,-3e-5 1.6e-5,-3e-5 0.285579,-0.47178 0.406923,-0.67257 0.35344,-0.61067 -0.04971,0.10992 -0.107984,0.23241 -0.175367,0.36713 -0.255509,0.50508 -0.510785,1.00746 -0.765742,1.50701 0,0 0,0 0,0 0.04251,-0.064 -0.151069,0.36234 -0.649122,1.21679 -0.759258,1.12393 -0.954137,1.21533 -0.321089,0.30475 0.317998,-1.06161 0.473845,-1.33156 0.310527,-0.83912 0,0 1e-6,0 1e-6,0 0.0453,0.44547 -0.197479,1.35906 -0.794781,2.68857 0,0 -9e-6,2e-5 -9e-6,2e-5 -0.645292,1.07411 -0.788693,1.16672 -0.240406,0.2719 0.306856,-0.84789 0.291565,-0.66726 -0.170937,0.50185 -0.70152,1.24337 -0.967349,1.58788 -0.669196,1.09014 0,0 5e-6,-10e-6 5e-6,-10e-6 0.162279,-0.31721 0.181362,-0.32785 0.02975,-0.0424 -0.265233,0.54217 -0.411578,0.7483 -0.257155,0.43507 0.136201,-0.41504 0.01508,0.12279 -0.567969,1.48637 -0.228443,0.47883 -0.233671,0.41884 0.01952,-0.13732 0.145524,-0.55058 0.199201,-0.70691 0.131919,-0.48485 0,0 -2e-6,0 -2e-6,0 0.0086,0.24615 -0.178055,0.8512 -0.585613,1.79411 -0.467193,0.7716 -0.726615,1.13325 -0.753785,1.10733 0.06142,0.0257 0.26417,-0.38376 0.637111,-1.21167 0,0 1.2e-5,-3e-5 1.2e-5,-3e-5 0.211928,-0.99214 0.286513,-1.5225 0.191222,-1.61333 0,0 -3e-6,-10e-6 -3e-6,-10e-6 0.01227,-0.0806 0.03279,0.30584 0.02486,1.14947 -0.285994,1.70409 -0.444134,2.07019 -0.252163,1.11501 0.0062,-0.63674 0.04847,-0.60965 0.02047,0.0888 0,0 0,0 0,0 -3e-6,9e-5 -0.01385,0.37789 -0.01385,0.37798 0,0 0,0 0,0 0.0031,-0.16002 0.0033,0.11177 -0.03374,0.80534 -0.148073,0.9054 -0.275683,1.39263 -0.34972,1.47465 0,0 -2e-6,10e-6 -2e-6,10e-6 0.0095,0.0998 0.04635,-0.20904 0.143978,-0.91598 4.24e-4,-0.244 0.0029,-0.25726 -0.002,-0.0411 0,0 0,0 0,0 -0.01029,0.25303 -0.02078,0.50502 -0.03149,0.75595 -3e-6,8e-5 -0.01632,0.3779 -0.01632,0.37798 -0.0033,0.16311 -0.01025,0.307 -0.02011,0.43178 0.03181,0.0728 -0.0017,-0.24252 -0.08384,-0.94403 -0.232054,-0.78974 -0.391248,-1.21513 -0.495372,-1.27878 0,0 -2e-6,-1e-5 -2e-6,-1e-5 -0.04097,-0.0893 0.08569,0.14334 0.361995,0.69929 0,0 1.4e-5,3e-5 1.4e-5,3e-5 0.294528,0.83234 0.399394,1.21811 0.347784,1.1559 0,0 2e-6,0 2e-6,0 0.05846,-0.11032 -0.189926,-0.59871 -0.714047,-1.4779 0,0 -2.4e-5,-2e-5 -2.4e-5,-2e-5 -0.615198,-0.66373 -0.632028,-0.71678 -0.0639,-0.0978 0,0 2.1e-5,2e-5 2.1e-5,2e-5 0.774376,1.07805 1.121876,1.7449 1.094746,1.97752 0.233276,0.30297 -0.06097,-0.001 -0.736407,-0.97071 -0.252969,-0.27558 -0.03463,-0.0453 0.615129,0.70807 0,0 1.9e-5,3e-5 1.9e-5,3e-5 0.796564,1.34998 0.841335,1.5421 0.227745,0.47102 0,0 -1.9e-5,-2e-5 -1.9e-5,-2e-5 -0.510661,-0.58626 -0.718781,-0.82269 -0.651901,-0.69931 0.150598,0.0478 0.546147,0.48811 1.158089,1.32738 0.499423,1.05595 0.696845,1.63139 0.63236,1.71982 0.09022,0.0274 -0.121636,-0.41181 -0.596404,-1.32678 -0.803125,-0.87486 -1.253805,-1.28534 -1.399902,-1.22103 -0.03929,-0.0671 0.374697,0.19148 1.202398,0.80044 0,0 2.4e-5,2e-5 2.4e-5,2e-5 0.716348,0.74137 1.088473,1.24336 1.14622,1.48846 0.128537,0.19441 0.01505,0.0669 -0.303337,-0.38442 -0.302689,-0.31212 -0.336736,-0.35843 -0.121495,-0.12526 0.459209,0.44716 0.397152,0.46168 -0.08682,0.0244 -0.361783,-0.22049 -0.419446,-0.26552 -0.193141,-0.11469 0,0 6e-6,0 6e-6,0 0.269624,0.0977 0.75201,0.48512 1.417648,1.17024 0,0 1.8e-5,2e-5 1.8e-5,2e-5 0.55563,0.78778 0.775475,1.17191 0.704689,1.14221 0.04529,-0.12517 -0.349014,-0.53439 -1.144115,-1.2539 -1.117512,-0.52803 -1.640693,-0.73947 -1.627057,-0.59599 0,0 2e-6,0 2e-6,0 0.08942,-0.0858 0.772145,0.10328 1.997711,0.61071 0,0 2.6e-5,2e-5 2.6e-5,2e-5 0.761235,0.50852 1.192815,0.88627 1.313621,1.117 0,0 4e-6,10e-6 4e-6,10e-6 0.163839,0.18223 0.08727,0.1285 -0.204652,-0.16683 -0.540473,-0.38665 -0.810788,-0.56249 -0.847697,-0.5136 -0.0045,-0.005 0.288374,0.12982 0.847796,0.42589 0,0 1.2e-5,0 1.2e-5,0 0.896939,0.55863 0.890664,0.65649 0.25965,0.28156 0,0 -9e-6,-10e-6 -9e-6,-10e-6 -0.638539,-0.21296 -0.435194,-0.17428 0.53414,0.22847 0.732248,0.40718 1.154317,0.72065 1.298225,0.91272 0.177763,0.14881 0.09931,0.13125 -0.194085,-0.0684 -0.422946,-0.17981 -0.571431,-0.24565 -0.488093,-0.17037 0.104086,0.0312 0.468697,0.14895 1.066072,0.38945 0.852777,0.40912 0.955994,0.55884 0.570929,0.39422 -0.732066,-0.0557 -0.355815,-0.0979 0.829048,0.19071 0.722152,0.18439 0.79293,0.28881 0.389223,0.21645 -0.418921,0.0281 -0.176325,0.008 0.660448,0.0784 0,0 9e-6,0 9e-6,0 1.1164,0.18679 1.300639,0.34484 0.941557,0.30643 -0.323378,0.0539 -0.259849,0.0419 0.143908,0.0516 0,0 3e-6,0 3e-6,0 0.425872,-0.0887 1.190684,0.012 2.197199,0.34772 0.544252,0.27358 0.800505,0.44894 0.816023,0.50213 0.03983,-0.005 -0.198457,-0.0497 -0.674782,-0.17028 -0.322596,-0.013 -0.423988,-0.0153 -0.323677,0.0119 0,0 3e-6,0 3e-6,0 0.129058,0.008 0.26645,0.0193 0.411866,0.0336 10e-7,0 3e-6,0 3e-6,0 0.25745,0.0399 0.509471,0.0803 0.755955,0.12105 0.02213,0.0334 0.418737,0.0531 1.084978,0.15109 0.890184,0.2092 0.992649,0.3594 0.686401,0.32513 -0.215471,0.034 -0.197085,0.0442 0.01193,0.0716 0.22028,-0.0158 0.639246,0.0328 1.203855,0.17095 0.359578,0.12981 0.53745,0.22475 0.567282,0.26979 0.03925,0.0179 -0.08748,0.0224 -0.344944,-0.006 -0.338095,0.0197 -0.13863,0.0256 0.496428,0.10467 0.717916,0.23191 1.062208,0.45252 1.13746,0.60798 0.123894,0.0722 -0.05283,0.0786 -0.397734,-0.009 -0.351296,0.038 -0.376997,0.0445 -0.165185,0.0781 0,0 2e-6,0 2e-6,0 0.109625,-0.004 0.282737,0.002 0.507822,0.0238 0.238982,0.0169 0.516036,0.11108 0.81353,0.27216 0.402693,0.29319 0.582965,0.5095 0.613992,0.64343 0.06668,0.10768 -0.0143,0.0986 -0.165526,-0.001 -0.299828,-0.0774 -0.342238,-0.0604 -0.267588,0.0346 0.130949,0.0637 0.360898,0.15915 0.676989,0.35264 0.174406,0.13641 0.223647,0.22279 0.218217,0.26863 2.11e-4,0.0348 -0.09088,0.0706 -0.189622,0.0921 -0.106723,0.0473 0.03712,0.0924 0.214159,0.16087 0.179465,0.0831 0.271723,0.21801 0.309836,0.32877 0.09768,0.28953 -0.117146,0.38273 -0.208714,0.3977 -0.106831,0.0175 -0.294215,0.003 -0.336812,0.14782 -0.01606,0.0558 -0.0103,0.13564 0.05996,0.20067 0.06345,0.0472 0.08898,0.12382 -0.163819,0.16087 -0.229882,0.0103 -0.449327,-0.0135 -0.582633,-0.0627 -0.118077,-0.024 -0.182735,-0.0259 -0.144724,0.0454 0.07389,0.074 0.0905,0.17439 -0.08959,0.19612 -0.167895,0.0671 -0.485315,0.0515 -1.012909,-0.18688 -0.2996,-0.2052 -0.476315,-0.34949 -0.531013,-0.39355 -0.07689,-0.002 -0.01501,0.0712 0.223527,0.27953 0.185889,0.10343 0.335488,0.17083 0.443849,0.18275 0.09907,0.0166 0.145722,0.0376 0.126296,0.0548 0,0 -10e-7,0 -10e-7,0 -0.03519,0.0715 -0.311547,0.14212 -0.925883,0.13661 -0.621757,-0.13427 -1.032356,-0.28865 -1.152831,-0.3886 -0.152201,-0.003 -0.04771,0.0463 0.380654,0.2321 0.375334,0.0389 0.351288,0.10814 -0.259523,0.10467 -0.454509,-0.046 -0.769394,-0.11101 -0.918406,-0.17225 -0.152145,-0.0312 -0.155743,-0.0216 0.0068,0.0585 0.261987,0.062 0.364523,0.12558 0.260354,0.13871 -0.100348,0.0544 -0.397999,0.105 -0.934448,0.10386 -0.841515,-0.0934 -1.153385,-0.18276 -0.825504,-0.0528 0.173392,0.0325 0.07232,0.1174 -0.426924,0.15109 -0.246484,0.0407 -0.498505,0.0811 -0.755955,0.12105 0,0 -2e-6,0 -2e-6,0 -0.04242,0.0143 -0.09416,0.0306 -0.155616,0.0476 0,0 -1e-6,0 -1e-6,0 -0.08753,0.0357 -0.379404,0.043 -0.89011,-0.002 -0.752972,-0.16787 -1.245261,-0.35147 -1.448544,-0.50795 -0.22352,-0.0957 -0.199389,-0.0836 0.07788,0.0838 0.557069,0.15566 0.76474,0.26063 0.691738,0.23656 0,0 -1e-6,0 -1e-6,0 -0.096,0.0662 -0.534179,0.15134 -1.374433,0.16281 -1.031653,-0.0956 -1.369798,-0.19663 -0.94832,-0.0715 0,0 3e-6,0 3e-6,0 0.319299,0.0284 0.09668,0.1054 -0.851455,0.0785 -0.925498,-0.12966 -1.319293,-0.23203 -1.122685,-0.16153 0.285768,0.0902 -0.185054,0.18826 -1.816786,-0.18727 -0.93346,-0.36441 -1.243587,-0.54077 -0.940973,-0.36174 0.228113,0.0875 0.205391,0.12268 -0.08383,0.0541 -0.301206,-0.0225 -0.838785,-0.20239 -1.60605,-0.59095 -0.563266,-0.36335 -0.872752,-0.59564 -0.934683,-0.65756 -0.09219,-0.0152 0.08326,0.0935 0.526915,0.36799 0.550397,0.2142 0.462129,0.25459 -0.599786,-0.14951 0,0 -1.4e-5,-10e-6 -1.4e-5,-10e-6 -1.068634,-0.58123 -1.345125,-0.79029 -0.87427,-0.4744 0,0 7e-6,0 7e-6,0 0.313389,0.157 0.338103,0.20004 0.06922,0.0889 -0.298138,-0.0565 -0.830012,-0.35521 -1.581026,-0.93258 -0.423334,-0.41431 -0.610548,-0.61358 -0.561876,-0.56733 0,0 0,0 0,0 0.0053,0.0947 0.310516,0.34019 0.914903,0.76157 0,0 2e-5,2e-5 2e-5,2e-5 0.997513,0.38065 1.407931,0.54935 1.235438,0.44059 0,0 -4e-6,-1e-5 -4e-6,-1e-5 -0.246664,0.12007 -1.043219,-0.12515 -2.376686,-0.80384 -0.982497,-0.85026 -1.498953,-1.4638 -1.556854,-1.79446 -0.174194,-0.23482 -0.04437,-0.063 0.361476,0.54883 0,0 1.4e-5,2e-5 1.4e-5,2e-5 0.517956,0.51185 0.80396,0.77452 0.87324,0.76129 0,0 1e-6,0 1e-6,0 0.02636,0.0399 -0.236412,-0.1039 -0.782654,-0.46168 -0.772397,-0.65268 -1.043216,-0.92392 -0.842768,-0.73153 0.08753,0.10729 -0.08211,-0.0523 -0.499467,-0.50324 -0.463985,-0.62797 -0.677564,-0.96009 -0.658645,-0.96805 -0.05058,0.0451 0.201765,0.3469 0.745576,0.93817 0,0 1.9e-5,10e-6 1.9e-5,10e-6 0.648517,0.4542 0.860911,0.63096 0.609019,0.45707 -0.350736,-0.0374 -1.007673,-0.56908 -1.940448,-1.63359 -0.587674,-1.08011 -0.843779,-1.72107 -0.792643,-1.89082 -0.103579,-0.10784 0.0558,0.26563 0.450619,1.14992 0.518972,0.68674 0.775007,1.00895 0.786404,0.94373 -0.07178,0.0106 -0.422613,-0.33839 -1.036162,-1.07162 0,0 -2.3e-5,-2e-5 -2.3e-5,-2e-5 -0.771481,-1.29523 -0.783203,-1.41287 -0.150225,-0.28492 0,0 1.5e-5,3e-5 1.5e-5,3e-5 0.543501,0.60868 0.617249,0.73329 0.237151,0.33009 -1.075022,-1.37064 -1.54502,-2.24233 -1.492359,-2.48261 -0.116682,-0.0359 0.132434,0.35534 0.716768,1.22156 0,0 1.7e-5,2e-5 1.7e-5,2e-5 0.44527,0.48212 0.285022,0.33477 -0.441865,-0.47577 0,0 -2.8e-5,-3e-5 -2.8e-5,-3e-5 -0.644786,-1.03894 -0.950331,-1.72568 -0.935141,-2.03223 0,0 10e-7,-1e-5 10e-7,-1e-5 -0.0948,-0.25774 -0.02235,-0.0722 0.190901,0.57632 0,0 1.1e-5,2e-5 1.1e-5,2e-5 0.219075,0.42658 0.265881,0.54174 0.151702,0.33095 0,0 -6e-6,-1e-5 -6e-6,-1e-5 -0.177033,-0.18468 -0.403509,-0.73769 -0.663046,-1.66639 -0.106607,-0.82518 -0.133098,-1.26812 -0.0946,-1.32153 -0.0032,-0.001 -0.0061,0.0166 -0.0093,0.0533 3e-6,8e-5 -0.01633,-0.37806 -0.01632,-0.37798 -0.01071,-0.25093 -0.02121,-0.50292 -0.03149,-0.75595 0,0 0,0 0,0 -0.0048,0.0899 -0.0086,-0.0487 -0.002,-0.41908 0.110451,-0.96655 0.230262,-1.5266 0.324977,-1.67356 0,0 0,0 0,0 0.01074,-0.16401 -0.02851,0.0752 -0.152747,0.72034 -0.01403,0.4416 -0.0369,0.46339 -0.03374,0.0494 0,0 0,0 0,0 3e-6,8e-5 -0.01386,-0.37806 -0.01385,-0.37798 0,0 0,0 0,0 -0.02737,0.1867 -0.05714,-0.27579 0.02047,-1.42305 0.264698,-1.46911 0.377471,-1.5793 0.125815,-0.39689 0.0084,0.58976 -0.01187,0.72577 -0.02424,0.39112 0,0 -3e-6,-1e-5 -3e-6,-1e-5 -0.119712,-0.34276 -0.05255,-1.13397 0.24032,-2.36688 0,0 1.4e-5,-3e-5 1.4e-5,-3e-5 0.445542,-1.04388 0.787626,-1.64008 0.993162,-1.7918 0.116701,-0.20323 0.0087,-0.0144 -0.353886,0.55352 -0.288716,0.71142 -0.42362,1.0567 -0.372864,1.04516 0,0 -10e-7,0 -10e-7,0 -0.02524,-0.0347 0.0628,-0.45176 0.297143,-1.2478 0.349969,-0.82305 0.498974,-1.11706 0.397494,-0.89328 -0.23838,0.67921 -0.235741,0.35202 0.187983,-0.78147 0.343772,-0.79651 0.536941,-1.14836 0.498795,-1.07685 -0.02845,0.0306 0.09797,-0.23856 0.407732,-0.79835 0,0 9e-6,-2e-5 9e-6,-2e-5 0.537976,-0.89186 0.59615,-0.86535 0.08675,-0.0438 -0.299049,0.80828 -0.268618,0.57601 0.207041,-0.63207 0.729893,-1.28785 0.951353,-1.55489 0.515546,-0.86204 0,0 -5e-6,10e-6 -5e-6,10e-6 -0.345148,0.87255 -0.510061,1.25374 -0.416814,1.17669 0,0 2e-6,-1e-5 2e-6,-1e-5 -0.101325,-0.15734 0.07572,-1.08039 0.688505,-2.729 0.902519,-1.4519 1.243844,-1.81909 0.812841,-1.20715 -0.202115,0.39689 -0.180177,0.2589 0.106826,-0.29511 0,0 4e-6,0 4e-6,0 0.246665,-0.5037 0.495405,-1.00935 0.746162,-1.51681 -0.0044,0.009 -0.0026,0.004 0.0058,-0.0151 0.0046,-0.0665 0.184061,-0.39682 0.550268,-0.9844 0,0 2.1e-5,-3e-5 2.1e-5,-3e-5 1.171276,-1.36947 1.378783,-1.51492 0.502853,-0.5523 -0.692306,1.24649 -0.997284,1.98121 -0.856339,2.25433 -0.02388,0.20176 -0.01861,-0.18508 0.09037,-1.18975 0.0399,-0.20357 0.07621,-0.37785 0.108247,-0.52295 0.177338,-0.80326 0.21975,-0.70236 0.02593,0.22018 -0.0056,0.37806 -0.01919,0.37796 -0.01363,-10e-5 8.19e-4,-0.37905 0.0021,-0.75704 0.0038,-1.13392 0.0017,-0.37912 0.0039,-0.75711 0.0065,-1.13393 10e-7,-1.1e-4 0.0028,-0.37787 0.0028,-0.37798 0,0 0,-1e-5 0,-1e-5 8.45e-4,-0.14933 0.0045,-0.28231 0.01021,-0.39896 0,0 0,-1e-5 0,-1e-5 -0.02298,-0.0724 -9.65e-4,0.19202 0.05311,0.79349 0,0 1.1e-5,3e-5 1.1e-5,3e-5 0.431971,1.3409 0.627544,1.91225 0.655683,1.70626 0,0 10e-7,0 10e-7,0 -0.305607,-0.26004 -0.733475,-1.14386 -1.178293,-2.66104 -0.143072,-1.40713 -0.129176,-2.03045 -0.07985,-1.87873 0.114152,0.42333 -0.03589,0.22556 -0.17951,-0.62773 0,0 4e-6,0 4e-6,0 0.263016,0.1878 0.530111,0.37235 0.801096,0.55367 0,0 4e-6,0 4e-6,0 -0.95071,-0.39956 -1.430576,-1.15021 -1.411773,-2.18629 -0.149212,-1.60797 -0.121427,-2.16866 -0.07926,-1.61378 0.06875,0.58976 0.129056,0.92469 0.2225,1.0233 0.06493,0.0975 7.5e-4,-0.005 -0.155063,-0.32035 -0.08923,-0.16005 -0.222355,-0.4316 -0.389226,-0.81714 -0.375426,-0.61158 0.122138,0.13686 0.497563,0.74844 0.572767,0.59762 0.934403,0.91735 1.109082,0.95049 0,0 6e-6,0 6e-6,0 0.136913,0.074 -0.02166,-0.0109 -0.459428,-0.27267 -1.12244,-0.84355 -1.712641,-1.45666 -1.849591,-1.76074 -0.266803,-0.22209 0.005,-0.0692 0.559854,0.38688 0.614441,0.30976 0.298094,0.20216 -0.824029,-0.4574 0,0 -1.3e-5,-1e-5 -1.3e-5,-1e-5 -1.29473,-1.05743 -1.706212,-1.55228 -1.465718,-1.38332 0,0 3e-6,1e-5 3e-6,1e-5 0.361808,0.16148 0.01997,0.0501 -0.768478,-0.51762 -0.308479,-0.20454 -0.614663,-0.40823 -0.918497,-0.61104 -0.355487,-0.23374 -0.632486,-0.4293 -0.846597,-0.57282 -0.213599,-0.14737 -0.422283,-0.2784 -0.62671,-0.38971 -0.260181,-0.14962 -0.707856,-0.3277 -1.281657,-0.57596 -0.591803,-0.25363 -1.048093,-0.47788 -1.401587,-0.63574 -0.67989,-0.30674 -1.736148,-0.65182 -2.979717,-1.22875 -0.720911,-0.31511 -0.908442,-0.51514 -0.778548,-0.4764 0.159495,-0.0447 -0.399904,-0.0744 -1.500779,-0.32376 -1.035562,-0.28909 -1.334461,-0.50642 -1.175969,-0.48267 0.211153,-0.0194 -0.53067,-0.0665 -1.93392,-0.45731 -0.979388,-0.37734 -1.059099,-0.54632 -0.638284,-0.41084 0,0 4e-6,0 4e-6,0 0.371244,0.006 0.442495,0.0113 0.262053,-0.0384 -0.190756,0.002 -0.641209,-0.003 -1.327067,-0.0734 -0.897495,-0.1663 -1.173358,-0.32057 -1.023658,-0.32505 0.256844,-0.093 -0.315701,-0.0477 -1.459375,-0.21193 -1.268678,-0.29286 -1.579562,-0.60728 -1.483824,-0.62882 0,0 0,0 0,0 -0.02286,-0.11013 -0.425829,-0.13726 -1.018049,-0.22599 -3.500958,-0.69059 -5.4806533,-1.47564 -5.4806533,-2.30799 z"
       style="fill:#000000;stroke:none;stroke-width:0.26458332px;stroke-linecap:butt;stroke-linejoin:miter;stroke-opacity:1" />
  </g>
</svg>
