<?xml version="1.0" encoding="UTF-8" standalone="no"?>
<svg
   xmlns:dc="http://purl.org/dc/elements/1.1/"
   xmlns:cc="http://creativecommons.org/ns#"
   xmlns:rdf="http://www.w3.org/1999/02/22-rdf-syntax-ns#"
   xmlns:svg="http://www.w3.org/2000/svg"
   xmlns="http://www.w3.org/2000/svg"
   id="svg89"
   version="1.1"
   viewBox="0 0 79.374998 79.375002"
   height="300"
   width="300">
  <defs
     id="defs83" />
  <metadata
     id="metadata86">
    <rdf:RDF>
      <cc:Work
         rdf:about="">
        <dc:format>image/svg+xml</dc:format>
        <dc:type
           rdf:resource="http://purl.org/dc/dcmitype/StillImage" />
        <dc:title></dc:title>
      </cc:Work>
    </rdf:RDF>
  </metadata>
  <g
     transform="translate(0,-217.62498)"
     id="layer1">
    <path
       d="m 74.619891,231.83719 -3.23674,3.2378 -8.701612,-8.70162 3.237792,-3.2378 c 0.43215,-0.43215 1.13736,-0.43215 1.56951,0 l 7.13105,7.13247 c 0.43321,0.43215 0.43321,1.13735 0,1.56915 z m -6.77474,6.77616 -8.701982,-8.70162 1.74061,-1.74061 8.701972,8.70162 z m -43.905672,32.66337 2.54,2.5407 -3.41312,0.87271 z m 5.40315,1.80869 -4.67078,-4.67222 0.91757,-3.58881 7.34307,7.34272 z m 6.06636,-2.03701 -8.70056,-8.70052 30.63734,-30.63839 8.701622,8.70161 z m 41.009712,-42.57812 -7.13246,-7.13246 c -1.42275,-1.42522 -3.74156,-1.42522 -5.16431,0 l -40.110482,40.11047 c -0.16157,0.16158 -0.27693,0.36266 -0.33302,0.5835 l -3.60645,14.1061 c -0.11183,0.43575 0.0148,0.89613 0.33267,1.21391 0.32385,0.32565 0.7941,0.4432 1.21426,0.33309 l 14.10582,-3.6069 c 0.22119,-0.0557 0.42227,-0.17099 0.58349,-0.33264 l 40.110482,-40.1104 c 0,0 0,0 0.001,0 1.42134,-1.42381 1.42134,-3.74051 -0.001,-5.16467"
       style="fill:#100f0d;fill-opacity:1;fill-rule:nonzero;stroke:none;stroke-width:0.03527778"
       id="path46" />
    <path
       style="stroke-width:0.14291038"
       d="m 6.9995225,260.43997 c 0.3471069,2.34328 0.7716558,4.6641 1.434201,6.90062 0.2907715,0.72603 0.5666336,1.57048 1.1467333,2.00517 0.3923218,0.42798 0.8597602,0.71205 1.2804142,1.0839 0.348971,0.36807 0.762216,0.60688 1.129227,0.93647 0.422228,0.3564 0.839767,0.71314 1.283143,1.03295 0.232309,0.26182 0.552733,0.19641 0.821411,0.31731 0.140687,0.0633 0.264342,0.17535 0.400826,0.25167 0.374493,0.35309 0.774878,0.69918 1.213894,0.91668 0.441662,0.38804 0.92217,0.70036 1.359721,1.09174 0.434595,0.371 0.86352,0.74272 1.320429,1.07422 0.536048,0.36395 1.005632,0.84037 1.497412,1.28528 0.46865,0.50996 0.784079,1.18586 1.197313,1.75723 0.376606,0.52027 0.705955,1.07774 1.009982,1.66837 0.265205,0.60109 0.513588,1.21071 0.770845,1.81747 0.277335,0.69737 0.324217,1.47909 0.490681,2.21985 0.1938,0.80661 0.25188,1.64537 0.289178,2.48185 0.03008,0.90806 0.0277,1.81715 0.02768,2.72581 -0.03506,0.76415 -0.16354,1.51493 -0.249041,2.2718 0,0 -4.897379,3.01105 -4.897379,3.01105 v 0 c 0.08136,-0.73263 0.172839,-1.46253 0.285242,-2.18888 7.73e-4,-0.89855 0.004,-1.79734 -0.01652,-2.69562 -0.0255,-0.78686 -0.05926,-1.57971 -0.233546,-2.34143 -0.161703,-0.69765 -0.216332,-1.42101 -0.436596,-2.0946 -0.249208,-0.58977 -0.491252,-1.1807 -0.74705,-1.76556 -0.292276,-0.56098 -0.609053,-1.08854 -0.968517,-1.58517 -0.373523,-0.55048 -0.684951,-1.17461 -1.136822,-1.63395 -0.46966,-0.45027 -0.958304,-0.86052 -1.471175,-1.23103 -0.448821,-0.35821 -0.893005,-0.7204 -1.33201,-1.09641 -0.440135,-0.33422 -0.857091,-0.71261 -1.315771,-1.00743 -0.413687,-0.27634 -0.803746,-0.60415 -1.2085458,-0.89782 -0.4180757,-0.22161 -0.8885208,-0.28706 -1.259213,-0.64828 -0.4354752,-0.34525 -0.8677294,-0.69229 -1.2951047,-1.05225 -0.391145,-0.28566 -0.7571424,-0.61366 -1.1283468,-0.93795 -0.4494184,-0.33811 -0.876709,-0.71361 -1.293594,-1.11189 -0.6036896,-0.62511 -0.9813592,-1.47611 -1.2913612,-2.36657 -0.6519882,-2.27279 -1.0689488,-4.62264 -1.4580298,-6.98532 0,0 4.780287,-3.20928 4.7802858,-3.20928 z"
       id="path97" />
  </g>
</svg>
