<?xml version="1.0" encoding="UTF-8" standalone="no"?>
<svg
   xmlns:dc="http://purl.org/dc/elements/1.1/"
   xmlns:cc="http://creativecommons.org/ns#"
   xmlns:rdf="http://www.w3.org/1999/02/22-rdf-syntax-ns#"
   xmlns:svg="http://www.w3.org/2000/svg"
   xmlns="http://www.w3.org/2000/svg"
   id="svg89"
   version="1.1"
   viewBox="0 0 79.374998 79.375002"
   height="300"
   width="300">
  <defs
     id="defs83" />
  <metadata
     id="metadata86">
    <rdf:RDF>
      <cc:Work
         rdf:about="">
        <dc:format>image/svg+xml</dc:format>
        <dc:type
           rdf:resource="http://purl.org/dc/dcmitype/StillImage" />
        <dc:title></dc:title>
      </cc:Work>
    </rdf:RDF>
  </metadata>
  <g
     transform="translate(0,-217.62498)"
     id="layer1">
    <path
       d="m 144.3565,211.0485 -3.23674,3.2378 -8.70161,-8.70162 3.23779,-3.2378 c 0.43215,-0.43215 1.13736,-0.43215 1.56951,0 l 7.13105,7.13247 c 0.43321,0.43215 0.43321,1.13735 0,1.56915 z m -6.77474,6.77616 -8.70198,-8.70162 1.74061,-1.74061 8.70197,8.70162 z m -43.905674,32.66337 2.54,2.5407 -3.41312,0.87271 z m 5.40315,1.80869 -4.67078,-4.67222 0.91757,-3.58881 7.343074,7.34272 z m 6.066364,-2.03701 -8.700564,-8.70052 30.637344,-30.63839 8.70162,8.70161 z m 41.00971,-42.57812 -7.13246,-7.13246 c -1.42275,-1.42522 -3.74156,-1.42522 -5.16431,0 L 93.748056,240.6596 c -0.16157,0.16158 -0.27693,0.36266 -0.33302,0.5835 l -3.60645,14.1061 c -0.11183,0.43575 0.0148,0.89613 0.33267,1.21391 0.32385,0.32565 0.7941,0.4432 1.21426,0.33309 l 14.105824,-3.6069 c 0.22119,-0.0557 0.42227,-0.17099 0.58349,-0.33264 l 40.11048,-40.1104 c 0,0 0,0 0.001,0 1.42134,-1.42381 1.42134,-3.74051 -0.001,-5.16467"
       style="fill:#100f0d;fill-opacity:1;fill-rule:nonzero;stroke:none;stroke-width:0.03527778"
       id="path46" />
    <circle
       r="11.8989"
       style="fill:#666666;stroke-width:0.42714"
       cy="233.60042"
       cx="14.73372"
       id="path3863-3" />
    <circle
       r="9.0991592"
       style="fill:#666666;stroke-width:0.32663646"
       cy="270.64337"
       cx="49.378349"
       id="path3863-3-6" />
    <circle
       style="stroke-width:0.79574084"
       r="22.167068"
       cy="253.14264"
       cx="33.200432"
       id="path3863" />
    <circle
       r="6.1840506"
       style="fill:#666666;stroke-width:0.22199152"
       cy="289.53339"
       cx="72.198364"
       id="path3863-3-6-5" />
    <circle
       r="11.198965"
       style="fill:#333333;stroke-width:0.40201408"
       cy="281.44345"
       cx="60.875881"
       id="path3863-3-6-7" />
  </g>
</svg>
