<?xml version="1.0" encoding="UTF-8" standalone="no"?>
<svg
   xmlns:dc="http://purl.org/dc/elements/1.1/"
   xmlns:cc="http://creativecommons.org/ns#"
   xmlns:rdf="http://www.w3.org/1999/02/22-rdf-syntax-ns#"
   xmlns:svg="http://www.w3.org/2000/svg"
   xmlns="http://www.w3.org/2000/svg"
   viewBox="0 0 404 403"
   height="403"
   width="404"
   id="svg4218"
   version="1.1">
  <metadata
     id="metadata4224">
    <rdf:RDF>
      <cc:Work
         rdf:about="">
        <dc:format>image/svg+xml</dc:format>
        <dc:type
           rdf:resource="http://purl.org/dc/dcmitype/StillImage" />
        <dc:title></dc:title>
      </cc:Work>
    </rdf:RDF>
  </metadata>
  <defs
     id="defs4222" />
  <path
     style="fill:#363636"
     d="m 259.66037,354.73794 c -1.995,-1.99499 -2.92308,-3.92442 -2.92308,-6.07692 0,-4.30191 4.69809,-9 9,-9 4.30191,0 9,4.69809 9,9 0,4.30191 -4.69809,9 -9,9 -2.1525,0 -4.08193,-0.92808 -6.07692,-2.92308 z m 25,0 c -3.93001,-3.93001 -3.93001,-8.22383 0,-12.15384 1.99499,-1.995 3.92442,-2.92308 6.07692,-2.92308 2.1525,0 4.08193,0.92808 6.07692,2.92308 1.995,1.99499 2.92308,3.92442 2.92308,6.07692 0,2.1525 -0.92808,4.08193 -2.92308,6.07692 -1.99499,1.995 -3.92442,2.92308 -6.07692,2.92308 -2.1525,0 -4.08193,-0.92808 -6.07692,-2.92308 z m 25,0 c -1.995,-1.99499 -2.92308,-3.92442 -2.92308,-6.07692 0,-4.30191 4.69809,-9 9,-9 2.1525,0 4.08193,0.92808 6.07692,2.92308 1.995,1.99499 2.92308,3.92442 2.92308,6.07692 0,2.1525 -0.92808,4.08193 -2.92308,6.07692 -1.99499,1.995 -3.92442,2.92308 -6.07692,2.92308 -2.1525,0 -4.08193,-0.92808 -6.07692,-2.92308 z m -70.92308,-1.36232 c -5.70187,-1.94267 -6.53897,-2.55344 -6.81735,-4.97418 -0.44197,-3.84329 4.49826,-8.74042 8.81735,-8.74042 6.7035,0 11.22777,8.37439 7.4433,13.77749 -1.87224,2.67299 -1.40413,2.67611 -9.4433,-0.0629 z m 93,-4.79152 c 0,-2.06748 0.95897,-4.0359 2.92308,-6 1.9641,-1.96411 3.93252,-2.92308 6,-2.92308 4.37547,0 3.97528,2.3648 -1.2915,7.63158 -5.26678,5.26678 -7.63158,5.66697 -7.63158,1.2915 z m -115.75,-3.42409 c -5.39862,-2.45334 -6.43198,-3.83144 -3.66821,-4.892 3.40408,-1.30627 6.66922,-0.50982 9.49513,2.31609 5.47539,5.47538 2.98046,6.57832 -5.82692,2.57591 z m -6.32692,-15.42207 c -1.995,-1.99499 -2.92308,-3.92442 -2.92308,-6.07692 0,-4.30191 4.69809,-9 9,-9 4.30191,0 9,4.69809 9,9 0,4.30191 -4.69809,9 -9,9 -2.1525,0 -4.08193,-0.92808 -6.07692,-2.92308 z m 25,0 c -1.995,-1.99499 -2.92308,-3.92442 -2.92308,-6.07692 0,-4.30191 4.69809,-9 9,-9 4.30191,0 9,4.69809 9,9 0,4.30191 -4.69809,9 -9,9 -2.1525,0 -4.08193,-0.92808 -6.07692,-2.92308 z m 25,0 c -1.995,-1.99499 -2.92308,-3.92442 -2.92308,-6.07692 0,-4.30191 4.69809,-9 9,-9 4.30191,0 9,4.69809 9,9 0,4.30191 -4.69809,9 -9,9 -2.1525,0 -4.08193,-0.92808 -6.07692,-2.92308 z m 25,0 c -3.93001,-3.93001 -3.93001,-8.22383 0,-12.15384 1.99499,-1.995 3.92442,-2.92308 6.07692,-2.92308 2.1525,0 4.08193,0.92808 6.07692,2.92308 1.995,1.99499 2.92308,3.92442 2.92308,6.07692 0,2.1525 -0.92808,4.08193 -2.92308,6.07692 -1.99499,1.995 -3.92442,2.92308 -6.07692,2.92308 -2.1525,0 -4.08193,-0.92808 -6.07692,-2.92308 z m 25,0 c -1.995,-1.99499 -2.92308,-3.92442 -2.92308,-6.07692 0,-4.30191 4.69809,-9 9,-9 2.1525,0 4.08193,0.92808 6.07692,2.92308 1.995,1.99499 2.92308,3.92442 2.92308,6.07692 0,2.1525 -0.92808,4.08193 -2.92308,6.07692 -1.99499,1.995 -3.92442,2.92308 -6.07692,2.92308 -2.1525,0 -4.08193,-0.92808 -6.07692,-2.92308 z m 25,0 c -1.995,-1.99499 -2.92308,-3.92442 -2.92308,-6.07692 0,-4.30191 4.69809,-9 9,-9 2.1525,0 4.08193,0.92808 6.07692,2.92308 1.995,1.99499 2.92308,3.92442 2.92308,6.07692 0,2.1525 -0.92808,4.08193 -2.92308,6.07692 -1.99499,1.995 -3.92442,2.92308 -6.07692,2.92308 -2.1525,0 -4.08193,-0.92808 -6.07692,-2.92308 z M 193.06756,325.0196 c -4.66455,-5.61277 -6.52592,-8.8296 -5.62842,-9.7271 1.66961,-1.66961 6.62518,-0.45829 9.37507,2.2916 3.19091,3.19091 3.84143,7.43875 1.6071,10.49437 -1.21435,1.66073 -1.62778,1.42452 -5.35375,-3.05887 z m -8.40719,-20.28166 c -1.995,-1.99499 -2.92308,-3.92442 -2.92308,-6.07692 0,-4.30191 4.69809,-9 9,-9 4.30191,0 9,4.69809 9,9 0,4.30191 -4.69809,9 -9,9 -2.1525,0 -4.08193,-0.92808 -6.07692,-2.92308 z m 25,0 c -1.995,-1.99499 -2.92308,-3.92442 -2.92308,-6.07692 0,-4.30191 4.69809,-9 9,-9 4.30191,0 9,4.69809 9,9 0,4.30191 -4.69809,9 -9,9 -2.1525,0 -4.08193,-0.92808 -6.07692,-2.92308 z m 25,0 c -1.995,-1.99499 -2.92308,-3.92442 -2.92308,-6.07692 0,-4.30191 4.69809,-9 9,-9 4.30191,0 9,4.69809 9,9 0,4.30191 -4.69809,9 -9,9 -2.1525,0 -4.08193,-0.92808 -6.07692,-2.92308 z m 25,0 c -1.995,-1.99499 -2.92308,-3.92442 -2.92308,-6.07692 0,-4.30191 4.69809,-9 9,-9 4.30191,0 9,4.69809 9,9 0,4.30191 -4.69809,9 -9,9 -2.1525,0 -4.08193,-0.92808 -6.07692,-2.92308 z m 25,0 c -3.93001,-3.93001 -3.93001,-8.22383 0,-12.15384 1.99499,-1.995 3.92442,-2.92308 6.07692,-2.92308 2.1525,0 4.08193,0.92808 6.07692,2.92308 1.995,1.99499 2.92308,3.92442 2.92308,6.07692 0,2.1525 -0.92808,4.08193 -2.92308,6.07692 -1.99499,1.995 -3.92442,2.92308 -6.07692,2.92308 -2.1525,0 -4.08193,-0.92808 -6.07692,-2.92308 z m 25,0 c -1.995,-1.99499 -2.92308,-3.92442 -2.92308,-6.07692 0,-4.30191 4.69809,-9 9,-9 2.1525,0 4.08193,0.92808 6.07692,2.92308 1.995,1.99499 2.92308,3.92442 2.92308,6.07692 0,2.1525 -0.92808,4.08193 -2.92308,6.07692 -1.99499,1.995 -3.92442,2.92308 -6.07692,2.92308 -2.1525,0 -4.08193,-0.92808 -6.07692,-2.92308 z m 25,0 c -1.995,-1.99499 -2.92308,-3.92442 -2.92308,-6.07692 0,-6.24791 7.60197,-10.88894 13.05539,-7.97036 2.30306,1.23256 4.94461,6.03935 4.94461,8.99762 0,3.2989 -5.27605,7.97274 -9,7.97274 -2.1525,0 -4.08193,-0.92808 -6.07692,-2.92308 z m -150,-25 c -1.995,-1.99499 -2.92308,-3.92442 -2.92308,-6.07692 0,-4.30191 4.69809,-9 9,-9 4.30191,0 9,4.69809 9,9 0,4.30191 -4.69809,9 -9,9 -2.1525,0 -4.08193,-0.92808 -6.07692,-2.92308 z m 25,0 c -1.995,-1.99499 -2.92308,-3.92442 -2.92308,-6.07692 0,-4.30191 4.69809,-9 9,-9 4.30191,0 9,4.69809 9,9 0,4.30191 -4.69809,9 -9,9 -2.1525,0 -4.08193,-0.92808 -6.07692,-2.92308 z m 25,0 c -1.995,-1.99499 -2.92308,-3.92442 -2.92308,-6.07692 0,-4.30191 4.69809,-9 9,-9 4.30191,0 9,4.69809 9,9 0,4.30191 -4.69809,9 -9,9 -2.1525,0 -4.08193,-0.92808 -6.07692,-2.92308 z m 25,0 c -1.995,-1.99499 -2.92308,-3.92442 -2.92308,-6.07692 0,-4.30191 4.69809,-9 9,-9 4.30191,0 9,4.69809 9,9 0,4.30191 -4.69809,9 -9,9 -2.1525,0 -4.08193,-0.92808 -6.07692,-2.92308 z m 25,0 c -3.05762,-3.05761 -3.73424,-6.69274 -1.8879,-10.14266 0.87057,-1.62667 2.13715,-1.93426 7.96482,-1.93426 7.566,0 9,1.03745 9,6.51118 0,3.77918 -4.99325,8.48882 -9,8.48882 -2.1525,0 -4.08193,-0.92808 -6.07692,-2.92308 z m 25,0 c -5.08156,-5.08155 -3.12912,-12.8179 2.89925,-11.48801 5.00968,1.10517 9.67446,2.66919 10.92767,3.66386 3.60696,2.86283 -2.0786,10.74723 -7.75,10.74723 -2.1525,0 -4.08193,-0.92808 -6.07692,-2.92308 z m 25.05686,0.39891 c -1.93237,-2.32837 -0.55355,-2.76715 1.51451,-0.48196 0.99854,1.10337 1.35088,2.00613 0.78298,2.00613 -0.5679,0 -1.60177,-0.68587 -2.29749,-1.52417 z M 184.53705,254.61463 c -2.63216,-2.63217 -2.96623,-3.54998 -2.45683,-6.75 0.72505,-4.55483 4.63454,-8.20361 8.78976,-8.20361 4.16601,0 8.86731,4.77164 8.86731,9 0,2.1525 -0.92808,4.08193 -2.92308,6.07692 -3.9767,3.97671 -8.21976,3.93409 -12.27716,-0.12331 z m 25.12332,0.12331 c -1.995,-1.99499 -2.92308,-3.92442 -2.92308,-6.07692 0,-4.30191 4.69809,-9 9,-9 4.30191,0 9,4.69809 9,9 0,2.1525 -0.92808,4.08193 -2.92308,6.07692 -1.99499,1.995 -3.92442,2.92308 -6.07692,2.92308 -2.1525,0 -4.08193,-0.92808 -6.07692,-2.92308 z m 25,0 c -1.995,-1.99499 -2.92308,-3.92442 -2.92308,-6.07692 0,-4.30191 4.69809,-9 9,-9 4.30191,0 9,4.69809 9,9 0,2.1525 -0.92808,4.08193 -2.92308,6.07692 -1.99499,1.995 -3.92442,2.92308 -6.07692,2.92308 -2.1525,0 -4.08193,-0.92808 -6.07692,-2.92308 z m 25,0 c -1.995,-1.99499 -2.92308,-3.92442 -2.92308,-6.07692 0,-4.30191 4.69809,-9 9,-9 4.30191,0 9,4.69809 9,9 0,2.1525 -0.92808,4.08193 -2.92308,6.07692 -1.99499,1.995 -3.92442,2.92308 -6.07692,2.92308 -2.1525,0 -4.08193,-0.92808 -6.07692,-2.92308 z m -72.31709,-22.90543 c -0.28163,-0.45567 0.53216,-3.49317 1.80842,-6.75 1.27625,-3.25682 2.59099,-6.70899 2.92164,-7.67149 1.462,-4.2558 7.66395,0.97331 7.66395,6.46178 0,4.01034 -4.81912,8.78822 -8.86406,8.78822 -1.65985,0 -3.24833,-0.37283 -3.52995,-0.82851 z m 22.31709,-2.09457 c -1.995,-1.99499 -2.92308,-3.92442 -2.92308,-6.07692 0,-4.30191 4.69809,-9 9,-9 4.30191,0 9,4.69809 9,9 0,2.1525 -0.92808,4.08193 -2.92308,6.07692 -1.99499,1.995 -3.92442,2.92308 -6.07692,2.92308 -2.1525,0 -4.08193,-0.92808 -6.07692,-2.92308 z m 25,0 c -1.995,-1.99499 -2.92308,-3.92442 -2.92308,-6.07692 0,-4.30191 4.69809,-9 9,-9 4.30191,0 9,4.69809 9,9 0,2.1525 -0.92808,4.08193 -2.92308,6.07692 -1.99499,1.995 -3.92442,2.92308 -6.07692,2.92308 -2.1525,0 -4.08193,-0.92808 -6.07692,-2.92308 z m 25,0 c -1.995,-1.99499 -2.92308,-3.92442 -2.92308,-6.07692 0,-4.30191 4.69809,-9 9,-9 4.30191,0 9,4.69809 9,9 0,2.1525 -0.92808,4.08193 -2.92308,6.07692 -1.99499,1.995 -3.92442,2.92308 -6.07692,2.92308 -2.1525,0 -4.08193,-0.92808 -6.07692,-2.92308 z m 23.1121,-2.01118 c -1.61512,-3.01789 -1.22624,-6.55312 1.0374,-9.43088 2.97207,-3.77838 5.02847,-3.48416 4.29941,0.61514 -1.85598,10.43563 -3.24335,12.7274 -5.33681,8.81574 z m -73.1121,-22.98882 c -1.995,-1.99499 -2.92308,-3.92442 -2.92308,-6.07692 0,-4.30191 4.69809,-9 9,-9 4.30191,0 9,4.69809 9,9 0,2.1525 -0.92808,4.08193 -2.92308,6.07692 -1.99499,1.995 -3.92442,2.92308 -6.07692,2.92308 -2.1525,0 -4.08193,-0.92808 -6.07692,-2.92308 z m 25,0 c -1.995,-1.99499 -2.92308,-3.92442 -2.92308,-6.07692 0,-4.30191 4.69809,-9 9,-9 4.30191,0 9,4.69809 9,9 0,2.1525 -0.92808,4.08193 -2.92308,6.07692 -1.99499,1.995 -3.92442,2.92308 -6.07692,2.92308 -2.1525,0 -4.08193,-0.92808 -6.07692,-2.92308 z m 25,0 c -1.995,-1.99499 -2.92308,-3.92442 -2.92308,-6.07692 0,-4.30191 4.69809,-9 9,-9 4.30191,0 9,4.69809 9,9 0,2.1525 -0.92808,4.08193 -2.92308,6.07692 -1.99499,1.995 -3.92442,2.92308 -6.07692,2.92308 -2.1525,0 -4.08193,-0.92808 -6.07692,-2.92308 z m 25.06585,0.0659 c -2.05496,-2.055 -2.98893,-3.97447 -2.98893,-6.14282 0,-3.41429 5.12851,-9.65664 6.98893,-8.50684 0.55609,0.34368 1.01107,4.17176 1.01107,8.50684 0,4.33508 -0.45498,8.16316 -1.01107,8.50684 -0.55608,0.34368 -2.35608,-0.72015 -4,-2.36406 z m -86.97362,-5.4518 c -0.009,-2.95477 0.37027,-4.57071 0.98469,-4.19098 1.27164,0.78591 1.27164,5.53228 0,7.5 -0.70019,1.08346 -0.97363,0.16458 -0.98469,-3.30902 z m 11.90777,-19.61406 c -1.995,-1.99503 -2.92308,-3.92446 -2.92308,-6.07696 0,-4.30191 4.69809,-9 9,-9 4.30191,0 9,4.69809 9,9 0,2.1525 -0.92808,4.08193 -2.92308,6.07692 -1.99499,1.995 -3.92442,2.92308 -6.07692,2.92308 -2.1525,0 -4.08193,-0.92808 -6.07692,-2.92308 z m 25,0 c -1.995,-1.99503 -2.92308,-3.92446 -2.92308,-6.07696 0,-4.30191 4.69809,-9 9,-9 4.30191,0 9,4.69809 9,9 0,2.1525 -0.92808,4.08193 -2.92308,6.07692 -1.99499,1.995 -3.92442,2.92308 -6.07692,2.92308 -2.1525,0 -4.08193,-0.92808 -6.07692,-2.92308 z m 25,0 c -1.995,-1.99503 -2.92308,-3.92446 -2.92308,-6.07696 0,-4.30191 4.69809,-9 9,-9 4.30191,0 9,4.69809 9,9 0,2.1525 -0.92808,4.08193 -2.92308,6.07692 -1.99499,1.995 -3.92442,2.92308 -6.07692,2.92308 -2.1525,0 -4.08193,-0.92808 -6.07692,-2.92308 z m 25.06585,0.0659 c -3.58287,-3.58287 -3.91079,-7.7011 -0.91635,-11.50792 2.34363,-2.97945 4.42326,-3.39107 5.32043,-1.05307 1.00028,2.60669 0.685,14.25196 -0.40408,14.92505 -0.55608,0.34368 -2.35608,-0.72015 -4,-2.36406 z m -87.28849,-2.87647 c -0.24077,-0.42147 -0.73954,-2.43934 -1.10838,-4.48416 -0.36885,-2.04482 -1.36009,-4.40732 -2.20277,-5.25 -1.34658,-1.34666 -1.35061,-1.53223 -0.0333,-1.53223 2.23691,0 5.64401,4.87512 5.64401,8.07584 0,2.7396 -1.42651,4.71878 -2.29956,3.19047 z m -89.45044,-0.92867 c -2.2403,-0.90398 -1.34755,-5.39402 1.67308,-8.41464 1.995,-1.995 3.92442,-2.92308 6.07692,-2.92308 5.92474,0 12.15854,9.57398 7.41821,11.39301 -1.86512,0.71572 -13.3613,0.67381 -15.16821,-0.0553 z m -13.749999,-4.55458 c -7.80836,-3.94544 -9.2157,-6.78314 -3.36406,-6.78314 2.00225,0 4.00165,0.98374 5.94098,2.92308 4.945689,4.94569 3.590159,6.97619 -2.57692,3.86006 z m 38.010509,1.23386 c -1.62342,-2.62675 4.19443,-8.017 8.65298,-8.017 3.86657,0 4.31018,1.53051 1.09827,3.78915 -4.85879,3.41672 -9.11268,5.26108 -9.75125,4.22785 z M 84.660371,154.73794 c -1.995,-1.99499 -2.92308,-3.92442 -2.92308,-6.07692 0,-4.30191 4.69809,-9 9,-9 4.30191,0 9,4.69809 9,9 0,4.30191 -4.69809,9 -9,9 -2.1525,0 -4.08192,-0.92808 -6.07692,-2.92308 z m 24.999999,0 c -1.995,-1.99499 -2.92308,-3.92442 -2.92308,-6.07692 0,-4.30191 4.69809,-9 9,-9 4.30191,0 9,4.69809 9,9 0,4.30191 -4.69809,9 -9,9 -2.1525,0 -4.08192,-0.92808 -6.07692,-2.92308 z m 25,0 c -1.995,-1.99499 -2.92308,-3.92442 -2.92308,-6.07692 0,-4.30191 4.69809,-9 9,-9 4.30191,0 9,4.69809 9,9 0,4.30191 -4.69809,9 -9,9 -2.1525,0 -4.08193,-0.92808 -6.07692,-2.92308 z m 50,0 c -1.995,-1.99499 -2.92308,-3.92442 -2.92308,-6.07692 0,-4.30191 4.69809,-9 9,-9 4.30191,0 9,4.69809 9,9 0,2.1525 -0.92808,4.08193 -2.92308,6.07692 -1.99499,1.995 -3.92442,2.92308 -6.07692,2.92308 -2.1525,0 -4.08193,-0.92808 -6.07692,-2.92308 z m 25,0 c -1.995,-1.99499 -2.92308,-3.92442 -2.92308,-6.07692 0,-4.30191 4.69809,-9 9,-9 4.30191,0 9,4.69809 9,9 0,2.1525 -0.92808,4.08193 -2.92308,6.07692 -1.99499,1.995 -3.92442,2.92308 -6.07692,2.92308 -2.1525,0 -4.08193,-0.92808 -6.07692,-2.92308 z m 25,0 c -1.995,-1.99499 -2.92308,-3.92442 -2.92308,-6.07692 0,-4.30191 4.69809,-9 9,-9 4.30191,0 9,4.69809 9,9 0,2.1525 -0.92808,4.08193 -2.92308,6.07692 -1.99499,1.995 -3.92442,2.92308 -6.07692,2.92308 -2.1525,0 -4.08193,-0.92808 -6.07692,-2.92308 z m 25,0 c -1.995,-1.99499 -2.92308,-3.92442 -2.92308,-6.07692 0,-4.30191 4.69809,-9 9,-9 4.30191,0 9,4.69809 9,9 0,2.1525 -0.92808,4.08193 -2.92308,6.07692 -1.99499,1.995 -3.92442,2.92308 -6.07692,2.92308 -2.1525,0 -4.08193,-0.92808 -6.07692,-2.92308 z m 24.27411,-0.55336 c -2.32014,-2.94958 -2.82529,-7.0201 -1.18188,-9.52356 0.87528,-1.33333 1.09256,-1.33333 1.95551,0 1.15739,1.78827 2.40741,9.36531 1.83054,11.09591 -0.24595,0.73785 -1.27632,0.11573 -2.60417,-1.57235 z m -126.5902,-2.10535 c -2.12041,-5.52568 2.538,-12.41821 8.39301,-12.41821 5.85501,0 10.51342,6.89253 8.39301,12.41821 -0.88742,2.31258 -15.8986,2.31258 -16.78602,0 z m -84.482439,-4.81969 c -0.65463,-1.59581 -1.02585,-3.39461 -0.82494,-3.99733 0.56465,-1.69396 2.88017,3.28062 2.42101,5.20122 -0.30424,1.27261 -0.7038,0.97122 -1.59607,-1.20389 z m 11.79853,-17.5216 c -1.995,-1.99499 -2.92308,-3.92442 -2.92308,-6.07692 0,-4.30191 4.69809,-9 9,-9 4.30191,0 9,4.69809 9,9 0,2.1525 -0.92808,4.08193 -2.92308,6.07692 -3.93,3.93001 -8.22383,3.93001 -12.15384,0 z m 24.999999,0 c -1.995,-1.99499 -2.92308,-3.92442 -2.92308,-6.07692 0,-4.30191 4.69809,-9 9,-9 4.30191,0 9,4.69809 9,9 0,2.1525 -0.92808,4.08193 -2.92308,6.07692 -3.93,3.93001 -8.22383,3.93001 -12.15384,0 z m 25,0 c -1.995,-1.99499 -2.92308,-3.92442 -2.92308,-6.07692 0,-4.30191 4.69809,-9 9,-9 4.30191,0 9,4.69809 9,9 0,2.1525 -0.92808,4.08193 -2.92308,6.07692 -3.93001,3.93001 -8.22383,3.93001 -12.15384,0 z m 25,0 c -1.995,-1.99499 -2.92308,-3.92442 -2.92308,-6.07692 0,-4.30191 4.69809,-9 9,-9 4.30191,0 9,4.69809 9,9 0,2.1525 -0.92808,4.08193 -2.92308,6.07692 -3.93001,3.93001 -8.22383,3.93001 -12.15384,0 z m 25,0 c -1.995,-1.99499 -2.92308,-3.92442 -2.92308,-6.07692 0,-4.30191 4.69809,-9 9,-9 4.30191,0 9,4.69809 9,9 0,2.1525 -0.92808,4.08193 -2.92308,6.07692 -3.93001,3.93001 -8.22383,3.93001 -12.15384,0 z m 25,0 c -1.995,-1.99499 -2.92308,-3.92442 -2.92308,-6.07692 0,-4.30191 4.69809,-9 9,-9 4.30191,0 9,4.69809 9,9 0,2.1525 -0.92808,4.08193 -2.92308,6.07692 -3.93001,3.93001 -8.22383,3.93001 -12.15384,0 z m 25,0 c -1.995,-1.99499 -2.92308,-3.92442 -2.92308,-6.07692 0,-4.30191 4.69809,-9 9,-9 4.30191,0 9,4.69809 9,9 0,2.1525 -0.92808,4.08193 -2.92308,6.07692 -3.93001,3.93001 -8.22383,3.93001 -12.15384,0 z m 25,0 c -1.995,-1.99499 -2.92308,-3.92442 -2.92308,-6.07692 0,-4.30191 4.69809,-9 9,-9 4.30191,0 9,4.69809 9,9 0,2.1525 -0.92808,4.08193 -2.92308,6.07692 -3.93001,3.93001 -8.22383,3.93001 -12.15384,0 z M 70.022481,125.18673 c 0.7153,-6.93057 1.5682,-8.4467 3.36745,-5.98607 1.79662,2.45702 1.70489,6.50491 -0.20934,9.23785 -2.68259,3.82994 -3.77311,2.70707 -3.15811,-3.25178 z m 14.63789,-20.44879 c -1.60769,-1.60769 -2.92308,-3.91063 -2.92308,-5.11765 0,-2.84927 7.11001,-9.95927 9.95928,-9.95927 3.3567,0 8.04072,5.24283 8.04072,9 0,2.15249 -0.92808,4.08192 -2.92308,6.07692 -3.93,3.93001 -8.22383,3.93001 -12.15384,0 z m 24.999999,0 c -1.995,-1.995 -2.92308,-3.92443 -2.92308,-6.07692 0,-4.30191 4.69809,-9 9,-9 4.30191,0 9,4.69809 9,9 0,2.15249 -0.92808,4.08192 -2.92308,6.07692 -3.93,3.93001 -8.22383,3.93001 -12.15384,0 z m 25,0 c -1.995,-1.995 -2.92308,-3.92443 -2.92308,-6.07692 0,-4.30191 4.69809,-9 9,-9 4.30191,0 9,4.69809 9,9 0,2.15249 -0.92808,4.08192 -2.92308,6.07692 -3.93001,3.93001 -8.22383,3.93001 -12.15384,0 z m 25,0 c -1.995,-1.995 -2.92308,-3.92443 -2.92308,-6.07692 0,-4.30191 4.69809,-9 9,-9 4.30191,0 9,4.69809 9,9 0,2.15249 -0.92808,4.08192 -2.92308,6.07692 -3.93001,3.93001 -8.22383,3.93001 -12.15384,0 z m 25,0 c -1.995,-1.995 -2.92308,-3.92443 -2.92308,-6.07692 0,-4.30191 4.69809,-9 9,-9 4.30191,0 9,4.69809 9,9 0,2.15249 -0.92808,4.08192 -2.92308,6.07692 -3.93001,3.93001 -8.22383,3.93001 -12.15384,0 z m 25,0 c -1.995,-1.995 -2.92308,-3.92443 -2.92308,-6.07692 0,-4.30191 4.69809,-9 9,-9 4.30191,0 9,4.69809 9,9 0,2.15249 -0.92808,4.08192 -2.92308,6.07692 -3.93001,3.93001 -8.22383,3.93001 -12.15384,0 z m 25,0 c -1.995,-1.995 -2.92308,-3.92443 -2.92308,-6.07692 0,-4.30191 4.69809,-9 9,-9 4.30191,0 9,4.69809 9,9 0,2.15249 -0.92808,4.08192 -2.92308,6.07692 -3.93001,3.93001 -8.22383,3.93001 -12.15384,0 z m 25,0 c -2.77125,-2.77125 -3.98868,-7.07692 -2.001,-7.07692 1.07113,0 8.07792,7.96273 8.07792,9.18 0,1.8035 -3.31895,0.65489 -6.07692,-2.10308 z M 110.07555,80.27555 c -3.4987,-3.00945 -2.58498,-4.33573 5.91239,-8.58192 4.60908,-2.30318 6.37522,-2.75808 7.40147,-1.90637 2.35918,1.95795 1.59592,6.77956 -1.5752,9.95068 -3.65255,3.65255 -7.89162,3.8467 -11.73866,0.53761 z m 24.58482,-0.53761 c -1.995,-1.995 -2.92308,-3.92443 -2.92308,-6.07692 0,-4.30191 4.69809,-9 9,-9 4.30191,0 9,4.69809 9,9 0,2.15249 -0.92808,4.08192 -2.92308,6.07692 -1.99499,1.995 -3.92442,2.92308 -6.07692,2.92308 -2.1525,0 -4.08193,-0.92808 -6.07692,-2.92308 z m 25,0 c -1.995,-1.995 -2.92308,-3.92443 -2.92308,-6.07692 0,-4.30191 4.69809,-9 9,-9 4.30191,0 9,4.69809 9,9 0,2.15249 -0.92808,4.08192 -2.92308,6.07692 -1.99499,1.995 -3.92442,2.92308 -6.07692,2.92308 -2.1525,0 -4.08193,-0.92808 -6.07692,-2.92308 z m 25,0 c -1.995,-1.995 -2.92308,-3.92443 -2.92308,-6.07692 0,-4.30191 4.69809,-9 9,-9 4.30191,0 9,4.69809 9,9 0,2.15249 -0.92808,4.08192 -2.92308,6.07692 -1.99499,1.995 -3.92442,2.92308 -6.07692,2.92308 -2.1525,0 -4.08193,-0.92808 -6.07692,-2.92308 z m 25,0 c -1.87605,-1.87605 -2.92308,-3.95358 -2.92308,-5.8 0,-5.22812 1.63479,-5.51945 9.14966,-1.6305 3.76794,1.94991 7.1478,4.02586 7.51081,4.61322 1.04947,1.69807 -4.43837,5.74036 -7.79316,5.74036 -2.00584,0 -4.00351,-0.98236 -5.94423,-2.92308 z"
     id="path4238" />
</svg>
