<?xml version="1.0" encoding="utf-8"?>
<!-- Generator: Adobe Illustrator 25.4.1, SVG Export Plug-In . SVG Version: 6.00 Build 0)  -->
<svg version="1.1" id="Layer_1" xmlns="http://www.w3.org/2000/svg" xmlns:xlink="http://www.w3.org/1999/xlink" x="0px" y="0px"
	 viewBox="0 0 107 249" style="enable-background:new 0 0 107 249;" xml:space="preserve">
<style type="text/css">
	.st0{fill:#626E7F;}
	.st1{fill:#4D5967;}
	.st2{fill:#333B4D;}
	.st3{fill:#3F4857;}
	.st4{fill:#4A5465;}
	.st5{fill:#728090;}
	.st6{fill:url(#XMLID_00000073698933112829451310000003175688692215385762_);}
</style>
<g id="XMLID_678_">
	<g id="XMLID_695_">
		<polygon id="XMLID_698_" class="st0" points="75.67,243.97 1.5,201.16 30.35,184.51 104.51,227.32 		"/>
		<polygon id="XMLID_697_" class="st1" points="1.5,201.16 1.5,205.93 75.66,248.73 75.67,243.97 		"/>
		<polygon id="XMLID_696_" class="st2" points="75.67,243.97 104.51,227.32 104.5,232.08 75.66,248.73 		"/>
	</g>
	<polygon id="XMLID_694_" class="st2" points="67.43,234.35 88.03,222.46 88.03,193.91 67.43,205.81 	"/>
	<polygon id="XMLID_693_" class="st3" points="67.43,205.81 67.43,234.35 17.99,205.81 17.99,177.26 	"/>
	<polygon id="XMLID_692_" class="st4" points="98.32,204.73 106.56,199.97 106.56,47.74 98.32,52.49 	"/>
	<polygon id="XMLID_691_" class="st5" points="106.56,47.73 24.17,0.16 15.93,4.92 98.32,52.49 	"/>
	<g id="XMLID_684_">
		<polygon id="XMLID_690_" class="st4" points="81.84,214.24 90.08,209.48 90.08,57.25 81.84,62.01 		"/>
		<polygon id="XMLID_689_" class="st5" points="90.08,57.25 7.69,9.68 -0.56,14.43 81.84,62.01 		"/>
		<polygon id="XMLID_688_" class="st0" points="-0.56,14.43 -0.55,166.67 81.84,214.24 81.84,62.01 		"/>
		
			<linearGradient id="XMLID_00000041978240835254149020000006790734824897013405_" gradientUnits="userSpaceOnUse" x1="71.5446" y1="60.8151" x2="9.7423" y2="167.86">
			<stop  offset="0" style="stop-color:#EAF3F4"/>
			<stop  offset="0.4352" style="stop-color:#E7F1F2"/>
			<stop  offset="0.7326" style="stop-color:#DEECED"/>
			<stop  offset="0.9885" style="stop-color:#CFE3E5"/>
			<stop  offset="1" style="stop-color:#CEE2E5"/>
		</linearGradient>
		<polygon id="XMLID_687_" style="fill:url(#XMLID_00000041978240835254149020000006790734824897013405_);" points="77.72,207.11 
			3.57,164.28 3.57,21.57 77.72,64.39 		"/>
		<polygon id="XMLID_686_" class="st1" points="3.57,164.28 7.68,161.91 7.68,23.95 3.57,21.57 		"/>
		<polygon id="XMLID_685_" class="st5" points="3.57,164.28 7.68,161.91 77.72,202.34 77.72,207.11 		"/>
	</g>
	<polygon id="XMLID_683_" class="st2" points="90.08,199.97 94.2,197.59 94.2,54.87 90.08,57.25 	"/>
	<polygon id="XMLID_682_" class="st0" points="15.93,4.92 15.91,9.68 98.32,57.25 98.32,52.49 	"/>
	<polygon id="XMLID_681_" class="st1" points="94.2,54.87 20.03,12.06 15.91,14.43 90.08,57.25 	"/>
	<polygon id="XMLID_680_" class="st0" points="15.93,4.92 15.91,14.43 24.17,9.68 	"/>
	<polygon id="XMLID_679_" class="st0" points="90.08,199.97 98.32,204.73 98.32,52.49 94.2,54.87 94.2,197.59 	"/>
</g>
<polygon id="XMLID_677_" class="st3" points="88.03,222.46 92.14,220.19 88.03,217.81 "/>
</svg>
