<?xml version="1.0" encoding="utf-8"?>
<!-- Generator: Adobe Illustrator 25.4.1, SVG Export Plug-In . SVG Version: 6.00 Build 0)  -->
<svg version="1.1" id="Layer_1" xmlns="http://www.w3.org/2000/svg" xmlns:xlink="http://www.w3.org/1999/xlink" x="0px" y="0px"
	 viewBox="0 0 54 133" style="enable-background:new 0 0 54 133;" xml:space="preserve">
<style type="text/css">
	.st0{fill:#4A5465;}
	.st1{fill:#728090;}
	.st2{fill:#BFD3D9;}
	.st3{fill:#333B4D;}
	.st4{fill:#626E7F;}
	.st5{fill:#B3CDDD;}
	.st6{fill:url(#XMLID_00000133514006766048764930000017458464530951962046_);}
	.st7{fill:#8DB4CD;}
	.st8{fill:#D8E9EF;}
</style>
<g id="XMLID_477_">
	<path id="XMLID_483_" class="st0" d="M10.15,127.09c2.24,1.3,2.24,3.39,0,4.69c-2.24,1.3-5.88,1.3-8.12,0s-2.24-3.39,0-4.69
		C4.27,125.8,7.91,125.8,10.15,127.09z"/>
	<path id="XMLID_482_" class="st1" d="M10.15,125.92c2.24,1.3,2.24,3.39,0,4.69c-2.24,1.3-5.88,1.3-8.12,0
		c-2.24-1.3-2.24-3.39,0-4.69C4.27,124.63,7.91,124.63,10.15,125.92z"/>
	<path id="XMLID_481_" class="st2" d="M8.12,128.06l2.78-1.6c-0.21-0.19-0.46-0.37-0.75-0.54c-0.42-0.24-0.89-0.42-1.38-0.57
		l-4.71,2.71L8.12,128.06z"/>
	<polygon id="XMLID_480_" class="st0" points="8.12,1.42 8.12,128.06 6.09,129.24 6.09,2.59 	"/>
	<polygon id="XMLID_479_" class="st3" points="6.09,2.59 4.06,1.42 4.06,128.06 6.09,129.24 	"/>
	<polygon id="XMLID_478_" class="st4" points="8.12,1.42 6.09,0.25 4.06,1.42 6.09,2.59 	"/>
</g>
<polygon id="XMLID_476_" class="st5" points="49.1,32.87 7.6,8.11 7.6,51.77 49.1,76.53 "/>
<linearGradient id="XMLID_00000095329566384582328770000000671768565644860863_" gradientUnits="userSpaceOnUse" x1="36.8557" y1="27.4017" x2="19.3412" y2="57.7378">
	<stop  offset="0" style="stop-color:#EAF3F4"/>
	<stop  offset="0.4352" style="stop-color:#E7F1F2"/>
	<stop  offset="0.7326" style="stop-color:#DEECED"/>
	<stop  offset="0.9885" style="stop-color:#CFE3E5"/>
	<stop  offset="1" style="stop-color:#CEE2E5"/>
</linearGradient>
<polygon id="XMLID_475_" style="fill:url(#XMLID_00000095329566384582328770000000671768565644860863_);" points="8.1,50.8 
	8.1,10.8 48.1,34.34 48.1,74.34 "/>
<polygon id="XMLID_474_" class="st7" points="49.1,76.53 50.11,75.93 50.11,32.27 49.1,32.87 "/>
<polygon id="XMLID_473_" class="st8" points="50.11,32.27 8.62,7.5 7.6,8.11 49.1,32.87 "/>
<polygon id="XMLID_470_" class="st4" points="6.09,0.25 4.06,1.42 51.62,28.52 53.65,27.35 "/>
<polygon id="XMLID_469_" class="st3" points="4.06,3.76 4.06,1.42 51.62,28.52 51.62,31.87 "/>
<polygon id="XMLID_468_" class="st0" points="51.62,31.87 53.65,30.7 53.65,27.35 51.62,28.52 "/>
</svg>
