<?xml version="1.0" encoding="UTF-8" standalone="no"?>
<!-- Svg Vector Icons : http://www.onlinewebfonts.com/icon -->

<svg
   version="1.1"
   x="0px"
   y="0px"
   viewBox="0 0 300 300"
   enable-background="new 0 0 1000 1000"
   xml:space="preserve"
   id="svg77"
   sodipodi:docname="eyeDropper.svg"
   width="300"
   height="300"
   inkscape:version="1.1.1 (3bf5ae0d25, 2021-09-20)"
   xmlns:inkscape="http://www.inkscape.org/namespaces/inkscape"
   xmlns:sodipodi="http://sodipodi.sourceforge.net/DTD/sodipodi-0.dtd"
   xmlns="http://www.w3.org/2000/svg"
   xmlns:svg="http://www.w3.org/2000/svg"><defs
   id="defs81" /><sodipodi:namedview
   id="namedview79"
   pagecolor="#ffffff"
   bordercolor="#666666"
   borderopacity="1.0"
   inkscape:pageshadow="2"
   inkscape:pageopacity="0.0"
   inkscape:pagecheckerboard="0"
   showgrid="false"
   width="300px"
   inkscape:zoom="0.47875"
   inkscape:cx="382.24543"
   inkscape:cy="400"
   inkscape:window-width="1567"
   inkscape:window-height="1048"
   inkscape:window-x="3056"
   inkscape:window-y="556"
   inkscape:window-maximized="0"
   inkscape:current-layer="g75"
   inkscape:lockguides="true" />
<metadata
   id="metadata69"> Svg Vector Icons : http://www.onlinewebfonts.com/icon </metadata>
<g
   id="g75"><g
     transform="matrix(0.22662083,0,0,-0.22662083,36.712247,471.77892)"
     id="g73"
     style="fill:#7300eb;fill-opacity:1"><path
       d="m 105.8,930.4 c -26.8,0 -49.5,9.3 -68,27.8 -18.5,18.5 -27.8,41.1 -27.8,67.6 0,27.7 10,51.4 29.9,71.4 l 14.5,14.5 c 0.6,0.8 1.3,2.2 2.3,4.1 1,1.9 1.7,3.8 2.3,5.6 0.6,1.8 0.8,3.1 0.8,3.9 -1.7,7.2 -2.5,14.9 -2.5,23.2 0,17.4 3.5,34.9 10.6,52.5 7.1,17.6 16.7,32.4 28.8,44.6 l 372.6,372.6 -46.5,46.1 c -6.9,6.9 -10.4,15.1 -10.4,24.5 0,9.1 3.2,16.9 9.5,23.2 l 58.9,58.9 c 6.4,6.1 14.1,9.1 23.2,9.1 9.4,0 17.6,-3.3 24.5,-10 l 64.3,-64.3 c 3,3.9 4.8,5.9 5.4,6.2 l 131.9,132.4 c 43.4,43.4 82.7,65.1 117.8,65.1 26.8,0 52.1,-11.9 75.9,-35.7 l 29.5,-29.5 c 24.3,-24.3 36.5,-49.8 36.5,-76.3 0,-19.9 -6,-39.5 -18,-58.7 -12,-19.2 -28,-38.8 -47.9,-58.7 l -132.4,-132.4 -6.2,-5 64.3,-64.7 c 6.9,-6.6 10.4,-14.8 10.4,-24.5 0,-9.1 -3.2,-16.7 -9.5,-22.8 l -58.9,-58.9 c -6.4,-6.4 -14,-9.5 -22.8,-9.5 -9.7,0 -18,3.5 -24.9,10.4 l -46.1,46.1 -372.6,-372.6 c -12.2,-11.9 -27,-21.4 -44.6,-28.4 -17.6,-7.1 -34.9,-10.6 -52.1,-10.6 -7.7,0 -15.4,0.7 -22.8,2.1 -1.1,0 -2.6,-0.3 -4.6,-0.8 -1.9,-0.6 -3.8,-1.2 -5.6,-2.1 -1.8,-0.9 -3.1,-1.5 -3.9,-2.1 l -14.9,-14.9 c -19.5,-19.6 -43.2,-29.4 -70.9,-29.4 z m 37.4,279.7 h 293.3 l 220.3,220.3 -146.5,146.9 z"
       id="path71"
       style="fill:#7300eb;fill-opacity:1" /></g></g>
</svg>
