<?xml version="1.0" encoding="UTF-8" standalone="no"?>
<svg
   xmlns:dc="http://purl.org/dc/elements/1.1/"
   xmlns:cc="http://creativecommons.org/ns#"
   xmlns:rdf="http://www.w3.org/1999/02/22-rdf-syntax-ns#"
   xmlns:svg="http://www.w3.org/2000/svg"
   xmlns="http://www.w3.org/2000/svg"
   id="svg6838"
   version="1.1"
   viewBox="0 0 79.374998 79.375002"
   height="300"
   width="300">
  <defs
     id="defs6832" />
  <metadata
     id="metadata6835">
    <rdf:RDF>
      <cc:Work
         rdf:about="">
        <dc:format>image/svg+xml</dc:format>
        <dc:type
           rdf:resource="http://purl.org/dc/dcmitype/StillImage" />
        <dc:title></dc:title>
      </cc:Work>
    </rdf:RDF>
  </metadata>
  <g
     transform="translate(0,-217.62498)"
     id="layer1">
    <g
       transform="matrix(0.26983197,0,0,-0.26983197,-105.55734,555.85497)"
       id="g6692">
      <path
         id="path3738"
         style="fill:#da2c61;fill-opacity:1;fill-rule:nonzero;stroke:none;stroke-width:0.1"
         d="m 664.986,1155.14 v -11.31 h -27.824 v 11.31 H 623.25 v 11.31 h -13.912 v 11.31 h -13.912 v 11.31 h 13.912 13.912 13.912 v 11.31 H 623.25 609.338 595.426 581.51 v -11.31 h -13.907 v -11.31 h -13.912 v -11.31 h -13.912 -13.912 v 11.31 h -13.912 v 11.31 h -13.911 v 11.31 h -13.912 -13.917 -13.907 v -11.31 h -13.912 v -11.31 -11.31 -11.31 -11.31 -11.31 -11.31 -11.32 h 13.912 v -11.3 h 13.907 v -11.32 h 13.917 v -11.31 -11.31 h 13.912 v -11.31 h 13.911 v -11.31 h 13.912 v -11.31 h 13.912 v -11.31 h 13.912 13.912 v 11.31 h 13.907 v 11.31 h 13.916 v 11.31 h 13.912 v 11.31 h 13.912 v 11.31 h 13.912 v 11.31 h 13.912 v 11.32 h 13.912 v 11.3 11.32 11.31 h 13.911 v 11.31 11.31 h -13.911" />
      <path
         id="path3740"
         style="fill:#eb242c;fill-opacity:1;fill-rule:nonzero;stroke:none;stroke-width:0.1"
         d="m 664.986,1166.45 v 11.31 h -13.912 v -11.31 h 13.912" />
      <path
         id="path3742"
         style="fill:#eb242c;fill-opacity:1;fill-rule:nonzero;stroke:none;stroke-width:0.1"
         d="m 651.074,1177.76 v 11.31 h -13.912 v -11.31 h 13.912" />
      <path
         id="path3744"
         style="fill:#b12f71;fill-opacity:1;fill-rule:nonzero;stroke:none;stroke-width:0.1"
         d="m 539.779,1030.72 h -13.912 v 11.31 h -13.912 v 11.31 h -13.911 v 11.31 h -13.912 v 11.31 11.31 h -13.917 v 11.32 h -13.907 v 11.3 h -13.912 v 11.32 11.31 11.31 11.31 11.31 11.31 11.31 h -13.907 v -11.31 h -13.921 v -11.31 -11.31 -11.31 -11.31 -11.31 -11.32 -11.3 h 13.921 v -11.32 h 13.907 v -11.31 h 13.912 v -11.31 h 13.907 v -11.31 h 13.917 v -11.31 h 13.912 v -11.31 h 13.911 v -11.31 -11.31 h 13.912 v -11.313 h 13.912 13.912 v 11.313 11.31 h -13.912 v 11.31" />
      <path
         id="path3746"
         style="fill:#b12f71;fill-opacity:1;fill-rule:nonzero;stroke:none;stroke-width:0.1"
         d="m 456.308,1200.38 h -13.912 v -11.31 h 13.912 v 11.31" />
      <path
         id="path3748"
         style="fill:#231f20;fill-opacity:1;fill-rule:nonzero;stroke:none;stroke-width:0.1"
         d="m 651.074,1189.07 v -11.31 h 13.912 v 11.31 h -13.912" />
      <path
         id="path3750"
         style="fill:#231f20;fill-opacity:1;fill-rule:nonzero;stroke:none;stroke-width:0.1"
         d="m 637.162,1200.38 v -11.31 h 13.912 v 11.31 h -13.912" />
      <path
         id="path3752"
         style="fill:#231f20;fill-opacity:1;fill-rule:nonzero;stroke:none;stroke-width:0.1"
         d="m 553.691,1008.1 h -13.912 v -11.313 h -13.912 v -11.311 h 13.912 v 11.311 h 13.912 v 11.313 h 13.912 v 11.31 h -13.912 v -11.31" />
      <path
         id="path3754"
         style="fill:#231f20;fill-opacity:1;fill-rule:nonzero;stroke:none;stroke-width:0.1"
         d="m 567.603,1019.41 h 13.907 v 11.31 h -13.907 v -11.31" />
      <path
         id="path3756"
         style="fill:#231f20;fill-opacity:1;fill-rule:nonzero;stroke:none;stroke-width:0.1"
         d="m 498.044,1030.72 v -11.31 h 13.911 v 11.31 h -13.911" />
      <path
         id="path3758"
         style="fill:#231f20;fill-opacity:1;fill-rule:nonzero;stroke:none;stroke-width:0.1"
         d="m 525.867,1008.1 v 11.31 h -13.912 v -11.31 h 13.912" />
      <path
         id="path3760"
         style="fill:#231f20;fill-opacity:1;fill-rule:nonzero;stroke:none;stroke-width:0.1"
         d="m 581.51,1030.72 h 13.916 v 11.31 H 581.51 v -11.31" />
      <path
         id="path3762"
         style="fill:#231f20;fill-opacity:1;fill-rule:nonzero;stroke:none;stroke-width:0.1"
         d="m 484.132,1042.03 v -11.31 h 13.912 v 11.31 h -13.912" />
      <path
         id="path3764"
         style="fill:#231f20;fill-opacity:1;fill-rule:nonzero;stroke:none;stroke-width:0.1"
         d="m 595.426,1042.03 h 13.912 v 11.31 h -13.912 v -11.31" />
      <path
         id="path3766"
         style="fill:#231f20;fill-opacity:1;fill-rule:nonzero;stroke:none;stroke-width:0.1"
         d="m 470.215,1053.34 v -11.31 h 13.917 v 11.31 h -13.917" />
      <path
         id="path3768"
         style="fill:#231f20;fill-opacity:1;fill-rule:nonzero;stroke:none;stroke-width:0.1"
         d="m 609.338,1053.34 h 13.912 v 11.31 h -13.912 v -11.31" />
      <path
         id="path3770"
         style="fill:#231f20;fill-opacity:1;fill-rule:nonzero;stroke:none;stroke-width:0.1"
         d="m 456.308,1064.65 v -11.31 h 13.907 v 11.31 h -13.907" />
      <path
         id="path3772"
         style="fill:#231f20;fill-opacity:1;fill-rule:nonzero;stroke:none;stroke-width:0.1"
         d="m 623.25,1064.65 h 13.912 v 11.31 H 623.25 v -11.31" />
      <path
         id="path3774"
         style="fill:#231f20;fill-opacity:1;fill-rule:nonzero;stroke:none;stroke-width:0.1"
         d="m 442.396,1075.96 v -11.31 h 13.912 v 11.31 h -13.912" />
      <path
         id="path3776"
         style="fill:#231f20;fill-opacity:1;fill-rule:nonzero;stroke:none;stroke-width:0.1"
         d="m 637.162,1075.96 h 13.912 v 11.31 h -13.912 v -11.31" />
      <path
         id="path3778"
         style="fill:#231f20;fill-opacity:1;fill-rule:nonzero;stroke:none;stroke-width:0.1"
         d="m 428.489,1087.27 v -11.31 h 13.907 v 11.31 h -13.907" />
      <path
         id="path3780"
         style="fill:#231f20;fill-opacity:1;fill-rule:nonzero;stroke:none;stroke-width:0.1"
         d="m 414.568,1098.59 v -11.32 h 13.921 v 11.32 h -13.921" />
      <path
         id="path3782"
         style="fill:#231f20;fill-opacity:1;fill-rule:nonzero;stroke:none;stroke-width:0.1"
         d="m 664.986,1098.59 h -13.912 v -11.32 h 13.912 v 11.32 h 13.911 v 11.3 h -13.911 v -11.3" />
      <path
         id="path3784"
         style="fill:#231f20;fill-opacity:1;fill-rule:nonzero;stroke:none;stroke-width:0.1"
         d="m 664.986,1177.76 v -22.62 h 0.261 v -22.62 h -0.261 v -11.31 -11.32 h 13.911 v 11.32 11.31 22.62 11.31 11.31 h -13.911" />
      <path
         id="path3786"
         style="fill:#231f20;fill-opacity:1;fill-rule:nonzero;stroke:none;stroke-width:0.1"
         d="m 525.867,1177.76 v -11.31 h 27.824 v 11.31 h -13.912 -13.912" />
      <path
         id="path3788"
         style="fill:#231f20;fill-opacity:1;fill-rule:nonzero;stroke:none;stroke-width:0.1"
         d="m 553.691,1177.76 h 13.912 v 11.31 h -13.912 v -11.31" />
      <path
         id="path3790"
         style="fill:#231f20;fill-opacity:1;fill-rule:nonzero;stroke:none;stroke-width:0.1"
         d="m 511.955,1189.07 v -11.31 h 13.912 v 11.31 h -13.912" />
      <path
         id="path3792"
         style="fill:#231f20;fill-opacity:1;fill-rule:nonzero;stroke:none;stroke-width:0.1"
         d="m 414.568,1177.76 h -13.907 v -79.06 h 13.907 v 11.19 0.12 11.2 11.31 11.31 11.31 11.31 0 11.31 h 13.921 v 11.31 h -13.921 v -11.31" />
      <path
         id="path3794"
         style="fill:#231f20;fill-opacity:1;fill-rule:nonzero;stroke:none;stroke-width:0.1"
         d="m 567.603,1189.07 h 13.907 v 11.31 h -13.907 v -11.31" />
      <path
         id="path3796"
         style="fill:#231f20;fill-opacity:1;fill-rule:nonzero;stroke:none;stroke-width:0.1"
         d="m 498.044,1200.38 v -11.31 h 13.911 v 11.31 h -13.911" />
      <path
         id="path3798"
         style="fill:#231f20;fill-opacity:1;fill-rule:nonzero;stroke:none;stroke-width:0.1"
         d="m 428.489,1189.07 h 13.907 v 11.31 h -13.907 v -11.31" />
      <path
         id="path3800"
         style="fill:#231f20;fill-opacity:1;fill-rule:nonzero;stroke:none;stroke-width:0.1"
         d="m 623.25,1211.7 h -41.74 v -11.32 h 55.652 v 11.32 H 623.25" />
      <path
         id="path3802"
         style="fill:#231f20;fill-opacity:1;fill-rule:nonzero;stroke:none;stroke-width:0.1"
         d="m 484.132,1211.7 h -41.736 v -11.32 h 55.648 v 11.32 h -13.912" />
      <path
         id="path3804"
         style="fill:#ffffff;fill-opacity:1;fill-rule:nonzero;stroke:none;stroke-width:0.1"
         d="m 651.074,1166.45 v 0 11.31 h -13.912 v 11.31 H 623.25 609.338 595.426 v -11.31 h 13.912 v -11.31 h 13.912 v -11.31 h 13.912 v -11.31 h 13.912 v 0 h 13.912 v 11.31 11.31 h -13.912" />
    </g>
  </g>
</svg>
