<?xml version="1.0" encoding="UTF-8" standalone="no"?>
<svg
   xmlns:dc="http://purl.org/dc/elements/1.1/"
   xmlns:cc="http://creativecommons.org/ns#"
   xmlns:rdf="http://www.w3.org/1999/02/22-rdf-syntax-ns#"
   xmlns:svg="http://www.w3.org/2000/svg"
   xmlns="http://www.w3.org/2000/svg"
   id="svg6838"
   version="1.1"
   viewBox="0 0 79.374998 79.375002"
   height="300"
   width="300">
  <defs
     id="defs6832" />
  <metadata
     id="metadata6835">
    <rdf:RDF>
      <cc:Work
         rdf:about="">
        <dc:format>image/svg+xml</dc:format>
        <dc:type
           rdf:resource="http://purl.org/dc/dcmitype/StillImage" />
        <dc:title></dc:title>
      </cc:Work>
    </rdf:RDF>
  </metadata>
  <g
     transform="translate(0,-217.62498)"
     id="layer1">
    <g
       transform="matrix(0.2306454,0,0,-0.2306454,-235.54343,589.96109)"
       id="g6656">
      <path
         id="path3934"
         style="fill:#f1c218;fill-opacity:1;fill-rule:nonzero;stroke:none;stroke-width:0.1"
         d="m 1312.2,1463.13 h 13.55 V 1476 h -13.55 v -12.87" />
      <path
         id="path3936"
         style="fill:#f1c218;fill-opacity:1;fill-rule:nonzero;stroke:none;stroke-width:0.1"
         d="m 1230.91,1476.07 h 81.29 v 12.88 h -67.74 v 12.87 h -13.55 v -12.87 -12.88" />
      <path
         id="path3938"
         style="fill:#231f20;fill-opacity:1;fill-rule:nonzero;stroke:none;stroke-width:0.1"
         d="m 1271.91,1488.95 v -12.88 h 40.29 v 12.88 h -40.29" />
      <path
         id="path3940"
         style="fill:#f1c218;fill-opacity:1;fill-rule:nonzero;stroke:none;stroke-width:0.1"
         d="m 1230.91,1527.57 h -13.55 v -25.75 h 13.55 v 12.88 12.87" />
      <path
         id="path3942"
         style="fill:#f1c218;fill-opacity:1;fill-rule:nonzero;stroke:none;stroke-width:0.1"
         d="m 1217.36,1553.32 h -13.55 v 25.75 h -13.55 v -12.87 -12.88 -12.87 h -13.55 v -12.88 -12.87 -12.88 h -13.55 v -12.87 -12.88 h -13.55 -13.55 -13.54 -13.56 -13.54 v -12.87 -12.87 h 13.54 v -12.88 h 13.56 v -12.87 h 13.54 v -12.88 -12.87 -12.88 -12.87 -12.88 -12.87 h 13.55 13.55 v 12.87 h 13.55 13.55 v 12.88 h 13.55 13.55 v -12.88 h 13.55 v -12.87 h 13.55 v -12.88 h 13.55 v -12.87 h 13.55 v -12.88 h 13.55 v 12.88 12.87 12.88 h -13.55 v 12.87 12.88 12.87 12.88 h -13.55 v 12.87 12.88 h 13.55 13.55 v 12.87 h 13.55 v 12.88 h 13.54 v 12.87 h -13.54 -13.55 -13.55 -13.55 v -12.87 h -13.55 -13.55 -13.55 v 12.87 12.87 12.88 h -13.55 v 12.87 12.88 12.87 h 13.55 v 12.88 12.87" />
      <path
         id="path3944"
         style="fill:#231f20;fill-opacity:1;fill-rule:nonzero;stroke:none;stroke-width:0.1"
         d="m 1108.96,1308.7 v 38.63 h -13.54 v -64.37 h 13.54 v 12.87 h 13.56 13.54 v 12.87 h -13.54 -13.56" />
      <path
         id="path3946"
         style="fill:#231f20;fill-opacity:1;fill-rule:nonzero;stroke:none;stroke-width:0.1"
         d="m 1244.46,1321.58 v -12.88 h 13.55 v 12.88 h -13.55" />
      <path
         id="path3948"
         style="fill:#231f20;fill-opacity:1;fill-rule:nonzero;stroke:none;stroke-width:0.1"
         d="m 1136.06,1308.7 h 13.55 v 12.88 h -13.55 v -12.88" />
      <path
         id="path3950"
         style="fill:#231f20;fill-opacity:1;fill-rule:nonzero;stroke:none;stroke-width:0.1"
         d="m 1285.11,1321.58 v -12.88 h -27.1 v -12.87 h 13.55 13.55 v -12.87 h 13.55 v 12.87 12.87 12.88 12.87 h -13.55 v -12.87" />
      <path
         id="path3952"
         style="fill:#231f20;fill-opacity:1;fill-rule:nonzero;stroke:none;stroke-width:0.1"
         d="m 1230.91,1334.45 h -13.55 v -12.87 h 27.1 v 12.87 h -13.55" />
      <path
         id="path3954"
         style="fill:#231f20;fill-opacity:1;fill-rule:nonzero;stroke:none;stroke-width:0.1"
         d="m 1149.61,1334.45 v -12.87 h 27.1 v 12.87 h -13.55 -13.55" />
      <path
         id="path3956"
         style="fill:#231f20;fill-opacity:1;fill-rule:nonzero;stroke:none;stroke-width:0.1"
         d="m 1203.81,1347.33 h -27.1 v -12.88 h 40.65 v 12.88 h -13.55" />
      <path
         id="path3958"
         style="fill:#231f20;fill-opacity:1;fill-rule:nonzero;stroke:none;stroke-width:0.1"
         d="m 1122.52,1360.2 v 51.5 h -13.56 v -64.37 h 13.56 v 12.87" />
      <path
         id="path3960"
         style="fill:#231f20;fill-opacity:1;fill-rule:nonzero;stroke:none;stroke-width:0.1"
         d="m 1271.56,1398.83 v -25.75 h 13.55 v 38.62 h -13.55 v -12.87" />
      <path
         id="path3962"
         style="fill:#231f20;fill-opacity:1;fill-rule:nonzero;stroke:none;stroke-width:0.1"
         d="m 1285.11,1411.7 h 13.55 v 12.88 h -13.55 v -12.88" />
      <path
         id="path3964"
         style="fill:#231f20;fill-opacity:1;fill-rule:nonzero;stroke:none;stroke-width:0.1"
         d="m 1095.42,1424.58 v -12.88 h 13.54 v 12.88 h -13.54" />
      <path
         id="path3966"
         style="fill:#231f20;fill-opacity:1;fill-rule:nonzero;stroke:none;stroke-width:0.1"
         d="m 1298.66,1424.58 h 13.54 v 12.87 h -13.54 v -12.87" />
      <path
         id="path3968"
         style="fill:#231f20;fill-opacity:1;fill-rule:nonzero;stroke:none;stroke-width:0.1"
         d="m 1081.87,1437.45 v -12.87 h 13.55 v 12.87 h -13.55" />
      <path
         id="path3970"
         style="fill:#231f20;fill-opacity:1;fill-rule:nonzero;stroke:none;stroke-width:0.1"
         d="m 1312.2,1437.45 h 13.55 v 12.88 h -13.55 v -12.88" />
      <path
         id="path3972"
         style="fill:#231f20;fill-opacity:1;fill-rule:nonzero;stroke:none;stroke-width:0.1"
         d="m 1068.32,1450.33 v -12.88 h 13.55 v 12.88 h -13.55" />
      <path
         id="path3974"
         style="fill:#231f20;fill-opacity:1;fill-rule:nonzero;stroke:none;stroke-width:0.1"
         d="m 1325.75,1450.33 h 13.55 v 12.87 h -13.55 v -12.87" />
      <path
         id="path3976"
         style="fill:#231f20;fill-opacity:1;fill-rule:nonzero;stroke:none;stroke-width:0.1"
         d="m 1054.77,1463.2 v -12.87 h 13.55 v 12.87 h -13.55" />
      <path
         id="path3978"
         style="fill:#231f20;fill-opacity:1;fill-rule:nonzero;stroke:none;stroke-width:0.1"
         d="m 1352.85,1488.95 h -40.65 v -12.88 h 27.1 v -12.87 h 13.55 v 12.87 h 13.55 v 12.88 h -13.55" />
      <path
         id="path3980"
         style="fill:#231f20;fill-opacity:1;fill-rule:nonzero;stroke:none;stroke-width:0.1"
         d="m 1068.32,1476.07 h 54.2 v 12.88 h -94.85 v -12.88 h 13.55 v -12.87 h 13.55 v 12.87 h 13.55" />
      <path
         id="path3982"
         style="fill:#231f20;fill-opacity:1;fill-rule:nonzero;stroke:none;stroke-width:0.1"
         d="m 1258.01,1488.95 h 13.55 v 12.87 h -27.1 v -12.87 h 13.55" />
      <path
         id="path3984"
         style="fill:#231f20;fill-opacity:1;fill-rule:nonzero;stroke:none;stroke-width:0.1"
         d="m 1149.61,1488.95 v 12.87 h -27.09 v -12.87 h 13.54 13.55" />
      <path
         id="path3986"
         style="fill:#231f20;fill-opacity:1;fill-rule:nonzero;stroke:none;stroke-width:0.1"
         d="m 1163.16,1514.7 v 12.87 h -13.55 v -25.75 h 13.55 v 12.88" />
      <path
         id="path3988"
         style="fill:#231f20;fill-opacity:1;fill-rule:nonzero;stroke:none;stroke-width:0.1"
         d="m 1244.46,1527.57 h -13.55 v -25.75 h 13.55 v 12.88 12.87" />
      <path
         id="path3990"
         style="fill:#231f20;fill-opacity:1;fill-rule:nonzero;stroke:none;stroke-width:0.1"
         d="m 1176.71,1540.45 v 12.87 h -13.55 v -25.75 h 13.55 v 12.88" />
      <path
         id="path3992"
         style="fill:#231f20;fill-opacity:1;fill-rule:nonzero;stroke:none;stroke-width:0.1"
         d="m 1230.91,1540.45 v 12.87 h -13.55 v -12.87 h 13.55" />
      <path
         id="path3994"
         style="fill:#231f20;fill-opacity:1;fill-rule:nonzero;stroke:none;stroke-width:0.1"
         d="m 1217.36,1579.07 h -13.55 v -25.75 h 13.55 v 12.88 12.87" />
      <path
         id="path3996"
         style="fill:#231f20;fill-opacity:1;fill-rule:nonzero;stroke:none;stroke-width:0.1"
         d="m 1190.26,1579.07 h -13.55 v -12.87 h 13.55 v 12.87" />
      <path
         id="path3998"
         style="fill:#231f20;fill-opacity:1;fill-rule:nonzero;stroke:none;stroke-width:0.1"
         d="m 1203.81,1604.82 h -13.55 v -12.88 h 13.55 v 12.88" />
      <path
         id="path4000"
         style="fill:#ffffff;fill-opacity:1;fill-rule:nonzero;stroke:none;stroke-width:0.1"
         d="m 1312.2,1476.07 h -81.29 v 25.75 h -13.55 v 12.88 12.87 h -13.55 v -12.87 -12.88 -12.87 h 13.55 v -12.88 -12.87 -12.87 h 13.55 13.55 v 0 h 13.55 v 12.87 0 h 13.55 13.55 13.55 13.54 13.55 v 12.87 h -13.55" />
      <path
         id="path4002"
         style="fill:#e69d20;fill-opacity:1;fill-rule:nonzero;stroke:none;stroke-width:0.1"
         d="m 1258.01,1308.7 h 13.55 v 12.88 h -13.55 v -12.88" />
      <path
         id="path4004"
         style="fill:#e69d20;fill-opacity:1;fill-rule:nonzero;stroke:none;stroke-width:0.1"
         d="m 1244.46,1334.45 v -12.87 h 13.55 v 12.87 h -13.55" />
      <path
         id="path4006"
         style="fill:#231f20;fill-opacity:1;fill-rule:nonzero;stroke:none;stroke-width:0.1"
         d="m 1285.11,1334.45 h 13.55 v 12.88 h -13.55 v -12.88" />
      <path
         id="path4008"
         style="fill:#e58422;fill-opacity:1;fill-rule:nonzero;stroke:none;stroke-width:0.1"
         d="m 1230.91,1347.33 v 12.87 h -13.55 v 12.88 h -13.55 -13.55 v -12.88 h -13.55 -13.55 v -12.87 h -13.55 -13.55 v 12.87 12.88 12.87 12.88 12.87 12.88 h -13.54 v 12.87 h -13.56 v 12.88 h -13.54 v 12.87 12.87 h -13.55 -13.55 -13.55 v -12.87 h 13.55 v -12.87 h 13.55 v -12.88 h 13.55 v -12.87 h 13.54 v -12.88 h 13.56 v -12.87 -12.88 -12.87 -12.88 -12.87 h -13.56 v -12.88 -12.87 -12.88 h 13.56 13.54 v 12.88 h 13.55 v 12.87 h 13.55 13.55 v 12.88 h 13.55 13.55 13.55 v -12.88 h 13.55 13.55 v 12.88 h -13.55" />
      <path
         id="path4010"
         style="fill:#231f20;fill-opacity:1;fill-rule:nonzero;stroke:none;stroke-width:0.1"
         d="m 1285.11,1373.08 h -13.55 v -25.75 h 13.55 v 12.87 12.88" />
      <path
         id="path4012"
         style="fill:#e69d20;fill-opacity:1;fill-rule:nonzero;stroke:none;stroke-width:0.1"
         d="m 1258.01,1424.58 v -25.75 h 13.55 v 12.87 h 13.55 v 12.88 h -13.55 -13.55" />
      <path
         id="path4014"
         style="fill:#e69d20;fill-opacity:1;fill-rule:nonzero;stroke:none;stroke-width:0.1"
         d="m 1285.11,1424.58 h 13.55 v 12.87 h -13.55 v -12.87" />
      <path
         id="path4016"
         style="fill:#e69d20;fill-opacity:1;fill-rule:nonzero;stroke:none;stroke-width:0.1"
         d="m 1298.66,1437.45 h 13.54 v 12.88 h -13.54 v -12.88" />
      <path
         id="path4018"
         style="fill:#e69d20;fill-opacity:1;fill-rule:nonzero;stroke:none;stroke-width:0.1"
         d="m 1325.75,1476.07 h -13.55 v -25.74 h 13.55 v 12.87 h 13.55 v 12.87 h -13.55" />
      <path
         id="path4020"
         style="fill:#e69d20;fill-opacity:1;fill-rule:nonzero;stroke:none;stroke-width:0.1"
         d="m 1149.61,1476.07 h 13.55 v 25.75 h -13.55 v -12.87 h -13.55 -13.54 v -12.88 h 13.54 13.55" />
      <path
         id="path4022"
         style="fill:#e69d20;fill-opacity:1;fill-rule:nonzero;stroke:none;stroke-width:0.1"
         d="m 1176.71,1514.7 v 12.87 h -13.55 v -25.75 h 13.55 v 12.88" />
      <path
         id="path4024"
         style="fill:#231f20;fill-opacity:1;fill-rule:nonzero;stroke:none;stroke-width:0.1"
         d="m 1230.91,1540.45 h -13.55 v -12.88 h 13.55 v 12.88" />
      <path
         id="path4026"
         style="fill:#231f20;fill-opacity:1;fill-rule:nonzero;stroke:none;stroke-width:0.1"
         d="m 1190.26,1553.32 v 12.88 h -13.55 v -25.75 h 13.55 v 12.87" />
      <path
         id="path4028"
         style="fill:#231f20;fill-opacity:1;fill-rule:nonzero;stroke:none;stroke-width:0.1"
         d="m 1203.81,1591.94 h -13.55 v -12.87 h 13.55 v 12.87" />
    </g>
  </g>
</svg>
