<?xml version="1.0" encoding="UTF-8" standalone="no"?>
<svg
   xmlns:dc="http://purl.org/dc/elements/1.1/"
   xmlns:cc="http://creativecommons.org/ns#"
   xmlns:rdf="http://www.w3.org/1999/02/22-rdf-syntax-ns#"
   xmlns:svg="http://www.w3.org/2000/svg"
   xmlns="http://www.w3.org/2000/svg"
   id="svg6838"
   version="1.1"
   viewBox="0 0 210 297"
   height="297mm"
   width="210mm">
  <defs
     id="defs6832" />
  <metadata
     id="metadata6835">
    <rdf:RDF>
      <cc:Work
         rdf:about="">
        <dc:format>image/svg+xml</dc:format>
        <dc:type
           rdf:resource="http://purl.org/dc/dcmitype/StillImage" />
        <dc:title></dc:title>
      </cc:Work>
    </rdf:RDF>
  </metadata>
  <g
     id="layer1">
    <g
       id="g6713"
       transform="matrix(0.35277777,0,0,-0.35277777,-107.98877,1071.1046)">
      <path
         id="path4030-2"
         style="fill:#66bd41;fill-opacity:1;fill-rule:nonzero;stroke:none;stroke-width:0.09999999"
         d="m 649.42115,2962.583 h -9.76 v -25.29 h 9.76 v 25.29" />
      <path
         id="path4032-5"
         style="fill:#3c9f43;fill-opacity:1;fill-rule:nonzero;stroke:none;stroke-width:0.09999999"
         d="m 581.13115,2937.293 h -9.76 v -25.29 h 9.76 v 25.29" />
      <path
         id="path4034-4"
         style="fill:#66bd41;fill-opacity:1;fill-rule:nonzero;stroke:none;stroke-width:0.09999999"
         d="m 434.80115,2836.143 h -9.75 v -25.29 h 9.75 v 25.29" />
      <path
         id="path4036-7"
         style="fill:#64bb41;fill-opacity:1;fill-rule:nonzero;stroke:none;stroke-width:0.09999999"
         d="m 395.77315,2785.563 h -9.748 v -25.291 h 9.748 v 25.291" />
      <path
         id="path4038-4"
         style="fill:#8cc947;fill-opacity:1;fill-rule:nonzero;stroke:none;stroke-width:0.09999999"
         d="m 756.73115,2709.694 h -9.76 v -25.29 h 9.76 v 25.29" />
      <path
         id="path4040-4"
         style="fill:#57b33d;fill-opacity:1;fill-rule:nonzero;stroke:none;stroke-width:0.09999999"
         d="m 659.17115,2659.116 h -9.75 v -25.293 h 9.75 v 25.293" />
      <path
         id="path4042-3"
         style="fill:#5cb63f;fill-opacity:1;fill-rule:nonzero;stroke:none;stroke-width:0.09999999"
         d="m 629.91115,2608.543 h -9.76 v -25.29 h 9.76 v 25.29" />
      <path
         id="path4044-0"
         style="fill:#91cb49;fill-opacity:1;fill-rule:nonzero;stroke:none;stroke-width:0.09999999"
         d="m 737.22115,2557.963 h -9.76 v -25.29 h 9.76 v 25.29" />
      <path
         id="path4046-7"
         style="fill:#61b941;fill-opacity:1;fill-rule:nonzero;stroke:none;stroke-width:0.09999999"
         d="m 581.13115,2507.383 h -9.76 v -25.29 h 9.76 v 25.29" />
      <path
         id="path4048-8"
         style="fill:#46a641;fill-opacity:1;fill-rule:nonzero;stroke:none;stroke-width:0.09999999"
         d="m 571.37115,2482.093 h -9.75 v -25.29 h 9.75 v 25.29" />
      <path
         id="path4050-6"
         style="fill:#85c744;fill-opacity:1;fill-rule:nonzero;stroke:none;stroke-width:0.09999999"
         d="m 707.95115,2305.073 h -9.76 v -25.29 h 9.76 v 25.29" />
      <path
         id="path4052-8"
         style="fill:#59b33e;fill-opacity:1;fill-rule:nonzero;stroke:none;stroke-width:0.09999999"
         d="m 512.84115,2279.783 h -9.75 v -25.29 h 9.75 v 25.29" />
      <path
         id="path4054-8"
         style="fill:#328f40;fill-opacity:1;fill-rule:nonzero;stroke:none;stroke-width:0.09999999"
         d="m 395.77315,2785.563 h 9.758 v 25.29 h 19.52 v 25.29 h 9.75 9.75 9.76 v 25.28 h 9.76 9.75 9.75 9.76 v 25.29 h 9.76 9.75 9.76 9.75 v 25.29 h 9.76 9.75 9.76 9.75 v 25.29 h 9.76 9.76 9.75 9.76 9.75 9.76 9.75 v 25.29 h -9.75 -9.76 -9.75 -9.76 -9.75 -9.76 -9.76 -9.75 -9.76 -9.75 -9.76 -9.75 -9.76 -9.75 -9.76 -9.76 -9.75 -9.75 -9.76 -9.76 -9.75 -9.75 -9.76 -9.76 -9.758 -9.748 v -25.29 -25.29 -25.29 -25.29 -25.28 -25.29 -25.29 h 9.748" />
      <path
         id="path4056-4"
         style="fill:#328f40;fill-opacity:1;fill-rule:nonzero;stroke:none;stroke-width:0.09999999"
         d="m 493.33115,2219.323 v 9.88 h 9.76 v 50.58 h 9.75 v 25.28 h 9.76 v 25.29 h 9.75 v 50.58 h 9.76 v 25.29 h 9.75 v 25.29 h 9.76 v 50.58 h 9.75 v 25.29 h 19.52 v 25.29 h 9.75 v 25.29 h 9.76 v 25.29 h 9.75 v 25.29 h 19.51 v 25.28 h 9.76 v 25.293 h 19.51 v 25.288 h 19.51 v 25.29 h -234.13 v -490.371 h 39.02" />
      <path
         id="path4058-3"
         style="fill:#74c341;fill-opacity:1;fill-rule:nonzero;stroke:none;stroke-width:0.09999999"
         d="m 395.77315,2734.984 h 126.828 v 25.288 h 9.75 v 25.291 h 9.76 9.75 9.76 9.75 9.76 9.76 9.75 9.76 9.75 9.76 9.75 9.76 9.75 9.76 9.75 9.76 9.75 9.76 9.76 9.75 9.76 9.75 9.76 9.74996 9.76 9.75 9.76 v 25.29 25.29 25.28 25.29 25.29 25.29 25.29 h -9.76 -9.75 -9.76 -9.74996 -9.76 -9.75 -9.76 -9.75 -9.76 -9.76 -9.75 -9.76 -9.75 -9.76 -9.75 v -25.29 h -9.76 -9.75 -9.76 -9.75 -9.76 -9.75 -9.76 v -25.29 h -9.76 -9.75 -9.76 -9.75 -9.76 v -25.29 h -9.75 -9.76 -9.75 -9.76 v -25.29 h -9.76 -9.75 -9.75 -9.76 v -25.28 h -9.76 -9.75 v -25.29 h -9.75 -9.76 -9.76 v -25.29 h -9.758 v -25.291 h -9.748 v -25.288 h 9.748" />
      <path
         id="path4060-1"
         style="fill:#74c341;fill-opacity:1;fill-rule:nonzero;stroke:none;stroke-width:0.09999999"
         d="m 698.19115,2219.323 v 85.74 h 9.76 v 50.58 h 9.76 v 101.16 h 9.75 v 101.16 h 9.76 v 50.58 h 9.75 v 101.151 h -58.53 v -25.29 h -19.51 v -25.288 h -9.76 v -25.293 h -19.51 v -25.28 h -9.75 v -25.29 h -19.51 v -25.29 h -9.76 v -25.29 h -9.75 v -25.29 h -9.76 v -25.29 h -9.76 v -25.29 h -9.75 v -25.29 h -9.76 v -25.29 h -9.75 v -25.29 h -9.76 v -50.58 h -9.75 v -25.29 h -9.76 v -50.57 h -9.75 v -25.29 h -9.76 v -9.88 h 204.86" />
      <path
         id="path4062-4"
         style="fill:#a3d251;fill-opacity:1;fill-rule:nonzero;stroke:none;stroke-width:0.09999999"
         d="m 532.35115,2734.984 h 302.41996 v 227.599 h -39.02 v -25.29 -25.29 -25.29 -25.29 -25.28 -25.29 -25.29 h -9.76 -9.75 -9.76 -9.74996 -9.76 -9.75 -9.76 -9.75 -9.76 -9.76 -9.75 -9.76 -9.75 -9.76 -9.75 -9.76 -9.75 -9.76 -9.75 -9.76 -9.75 -9.76 -9.76 -9.75 -9.76 -9.75 -9.76 v -25.291 h -9.75 v -25.288 h 9.75" />
      <path
         id="path4064-9"
         style="fill:#a3d251;fill-opacity:1;fill-rule:nonzero;stroke:none;stroke-width:0.09999999"
         d="m 756.73115,2219.323 v 465.081 h -9.76 v -75.861 h -9.75 v -75.87 h -9.76 v -75.87 h -9.75 v -101.16 h -9.76 v -75.86 h -9.76 v -60.46 h 58.54" />
      <path
         id="path4066-2"
         style="fill:#231f20;fill-opacity:1;fill-rule:nonzero;stroke:none;stroke-width:0.09999999"
         d="M 386.02015,2962.583 H 834.77111 V 2734.984 H 386.02015 Z m 48.781,-252.889 v -490.371 h 19.51 v 490.371 h 302.42 v -490.371 h 19.50996 v 490.371 h 78.04 v 278.179 H 366.51015 v -278.179 h 68.291" />
    </g>
  </g>
</svg>
