<?xml version="1.0" encoding="UTF-8" standalone="no"?>
<svg
   xmlns:dc="http://purl.org/dc/elements/1.1/"
   xmlns:cc="http://creativecommons.org/ns#"
   xmlns:rdf="http://www.w3.org/1999/02/22-rdf-syntax-ns#"
   xmlns:svg="http://www.w3.org/2000/svg"
   xmlns="http://www.w3.org/2000/svg"
   id="svg318"
   version="1.1"
   viewBox="0 0 52.916666 52.916666"
   height="200"
   width="200">
  <defs
     id="defs312" />
  <metadata
     id="metadata315">
    <rdf:RDF>
      <cc:Work
         rdf:about="">
        <dc:format>image/svg+xml</dc:format>
        <dc:type
           rdf:resource="http://purl.org/dc/dcmitype/StillImage" />
        <dc:title></dc:title>
      </cc:Work>
    </rdf:RDF>
  </metadata>
  <g
     transform="translate(0,-244.08334)"
     id="layer1">
    <g
       transform="matrix(0.35277777,0,0,-0.35277777,-31.99896,399.51157)"
       id="g255">
      <path
         id="path32"
         style="fill:#231f20;fill-opacity:1;fill-rule:nonzero;stroke:none;stroke-width:0.1"
         d="m 166.11778,422.59722 c 1.508,-10.408 8.531,-16.32 16.726,-22.047 4.23,-2.957 8.435,-5.946 11.792,-9.912 6.193,-7.316 6.025,-17.051 0.989,-25.063 0.136,-1.477 0.273,-2.957 0.411,-4.435 2.058,5.467 2.331,11.663 -0.047,17.087 -2.029,4.632 -6.485,7.491 -10.685,9.939 -5.049,2.946 -10.346,5.509 -14.147,10.097 -6.062,7.321 -2.974,18.057 -4.117,26.783 -0.397,3.027 -1.053,-1.451 -0.922,-2.449 0.978,-7.469 -0.658,-15.139 1.408,-22.486 1.36,-4.832 4.628,-8.477 8.629,-11.352 7.943,-5.707 24.202,-10.513 19.342,-23.428 -0.331,-0.881 0.283,-4.64 0.412,-4.435 7.212,11.472 6.418,27.203 -3.284,36.913 -8.771,8.776 -23.575,13.362 -25.585,27.237 -0.438,3.024 -1.068,-1.448 -0.922,-2.449" />
      <path
         id="path34"
         style="fill:#231f20;fill-opacity:1;fill-rule:nonzero;stroke:none;stroke-width:0.1"
         d="m 161.78878,419.01722 c 2.404,-30.833 4.477,-50.908 5.062,-91.106 0.127,-8.688 2.503,-9.963 2.924,-1.439 1.589,32.185 0.673,64.289 -1.832,96.403 -0.768,9.844 -6.649,2.497 -6.154,-3.858 v 0" />
      <path
         id="path36"
         style="fill:#231f20;fill-opacity:1;fill-rule:nonzero;stroke:none;stroke-width:0.1"
         d="m 134.92778,323.47322 c 1.149,-20.924 34.051,-20.924 35.2,0 0.537,9.786 -8.893,15.68 -17.6,16 -9.551,0.351 -17.09,-6.7 -17.6,-16 -0.164,-2.992 2.04,-2.934 2.2,0 0.806,14.689 29.994,14.689 30.8,0 0.409,-7.455 -9.757,-10.793 -15.4,-11 -6.263,-0.231 -15.008,3.851 -15.4,11 -0.16,2.933 -2.364,2.992 -2.2,0" />
      <path
         id="path38"
         style="fill:#231f20;fill-opacity:1;fill-rule:nonzero;stroke:none;stroke-width:0.1"
         d="m 179.92678,403.44922 c 0.045,0.133 0.084,0.268 0.132,0.401 -0.07,-0.118 -0.11,-0.252 -0.132,-0.401" />
      <path
         id="path40"
         style="fill:#231f20;fill-opacity:1;fill-rule:nonzero;stroke:none;stroke-width:0.1"
         d="m 200.01178,373.53322 c -0.009,0.026 -0.025,0.048 -0.035,0.074 0.676,2.065 1.461,4.999 -0.134,4.838 -0.139,1.817 -0.516,3.333 -1.372,3.721 -0.017,0.01 -0.034,0.006 -0.05,0.015 -0.462,2.844 -1.427,5.564 -2.025,5.098 -0.118,-0.092 -0.206,-0.185 -0.309,-0.277 -0.601,2.659 -1.37,4.924 -2.094,4.471 -0.221,-0.491 -0.409,-0.984 -0.581,-1.48 -0.417,1.989 -0.857,3.974 -1.333,5.952 -0.633,1.364 -1.701,-0.967 -2.607,-3.691 -0.43,3.616 -1.19,7.399 -2.477,6.606 -0.139,-0.36 -0.262,-0.72 -0.375,-1.081 -0.526,2.272 -1.172,4.01 -1.833,3.309 -0.21,-0.5 -0.386,-1.007 -0.546,-1.515 -0.031,0.064 -0.057,0.126 -0.088,0.193 -0.019,-0.006 -0.037,-0.012 -0.056,-0.018 -0.303,1.508 -0.68,2.506 -1.186,2.251 -1.014,-0.51 -1.352,-1.656 -1.389,-3.014 -0.019,0.04 -0.038,0.079 -0.057,0.119 0.059,0.912 0.118,1.824 0.176,2.736 -0.342,-0.322 -0.685,-0.646 -1.029,-0.969 -0.471,1.04 -0.781,1.945 -0.685,2.578 -0.124,-0.359 -0.239,-0.72 -0.339,-1.083 -0.182,1.677 -0.639,2.933 -1.603,2.945 -0.192,0.002 -0.353,-0.034 -0.508,-0.079 -0.216,1.542 -0.713,2.841 -1.845,3.523 -0.387,0.236 -0.677,0.005 -0.894,-0.529 -0.457,2.14 -1.036,3.763 -1.794,3.817 -0.571,0.039 -1.011,-0.769 -1.33,-2.058 -1.273,3.814 -2.556,6.99 -2.832,7.747 -1.846,-0.081 -2.364,-1.259 -1.555,-3.535 1.096,-3.009 2.826,-7.898 3.743,-12.019 0.056,-4.609 0.72,-9.014 1.884,-8.601 0.873,0.348 1.329,1.269 1.494,2.546 0.434,-1.345 0.887,-2.139 1.33,-1.878 0.512,-2.518 2.249,-3.772 5.229,-3.741 0.061,0.931 0.121,1.862 0.182,2.794 0.449,-1.956 0.95,-3.899 1.515,-5.829 0.405,0.203 0.765,0.433 1.1,0.678 0.228,-0.557 0.474,-1.11 0.747,-1.656 0.909,-0.654 1.446,0.13 1.75,1.57 0.172,-0.695 0.343,-1.39 0.526,-2.082 0.332,-0.398 0.6,-0.27 0.815,0.164 0.277,-1.611 0.693,-2.803 1.39,-2.82 1.938,-0.049 2.276,7.134 1.694,8.887 0.596,-1.796 2.133,-14.626 3.659,-12.899 0.2,-1.137 0.541,-2.136 1.155,-2.809 0.112,-1.604 0.467,-3.013 1.353,-3.775 0.085,-0.052 0.171,-0.071 0.257,-0.078 0.198,-1.412 0.593,-2.786 1.21,-4.12 0.903,-0.955 1.912,4.233 2.031,4.864 0.313,1.006 0.221,1.052 -0.279,0.14" />
      <path
         id="path42"
         style="fill:#231f20;fill-opacity:1;fill-rule:nonzero;stroke:none;stroke-width:0.1"
         d="m 144.13378,314.43022 c -0.027,-0.084 -0.032,-0.074 0,0 z m 19.804,17.248 c -0.168,0.182 -0.635,0.41 -0.932,0.203 -0.273,-0.19 -0.494,-0.43 -0.693,-0.687 0.164,1.23 0.311,2.463 0.407,3.701 0.093,1.226 -1.588,3.086 -2.256,1.019 -0.014,-0.04 -0.026,-0.08 -0.037,-0.121 -0.436,1.344 -1.773,2.268 -2.204,0.043 -0.576,-2.972 -1.165,-5.941 -1.767,-8.91 0.294,2.882 0.604,5.764 0.922,8.645 0.191,1.75 -1.694,3.824 -2.334,1.074 -0.557,-2.382 -1.016,-4.778 -1.465,-7.175 0.215,1.635 0.431,3.265 0.619,4.887 0.162,1.397 -1.158,2.973 -1.902,2.202 0.037,1.713 -1.958,3.558 -2.34,0.894 -0.112,-0.789 -0.225,-1.578 -0.337,-2.367 -0.547,1.027 -1.589,1.465 -1.995,-0.463 -0.168,-0.802 -0.324,-1.605 -0.479,-2.409 -0.164,0.634 -0.861,1.876 -1.744,1.036 -2.062,-1.959 -1.685,-6.797 -2.318,-9.064 -0.229,-0.815 0.401,-2.472 1.07,-2.885 -0.148,-1.119 -0.275,-2.233 -0.337,-3.338 -0.105,-1.885 -0.645,-4.414 0.363,-6.267 0.154,-0.284 0.671,-0.809 1.178,-0.521 0.007,0.004 0.011,0.009 0.017,0.013 0.183,-0.981 0.561,-1.707 1.236,-1.957 0.412,-0.152 0.647,-0.013 0.933,0.205 0.714,0.543 1.034,1.587 1.207,2.669 0.226,-0.245 0.549,-0.269 0.899,-0.175 0.507,0.134 0.893,0.593 1.197,1.219 0.646,-0.412 1.532,0.146 2.077,1.506 0.021,-1.194 0.293,-2.328 1.228,-2.903 0.215,-0.097 0.43,-0.097 0.645,0 0.408,0.156 0.724,0.485 0.974,0.904 0.151,-0.171 0.336,-0.304 0.574,-0.369 0.627,-0.172 0.899,0.146 1.177,0.52 0.197,0.264 0.342,0.564 0.466,0.879 0.499,-0.665 1.302,-0.9 1.813,0.37 0.7,1.746 1.238,3.53 1.725,5.323 0.53,-0.267 1.118,-0.023 1.364,1.227 0.577,2.933 3.636,8.282 1.049,11.072" />
      <path
         id="path44"
         style="fill:#231f20;fill-opacity:1;fill-rule:nonzero;stroke:none;stroke-width:0.1"
         d="m 156.33278,315.67622 c -0.016,-0.049 -0.018,-0.043 0,0 z m 11.564,10.071 c -0.097,0.107 -0.371,0.24 -0.545,0.119 -0.158,-0.111 -0.287,-0.251 -0.404,-0.401 0.097,0.719 0.182,1.439 0.238,2.16 0.055,0.717 -0.927,1.803 -1.317,0.596 -0.008,-0.024 -0.015,-0.047 -0.023,-0.07 -0.253,0.785 -1.034,1.324 -1.286,0.025 -0.337,-1.735 -0.68,-3.47 -1.032,-5.203 0.172,1.682 0.354,3.365 0.539,5.047 0.111,1.023 -0.988,2.234 -1.363,0.629 -0.324,-1.392 -0.594,-2.791 -0.856,-4.19 0.125,0.953 0.252,1.906 0.362,2.853 0.094,0.816 -0.676,1.736 -1.111,1.286 0.023,1 -1.143,2.078 -1.366,0.522 -0.066,-0.46 -0.131,-0.922 -0.197,-1.382 -0.318,0.599 -0.928,0.854 -1.164,-0.271 -0.099,-0.469 -0.19,-0.937 -0.28,-1.406 -0.095,0.37 -0.503,1.095 -1.019,0.605 -1.205,-1.144 -0.984,-3.969 -1.353,-5.293 -0.133,-0.476 0.234,-1.443 0.625,-1.684 -0.086,-0.654 -0.162,-1.305 -0.197,-1.95 -0.061,-1.1 -0.378,-2.577 0.212,-3.661 0.09,-0.164 0.392,-0.47 0.688,-0.302 0.004,0.002 0.005,0.004 0.009,0.006 0.108,-0.572 0.329,-0.997 0.722,-1.141 0.241,-0.09 0.378,-0.008 0.544,0.119 0.418,0.316 0.605,0.927 0.705,1.559 0.133,-0.144 0.32,-0.158 0.525,-0.103 0.297,0.078 0.522,0.347 0.7,0.712 0.377,-0.241 0.894,0.086 1.213,0.879 0.011,-0.696 0.17,-1.36 0.716,-1.695 0.126,-0.056 0.251,-0.056 0.377,0 0.239,0.091 0.423,0.284 0.57,0.529 0.088,-0.101 0.195,-0.178 0.335,-0.217 0.366,-0.1 0.524,0.086 0.687,0.305 0.113,0.154 0.199,0.329 0.272,0.512 0.291,-0.387 0.759,-0.524 1.058,0.216 0.408,1.02 0.723,2.063 1.008,3.109 0.309,-0.157 0.652,-0.013 0.796,0.716 0.337,1.712 2.123,4.837 0.612,6.465" />
    </g>
  </g>
</svg>
