<?xml version="1.0" encoding="UTF-8" standalone="no"?>
<!-- Created with Inkscape (http://www.inkscape.org/) -->

<svg
   xmlns:dc="http://purl.org/dc/elements/1.1/"
   xmlns:cc="http://creativecommons.org/ns#"
   xmlns:rdf="http://www.w3.org/1999/02/22-rdf-syntax-ns#"
   xmlns:svg="http://www.w3.org/2000/svg"
   xmlns="http://www.w3.org/2000/svg"
   xmlns:sodipodi="http://sodipodi.sourceforge.net/DTD/sodipodi-0.dtd"
   xmlns:inkscape="http://www.inkscape.org/namespaces/inkscape"
   width="200"
   height="200"
   viewBox="0 0 52.916666 52.916666"
   version="1.1"
   id="svg318"
   inkscape:version="0.92.5 (2060ec1f9f, 2020-04-08)"
   sodipodi:docname="music_note_quarter_note.svg">
  <defs
     id="defs312" />
  <sodipodi:namedview
     id="base"
     pagecolor="#ffffff"
     bordercolor="#666666"
     borderopacity="1.0"
     inkscape:pageopacity="0.0"
     inkscape:pageshadow="2"
     inkscape:zoom="0.35"
     inkscape:cx="400"
     inkscape:cy="560"
     inkscape:document-units="mm"
     inkscape:current-layer="layer1"
     showgrid="false"
     units="px"
     inkscape:window-width="989"
     inkscape:window-height="829"
     inkscape:window-x="2718"
     inkscape:window-y="569"
     inkscape:window-maximized="0" />
  <metadata
     id="metadata315">
    <rdf:RDF>
      <cc:Work
         rdf:about="">
        <dc:format>image/svg+xml</dc:format>
        <dc:type
           rdf:resource="http://purl.org/dc/dcmitype/StillImage" />
        <dc:title></dc:title>
      </cc:Work>
    </rdf:RDF>
  </metadata>
  <g
     inkscape:label="Layer 1"
     inkscape:groupmode="layer"
     id="layer1"
     transform="translate(0,-244.08334)">
    <g
       id="g268"
       transform="matrix(0.35277777,0,0,-0.35277777,-112.98141,359.42124)">
      <path
         d="m 392.82478,282.72022 c 0.787,-10.749 7.264,-17.258 15.257,-23.733 4.011,-3.25 7.994,-6.529 11.063,-10.723 5.698,-7.788 4.439,-17.469 -1.119,-25.057 0.137,-1.478 0.275,-2.958 0.411,-4.435 2.459,5.351 2.853,11.479 0.866,17.058 -1.762,4.949 -6.325,8.207 -10.5,11.01 -4.676,3.14 -9.535,6.062 -12.87,10.724 -5.355,7.49 -1.568,17.901 -2.078,26.447 -0.202,3.369 -1.133,0.432 -1.03,-1.291 0.44,-7.378 -1.796,-14.869 -0.281,-22.21 1.033,-5.008 3.584,-8.954 7.417,-12.299 7.661,-6.686 23.955,-12.15 17.938,-25.249 -0.393,-0.855 0.229,-4.683 0.411,-4.435 8.014,10.944 7.946,26.752 -0.996,37.065 -7.885,9.095 -22.467,14.853 -23.459,28.419 -0.247,3.364 -1.156,0.436 -1.03,-1.291"
         style="fill:#231f20;fill-opacity:1;fill-rule:nonzero;stroke:none;stroke-width:0.1"
         id="path138"
         inkscape:connector-curvature="0" />
      <path
         d="m 403.51578,264.35622 c 0.046,0.133 0.084,0.267 0.133,0.4 -0.07,-0.117 -0.11,-0.252 -0.133,-0.4"
         style="fill:#231f20;fill-opacity:1;fill-rule:nonzero;stroke:none;stroke-width:0.1"
         id="path140"
         inkscape:connector-curvature="0" />
      <path
         d="m 423.60178,234.44022 c -0.009,0.025 -0.025,0.048 -0.035,0.074 0.676,2.064 1.461,4.998 -0.135,4.838 -0.138,1.816 -0.515,3.332 -1.371,3.72 -0.017,0.01 -0.034,0.006 -0.05,0.015 -0.462,2.844 -1.427,5.564 -2.025,5.098 -0.118,-0.092 -0.206,-0.185 -0.309,-0.277 -0.601,2.659 -1.371,4.924 -2.094,4.471 -0.221,-0.49 -0.409,-0.984 -0.581,-1.48 -0.417,1.99 -0.857,3.974 -1.333,5.953 -0.633,1.363 -1.701,-0.968 -2.607,-3.692 -0.43,3.617 -1.19,7.399 -2.477,6.606 -0.139,-0.36 -0.262,-0.72 -0.375,-1.081 -0.527,2.272 -1.172,4.011 -1.833,3.309 -0.21,-0.5 -0.386,-1.006 -0.546,-1.515 -0.031,0.064 -0.057,0.127 -0.088,0.193 -0.02,-0.006 -0.037,-0.012 -0.056,-0.017 -0.303,1.507 -0.68,2.505 -1.186,2.25 -1.014,-0.509 -1.352,-1.656 -1.389,-3.014 -0.019,0.04 -0.038,0.079 -0.058,0.119 0.06,0.912 0.119,1.824 0.177,2.736 -0.343,-0.322 -0.685,-0.646 -1.029,-0.968 -0.471,1.039 -0.781,1.944 -0.686,2.578 -0.123,-0.36 -0.238,-0.721 -0.338,-1.084 -0.182,1.677 -0.639,2.933 -1.603,2.945 -0.192,0.002 -0.354,-0.034 -0.508,-0.078 -0.217,1.541 -0.713,2.84 -1.846,3.522 -0.386,0.237 -0.676,0.005 -0.893,-0.529 -0.457,2.14 -1.036,3.764 -1.794,3.817 -0.571,0.04 -1.011,-0.769 -1.33,-2.058 -1.274,3.814 -2.556,6.99 -2.832,7.747 -1.846,-0.081 -2.364,-1.259 -1.555,-3.535 1.096,-3.009 2.826,-7.898 3.742,-12.019 0.057,-4.609 0.721,-9.013 1.885,-8.601 0.873,0.348 1.329,1.269 1.494,2.547 0.434,-1.346 0.887,-2.14 1.33,-1.879 0.512,-2.518 2.248,-3.772 5.229,-3.741 0.06,0.931 0.121,1.863 0.181,2.794 0.45,-1.956 0.951,-3.899 1.516,-5.829 0.404,0.203 0.765,0.433 1.1,0.678 0.228,-0.557 0.474,-1.109 0.747,-1.656 0.909,-0.654 1.446,0.131 1.75,1.57 0.172,-0.695 0.343,-1.39 0.526,-2.082 0.332,-0.397 0.6,-0.27 0.815,0.164 0.277,-1.61 0.693,-2.803 1.39,-2.82 1.938,-0.049 2.276,7.135 1.694,8.887 0.596,-1.795 2.132,-14.626 3.659,-12.899 0.2,-1.137 0.541,-2.136 1.155,-2.809 0.111,-1.604 0.467,-3.013 1.353,-3.775 0.085,-0.052 0.17,-0.071 0.256,-0.078 0.199,-1.412 0.594,-2.786 1.21,-4.119 0.904,-0.955 1.912,4.232 2.032,4.863 0.313,1.006 0.221,1.053 -0.279,0.141"
         style="fill:#231f20;fill-opacity:1;fill-rule:nonzero;stroke:none;stroke-width:0.1"
         id="path142"
         inkscape:connector-curvature="0" />
      <path
         d="m 366.03978,204.33722 c 0.008,-0.057 0.005,-0.052 0,0 z m 2.445,13.054 c -0.084,0.104 -0.266,0.215 -0.311,0.052 -0.044,-0.149 -0.063,-0.326 -0.071,-0.512 -0.191,0.823 -0.389,1.645 -0.602,2.466 -0.212,0.815 -1.068,1.889 -0.862,0.473 0.004,-0.027 0.009,-0.053 0.013,-0.082 -0.39,0.845 -0.961,1.335 -0.654,-0.164 0.411,-2.002 0.818,-4.005 1.219,-6.006 -0.475,1.918 -0.947,3.838 -1.415,5.757 -0.285,1.168 -1.243,2.365 -0.895,0.504 0.302,-1.613 0.635,-3.227 0.97,-4.841 -0.256,1.093 -0.51,2.183 -0.773,3.264 -0.223,0.933 -0.919,1.853 -0.986,1.28 -0.322,1.129 -1.268,2.168 -0.86,0.385 0.121,-0.527 0.242,-1.057 0.362,-1.585 -0.36,0.628 -0.752,0.823 -0.495,-0.477 0.108,-0.541 0.219,-1.083 0.33,-1.625 -0.172,0.403 -0.618,1.158 -0.715,0.529 -0.223,-1.467 0.832,-4.612 1.088,-6.155 0.092,-0.555 0.6,-1.589 0.877,-1.801 0.175,-0.749 0.354,-1.492 0.552,-2.222 0.337,-1.248 0.671,-2.956 1.33,-4.087 0.099,-0.172 0.354,-0.472 0.446,-0.239 0.002,0.003 0.002,0.007 0.003,0.01 0.245,-0.627 0.497,-1.072 0.744,-1.178 0.149,-0.064 0.191,0.049 0.233,0.216 0.105,0.419 -0.005,1.134 -0.166,1.859 0.115,-0.142 0.213,-0.13 0.298,-0.037 0.122,0.132 0.147,0.467 0.114,0.905 0.27,-0.215 0.42,0.23 0.315,1.17 0.238,-0.782 0.541,-1.504 0.926,-1.801 0.082,-0.043 0.145,-0.024 0.189,0.057 0.089,0.14 0.118,0.383 0.11,0.68 0.078,-0.1 0.158,-0.171 0.241,-0.194 0.217,-0.058 0.235,0.175 0.243,0.445 0.006,0.19 -0.01,0.401 -0.035,0.617 0.276,-0.393 0.557,-0.476 0.46,0.401 -0.135,1.208 -0.325,2.427 -0.531,3.647 0.207,-0.13 0.333,0.082 0.16,0.926 -0.403,1.975 -0.548,5.756 -1.852,7.363"
         style="fill:#231f20;fill-opacity:1;fill-rule:nonzero;stroke:none;stroke-width:0.1"
         id="path144"
         inkscape:connector-curvature="0" />
      <path
         d="m 391.38778,311.09822 c 1.508,-10.408 8.532,-16.32 16.726,-22.047 4.231,-2.957 8.436,-5.946 11.793,-9.912 6.192,-7.317 6.024,-17.051 0.988,-25.063 0.137,-1.477 0.274,-2.957 0.411,-4.435 2.058,5.468 2.331,11.663 -0.046,17.087 -2.03,4.632 -6.486,7.491 -10.685,9.939 -5.05,2.946 -10.347,5.509 -14.147,10.097 -6.063,7.321 -2.974,18.057 -4.118,26.783 -0.396,3.026 -1.052,-1.451 -0.922,-2.449 0.979,-7.469 -0.658,-15.139 1.409,-22.486 1.36,-4.832 4.628,-8.477 8.629,-11.352 7.943,-5.707 24.202,-10.513 19.341,-23.429 -0.331,-0.88 0.284,-4.638 0.412,-4.434 7.212,11.471 6.418,27.203 -3.284,36.913 -8.77,8.776 -23.575,13.362 -25.585,27.237 -0.437,3.024 -1.067,-1.448 -0.922,-2.449"
         style="fill:#231f20;fill-opacity:1;fill-rule:nonzero;stroke:none;stroke-width:0.1"
         id="path146"
         inkscape:connector-curvature="0" />
      <path
         d="m 387.05878,307.51822 c 2.405,-30.833 4.478,-50.908 5.063,-91.106 0.127,-8.688 2.503,-9.963 2.924,-1.439 1.589,32.184 0.673,64.289 -1.832,96.403 -0.769,9.844 -6.65,2.497 -6.155,-3.858 v 0"
         style="fill:#231f20;fill-opacity:1;fill-rule:nonzero;stroke:none;stroke-width:0.1"
         id="path148"
         inkscape:connector-curvature="0" />
      <path
         d="m 360.19878,211.97422 c 1.147,-20.924 34.052,-20.924 35.199,0 0.537,9.786 -8.891,15.68 -17.599,16 -9.551,0.351 -17.09,-6.7 -17.6,-16 -0.165,-2.992 2.039,-2.934 2.199,0 0.807,14.689 29.994,14.689 30.801,0 0.409,-7.455 -9.758,-10.793 -15.4,-11 -6.263,-0.231 -15.008,3.851 -15.401,11 -0.16,2.933 -2.364,2.992 -2.199,0"
         style="fill:#231f20;fill-opacity:1;fill-rule:nonzero;stroke:none;stroke-width:0.1"
         id="path150"
         inkscape:connector-curvature="0" />
      <path
         d="m 405.19678,291.95022 c 0.046,0.133 0.084,0.268 0.133,0.401 -0.07,-0.117 -0.11,-0.252 -0.133,-0.401"
         style="fill:#231f20;fill-opacity:1;fill-rule:nonzero;stroke:none;stroke-width:0.1"
         id="path152"
         inkscape:connector-curvature="0" />
      <path
         d="m 425.28278,262.03422 c -0.01,0.026 -0.025,0.048 -0.035,0.075 0.676,2.064 1.461,4.998 -0.135,4.838 -0.139,1.816 -0.516,3.332 -1.371,3.72 -0.018,0.01 -0.034,0.006 -0.051,0.015 -0.462,2.844 -1.427,5.563 -2.024,5.098 -0.118,-0.092 -0.206,-0.185 -0.31,-0.277 -0.6,2.658 -1.37,4.924 -2.094,4.471 -0.22,-0.49 -0.409,-0.985 -0.581,-1.481 -0.417,1.991 -0.856,3.975 -1.333,5.954 -0.632,1.363 -1.701,-0.968 -2.606,-3.692 -0.431,3.616 -1.19,7.399 -2.478,6.606 -0.138,-0.36 -0.261,-0.72 -0.375,-1.081 -0.526,2.272 -1.171,4.01 -1.833,3.309 -0.21,-0.5 -0.385,-1.007 -0.546,-1.516 -0.031,0.065 -0.056,0.127 -0.087,0.194 -0.02,-0.006 -0.038,-0.012 -0.056,-0.018 -0.304,1.508 -0.681,2.506 -1.187,2.251 -1.013,-0.51 -1.351,-1.656 -1.388,-3.014 -0.02,0.04 -0.038,0.079 -0.058,0.119 0.06,0.912 0.118,1.824 0.177,2.736 -0.343,-0.322 -0.686,-0.646 -1.029,-0.969 -0.471,1.039 -0.782,1.945 -0.686,2.578 -0.123,-0.359 -0.238,-0.72 -0.339,-1.084 -0.181,1.678 -0.638,2.934 -1.602,2.946 -0.193,0.002 -0.354,-0.034 -0.508,-0.078 -0.217,1.541 -0.713,2.839 -1.846,3.522 -0.387,0.236 -0.677,0.005 -0.893,-0.529 -0.457,2.139 -1.037,3.763 -1.794,3.817 -0.572,0.039 -1.011,-0.769 -1.33,-2.058 -1.274,3.814 -2.556,6.99 -2.832,7.747 -1.846,-0.081 -2.365,-1.259 -1.555,-3.536 1.096,-3.008 2.826,-7.897 3.742,-12.018 0.057,-4.609 0.721,-9.014 1.885,-8.602 0.873,0.349 1.329,1.27 1.494,2.547 0.434,-1.345 0.887,-2.139 1.33,-1.879 0.512,-2.517 2.248,-3.771 5.229,-3.74 0.06,0.931 0.121,1.862 0.181,2.794 0.449,-1.956 0.95,-3.899 1.516,-5.829 0.404,0.203 0.764,0.433 1.099,0.678 0.229,-0.557 0.475,-1.11 0.747,-1.657 0.91,-0.653 1.447,0.131 1.75,1.571 0.172,-0.696 0.343,-1.39 0.527,-2.082 0.332,-0.398 0.599,-0.27 0.814,0.164 0.278,-1.611 0.694,-2.803 1.391,-2.821 1.937,-0.048 2.275,7.135 1.693,8.888 0.597,-1.796 2.133,-14.626 3.659,-12.899 0.201,-1.137 0.541,-2.136 1.156,-2.809 0.111,-1.604 0.467,-3.014 1.352,-3.775 0.085,-0.052 0.171,-0.072 0.257,-0.078 0.198,-1.412 0.594,-2.786 1.21,-4.12 0.903,-0.955 1.912,4.233 2.031,4.864 0.314,1.006 0.222,1.053 -0.278,0.14"
         style="fill:#231f20;fill-opacity:1;fill-rule:nonzero;stroke:none;stroke-width:0.1"
         id="path154"
         inkscape:connector-curvature="0" />
      <path
         d="m 369.40378,202.93122 c -0.026,-0.084 -0.031,-0.074 0,0 z m 19.805,17.248 c -0.168,0.182 -0.636,0.41 -0.933,0.203 -0.272,-0.19 -0.493,-0.43 -0.692,-0.687 0.164,1.23 0.31,2.463 0.406,3.701 0.094,1.226 -1.588,3.086 -2.256,1.019 -0.014,-0.04 -0.025,-0.08 -0.037,-0.121 -0.436,1.344 -1.772,2.268 -2.203,0.043 -0.576,-2.972 -1.165,-5.941 -1.768,-8.91 0.294,2.882 0.605,5.764 0.922,8.645 0.192,1.75 -1.693,3.824 -2.334,1.074 -0.556,-2.382 -1.015,-4.778 -1.465,-7.175 0.215,1.635 0.431,3.265 0.62,4.887 0.162,1.397 -1.159,2.973 -1.903,2.202 0.037,1.713 -1.958,3.558 -2.34,0.894 -0.112,-0.789 -0.224,-1.578 -0.337,-2.367 -0.546,1.027 -1.588,1.465 -1.995,-0.463 -0.168,-0.802 -0.324,-1.605 -0.478,-2.409 -0.164,0.634 -0.862,1.876 -1.744,1.036 -2.063,-1.959 -1.686,-6.797 -2.319,-9.064 -0.228,-0.815 0.402,-2.472 1.071,-2.885 -0.149,-1.119 -0.276,-2.233 -0.337,-3.338 -0.106,-1.885 -0.646,-4.414 0.363,-6.267 0.153,-0.284 0.671,-0.809 1.178,-0.521 0.007,0.004 0.01,0.009 0.016,0.013 0.184,-0.981 0.562,-1.707 1.237,-1.957 0.412,-0.152 0.646,-0.013 0.932,0.205 0.714,0.543 1.034,1.587 1.207,2.669 0.227,-0.245 0.549,-0.269 0.9,-0.175 0.507,0.134 0.892,0.593 1.197,1.219 0.645,-0.412 1.531,0.146 2.076,1.505 0.022,-1.193 0.293,-2.327 1.229,-2.902 0.214,-0.097 0.429,-0.097 0.644,0 0.408,0.156 0.725,0.485 0.975,0.904 0.15,-0.171 0.336,-0.304 0.573,-0.369 0.628,-0.172 0.899,0.146 1.178,0.52 0.196,0.264 0.342,0.564 0.466,0.879 0.499,-0.665 1.301,-0.9 1.812,0.37 0.7,1.746 1.238,3.53 1.726,5.323 0.53,-0.267 1.118,-0.023 1.364,1.227 0.576,2.933 3.636,8.282 1.049,11.072"
         style="fill:#231f20;fill-opacity:1;fill-rule:nonzero;stroke:none;stroke-width:0.1"
         id="path156"
         inkscape:connector-curvature="0" />
      <path
         d="m 381.60278,204.17722 c -0.015,-0.049 -0.017,-0.043 0,0 z m 11.565,10.071 c -0.098,0.107 -0.371,0.24 -0.545,0.119 -0.158,-0.111 -0.287,-0.251 -0.404,-0.401 0.096,0.719 0.181,1.439 0.238,2.16 0.054,0.717 -0.928,1.803 -1.318,0.596 -0.007,-0.024 -0.014,-0.047 -0.022,-0.07 -0.254,0.785 -1.034,1.324 -1.286,0.025 -0.337,-1.735 -0.681,-3.47 -1.032,-5.203 0.171,1.682 0.353,3.365 0.539,5.047 0.111,1.023 -0.989,2.234 -1.364,0.629 -0.324,-1.392 -0.593,-2.791 -0.855,-4.19 0.125,0.953 0.252,1.906 0.361,2.853 0.095,0.816 -0.676,1.736 -1.11,1.286 0.022,1 -1.144,2.078 -1.366,0.522 -0.067,-0.46 -0.131,-0.922 -0.198,-1.382 -0.318,0.599 -0.927,0.854 -1.164,-0.271 -0.098,-0.469 -0.189,-0.938 -0.28,-1.406 -0.095,0.37 -0.503,1.095 -1.018,0.605 -1.206,-1.144 -0.985,-3.969 -1.354,-5.293 -0.133,-0.476 0.234,-1.443 0.625,-1.684 -0.086,-0.654 -0.161,-1.305 -0.196,-1.95 -0.062,-1.1 -0.378,-2.577 0.212,-3.661 0.089,-0.164 0.391,-0.47 0.687,-0.302 0.004,0.002 0.006,0.004 0.01,0.006 0.107,-0.572 0.328,-0.997 0.722,-1.141 0.241,-0.09 0.378,-0.008 0.544,0.119 0.417,0.316 0.605,0.927 0.705,1.559 0.132,-0.144 0.32,-0.158 0.525,-0.103 0.297,0.078 0.521,0.347 0.699,0.712 0.377,-0.241 0.895,0.086 1.213,0.879 0.012,-0.696 0.171,-1.36 0.717,-1.695 0.126,-0.056 0.251,-0.056 0.377,0 0.238,0.091 0.423,0.284 0.569,0.529 0.088,-0.101 0.196,-0.178 0.335,-0.217 0.366,-0.1 0.525,0.086 0.688,0.305 0.113,0.154 0.199,0.329 0.271,0.512 0.291,-0.387 0.76,-0.524 1.059,0.216 0.408,1.02 0.722,2.063 1.008,3.109 0.308,-0.157 0.652,-0.013 0.795,0.716 0.337,1.712 2.123,4.837 0.613,6.465"
         style="fill:#231f20;fill-opacity:1;fill-rule:nonzero;stroke:none;stroke-width:0.1"
         id="path158"
         inkscape:connector-curvature="0" />
    </g>
  </g>
</svg>
