<?xml version="1.0" encoding="UTF-8" standalone="no"?>
<!-- Created with Inkscape (http://www.inkscape.org/) -->

<svg
   xmlns:dc="http://purl.org/dc/elements/1.1/"
   xmlns:cc="http://creativecommons.org/ns#"
   xmlns:rdf="http://www.w3.org/1999/02/22-rdf-syntax-ns#"
   xmlns:svg="http://www.w3.org/2000/svg"
   xmlns="http://www.w3.org/2000/svg"
   xmlns:sodipodi="http://sodipodi.sourceforge.net/DTD/sodipodi-0.dtd"
   xmlns:inkscape="http://www.inkscape.org/namespaces/inkscape"
   width="200"
   height="200"
   viewBox="0 0 52.916666 52.916666"
   version="1.1"
   id="svg318"
   inkscape:version="0.92.5 (2060ec1f9f, 2020-04-08)"
   sodipodi:docname="music_note_two_quarter_notes.svg">
  <defs
     id="defs312" />
  <sodipodi:namedview
     id="base"
     pagecolor="#ffffff"
     bordercolor="#666666"
     borderopacity="1.0"
     inkscape:pageopacity="0.0"
     inkscape:pageshadow="2"
     inkscape:zoom="0.35"
     inkscape:cx="400"
     inkscape:cy="560"
     inkscape:document-units="mm"
     inkscape:current-layer="layer1"
     showgrid="false"
     units="px"
     inkscape:window-width="989"
     inkscape:window-height="829"
     inkscape:window-x="2718"
     inkscape:window-y="569"
     inkscape:window-maximized="0" />
  <metadata
     id="metadata315">
    <rdf:RDF>
      <cc:Work
         rdf:about="">
        <dc:format>image/svg+xml</dc:format>
        <dc:type
           rdf:resource="http://purl.org/dc/dcmitype/StillImage" />
        <dc:title></dc:title>
      </cc:Work>
    </rdf:RDF>
  </metadata>
  <g
     inkscape:label="Layer 1"
     inkscape:groupmode="layer"
     id="layer1"
     transform="translate(0,-244.08334)">
    <g
       id="g284"
       transform="matrix(0.54027195,0,0,-0.54027195,-163.39558,480.38589)">
      <path
         d="m 336.09978,416.16422 c 15.253,5.39 31.12,8.585 46.687,12.892 -0.354,0.612 -0.707,1.224 -1.061,1.835 0.448,-5.565 0.415,-11.569 -0.063,-17.136 -0.242,-2.817 -5.607,-2.649 -7.478,-2.736 -14.114,-0.656 -27.178,-2.279 -40.523,-7.342 0.414,-1.224 0.828,-2.448 1.242,-3.672 1.281,6.134 1.936,12.304 2.004,18.57 0.033,2.977 -2.167,2.965 -2.199,0 -0.06,-5.413 -0.598,-10.747 -1.705,-16.047 -0.154,-0.736 -0.357,-4.279 1.242,-3.672 9.19,3.487 18.599,5.798 28.391,6.655 5.287,0.464 10.793,-0.046 16.015,0.959 3.237,0.623 4.649,2.846 5.132,5.955 0.972,6.254 0.569,13.51 0.063,19.795 -0.029,0.363 -0.362,2.029 -1.06,1.836 -15.764,-4.361 -31.825,-7.612 -47.271,-13.07 -1.37,-0.484 -1.084,-5.411 0.584,-4.822"
         style="fill:#231f20;fill-opacity:1;fill-rule:nonzero;stroke:none;stroke-width:0.1"
         id="path46"
         inkscape:connector-curvature="0" />
      <path
         d="m 354.52978,421.26322 c -0.177,0.076 -0.63,0.119 -0.872,-0.064 -0.221,-0.17 -0.389,-0.36 -0.535,-0.554 -0.016,0.775 -0.047,1.55 -0.126,2.318 -0.08,0.759 -1.852,1.546 -2.18,0.163 -0.007,-0.027 -0.013,-0.054 -0.016,-0.082 -0.576,0.727 -1.909,1.016 -2,-0.414 -0.124,-1.912 -0.261,-3.825 -0.409,-5.741 -0.119,1.802 -0.224,3.606 -0.323,5.411 -0.06,1.096 -2.043,1.97 -2.256,0.181 -0.184,-1.552 -0.28,-3.091 -0.365,-4.63 -0.025,1.03 -0.048,2.06 -0.094,3.078 -0.04,0.877 -1.446,1.565 -2.017,0.949 -0.195,1.043 -2.248,1.758 -2.238,0.071 0.004,-0.498 0.007,-0.998 0.012,-1.498 -0.633,0.511 -1.635,0.567 -1.744,-0.679 -0.044,-0.52 -0.079,-1.036 -0.111,-1.552 -0.233,0.35 -1.03,0.96 -1.718,0.277 -1.604,-1.599 -0.615,-4.445 -0.885,-5.943 -0.099,-0.538 0.694,-1.415 1.355,-1.529 0.015,-0.708 0.049,-1.407 0.142,-2.086 0.156,-1.161 0.006,-2.798 1.168,-3.716 0.177,-0.139 0.716,-0.355 1.137,-0.08 0.005,0.006 0.008,0.01 0.013,0.013 0.296,-0.556 0.735,-0.92 1.38,-0.934 0.394,-0.011 0.586,0.121 0.817,0.31 0.574,0.47 0.723,1.167 0.735,1.856 0.238,-0.104 0.533,-0.053 0.838,0.074 0.44,0.183 0.729,0.538 0.92,0.978 0.641,-0.122 1.368,0.393 1.679,1.325 0.178,-0.717 0.576,-1.349 1.501,-1.508 0.206,-0.015 0.401,0.027 0.583,0.129 0.347,0.177 0.59,0.439 0.76,0.742 0.161,-0.072 0.345,-0.116 0.57,-0.109 0.59,0.024 0.794,0.268 0.996,0.551 0.141,0.199 0.233,0.411 0.304,0.625 0.542,-0.303 1.299,-0.283 1.591,0.586 0.4,1.195 0.648,2.383 0.85,3.564 0.516,-0.056 1.016,0.21 1.07,1.014 0.13,1.889 2.184,5.736 -0.532,6.904"
         style="fill:#231f20;fill-opacity:1;fill-rule:nonzero;stroke:none;stroke-width:0.1"
         id="path48"
         inkscape:connector-curvature="0" />
      <path
         d="m 354.05278,408.51922 c -0.015,-0.065 -0.023,-0.06 0,0 z m 18.645,16.702 c -0.208,0.085 -0.746,0.132 -1.035,-0.08 -0.264,-0.199 -0.463,-0.418 -0.639,-0.643 -0.012,0.893 -0.044,1.784 -0.131,2.668 -0.09,0.875 -2.183,1.766 -2.584,0.172 -0.007,-0.032 -0.015,-0.063 -0.02,-0.094 -0.677,0.829 -2.255,1.153 -2.376,-0.494 -0.163,-2.202 -0.34,-4.409 -0.53,-6.614 -0.127,2.074 -0.238,4.149 -0.339,6.228 -0.064,1.262 -2.409,2.252 -2.676,0.19 -0.232,-1.788 -0.357,-3.562 -0.471,-5.335 -0.021,1.186 -0.04,2.372 -0.087,3.544 -0.04,1.01 -1.703,1.789 -2.385,1.078 -0.222,1.198 -2.652,2.006 -2.653,0.063 0,-0.574 0,-1.15 0.002,-1.726 -0.747,0.583 -1.934,0.641 -2.075,-0.797 -0.057,-0.598 -0.103,-1.193 -0.145,-1.787 -0.273,0.402 -1.213,1.097 -2.035,0.304 -1.915,-1.852 -0.766,-5.123 -1.097,-6.851 -0.121,-0.619 0.811,-1.62 1.594,-1.749 0.013,-0.813 0.048,-1.617 0.152,-2.399 0.177,-1.337 -0.015,-3.222 1.355,-4.271 0.209,-0.159 0.846,-0.402 1.348,-0.081 0.007,0.005 0.01,0.009 0.015,0.012 0.348,-0.635 0.866,-1.052 1.63,-1.064 0.467,-0.007 0.698,0.144 0.972,0.366 0.685,0.545 0.867,1.349 0.887,2.142 0.282,-0.118 0.632,-0.056 0.995,0.09 0.523,0.216 0.868,0.627 1.1,1.134 0.758,-0.132 1.625,0.466 2,1.541 0.207,-0.824 0.674,-1.548 1.769,-1.726 0.245,-0.014 0.477,0.037 0.692,0.154 0.414,0.207 0.705,0.511 0.909,0.862 0.19,-0.083 0.408,-0.13 0.675,-0.121 0.701,0.031 0.944,0.315 1.185,0.643 0.171,0.228 0.281,0.474 0.367,0.72 0.64,-0.344 1.538,-0.314 1.893,0.689 0.483,1.379 0.787,2.749 1.036,4.11 0.61,-0.059 1.206,0.252 1.278,1.178 0.169,2.175 2.636,6.622 -0.576,7.944"
         style="fill:#231f20;fill-opacity:1;fill-rule:nonzero;stroke:none;stroke-width:0.1"
         id="path50"
         inkscape:connector-curvature="0" />
      <path
         d="m 363.94278,410.37222 c -0.015,-0.066 -0.022,-0.058 0,0 z m 18.646,16.701 c -0.208,0.088 -0.746,0.135 -1.036,-0.079 -0.263,-0.197 -0.463,-0.417 -0.639,-0.643 -0.012,0.895 -0.043,1.785 -0.13,2.669 -0.09,0.873 -2.184,1.766 -2.584,0.171 -0.009,-0.031 -0.016,-0.062 -0.022,-0.094 -0.675,0.83 -2.253,1.155 -2.375,-0.493 -0.164,-2.204 -0.339,-4.408 -0.53,-6.613 -0.128,2.071 -0.237,4.148 -0.34,6.225 -0.063,1.263 -2.408,2.253 -2.675,0.191 -0.232,-1.788 -0.357,-3.56 -0.47,-5.335 -0.022,1.187 -0.041,2.372 -0.087,3.544 -0.04,1.01 -1.703,1.791 -2.386,1.077 -0.221,1.199 -2.652,2.006 -2.653,0.064 0,-0.573 0,-1.149 0.002,-1.726 -0.747,0.583 -1.934,0.641 -2.074,-0.795 -0.057,-0.598 -0.103,-1.194 -0.145,-1.789 -0.273,0.401 -1.214,1.099 -2.036,0.305 -1.915,-1.854 -0.766,-5.124 -1.097,-6.85 -0.122,-0.621 0.811,-1.623 1.594,-1.75 0.013,-0.814 0.049,-1.619 0.152,-2.401 0.177,-1.335 -0.015,-3.22 1.356,-4.269 0.208,-0.159 0.846,-0.403 1.347,-0.083 0.006,0.006 0.01,0.012 0.016,0.015 0.348,-0.637 0.865,-1.052 1.63,-1.065 0.467,-0.009 0.696,0.145 0.971,0.364 0.684,0.547 0.868,1.349 0.887,2.142 0.282,-0.117 0.632,-0.054 0.996,0.093 0.523,0.213 0.868,0.625 1.099,1.133 0.759,-0.133 1.625,0.464 2.001,1.54 0.206,-0.823 0.674,-1.547 1.769,-1.724 0.245,-0.015 0.476,0.034 0.692,0.151 0.414,0.209 0.705,0.513 0.908,0.863 0.191,-0.084 0.408,-0.13 0.676,-0.12 0.699,0.031 0.943,0.315 1.185,0.641 0.17,0.23 0.281,0.475 0.367,0.723 0.638,-0.346 1.538,-0.317 1.892,0.688 0.484,1.38 0.787,2.749 1.036,4.109 0.611,-0.058 1.206,0.252 1.279,1.179 0.169,2.175 2.636,6.621 -0.576,7.942"
         style="fill:#231f20;fill-opacity:1;fill-rule:nonzero;stroke:none;stroke-width:0.1"
         id="path52"
         inkscape:connector-curvature="0" />
      <path
         d="m 332.62978,414.08922 c 1.554,-19.938 2.894,-32.92 3.274,-58.912 0.081,-5.618 1.617,-6.444 1.89,-0.932 1.027,20.811 0.435,41.574 -1.185,62.34 -0.497,6.365 -4.3,1.613 -3.979,-2.496 v 0"
         style="fill:#231f20;fill-opacity:1;fill-rule:nonzero;stroke:none;stroke-width:0.1"
         id="path54"
         inkscape:connector-curvature="0" />
      <path
         d="m 378.98878,427.07022 c 1.555,-19.938 2.895,-32.921 3.274,-58.913 0.082,-5.618 1.618,-6.443 1.89,-0.931 1.027,20.811 0.436,41.574 -1.184,62.34 -0.498,6.365 -4.3,1.613 -3.98,-2.496 v 0"
         style="fill:#231f20;fill-opacity:1;fill-rule:nonzero;stroke:none;stroke-width:0.1"
         id="path56"
         inkscape:connector-curvature="0" />
      <path
         d="m 336.92478,353.21322 c -0.489,-6.05 -7.722,-8.301 -12.695,-8.841 -5.577,-0.606 -12.234,1.433 -15.19,6.458 -2.065,3.51 2.728,6.699 5.119,7.997 2.578,1.4 5.627,1.748 8.502,1.852 5.321,0.191 13.752,-2.556 14.264,-8.897 0.141,-1.746 0.307,0.959 0.269,1.431 -1.148,14.218 -29.086,13.857 -29.086,-0.715 0,-14.574 27.938,-14.936 29.086,-0.716 0.038,0.473 -0.128,3.177 -0.269,1.431"
         style="fill:#231f20;fill-opacity:1;fill-rule:nonzero;stroke:none;stroke-width:0.1"
         id="path58"
         inkscape:connector-curvature="0" />
      <path
         d="m 314.00578,346.42722 c -0.025,-0.056 -0.029,-0.05 0,0 z m 18.363,11.835 c -0.156,0.125 -0.59,0.283 -0.865,0.14 -0.252,-0.131 -0.457,-0.294 -0.642,-0.471 0.152,0.844 0.288,1.691 0.377,2.539 0.087,0.842 -1.473,2.119 -2.092,0.701 -0.012,-0.028 -0.023,-0.057 -0.034,-0.084 -0.404,0.922 -1.643,1.556 -2.043,0.029 -0.534,-2.039 -1.08,-4.076 -1.639,-6.113 0.273,1.977 0.561,3.954 0.855,5.93 0.178,1.203 -1.57,2.624 -2.164,0.739 -0.517,-1.635 -0.942,-3.28 -1.359,-4.924 0.2,1.121 0.4,2.241 0.575,3.354 0.15,0.958 -1.075,2.039 -1.764,1.511 0.034,1.175 -1.815,2.441 -2.17,0.613 -0.103,-0.541 -0.208,-1.083 -0.312,-1.624 -0.507,0.704 -1.473,1.005 -1.85,-0.319 -0.155,-0.551 -0.301,-1.101 -0.443,-1.651 -0.153,0.434 -0.799,1.285 -1.618,0.709 -1.912,-1.343 -1.563,-4.662 -2.149,-6.218 -0.212,-0.56 0.372,-1.697 0.992,-1.98 -0.138,-0.767 -0.256,-1.532 -0.312,-2.291 -0.098,-1.293 -0.599,-3.028 0.337,-4.301 0.141,-0.193 0.622,-0.554 1.091,-0.354 0.007,10e-4 0.01,0.003 0.016,0.007 0.17,-0.674 0.521,-1.172 1.147,-1.342 0.381,-0.105 0.598,-0.009 0.864,0.139 0.662,0.373 0.959,1.091 1.119,1.833 0.21,-0.168 0.509,-0.185 0.834,-0.121 0.47,0.092 0.828,0.407 1.11,0.837 0.599,-0.283 1.42,0.099 1.925,1.032 0.02,-0.819 0.272,-1.596 1.139,-1.99 0.199,-0.066 0.398,-0.066 0.597,0 0.379,0.106 0.672,0.333 0.905,0.621 0.139,-0.12 0.311,-0.21 0.531,-0.256 0.582,-0.117 0.834,0.102 1.092,0.359 0.182,0.179 0.317,0.385 0.431,0.601 0.463,-0.454 1.207,-0.616 1.681,0.256 0.649,1.198 1.148,2.42 1.601,3.65 0.491,-0.183 1.036,-0.014 1.264,0.842 0.534,2.014 3.371,5.683 0.973,7.597"
         style="fill:#231f20;fill-opacity:1;fill-rule:nonzero;stroke:none;stroke-width:0.1"
         id="path60"
         inkscape:connector-curvature="0" />
      <path
         d="m 310.42078,349.03322 c -0.008,-0.039 -0.008,-0.034 0,0 z m 5.619,8.142 c -0.047,0.086 -0.18,0.195 -0.265,0.097 -0.076,-0.089 -0.139,-0.203 -0.195,-0.324 0.047,0.581 0.087,1.162 0.114,1.747 0.026,0.579 -0.449,1.456 -0.64,0.482 -0.003,-0.02 -0.006,-0.039 -0.01,-0.058 -0.123,0.634 -0.504,1.07 -0.625,0.019 -0.165,-1.401 -0.331,-2.805 -0.502,-4.204 0.084,1.36 0.173,2.72 0.261,4.079 0.056,0.826 -0.48,1.806 -0.661,0.508 -0.158,-1.125 -0.29,-2.257 -0.417,-3.387 0.062,0.772 0.123,1.541 0.176,2.307 0.045,0.659 -0.328,1.404 -0.54,1.04 0.012,0.807 -0.554,1.68 -0.664,0.422 -0.031,-0.374 -0.061,-0.746 -0.095,-1.117 -0.155,0.483 -0.45,0.689 -0.566,-0.22 -0.047,-0.378 -0.091,-0.759 -0.136,-1.137 -0.045,0.299 -0.244,0.886 -0.494,0.489 -0.585,-0.925 -0.478,-3.209 -0.657,-4.279 -0.066,-0.384 0.111,-1.167 0.304,-1.362 -0.043,-0.529 -0.081,-1.054 -0.096,-1.575 -0.031,-0.89 -0.185,-2.083 0.101,-2.96 0.045,-0.133 0.19,-0.382 0.335,-0.246 0.002,0.002 0.003,0.006 0.005,0.007 0.053,-0.463 0.159,-0.806 0.35,-0.923 0.118,-0.072 0.184,-0.006 0.264,0.096 0.204,0.255 0.295,0.75 0.344,1.26 0.064,-0.116 0.155,-0.127 0.256,-0.083 0.143,0.063 0.251,0.281 0.338,0.576 0.184,-0.196 0.436,0.069 0.591,0.711 0.006,-0.563 0.081,-1.099 0.347,-1.37 0.06,-0.046 0.122,-0.046 0.183,0 0.116,0.074 0.205,0.228 0.277,0.427 0.042,-0.081 0.094,-0.145 0.163,-0.176 0.178,-0.081 0.254,0.069 0.334,0.247 0.056,0.124 0.095,0.266 0.132,0.414 0.141,-0.313 0.369,-0.423 0.514,0.174 0.197,0.826 0.352,1.668 0.489,2.514 0.151,-0.127 0.317,-0.011 0.388,0.579 0.163,1.384 1.032,3.91 0.297,5.226"
         style="fill:#231f20;fill-opacity:1;fill-rule:nonzero;stroke:none;stroke-width:0.1"
         id="path62"
         inkscape:connector-curvature="0" />
      <path
         d="m 325.82378,346.71222 c -0.014,-0.038 -0.016,-0.035 0,0 z m 9.849,7.93 c -0.083,0.083 -0.316,0.189 -0.465,0.094 -0.134,-0.087 -0.244,-0.197 -0.344,-0.317 0.083,0.567 0.155,1.134 0.203,1.703 0.047,0.565 -0.79,1.419 -1.122,0.469 -0.006,-0.018 -0.013,-0.037 -0.018,-0.057 -0.217,0.62 -0.882,1.043 -1.096,0.02 -0.287,-1.365 -0.58,-2.732 -0.88,-4.096 0.147,1.324 0.302,2.649 0.459,3.973 0.096,0.806 -0.841,1.76 -1.16,0.494 -0.277,-1.093 -0.506,-2.196 -0.73,-3.297 0.108,0.752 0.215,1.501 0.309,2.245 0.08,0.643 -0.575,1.368 -0.945,1.015 0.018,0.785 -0.975,1.635 -1.164,0.41 -0.057,-0.362 -0.112,-0.725 -0.168,-1.088 -0.271,0.471 -0.791,0.672 -0.993,-0.213 -0.083,-0.37 -0.161,-0.74 -0.237,-1.109 -0.081,0.292 -0.429,0.864 -0.868,0.476 -1.026,-0.9 -0.838,-3.123 -1.153,-4.166 -0.113,-0.375 0.2,-1.138 0.532,-1.326 -0.072,-0.516 -0.137,-1.029 -0.166,-1.535 -0.053,-0.866 -0.322,-2.029 0.179,-2.884 0.078,-0.128 0.334,-0.369 0.586,-0.237 0.004,0.002 0.006,0.004 0.008,0.005 0.092,-0.45 0.28,-0.785 0.615,-0.899 0.206,-0.071 0.322,-0.006 0.464,0.094 0.356,0.25 0.515,0.73 0.601,1.228 0.112,-0.114 0.272,-0.125 0.447,-0.082 0.252,0.062 0.444,0.274 0.596,0.561 0.32,-0.19 0.761,0.068 1.032,0.692 0.01,-0.549 0.146,-1.07 0.61,-1.334 0.108,-0.044 0.214,-0.044 0.322,0 0.202,0.072 0.36,0.222 0.485,0.416 0.074,-0.079 0.165,-0.139 0.285,-0.17 0.312,-0.08 0.447,0.067 0.585,0.239 0.097,0.121 0.17,0.259 0.232,0.404 0.247,-0.306 0.646,-0.413 0.901,0.17 0.348,0.802 0.615,1.622 0.858,2.447 0.263,-0.123 0.556,-0.01 0.678,0.565 0.287,1.349 1.809,3.808 0.522,5.09"
         style="fill:#231f20;fill-opacity:1;fill-rule:nonzero;stroke:none;stroke-width:0.1"
         id="path64"
         inkscape:connector-curvature="0" />
      <path
         d="m 383.90178,363.10322 c -0.488,-6.049 -7.722,-8.3 -12.693,-8.84 -5.577,-0.606 -12.235,1.433 -15.191,6.457 -2.064,3.51 2.729,6.698 5.118,7.996 2.579,1.4 5.628,1.748 8.503,1.852 5.321,0.191 13.751,-2.555 14.263,-8.896 0.142,-1.746 0.308,0.959 0.27,1.431 -1.149,14.217 -29.085,13.856 -29.085,-0.715 0,-14.573 27.936,-14.934 29.085,-0.716 0.038,0.472 -0.128,3.177 -0.27,1.431"
         style="fill:#231f20;fill-opacity:1;fill-rule:nonzero;stroke:none;stroke-width:0.1"
         id="path66"
         inkscape:connector-curvature="0" />
      <path
         d="m 360.98378,356.31922 c -0.024,-0.058 -0.029,-0.051 0,0 z m 18.362,11.835 c -0.155,0.125 -0.588,0.282 -0.864,0.139 -0.253,-0.131 -0.457,-0.295 -0.641,-0.471 0.151,0.844 0.287,1.689 0.376,2.539 0.086,0.842 -1.472,2.117 -2.092,0.699 -0.013,-0.027 -0.024,-0.054 -0.034,-0.083 -0.404,0.923 -1.644,1.557 -2.043,0.03 -0.535,-2.039 -1.08,-4.078 -1.639,-6.115 0.272,1.978 0.561,3.955 0.855,5.932 0.177,1.201 -1.57,2.624 -2.164,0.738 -0.516,-1.635 -0.942,-3.278 -1.358,-4.924 0.199,1.123 0.399,2.242 0.574,3.353 0.151,0.961 -1.074,2.041 -1.764,1.513 0.035,1.173 -1.816,2.441 -2.169,0.614 -0.105,-0.542 -0.208,-1.085 -0.313,-1.627 -0.507,0.704 -1.474,1.005 -1.85,-0.316 -0.156,-0.551 -0.3,-1.102 -0.444,-1.654 -0.151,0.435 -0.798,1.287 -1.617,0.711 -1.912,-1.345 -1.563,-4.664 -2.149,-6.218 -0.212,-0.56 0.372,-1.697 0.993,-1.98 -0.138,-0.769 -0.256,-1.533 -0.313,-2.29 -0.098,-1.293 -0.598,-3.03 0.337,-4.301 0.142,-0.194 0.622,-0.556 1.092,-0.357 0.006,0.003 0.01,0.005 0.015,0.007 0.17,-0.671 0.521,-1.171 1.146,-1.342 0.383,-0.103 0.6,-0.008 0.865,0.142 0.662,0.373 0.959,1.088 1.119,1.83 0.21,-0.168 0.509,-0.184 0.834,-0.119 0.47,0.091 0.828,0.407 1.11,0.837 0.598,-0.284 1.42,0.099 1.926,1.032 0.019,-0.819 0.271,-1.597 1.138,-1.992 0.199,-0.065 0.399,-0.065 0.598,0 0.379,0.107 0.672,0.333 0.903,0.621 0.14,-0.118 0.312,-0.208 0.532,-0.254 0.582,-0.117 0.834,0.102 1.092,0.358 0.182,0.18 0.317,0.387 0.432,0.602 0.463,-0.456 1.207,-0.617 1.681,0.256 0.649,1.197 1.148,2.421 1.599,3.65 0.492,-0.185 1.037,-0.016 1.266,0.842 0.534,2.013 3.371,5.683 0.971,7.598"
         style="fill:#231f20;fill-opacity:1;fill-rule:nonzero;stroke:none;stroke-width:0.1"
         id="path68"
         inkscape:connector-curvature="0" />
      <path
         d="m 357.39778,358.92322 c -0.007,-0.038 -0.007,-0.034 0,0 z m 5.619,8.143 c -0.047,0.086 -0.178,0.195 -0.263,0.097 -0.076,-0.091 -0.14,-0.203 -0.197,-0.326 0.048,0.581 0.087,1.164 0.115,1.747 0.027,0.58 -0.45,1.458 -0.639,0.482 -0.004,-0.018 -0.008,-0.038 -0.011,-0.056 -0.124,0.634 -0.504,1.071 -0.625,0.02 -0.165,-1.404 -0.332,-2.805 -0.502,-4.207 0.083,1.36 0.172,2.72 0.261,4.08 0.057,0.828 -0.479,1.806 -0.661,0.509 -0.157,-1.125 -0.289,-2.256 -0.416,-3.388 0.061,0.771 0.123,1.541 0.176,2.307 0.045,0.661 -0.328,1.403 -0.54,1.039 0.01,0.81 -0.554,1.681 -0.665,0.422 -0.031,-0.371 -0.062,-0.744 -0.094,-1.117 -0.155,0.486 -0.451,0.692 -0.567,-0.217 -0.047,-0.381 -0.09,-0.759 -0.135,-1.139 -0.046,0.301 -0.245,0.885 -0.495,0.49 -0.585,-0.925 -0.478,-3.209 -0.658,-4.279 -0.065,-0.386 0.113,-1.168 0.305,-1.362 -0.044,-0.529 -0.08,-1.055 -0.097,-1.575 -0.03,-0.891 -0.184,-2.084 0.102,-2.961 0.046,-0.132 0.19,-0.38 0.335,-0.244 0.002,0.001 0.004,0.003 0.006,0.005 0.052,-0.462 0.159,-0.806 0.349,-0.923 0.118,-0.071 0.185,-0.006 0.265,0.097 0.202,0.256 0.295,0.748 0.344,1.258 0.063,-0.115 0.153,-0.126 0.255,-0.08 0.143,0.062 0.252,0.278 0.338,0.573 0.183,-0.194 0.435,0.071 0.591,0.712 0.005,-0.564 0.081,-1.099 0.348,-1.371 0.06,-0.045 0.121,-0.045 0.183,0 0.116,0.074 0.204,0.23 0.277,0.428 0.041,-0.082 0.094,-0.143 0.163,-0.174 0.177,-0.082 0.253,0.068 0.333,0.246 0.056,0.123 0.096,0.264 0.132,0.413 0.141,-0.313 0.369,-0.424 0.515,0.175 0.197,0.825 0.351,1.666 0.488,2.514 0.15,-0.127 0.317,-0.011 0.387,0.578 0.164,1.385 1.033,3.911 0.297,5.227"
         style="fill:#231f20;fill-opacity:1;fill-rule:nonzero;stroke:none;stroke-width:0.1"
         id="path70"
         inkscape:connector-curvature="0" />
      <path
         d="m 372.80278,356.60322 c -0.014,-0.04 -0.016,-0.034 0,0 z m 9.848,7.93 c -0.084,0.083 -0.316,0.189 -0.465,0.093 -0.133,-0.087 -0.244,-0.197 -0.343,-0.315 0.082,0.565 0.154,1.132 0.202,1.7 0.048,0.565 -0.789,1.42 -1.121,0.469 -0.007,-0.018 -0.013,-0.036 -0.02,-0.055 -0.216,0.618 -0.881,1.042 -1.096,0.019 -0.287,-1.365 -0.579,-2.731 -0.879,-4.097 0.147,1.326 0.302,2.652 0.459,3.976 0.095,0.805 -0.84,1.758 -1.161,0.494 -0.275,-1.095 -0.505,-2.197 -0.728,-3.3 0.106,0.752 0.215,1.502 0.307,2.248 0.081,0.642 -0.575,1.367 -0.945,1.012 0.02,0.788 -0.974,1.637 -1.163,0.411 -0.058,-0.362 -0.111,-0.726 -0.169,-1.088 -0.27,0.473 -0.789,0.674 -0.991,-0.212 -0.083,-0.37 -0.161,-0.739 -0.238,-1.109 -0.08,0.292 -0.428,0.863 -0.868,0.477 -1.026,-0.902 -0.838,-3.126 -1.153,-4.167 -0.112,-0.375 0.2,-1.137 0.532,-1.328 -0.072,-0.514 -0.136,-1.026 -0.167,-1.533 -0.051,-0.868 -0.322,-2.03 0.181,-2.883 0.077,-0.129 0.334,-0.372 0.586,-0.239 0.003,10e-4 0.005,0.003 0.008,0.005 0.092,-0.45 0.28,-0.784 0.615,-0.898 0.205,-0.071 0.321,-0.007 0.463,0.094 0.356,0.248 0.515,0.73 0.6,1.226 0.114,-0.112 0.273,-0.123 0.448,-0.079 0.253,0.061 0.443,0.271 0.595,0.559 0.321,-0.189 0.762,0.069 1.033,0.693 0.009,-0.548 0.146,-1.07 0.611,-1.336 0.107,-0.043 0.214,-0.043 0.32,0 0.203,0.073 0.361,0.225 0.486,0.418 0.074,-0.079 0.166,-0.141 0.285,-0.172 0.311,-0.078 0.446,0.069 0.585,0.241 0.097,0.122 0.171,0.259 0.232,0.404 0.247,-0.306 0.647,-0.414 0.901,0.17 0.347,0.803 0.616,1.623 0.858,2.447 0.264,-0.123 0.557,-0.011 0.679,0.565 0.287,1.347 1.807,3.808 0.521,5.09"
         style="fill:#231f20;fill-opacity:1;fill-rule:nonzero;stroke:none;stroke-width:0.1"
         id="path72"
         inkscape:connector-curvature="0" />
    </g>
  </g>
</svg>
