<?xml version="1.0" encoding="UTF-8" standalone="no"?>
<!-- Created with Inkscape (http://www.inkscape.org/) -->

<svg
   xmlns:dc="http://purl.org/dc/elements/1.1/"
   xmlns:cc="http://creativecommons.org/ns#"
   xmlns:rdf="http://www.w3.org/1999/02/22-rdf-syntax-ns#"
   xmlns:svg="http://www.w3.org/2000/svg"
   xmlns="http://www.w3.org/2000/svg"
   xmlns:sodipodi="http://sodipodi.sourceforge.net/DTD/sodipodi-0.dtd"
   xmlns:inkscape="http://www.inkscape.org/namespaces/inkscape"
   width="200"
   height="200"
   viewBox="0 0 52.916666 52.916666"
   version="1.1"
   id="svg318"
   inkscape:version="0.92.5 (2060ec1f9f, 2020-04-08)"
   sodipodi:docname="music_note_quarter_note.svg">
  <defs
     id="defs312" />
  <sodipodi:namedview
     id="base"
     pagecolor="#ffffff"
     bordercolor="#666666"
     borderopacity="1.0"
     inkscape:pageopacity="0.0"
     inkscape:pageshadow="2"
     inkscape:zoom="0.35"
     inkscape:cx="400"
     inkscape:cy="560"
     inkscape:document-units="mm"
     inkscape:current-layer="layer1"
     showgrid="false"
     units="px"
     inkscape:window-width="989"
     inkscape:window-height="829"
     inkscape:window-x="2718"
     inkscape:window-y="569"
     inkscape:window-maximized="0" />
  <metadata
     id="metadata315">
    <rdf:RDF>
      <cc:Work
         rdf:about="">
        <dc:format>image/svg+xml</dc:format>
        <dc:type
           rdf:resource="http://purl.org/dc/dcmitype/StillImage" />
        <dc:title></dc:title>
      </cc:Work>
    </rdf:RDF>
  </metadata>
  <g
     inkscape:label="Layer 1"
     inkscape:groupmode="layer"
     id="layer1"
     transform="translate(0,-244.08334)">
    <g
       id="g287"
       transform="matrix(0.23267949,0,0,-0.23267949,-36.272772,350.18925)">
      <path
         d="m 292.86178,309.86822 c -4.834,-5.566 -11.854,-8.3 -18.98,-9.346 -0.075,3.071 -0.145,6.141 -0.224,9.21 3.265,1.319 5.827,3.933 6.798,8.181 0.748,3.265 1.639,13.513 -2.119,15.235 0.424,-0.194 -1.57,-7.657 0,-8.376 3.956,-1.813 -1.383,-4.97 -4.909,-6.555 -0.275,10.194 -0.553,20.387 -0.806,30.578 8.986,-0.077 18.127,-4.177 23.447,-11.177 6.723,-8.845 3.457,-20.071 -3.207,-27.75 z m -20.764,116.029 c 3.34,-2.314 6.326,-5.158 8.829,-8.338 4.699,-5.97 3.626,-11.112 -0.434,-16.892 -2.355,-3.354 -5.34,-6.249 -8.6,-8.899 -0.076,11.371 -0.021,22.747 0.205,34.129 z m -39.05,-99.957 c -5.143,16.139 5.89,31.793 17.464,41.721 5.427,4.657 11.449,8.565 17.186,12.824 0.072,-7.996 0.196,-15.992 0.362,-23.988 -5.914,-1.141 -11.483,-3.961 -15.517,-8.328 -10.172,-11.011 -6.242,-32.89 7.8,-38.081 3.023,-1.12 6.266,-1.613 9.262,-1.327 0.154,-2.866 0.308,-5.744 0.439,-8.626 -17.067,-1.064 -31.869,9.715 -36.996,25.805 z m 35.955,-4.307 c 0.05,-1.51 0.113,-3.028 0.181,-4.55 -2.961,-0.138 -6.102,0.59 -8.841,1.381 -3.854,1.11 -7.051,3.56 -9.452,6.717 -4.231,5.571 -1.162,11.566 2.895,15.956 3.895,4.217 9.019,6.585 14.445,7.366 0.215,-8.959 0.477,-17.916 0.772,-26.87 z m 24.898,27.001 c -5.442,6.145 -13.512,8.786 -21.473,8.389 -0.203,8.929 -0.362,17.856 -0.464,26.787 1.672,1.361 3.31,2.763 4.863,4.271 6.608,6.417 9.15,14.262 8.875,23.34 -0.303,10.019 -6.014,17.949 -14.209,23.309 -1.156,1.801 -3.346,0.674 -3.447,-3.354 -0.36,-14.279 -0.471,-28.564 -0.407,-42.848 -4.27,-3.089 -8.735,-5.941 -12.722,-8.962 -9.399,-7.121 -17.451,-15.622 -21.416,-26.919 -3.774,-10.748 -3.598,-23.879 -0.698,-34.784 4.396,-16.537 21.543,-26.141 37.532,-25.949 0.168,-7.568 0.008,-15.11 -0.942,-22.49 -1.052,-8.187 -5.787,-12.377 -13.562,-14.656 -8.153,-2.39 -16.147,2.936 -19.469,10.147 -3.601,7.822 4.411,13.695 11.038,15.131 0.987,0.213 1.997,0.322 3.005,0.336 -4.142,-1.486 -7.108,-5.435 -7.108,-10.086 0,-5.922 4.8,-10.724 10.723,-10.724 1.135,0 2.225,0.178 3.25,0.504 2.408,-0.014 4.762,1.305 6.246,4.039 2.553,4.703 2.852,9.811 1.59,14.936 -2.622,10.637 -14.392,12.538 -23.176,8.646 -11.33,-5.022 -12.063,-19.304 -8.5,-29.445 5.407,-15.383 28.022,-17.679 36.165,-3.805 6.274,10.692 4.787,25.792 4.494,37.681 11.746,1.313 22.234,8.228 25.652,21.977 2.868,11.537 2.338,25.299 -5.84,34.529"
         style="fill:#231f20;fill-opacity:1;fill-rule:nonzero;stroke:none;stroke-width:0.1"
         id="path128"
         inkscape:connector-curvature="0" />
    </g>
  </g>
</svg>
