<?xml version="1.0" encoding="UTF-8" standalone="no"?>
<!-- Created with Inkscape (http://www.inkscape.org/) -->

<svg
   width="210"
   height="210"
   viewBox="0 0 55.562499 55.562502"
   version="1.1"
   id="svg5"
   xmlns="http://www.w3.org/2000/svg"
   xmlns:svg="http://www.w3.org/2000/svg">
  <defs
     id="defs2" />
  <g
     id="layer1">
    <g
       transform="matrix(-2.3218146,0,0,-2.3218146,35.223318,690.13862)"
       id="g1501">
      <path
         id="path76"
         style="fill:#d31e81;fill-opacity:1;fill-rule:nonzero;stroke:none;stroke-width:0.0352778"
         d="m 5.2460447,295.96194 c 0,0.56197 -0.45967,1.02199 -1.02199,1.02199 h -2.65713 c -0.56268,0 -1.02269,-0.46002 -1.02269,-1.02199 v -1.03153 c 0,-0.56197 0.46001,-1.02199 1.02269,-1.02199 h 2.65713 c 0.56232,0 1.02199,0.46002 1.02199,1.02199 v 1.03153" />
      <path
         id="path78"
         style="fill:#8e0d5a;fill-opacity:1;fill-rule:nonzero;stroke:none;stroke-width:0.0352778"
         d="m 4.2240597,293.90842 h -1.32892 v 3.07551 h 1.32892 c 0.56232,0 1.02199,-0.46002 1.02199,-1.02199 v -1.03153 c 0,-0.56197 -0.45967,-1.02199 -1.02199,-1.02199" />
      <path
         id="path80"
         style="fill:#5fd67e;fill-opacity:1;fill-rule:nonzero;stroke:none;stroke-width:0.0352778"
         d="m 2.1119797,291.6644 h -1.56775 v -15.07561 h 1.56775 v 15.07561" />
      <path
         id="path82"
         style="fill:#31a35f;fill-opacity:1;fill-rule:nonzero;stroke:none;stroke-width:0.0352778"
         d="m 3.6786599,291.66441 h -1.56668 v -15.07562 h 1.56668 v 15.07562" />
      <path
         id="path84"
         style="fill:#037f5c;fill-opacity:1;fill-rule:nonzero;stroke:none;stroke-width:0.0352778"
         d="m 5.2460499,291.6644 h -1.56739 v -15.07561 h 1.56739 v 15.07561" />
      <path
         id="path86"
         style="fill:#ffa21a;fill-opacity:1;fill-rule:nonzero;stroke:none;stroke-width:0.0352778"
         d="m 2.8951347,276.58879 h -2.3509 l 1.17509,-1.64183 1.17581,-1.64182 1.17546,1.64182 1.17545,1.64183 h -2.35091" />
      <path
         id="path88"
         style="fill:#31a35f;fill-opacity:1;fill-rule:nonzero;stroke:none;stroke-width:0.0352778"
         d="m 2.8951397,273.30516 -1.03364,1.44355 h 2.06763 z" />
      <path
         id="path90"
         style="fill:#037f5c;fill-opacity:1;fill-rule:nonzero;stroke:none;stroke-width:0.0352778"
         d="m 3.9291297,274.74871 -1.03399,-1.44355 v 1.44355 z" />
      <path
         id="path92"
         style="fill:#9b9b9b;fill-opacity:1;fill-rule:nonzero;stroke:none;stroke-width:0.0352778"
         d="m 5.2460497,294.44993 h -4.70182 v -2.35126 h 4.70182 v 2.35126" />
      <path
         id="path94"
         style="fill:#9b9b9b;fill-opacity:1;fill-rule:nonzero;stroke:none;stroke-width:0.0352778"
         d="m 5.6803197,291.99601 c 0,0.24624 -0.18415,0.44803 -0.40851,0.44803 h -4.75263 c -0.22507,0 -0.40922,-0.20179 -0.40922,-0.44803 v -0.27976 c 0,-0.24623 0.18415,-0.44767 0.40922,-0.44767 h 4.75263 c 0.22436,0 0.40851,0.20144 0.40851,0.44767 v 0.27976" />
      <path
         id="path96"
         style="fill:#545454;fill-opacity:1;fill-rule:nonzero;stroke:none;stroke-width:0.0352778"
         d="m 0.5191847,292.44404 h 4.75262 c 0.22436,0 0.40851,-0.20179 0.40851,-0.44803 v -0.14006 h -5.57035 v 0.14006 c 0,0.24624 0.18415,0.44803 0.40922,0.44803" />
      <path
         id="path98"
         style="fill:#9b9b9b;fill-opacity:1;fill-rule:nonzero;stroke:none;stroke-width:0.0352778"
         d="m 5.6803197,294.65348 c 0,0.24624 -0.18415,0.44803 -0.40851,0.44803 h -4.75263 c -0.22507,0 -0.40922,-0.20179 -0.40922,-0.44803 v -0.27975 c 0,-0.24624 0.18415,-0.44768 0.40922,-0.44768 h 4.75263 c 0.22436,0 0.40851,0.20144 0.40851,0.44768 v 0.27975" />
      <path
         id="path100"
         style="fill:#545454;fill-opacity:1;fill-rule:nonzero;stroke:none;stroke-width:0.0352778"
         d="m 0.5191847,295.10151 h 4.75262 c 0.22436,0 0.40851,-0.20179 0.40851,-0.44803 v -0.1397 h -5.57035 v 0.1397 c 0,0.24624 0.18415,0.44803 0.40922,0.44803" />
      <path
         id="path102"
         style="fill:#545454;fill-opacity:1;fill-rule:nonzero;stroke:none;stroke-width:0.0352778"
         d="m 1.2296848,293.23602 c 0,0.16228 -0.13089,0.29387 -0.29352,0.29387 -0.16193,0 -0.29387,-0.13159 -0.29387,-0.29387 0,-0.16228 0.13194,-0.29386 0.29387,-0.29386 0.16263,0 0.29352,0.13158 0.29352,0.29386" />
      <path
         id="path104"
         style="fill:#545454;fill-opacity:1;fill-rule:nonzero;stroke:none;stroke-width:0.0352778"
         d="m 2.2096997,293.23602 c 0,0.16228 -0.13194,0.29387 -0.29387,0.29387 -0.16228,0 -0.29386,-0.13159 -0.29386,-0.29387 0,-0.16228 0.13158,-0.29386 0.29386,-0.29386 0.16193,0 0.29387,0.13158 0.29387,0.29386" />
      <path
         id="path106"
         style="fill:#545454;fill-opacity:1;fill-rule:nonzero;stroke:none;stroke-width:0.0352778"
         d="m 3.1886497,293.23602 c 0,0.16228 -0.13158,0.29387 -0.29351,0.29387 -0.16192,0 -0.29386,-0.13159 -0.29386,-0.29387 0,-0.16228 0.13194,-0.29386 0.29386,-0.29386 0.16193,0 0.29351,0.13158 0.29351,0.29386" />
      <path
         id="path108"
         style="fill:#545454;fill-opacity:1;fill-rule:nonzero;stroke:none;stroke-width:0.0352778"
         d="m 4.1683147,293.23602 c 0,0.16228 -0.13123,0.29387 -0.2935,0.29387 -0.16228,0 -0.29387,-0.13159 -0.29387,-0.29387 0,-0.16228 0.13159,-0.29386 0.29387,-0.29386 0.16227,0 0.2935,0.13158 0.2935,0.29386" />
      <path
         id="path110"
         style="fill:#545454;fill-opacity:1;fill-rule:nonzero;stroke:none;stroke-width:0.0352778"
         d="m 5.1479797,293.23602 c 0,0.16228 -0.13194,0.29387 -0.29351,0.29387 -0.16263,0 -0.29386,-0.13159 -0.29386,-0.29387 0,-0.16228 0.13123,-0.29386 0.29386,-0.29386 0.16157,0 0.29351,0.13158 0.29351,0.29386" />
    </g>
  </g>
</svg>
