<?xml version="1.0" encoding="UTF-8" standalone="no"?>
<!-- Created with Inkscape (http://www.inkscape.org/) -->

<svg
   xmlns:dc="http://purl.org/dc/elements/1.1/"
   xmlns:cc="http://creativecommons.org/ns#"
   xmlns:rdf="http://www.w3.org/1999/02/22-rdf-syntax-ns#"
   xmlns:svg="http://www.w3.org/2000/svg"
   xmlns="http://www.w3.org/2000/svg"
   xmlns:sodipodi="http://sodipodi.sourceforge.net/DTD/sodipodi-0.dtd"
   xmlns:inkscape="http://www.inkscape.org/namespaces/inkscape"
   width="300"
   height="300"
   viewBox="0 0 79.374999 79.375002"
   version="1.1"
   id="svg2467"
   inkscape:version="0.92.5 (2060ec1f9f, 2020-04-08)"
   sodipodi:docname="photo_camera.svg">
  <defs
     id="defs2461" />
  <sodipodi:namedview
     id="base"
     pagecolor="#ffffff"
     bordercolor="#666666"
     borderopacity="1.0"
     inkscape:pageopacity="0.0"
     inkscape:pageshadow="2"
     inkscape:zoom="1.979899"
     inkscape:cx="255.23341"
     inkscape:cy="218.87196"
     inkscape:document-units="mm"
     inkscape:current-layer="layer1"
     showgrid="false"
     units="px"
     inkscape:window-width="3840"
     inkscape:window-height="2076"
     inkscape:window-x="1920"
     inkscape:window-y="0"
     inkscape:window-maximized="1" />
  <metadata
     id="metadata2464">
    <rdf:RDF>
      <cc:Work
         rdf:about="">
        <dc:format>image/svg+xml</dc:format>
        <dc:type
           rdf:resource="http://purl.org/dc/dcmitype/StillImage" />
        <dc:title></dc:title>
      </cc:Work>
    </rdf:RDF>
  </metadata>
  <g
     inkscape:label="Layer 1"
     inkscape:groupmode="layer"
     id="layer1"
     transform="translate(0,-217.62498)">
    <g
       id="g2632"
       transform="matrix(-2.4881784,0,0,2.1210471,141.16876,-291.42203)">
      <path
         d="m 26.965312,260.92812 h -1.71626 v 1.24707 h 1.71626 v -1.24707"
         style="fill:#d3d3d3;fill-opacity:1;fill-rule:nonzero;stroke:none;stroke-width:0.03527778"
         id="path1220"
         inkscape:connector-curvature="0" />
      <path
         d="m 54.790314,271.60882 h 1.61678 v -1.31692 h -1.61678 v 1.31692"
         style="fill:#d3d3d3;fill-opacity:1;fill-rule:nonzero;stroke:none;stroke-width:0.03527778"
         id="path1222"
         inkscape:connector-curvature="0" />
      <path
         d="M 47.631394,275.64883 25.748942,263.0148 c -0.76094,-0.43921 -0.66428,-1.21356 0.21413,-1.72085 l 5.0673,-2.92559 c 0.87877,-0.50729 2.22003,-0.56303 2.98097,-0.12382 l 21.882462,12.63403 c 0.76094,0.43921 0.66463,1.21355 -0.21414,1.72085 l -5.0673,2.92559 c -0.87877,0.50729 -2.22003,0.56303 -2.98097,0.12382"
         style="fill:#d3d3d3;fill-opacity:1;fill-rule:nonzero;stroke:none;stroke-width:0.03527778"
         id="path1224"
         inkscape:connector-curvature="0" />
      <path
         d="M 47.631394,274.15341 25.748942,261.51973 c -0.76094,-0.43956 -0.66428,-1.21391 0.21413,-1.72121 l 5.0673,-2.92558 c 0.87877,-0.5073 2.22003,-0.56304 2.98097,-0.12347 l 21.882462,12.63367 c 0.76094,0.43921 0.66463,1.21391 -0.21414,1.72121 l -5.0673,2.92558 c -0.87877,0.5073 -2.22003,0.56268 -2.98097,0.12348"
         style="fill:#262626;fill-opacity:1;fill-rule:nonzero;stroke:none;stroke-width:0.03527778"
         id="path1226"
         inkscape:connector-curvature="0" />
      <path
         d="m 34.351072,251.13854 h -9.10202 v 9.68128 h 9.10202 L 51.319334,266.26 34.351072,251.13854"
         style="fill:#262626;fill-opacity:1;fill-rule:nonzero;stroke:none;stroke-width:0.03527778"
         id="path1228"
         inkscape:connector-curvature="0" />
      <path
         d="m 56.407094,260.61062 h -9.10202 v 9.68128 h 9.10202 v -9.68128"
         style="fill:#262626;fill-opacity:1;fill-rule:nonzero;stroke:none;stroke-width:0.03527778"
         id="path1230"
         inkscape:connector-curvature="0" />
      <path
         d="m 48.454424,260.42329 h 7.95267 v -5.78273 h -7.95267 v 5.78273"
         style="fill:#c9c9c9;fill-opacity:1;fill-rule:nonzero;stroke:none;stroke-width:0.03527778"
         id="path1232"
         inkscape:connector-curvature="0" />
      <path
         d="m 48.454424,252.15736 v 2.4832 h 7.95267 v -2.4832 h -7.95267"
         style="fill:#c9c9c9;fill-opacity:1;fill-rule:nonzero;stroke:none;stroke-width:0.03527778"
         id="path1234"
         inkscape:connector-curvature="0" />
      <path
         d="M 47.631394,264.5074 25.748942,251.87337 c -0.76094,-0.43921 -0.66428,-1.21355 0.21413,-1.72085 l 5.0673,-2.92558 c 0.87877,-0.5073 2.22003,-0.56304 2.98097,-0.12383 l 21.882462,12.63403 c 0.76094,0.43921 0.66463,1.21356 -0.21414,1.72085 l -5.0673,2.92559 c -0.87877,0.50729 -2.22003,0.56303 -2.98097,0.12382"
         style="fill:#c9c9c9;fill-opacity:1;fill-rule:nonzero;stroke:none;stroke-width:0.03527778"
         id="path1236"
         inkscape:connector-curvature="0" />
      <path
         d="m 33.364352,245.29548 h -8.1153 v 5.70441 h 8.1153 v -5.70441"
         style="fill:#c9c9c9;fill-opacity:1;fill-rule:nonzero;stroke:none;stroke-width:0.03527778"
         id="path1238"
         inkscape:connector-curvature="0" />
      <path
         d="m 45.324584,249.76835 c 0.67662,-0.28752 1.36242,-0.5521 2.05104,-0.80822 l -13.364282,-7.71595 c -0.76094,-0.43921 -2.1022,-0.38382 -2.98097,0.12347 l -5.0673,2.92559 c -0.87841,0.50729 -0.97472,1.28164 -0.21413,1.7212 l 12.59452,7.2711 c 2.24578,-1.32433 4.581522,-2.49908 6.981122,-3.51719"
         style="fill:#d3d3d3;fill-opacity:1;fill-rule:nonzero;stroke:none;stroke-width:0.03527778"
         id="path1240"
         inkscape:connector-curvature="0" />
      <path
         d="m 55.893804,253.87785 -8.09096,-4.67113 c -0.72108,0.266 -1.43969,0.53905 -2.14912,0.83538 -2.38196,0.99554 -4.700772,2.15759 -6.930682,3.46287 l 8.908352,5.14315 c 0.76094,0.4392 2.1022,0.38382 2.98097,-0.12348 l 5.0673,-2.92558 c 0.87877,-0.5073 0.97508,-1.282 0.21414,-1.72121"
         style="fill:#c9c9c9;fill-opacity:1;fill-rule:nonzero;stroke:none;stroke-width:0.03527778"
         id="path1242"
         inkscape:connector-curvature="0" />
      <path
         d="m 36.511482,249.89252 v 4.49333 l 12.897912,7.16598 0.38206,-6.92715 -13.279972,-4.73216"
         style="fill:#c9c9c9;fill-opacity:1;fill-rule:nonzero;stroke:none;stroke-width:0.03527778"
         id="path1244"
         inkscape:connector-curvature="0" />
      <path
         d="m 34.472432,254.84693 -9.22338,-5.32518 v 2.2412 l 9.22338,5.32518 v -2.2412"
         style="fill:#262626;fill-opacity:1;fill-rule:nonzero;stroke:none;stroke-width:0.03527778"
         id="path1246"
         inkscape:connector-curvature="0" />
      <path
         d="m 44.155474,264.10982 c 0,3.9183 -2.38231,5.71924 -5.320952,4.02237 -2.93864,-1.69651 -5.32094,-6.24804 -5.32094,-10.16635 0,-3.9183 2.3823,-5.71923 5.32094,-4.02237 2.938642,1.69651 5.320952,6.24805 5.320952,10.16635"
         style="fill:#424242;fill-opacity:1;fill-rule:nonzero;stroke:none;stroke-width:0.03527778"
         id="path1248"
         inkscape:connector-curvature="0" />
      <path
         d="m 34.560972,254.2391 0.83362,-0.59796 7.189962,14.59407 -0.72072,0.53551 -7.302862,-14.53162"
         style="fill:#424242;fill-opacity:1;fill-rule:nonzero;stroke:none;stroke-width:0.03527778"
         id="path1250"
         inkscape:connector-curvature="0" />
      <path
         d="m 43.470024,264.62064 c 0,3.91795 -2.38195,5.71888 -5.320592,4.02238 -2.93864,-1.69651 -5.32095,-6.2484 -5.32095,-10.16635 0,-3.91831 2.38231,-5.71924 5.32095,-4.02273 2.938642,1.69686 5.320592,6.2484 5.320592,10.1667"
         style="fill:#4c4c4c;fill-opacity:1;fill-rule:nonzero;stroke:none;stroke-width:0.03527778"
         id="path1252"
         inkscape:connector-curvature="0" />
      <path
         d="m 43.054454,264.57231 c 0,3.69676 -2.247552,5.39574 -5.020032,3.79519 -2.77248,-1.60091 -5.02003,-5.89527 -5.02003,-9.59203 0,-3.69641 2.24755,-5.39574 5.02003,-3.79483 2.77248,1.60055 5.020032,5.89491 5.020032,9.59167"
         style="fill:#545454;fill-opacity:1;fill-rule:nonzero;stroke:none;stroke-width:0.03527778"
         id="path1254"
         inkscape:connector-curvature="0" />
      <path
         d="m 42.397584,264.9519 c 0,3.69676 -2.247552,5.39609 -5.020032,3.79518 -2.77248,-1.60055 -5.02003,-5.89526 -5.02003,-9.59167 0,-3.69676 2.24755,-5.39609 5.02003,-3.79518 2.77248,1.60055 5.020032,5.89491 5.020032,9.59167"
         style="fill:#686868;fill-opacity:1;fill-rule:nonzero;stroke:none;stroke-width:0.03527778"
         id="path1256"
         inkscape:connector-curvature="0" />
      <path
         d="m 44.607034,255.90809 -0.4438,-0.25647 v 2.6476 l 3.70417,2.13889 v -0.4385 l -3.26037,-1.88207 v -2.20945"
         style="fill:#424242;fill-opacity:1;fill-rule:nonzero;stroke:none;stroke-width:0.03527778"
         id="path1258"
         inkscape:connector-curvature="0" />
      <path
         d="m 44.607034,255.90809 v 2.20945 l 3.26037,1.88207 v -2.2091 l -3.26037,-1.88242"
         style="fill:#262626;fill-opacity:1;fill-rule:nonzero;stroke:none;stroke-width:0.03527778"
         id="path1260"
         inkscape:connector-curvature="0" />
      <path
         d="m 46.941364,272.80544 -1.85209,-1.06927 v -1.32397 l 1.85209,1.06927 v 1.32397"
         style="fill:#ffffff;fill-opacity:1;fill-rule:nonzero;stroke:none;stroke-width:0.03527778"
         id="path1262"
         inkscape:connector-curvature="0" />
      <path
         d="m 41.820434,264.82173 c 0,3.47556 -2.113142,5.07329 -4.719812,3.56834 -2.60703,-1.5053 -4.72017,-5.54284 -4.72017,-9.01841 0,-3.47556 2.11314,-5.07294 4.72017,-3.56799 2.60667,1.50495 4.719812,5.54249 4.719812,9.01806"
         style="fill:#727272;fill-opacity:1;fill-rule:nonzero;stroke:none;stroke-width:0.03527778"
         id="path1264"
         inkscape:connector-curvature="0" />
      <path
         d="m 30.530132,257.71325 3.64596,-2.24331 6.04591,13.14944 -3.84175,2.3241 -5.85012,-13.23023"
         style="fill:#727272;fill-opacity:1;fill-rule:nonzero;stroke:none;stroke-width:0.03527778"
         id="path1266"
         inkscape:connector-curvature="0" />
      <path
         d="m 37.982562,267.14547 c 0,3.47592 -2.11313,5.0733 -4.71981,3.56835 -2.60703,-1.50495 -4.72017,-5.54249 -4.72017,-9.01841 0,-3.47557 2.11314,-5.07294 4.72017,-3.56799 2.60668,1.50495 4.71981,5.54249 4.71981,9.01805"
         style="fill:#8e8e8e;fill-opacity:1;fill-rule:nonzero;stroke:none;stroke-width:0.03527778"
         id="path1268"
         inkscape:connector-curvature="0" />
      <path
         d="m 33.974662,269.41348 c -2.21368,-1.27811 -4.00827,-4.70676 -4.00827,-7.6581 0,-1.22908 0.31468,-2.17664 0.83785,-2.77742 -0.94156,0.43427 -1.54975,1.60514 -1.54975,3.31999 0,2.95134 1.79458,6.37964 4.00826,7.65775 1.29117,0.74577 2.43699,0.58914 3.17006,-0.25223 -0.67945,0.31291 -1.5307,0.24553 -2.45815,-0.28999"
         style="fill:#262626;fill-opacity:1;fill-rule:nonzero;stroke:none;stroke-width:0.03527778"
         id="path1270"
         inkscape:connector-curvature="0" />
      <path
         d="m 34.165162,268.40066 c -1.78471,-1.03011 -3.2311,-3.79413 -3.2311,-6.17361 0,-2.18193 1.21744,-3.27731 2.79577,-2.65007 -0.15346,-0.11254 -0.30904,-0.21766 -0.46708,-0.30903 -0.92781,-0.53552 -1.77906,-0.60325 -2.45851,-0.28999 -0.52317,0.60078 -0.83785,1.54834 -0.83785,2.77742 0,2.95134 1.79459,6.37999 4.00827,7.6581 0.92745,0.53552 1.7787,0.6029 2.45815,0.28999 0.49918,-0.57362 0.80539,-1.4658 0.83256,-2.61444 -0.39159,1.56528 -1.63019,2.16041 -3.10021,1.31163"
         style="fill:#424242;fill-opacity:1;fill-rule:nonzero;stroke:none;stroke-width:0.03527778"
         id="path1272"
         inkscape:connector-curvature="0" />
      <path
         d="m 34.165162,260.41447 c 1.52329,0.87948 2.75872,3.23956 2.75872,5.27086 0,2.03164 -1.23543,2.96545 -2.75872,2.08562 -1.52365,-0.87983 -2.75873,-3.23956 -2.75873,-5.27085 0,-2.03165 1.23508,-2.96545 2.75873,-2.08563 z m -3.2311,1.81258 c 0,2.37948 1.44639,5.1435 3.2311,6.17361 1.47002,0.84878 2.70862,0.25365 3.10021,-1.31163 10e-4,-0.055 0.005,-0.10725 0.005,-0.16334 0,-2.74002 -1.54799,-5.88927 -3.54083,-7.34871 -1.57834,-0.62724 -2.79578,0.46814 -2.79578,2.65007"
         style="fill:#353535;fill-opacity:1;fill-rule:nonzero;stroke:none;stroke-width:0.03527778"
         id="path1274"
         inkscape:connector-curvature="0" />
      <path
         d="m 31.406432,262.5001 c 0,2.03129 1.23508,4.39102 2.75873,5.27085 1.52329,0.87983 2.75872,-0.054 2.75872,-2.08562 0,-2.0313 -1.23543,-4.39138 -2.75872,-5.27086 -1.52365,-0.87982 -2.75873,0.054 -2.75873,2.08563"
         style="fill:#262626;fill-opacity:1;fill-rule:nonzero;stroke:none;stroke-width:0.03527778"
         id="path1276"
         inkscape:connector-curvature="0" />
      <path
         d="m 35.899062,265.09407 c 0,1.27706 -0.77611,1.86373 -1.7339,1.31092 -0.9578,-0.55315 -1.73426,-2.03658 -1.73426,-3.31364 0,-1.27705 0.77646,-1.86408 1.73426,-1.31092 0.95779,0.5528 1.7339,2.03659 1.7339,3.31364"
         style="fill:#727272;fill-opacity:1;fill-rule:nonzero;stroke:none;stroke-width:0.03527778"
         id="path1278"
         inkscape:connector-curvature="0" />
      <path
         d="m 33.496642,252.71298 -2.79753,-1.61537 c -0.0928,-0.0536 -0.16898,-0.19896 -0.16898,-0.32314 v -0.73378 c 0,-0.12418 0.0762,-0.18168 0.16898,-0.12806 l 2.79753,1.61537 c 0.0931,0.0536 0.16934,0.19897 0.16934,0.32315 v 0.73377 c 0,0.12418 -0.0762,0.18168 -0.16934,0.12806"
         style="fill:#ffffff;fill-opacity:1;fill-rule:nonzero;stroke:none;stroke-width:0.03527778"
         id="path1280"
         inkscape:connector-curvature="0" />
      <path
         d="m 28.638542,253.10245 c 0,0.47131 -0.28646,0.68792 -0.63994,0.48366 -0.35313,-0.20391 -0.63959,-0.75142 -0.63959,-1.22238 0,-0.47131 0.28646,-0.68791 0.63959,-0.48366 0.35348,0.20391 0.63994,0.75107 0.63994,1.22238"
         style="fill:#727272;fill-opacity:1;fill-rule:nonzero;stroke:none;stroke-width:0.03527778"
         id="path1282"
         inkscape:connector-curvature="0" />
      <path
         d="m 27.100432,248.24329 c 0,0.23565 -0.14323,0.34396 -0.31997,0.242 -0.17639,-0.1023 -0.31997,-0.3757 -0.31997,-0.61136 0,-0.23566 0.14358,-0.34396 0.31997,-0.24201 0.17674,0.10231 0.31997,0.37571 0.31997,0.61137"
         style="fill:#727272;fill-opacity:1;fill-rule:nonzero;stroke:none;stroke-width:0.03527778"
         id="path1284"
         inkscape:connector-curvature="0" />
      <path
         d="m 30.276492,253.88103 c 0,0.30621 -0.18592,0.44697 -0.41558,0.31432 -0.22965,-0.13229 -0.41592,-0.48824 -0.41592,-0.79445 0,-0.30621 0.18627,-0.44697 0.41592,-0.31433 0.22966,0.13265 0.41558,0.48825 0.41558,0.79446"
         style="fill:#ffffff;fill-opacity:1;fill-rule:nonzero;stroke:none;stroke-width:0.03527778"
         id="path1286"
         inkscape:connector-curvature="0" />
      <path
         d="m 33.579902,243.52665 c 0,0.60748 -0.92569,1.09996 -2.06728,1.09996 -1.14194,0 -2.06763,-0.49248 -2.06763,-1.09996 0,-0.60713 0.92569,-1.09961 2.06763,-1.09961 1.14159,0 2.06728,0.49248 2.06728,1.09961"
         style="fill:#727272;fill-opacity:1;fill-rule:nonzero;stroke:none;stroke-width:0.03527778"
         id="path1288"
         inkscape:connector-curvature="0" />
      <path
         d="m 33.579902,242.53499 h -4.13491 v 0.99166 h 4.13491 v -0.99166"
         style="fill:#727272;fill-opacity:1;fill-rule:nonzero;stroke:none;stroke-width:0.03527778"
         id="path1290"
         inkscape:connector-curvature="0" />
      <path
         d="m 33.579902,242.42704 c 0,0.60748 -0.92569,1.09961 -2.06728,1.09961 -1.14194,0 -2.06763,-0.49213 -2.06763,-1.09961 0,-0.60748 0.92569,-1.09961 2.06763,-1.09961 1.14159,0 2.06728,0.49213 2.06728,1.09961"
         style="fill:#8e8e8e;fill-opacity:1;fill-rule:nonzero;stroke:none;stroke-width:0.03527778"
         id="path1292"
         inkscape:connector-curvature="0" />
      <path
         d="m 39.138622,247.36593 c 0,0.95144 -1.45027,1.72297 -3.23921,1.72297 -1.78929,0 -3.23991,-0.77153 -3.23991,-1.72297 0,-0.95179 1.45062,-1.72332 3.23991,-1.72332 1.78894,0 3.23921,0.77153 3.23921,1.72332"
         style="fill:#727272;fill-opacity:1;fill-rule:nonzero;stroke:none;stroke-width:0.03527778"
         id="path1294"
         inkscape:connector-curvature="0" />
      <path
         d="m 39.138622,246.25891 h -6.47912 v 1.10702 h 6.47912 v -1.10702"
         style="fill:#727272;fill-opacity:1;fill-rule:nonzero;stroke:none;stroke-width:0.03527778"
         id="path1296"
         inkscape:connector-curvature="0" />
      <path
         d="m 39.138622,246.25891 c 0,0.9518 -1.45027,1.72332 -3.23921,1.72332 -1.78929,0 -3.23991,-0.77152 -3.23991,-1.72332 0,-0.95144 1.45062,-1.72296 3.23991,-1.72296 1.78894,0 3.23921,0.77152 3.23921,1.72296"
         style="fill:#8e8e8e;fill-opacity:1;fill-rule:nonzero;stroke:none;stroke-width:0.03527778"
         id="path1298"
         inkscape:connector-curvature="0" />
      <path
         d="m 28.542582,245.12226 c 0,0.19897 -0.30338,0.36054 -0.67768,0.36054 -0.3743,0 -0.67769,-0.16157 -0.67769,-0.36054 0,-0.19896 0.30339,-0.36054 0.67769,-0.36054 0.3743,0 0.67768,0.16158 0.67768,0.36054"
         style="fill:#262626;fill-opacity:1;fill-rule:nonzero;stroke:none;stroke-width:0.03527778"
         id="path1300"
         inkscape:connector-curvature="0" />
      <path
         d="m 31.422662,246.25891 c 0,0.42792 -0.65193,0.7747 -1.45591,0.7747 -0.80434,0 -1.45627,-0.34678 -1.45627,-0.7747 0,-0.42756 0.65193,-0.77434 1.45627,-0.77434 0.80398,0 1.45591,0.34678 1.45591,0.77434"
         style="fill:#a5a5a5;fill-opacity:1;fill-rule:nonzero;stroke:none;stroke-width:0.03527778"
         id="path1302"
         inkscape:connector-curvature="0" />
      <path
         d="m 31.422662,245.71669 h -2.91218 v 0.54222 h 2.91218 v -0.54222"
         style="fill:#a5a5a5;fill-opacity:1;fill-rule:nonzero;stroke:none;stroke-width:0.03527778"
         id="path1304"
         inkscape:connector-curvature="0" />
      <path
         d="m 31.422662,245.71669 c 0,0.42757 -0.65193,0.77435 -1.45591,0.77435 -0.80434,0 -1.45627,-0.34678 -1.45627,-0.77435 0,-0.42792 0.65193,-0.77434 1.45627,-0.77434 0.80398,0 1.45591,0.34642 1.45591,0.77434"
         style="fill:#bababa;fill-opacity:1;fill-rule:nonzero;stroke:none;stroke-width:0.03527778"
         id="path1306"
         inkscape:connector-curvature="0" />
      <path
         d="m 55.893804,251.54211 -0.30092,-0.17356 -1.12889,0.65158 c -0.5073,0.29315 -1.28235,0.32526 -1.72191,0.0713 l -5.33717,-3.08116 c -0.43957,-0.254 -0.38383,-0.70133 0.12382,-0.99413 l 1.12854,-0.65193 -3.88338,-2.24191 -8.262412,4.77026 11.119912,6.41985 c 0.76094,0.43956 2.1022,0.38383 2.98097,-0.12347 l 5.0673,-2.92558 c 0.87877,-0.5073 0.97508,-1.28165 0.21414,-1.72121"
         style="fill:#e5e5e5;fill-opacity:1;fill-rule:nonzero;stroke:none;stroke-width:0.03527778"
         id="path1308"
         inkscape:connector-curvature="0" />
      <path
         d="m 47.404914,249.01023 5.33717,3.08116 c 0.43956,0.254 1.21461,0.22189 1.72191,-0.0713 l 1.12889,-0.65158 -6.93561,-4.00438 -1.12854,0.65193 c -0.50765,0.29281 -0.56339,0.74013 -0.12382,0.99413"
         style="fill:#424242;fill-opacity:1;fill-rule:nonzero;stroke:none;stroke-width:0.03527778"
         id="path1310"
         inkscape:connector-curvature="0" />
      <path
         d="m 49.383994,255.47911 -5.95524,-3.43852 1.07033,-0.61772 5.95488,3.43818 -1.06997,0.61806"
         style="fill:#424242;fill-opacity:1;fill-rule:nonzero;stroke:none;stroke-width:0.03527778"
         id="path1312"
         inkscape:connector-curvature="0" />
      <path
         d="m 51.198684,254.37986 -4.23933,-2.44793 0.76164,-0.43956 4.23934,2.44757 -0.76165,0.43992"
         style="fill:#8e8e8e;fill-opacity:1;fill-rule:nonzero;stroke:none;stroke-width:0.03527778"
         id="path1314"
         inkscape:connector-curvature="0" />
      <path
         d="m 53.533364,258.28793 v 2.71639 c 0.74789,0.4258 1.35255,0.16933 1.35255,-0.57715 0,-0.74683 -0.60466,-1.70109 -1.35255,-2.13924"
         style="fill:#727272;fill-opacity:1;fill-rule:nonzero;stroke:none;stroke-width:0.03527778"
         id="path1316"
         inkscape:connector-curvature="0" />
      <path
         d="m 52.984444,258.63118 c 0,0 0.54892,-0.41769 0.54892,-0.34325 0,0.0744 1.0541,2.81375 1.0541,2.81375 l -0.67663,0.40711 -0.92639,-2.87761"
         style="fill:#727272;fill-opacity:1;fill-rule:nonzero;stroke:none;stroke-width:0.03527778"
         id="path1318"
         inkscape:connector-curvature="0" />
      <path
         d="m 52.984444,258.63118 v 2.71639 c 0.74789,0.4258 1.35255,0.16933 1.35255,-0.57714 0,-0.74648 -0.60466,-1.7011 -1.35255,-2.13925"
         style="fill:#8e8e8e;fill-opacity:1;fill-rule:nonzero;stroke:none;stroke-width:0.03527778"
         id="path1320"
         inkscape:connector-curvature="0" />
      <path
         d="m 53.894964,260.48362 c 0,0.2667 -0.16193,0.38911 -0.3616,0.27375 -0.20002,-0.11535 -0.36195,-0.42509 -0.36195,-0.69144 0,-0.2667 0.16193,-0.38911 0.36195,-0.27376 0.19967,0.11536 0.3616,0.4251 0.3616,0.69145"
         style="fill:#727272;fill-opacity:1;fill-rule:nonzero;stroke:none;stroke-width:0.03527778"
         id="path1322"
         inkscape:connector-curvature="0" />
      <path
         d="m 54.256564,271.9362 -1.37372,0.79339 v -9.60084 l 1.37372,-0.7934 v 9.60085"
         style="fill:#424242;fill-opacity:1;fill-rule:nonzero;stroke:none;stroke-width:0.03527778"
         id="path1324"
         inkscape:connector-curvature="0" />
    </g>
  </g>
</svg>
