<?xml version="1.0" encoding="UTF-8" standalone="no"?>
<!-- Created with Inkscape (http://www.inkscape.org/) -->

<svg
   xmlns:dc="http://purl.org/dc/elements/1.1/"
   xmlns:cc="http://creativecommons.org/ns#"
   xmlns:rdf="http://www.w3.org/1999/02/22-rdf-syntax-ns#"
   xmlns:svg="http://www.w3.org/2000/svg"
   xmlns="http://www.w3.org/2000/svg"
   xmlns:sodipodi="http://sodipodi.sourceforge.net/DTD/sodipodi-0.dtd"
   xmlns:inkscape="http://www.inkscape.org/namespaces/inkscape"
   width="600"
   height="400"
   viewBox="0 0 158.75 105.83334"
   version="1.1"
   id="svg7252"
   inkscape:version="0.92.5 (2060ec1f9f, 2020-04-08)"
   sodipodi:docname="sunglass_stripes.svg">
  <defs
     id="defs7246" />
  <sodipodi:namedview
     id="base"
     pagecolor="#ffffff"
     bordercolor="#666666"
     borderopacity="1.0"
     inkscape:pageopacity="0.0"
     inkscape:pageshadow="2"
     inkscape:zoom="0.35"
     inkscape:cx="400"
     inkscape:cy="560"
     inkscape:document-units="mm"
     inkscape:current-layer="layer1"
     showgrid="false"
     units="px"
     inkscape:window-width="3840"
     inkscape:window-height="2124"
     inkscape:window-x="1920"
     inkscape:window-y="0"
     inkscape:window-maximized="1" />
  <metadata
     id="metadata7249">
    <rdf:RDF>
      <cc:Work
         rdf:about="">
        <dc:format>image/svg+xml</dc:format>
        <dc:type
           rdf:resource="http://purl.org/dc/dcmitype/StillImage" />
        <dc:title></dc:title>
      </cc:Work>
    </rdf:RDF>
  </metadata>
  <g
     inkscape:label="Layer 1"
     inkscape:groupmode="layer"
     id="layer1"
     transform="translate(0,-191.16666)">
    <g
       transform="matrix(0.13806389,0,0,-0.13877581,-33.640523,572.47928)"
       id="g6927">
      <path
         inkscape:connector-curvature="0"
         id="path962"
         style="fill:#586577;fill-opacity:1;fill-rule:nonzero;stroke:none"
         d="m 896.918,2725.03 19.238,11.19 c 4.696,2.73 11.184,2.32 18.34,-1.82 l -19.23,-11.17 c -7.168,4.13 -13.657,4.53 -18.348,1.8" />
      <path
         inkscape:connector-curvature="0"
         id="path964"
         style="fill:#586577;fill-opacity:1;fill-rule:nonzero;stroke:none"
         d="m 915.266,2723.23 19.23,11.17 91.794,-52.99 -19.24,-11.18 -91.784,53" />
      <path
         inkscape:connector-curvature="0"
         id="path966"
         style="fill:#4f5866;fill-opacity:1;fill-rule:nonzero;stroke:none"
         d="m 1007.05,2670.23 c 8.21,-4.73 15.5,-13.33 20.21,-22.89 3.5,-7.11 5.58,-14.75 5.56,-21.74 -0.02,-7.13 -2.15,-12.42 -5.71,-15.5 -4.75,-4.12 -12.04,-4.28 -20.23,0.46 l -91.786,52.99 c -14.297,8.24 -25.817,28.2 -25.774,44.63 0.043,16.68 11.649,23.3 25.946,15.05 l 91.784,-53" />
      <path
         inkscape:connector-curvature="0"
         id="path968"
         style="fill:#586577;fill-opacity:1;fill-rule:nonzero;stroke:none"
         d="m 1044.46,2619.93 -19.24,-11.18 c 0.67,0.39 1.31,0.84 1.89,1.35 3.56,3.08 5.69,8.37 5.71,15.5 0.02,6.99 -2.06,14.63 -5.56,21.74 -4.71,9.56 -12,18.16 -20.21,22.89 l 19.24,11.18 c 8.2,-4.73 15.49,-13.33 20.22,-22.9 3.49,-7.1 5.57,-14.73 5.55,-21.73 -0.03,-7.13 -2.15,-12.42 -5.7,-15.49 -0.6,-0.52 -1.22,-0.97 -1.9,-1.36" />
      <path
         inkscape:connector-curvature="0"
         id="path970"
         style="fill:#3b4350;fill-opacity:1;fill-rule:nonzero;stroke:none"
         d="m 1027.26,2647.34 19.25,11.17 324.6,-187.41 -19.24,-11.18 -324.61,187.42" />
      <path
         inkscape:connector-curvature="0"
         id="path972"
         style="fill:#4f5866;fill-opacity:1;fill-rule:nonzero;stroke:none"
         d="m 1351.87,2459.92 19.24,11.18 -0.1,-37.25 -19.25,-11.18 0.11,37.25" />
      <path
         inkscape:connector-curvature="0"
         id="path974"
         style="fill:#2c343f;fill-opacity:1;fill-rule:nonzero;stroke:none"
         d="m 1351.87,2459.92 -0.11,-37.25 -324.65,187.43 c 3.56,3.08 5.69,8.37 5.71,15.5 0.02,6.99 -2.06,14.63 -5.56,21.74 l 324.61,-187.42" />
      <path
         inkscape:connector-curvature="0"
         id="path976"
         style="fill:#3b4350;fill-opacity:1;fill-rule:nonzero;stroke:none"
         d="m 1313.11,2535.27 -0.9,0.52 c 0.25,-0.15 0.54,-0.23 0.79,-0.38 l -38.47,22.37 c -3.2,1.85 -6.56,3.42 -10.07,4.71 -0.44,0.15 -0.88,0.32 -1.33,0.47 -0.97,0.34 -1.95,0.65 -2.95,0.95 0.41,-0.23 0.79,-0.47 1.2,-0.7 -0.01,0.01 -0.01,0.01 -0.02,0.01 -0.33,0.18 -0.67,0.39 -1,0.58 -0.05,0.02 -0.12,0.08 -0.18,0.11 -1.49,0.43 -3.09,0.64 -4.62,0.98 -0.51,0.11 -1,0.22 -1.51,0.32 -3.1,0.61 -6.29,1.01 -9.57,1.23 -0.37,0.02 -0.74,0.05 -1.13,0.07 -1.46,0.08 -2.85,0.29 -4.34,0.28 -1.85,-0.01 -3.8,-0.28 -5.68,-0.41 -0.61,-0.05 -1.2,-0.09 -1.8,-0.15 -3.27,-0.27 -6.61,-0.76 -10.01,-1.42 -0.81,-0.16 -1.63,-0.33 -2.45,-0.51 -3.15,-0.69 -6.36,-1.53 -9.61,-2.55 -1.22,-0.37 -2.46,-0.79 -3.69,-1.22 -2.85,-0.97 -5.73,-2.05 -8.63,-3.29 -1.85,-0.78 -3.71,-1.64 -5.58,-2.51 -1.44,-0.68 -2.86,-1.19 -4.32,-1.94 -0.84,-0.43 -1.69,-0.88 -2.53,-1.32 l 0.13,-0.08 c -1.07,-0.56 -2.12,-0.98 -3.18,-1.57 -0.8,-0.44 -1.6,-0.9 -2.41,-1.36 -0.8,-0.47 -1.6,-0.94 -2.85,-1.7 -30.12,-18.12 -58.36,-46.94 -80.89,-80.83 -0.05,0.02 -0.08,0.04 -0.12,0.07 -18.23,-27.45 -32.53,-58.01 -41.05,-88.52 -1.1,-3.89 -2.09,-7.77 -2.98,-11.65 -0.13,-0.53 -0.25,-1.06 -0.37,-1.57 l -1.78,-8.7 -0.57,-0.33 0.47,-0.28 c -1.61,-8.72 -2.71,-17.37 -3.25,-25.88 -0.25,-4.14 -0.38,-8.25 -0.37,-12.3 0.04,-12.57 1.11,-24.2 3.64,-34.48 v 0 l 2.11,-6.47 c 6.48,-20.86 18.15,-36.16 33.55,-45.07 11.55,-6.69 26.93,-15.65 38.47,-22.36 -0.71,0.41 -1.38,0.91 -2.07,1.34 0.65,-0.37 1.38,-0.79 2.01,-1.16 -13.66,7.93 -24.45,21.01 -31.24,38.96 l -2.24,5.93 -2.4,6.31 20.63,11.9 -23.47,13.64 c -0.17,3.03 -0.51,5.92 -0.52,9.1 0,4.05 0.12,8.17 0.39,12.31 0.53,8.69 1.66,17.55 3.34,26.47 l 20.06,11.6 -14.95,8.69 c 10.2,28.38 24.56,64.99 40.78,89.59 16.07,24.37 43.85,52.56 66.24,71.29 0.8,0.66 16.12,10.98 20.17,13.07 1.94,0.99 4.07,2.11 6.24,3.22 8.23,4.16 16.25,7.26 24.01,9.5 12.92,2.33 29.34,1.71 44.23,-0.68 4.49,-6.03 8.41,-12.89 11.43,-20.86 8.64,-10.19 26.94,-15.66 38.49,-22.36 -6.8,17.97 -17.62,31.07 -31.28,39.02" />
      <path
         inkscape:connector-curvature="0"
         id="path978"
         style="fill:#4f5866;fill-opacity:1;fill-rule:nonzero;stroke:none"
         d="m 1307.95,2309.3 c 2.3,3.71 4.66,7.35 6.81,11.15 -2.16,-3.81 -4.51,-7.44 -6.81,-11.15" />
      <path
         inkscape:connector-curvature="0"
         id="path980"
         style="fill:#4f5866;fill-opacity:1;fill-rule:nonzero;stroke:none"
         d="m 1314.76,2320.45 c 2.46,4.37 4.68,8.85 6.95,13.34 -2.27,-4.49 -4.47,-8.97 -6.95,-13.34" />
      <path
         inkscape:connector-curvature="0"
         id="path982"
         style="fill:#4f5866;fill-opacity:1;fill-rule:nonzero;stroke:none"
         d="m 1300.14,2296.95 c 2.75,4.02 5.25,8.21 7.81,12.35 -2.56,-4.16 -5.07,-8.34 -7.81,-12.35" />
      <path
         inkscape:connector-curvature="0"
         id="path984"
         style="fill:#4f5866;fill-opacity:1;fill-rule:nonzero;stroke:none"
         d="m 1259.58,2316.19 c 12.83,-7.46 25.64,-14.94 38.49,-22.35 -19.39,-27.72 -42.63,-51.62 -67.42,-68.51 -12.82,7.45 -25.65,14.92 -38.48,22.36 24.79,16.89 48.02,40.78 67.41,68.5" />
      <path
         inkscape:connector-curvature="0"
         id="path986"
         style="fill:#4f5866;fill-opacity:1;fill-rule:nonzero;stroke:none"
         d="m 1192.17,2247.69 c 12.83,-7.44 25.66,-14.91 38.48,-22.36 -1.32,-0.9 -2.66,-1.79 -3.99,-2.65 l -38.49,22.36 c 1.34,0.86 2.68,1.75 4,2.65" />
      <path
         inkscape:connector-curvature="0"
         id="path988"
         style="fill:#4f5866;fill-opacity:1;fill-rule:nonzero;stroke:none"
         d="m 1224.09,2221.04 -38.48,22.37 c 0.8,0.49 1.6,1.01 2.4,1.52 l 38.48,-22.35 c -0.8,-0.53 -1.6,-1.03 -2.4,-1.54" />
      <path
         inkscape:connector-curvature="0"
         id="path990"
         style="fill:#4f5866;fill-opacity:1;fill-rule:nonzero;stroke:none"
         d="m 1182.98,2241.8 c 0.88,0.52 1.75,1.07 2.63,1.61 l 38.48,-22.37 c -0.88,-0.54 -1.75,-1.08 -2.63,-1.61 -11.54,6.71 -26.93,15.66 -38.48,22.37" />
      <path
         inkscape:connector-curvature="0"
         id="path992"
         style="fill:#4f5866;fill-opacity:1;fill-rule:nonzero;stroke:none"
         d="m 1177.72,2238.75 c 0.81,0.45 1.6,0.9 2.41,1.36 l 38.48,-22.36 c -0.81,-0.46 -1.61,-0.92 -2.41,-1.36 -11.54,6.71 -26.93,15.65 -38.48,22.36" />
      <path
         inkscape:connector-curvature="0"
         id="path994"
         style="fill:#4f5866;fill-opacity:1;fill-rule:nonzero;stroke:none"
         d="m 1213.14,2214.72 -38.47,22.37 c 0.87,0.46 1.74,0.93 2.6,1.41 l 38.48,-22.37 c -0.87,-0.48 -1.74,-0.94 -2.61,-1.41" />
      <path
         inkscape:connector-curvature="0"
         id="path996"
         style="fill:#4f5866;fill-opacity:1;fill-rule:nonzero;stroke:none"
         d="m 1171.61,2235.51 c 1.01,0.51 2.03,1.03 3.06,1.58 l 38.47,-22.37 c -1.02,-0.54 -2.05,-1.06 -3.06,-1.58 -12.83,7.46 -25.64,14.93 -38.47,22.37" />
      <path
         inkscape:connector-curvature="0"
         id="path998"
         style="fill:#afefed;fill-opacity:1;fill-rule:nonzero;stroke:none"
         d="m 1119.53,2247.45 c 2.84,-0.4 5.73,-0.66 8.7,-0.72 l 38.47,-22.37 c -2.96,0.07 -5.85,0.33 -8.69,0.73 -11.54,6.71 -26.94,15.66 -38.48,22.36" />
      <path
         inkscape:connector-curvature="0"
         id="path1000"
         style="fill:#4f5866;fill-opacity:1;fill-rule:nonzero;stroke:none"
         d="m 1184.03,2264.72 c 23.47,14.52 45.43,36.34 63.53,62.06 l 38.48,-22.37 c -18.1,-25.7 -40.05,-47.53 -63.53,-62.06 -0.54,-0.34 -1.11,-0.68 -2.11,-1.29 -0.62,-0.36 -1.23,-0.72 -1.86,-1.08 -0.61,-0.36 -1.23,-0.7 -2.31,-1.3 -0.55,-0.32 -1.1,-0.61 -1.82,-1 -14.12,-7.56 -27.76,-11.85 -40.37,-13 -2.48,-0.22 -4.94,-0.32 -7.34,-0.32 -2.97,0.03 -5.88,0.23 -8.7,0.62 -12.83,7.46 -25.66,14.91 -38.49,22.37 2.83,-0.39 5.74,-0.6 8.72,-0.62 2.4,-0.02 4.85,0.09 7.34,0.32 12.6,1.15 26.25,5.43 40.36,12.99 0.72,0.38 1.28,0.69 1.83,1 1.07,0.59 1.69,0.95 2.31,1.3 0.61,0.36 1.24,0.72 1.85,1.09 1,0.6 1.56,0.93 2.11,1.29" />
      <path
         inkscape:connector-curvature="0"
         id="path1002"
         style="fill:#afefed;fill-opacity:1;fill-rule:nonzero;stroke:none"
         d="m 1187.09,2247.3 -38.47,22.36 98.94,57.12 38.48,-22.37 -98.95,-57.11" />
      <path
         inkscape:connector-curvature="0"
         id="path1004"
         style="fill:#4f5866;fill-opacity:1;fill-rule:nonzero;stroke:none"
         d="m 1262.16,2319.92 c -0.27,-0.4 -0.54,-0.78 -0.8,-1.16 l 24.68,-14.35 c -0.62,-0.86 -1.3,-1.63 -1.92,-2.48 4.65,-2.7 9.28,-5.41 13.94,-8.12 0.85,1.24 1.71,2.49 2.57,3.75 -12.83,7.44 -25.65,14.92 -38.47,22.36" />
      <path
         inkscape:connector-curvature="0"
         id="path1006"
         style="fill:#4f5866;fill-opacity:1;fill-rule:nonzero;stroke:none"
         d="m 1321.71,2333.79 c 1.89,3.75 3.84,7.44 5.58,11.21 -1.74,-3.79 -3.69,-7.46 -5.58,-11.21" />
      <path
         inkscape:connector-curvature="0"
         id="path1008"
         style="fill:#4f5866;fill-opacity:1;fill-rule:nonzero;stroke:none"
         d="m 1292.76,2286.89 c 2.49,3.37 5.02,6.6 7.38,10.06 -2.34,-3.46 -4.9,-6.71 -7.38,-10.06" />
      <path
         inkscape:connector-curvature="0"
         id="path1010"
         style="fill:#4f5866;fill-opacity:1;fill-rule:nonzero;stroke:none"
         d="m 1327.29,2345 c 2.23,4.88 4.14,9.8 6.11,14.75 -1.94,-4.93 -3.9,-9.88 -6.11,-14.75" />
      <path
         inkscape:connector-curvature="0"
         id="path1012"
         style="fill:#4f5866;fill-opacity:1;fill-rule:nonzero;stroke:none"
         d="m 1283.65,2274.85 c 3.15,3.86 6.12,8.01 9.11,12.04 -3,-4.04 -5.94,-8.18 -9.11,-12.04" />
      <path
         inkscape:connector-curvature="0"
         id="path1014"
         style="fill:#4f5866;fill-opacity:1;fill-rule:nonzero;stroke:none"
         d="m 1333.4,2359.75 c 1.38,3.48 2.83,6.95 4.08,10.44 -1.24,-3.52 -2.68,-6.95 -4.08,-10.44" />
      <path
         inkscape:connector-curvature="0"
         id="path1016"
         style="fill:#4f5866;fill-opacity:1;fill-rule:nonzero;stroke:none"
         d="m 1188.01,2244.93 c -0.8,-0.51 -1.6,-1.03 -2.4,-1.52 0.8,0.49 1.6,1.01 2.4,1.52" />
      <path
         inkscape:connector-curvature="0"
         id="path1018"
         style="fill:#4f5866;fill-opacity:1;fill-rule:nonzero;stroke:none"
         d="m 1275.64,2265.84 c 2.67,3.01 5.42,5.87 8.01,9.01 -2.59,-3.15 -5.33,-6.02 -8.01,-9.01" />
      <path
         inkscape:connector-curvature="0"
         id="path1020"
         style="fill:#4f5866;fill-opacity:1;fill-rule:nonzero;stroke:none"
         d="m 1185.61,2243.41 c -0.88,-0.54 -1.75,-1.09 -2.63,-1.61 0.88,0.52 1.75,1.07 2.63,1.61" />
      <path
         inkscape:connector-curvature="0"
         id="path1022"
         style="fill:#4f5866;fill-opacity:1;fill-rule:nonzero;stroke:none"
         d="m 1337.48,2370.19 c 1.92,5.44 3.5,10.84 5.09,16.31 -1.56,-5.45 -3.18,-10.91 -5.09,-16.31" />
      <path
         inkscape:connector-curvature="0"
         id="path1024"
         style="fill:#4f5866;fill-opacity:1;fill-rule:nonzero;stroke:none"
         d="m 1265.83,2255 c 3.38,3.42 6.56,7.17 9.81,10.84 -3.25,-3.65 -6.43,-7.42 -9.81,-10.84" />
      <path
         inkscape:connector-curvature="0"
         id="path1026"
         style="fill:#4f5866;fill-opacity:1;fill-rule:nonzero;stroke:none"
         d="m 1262.16,2319.92 c 19.81,29.18 35.34,62.33 44.04,95.88 l 38.47,-22.36 c -8.69,-33.55 -24.23,-66.7 -44.04,-95.88 -12.82,7.46 -25.65,14.92 -38.47,22.36" />
      <path
         inkscape:connector-curvature="0"
         id="path1028"
         style="fill:#4f5866;fill-opacity:1;fill-rule:nonzero;stroke:none"
         d="m 1174.67,2237.09 c 0.87,0.46 1.73,0.93 2.6,1.41 -0.86,-0.48 -1.73,-0.95 -2.6,-1.41" />
      <path
         inkscape:connector-curvature="0"
         id="path1030"
         style="fill:#4f5866;fill-opacity:1;fill-rule:nonzero;stroke:none"
         d="m 1306.57,2338.54 -38.48,22.37 0.5,0.28 38.48,-22.36 -0.5,-0.29" />
      <path
         inkscape:connector-curvature="0"
         id="path1032"
         style="fill:#4f5866;fill-opacity:1;fill-rule:nonzero;stroke:none"
         d="m 1286.04,2304.41 -38.48,22.37 21.09,12.18 38.48,-22.36 -21.09,-12.19" />
      <path
         inkscape:connector-curvature="0"
         id="path1034"
         style="fill:#4f5866;fill-opacity:1;fill-rule:nonzero;stroke:none"
         d="m 1206.38,2280.7 -38.48,22.36 100.19,57.85 38.48,-22.37 -100.19,-57.84" />
      <path
         inkscape:connector-curvature="0"
         id="path1036"
         style="fill:#4f5866;fill-opacity:1;fill-rule:nonzero;stroke:none"
         d="m 1307.13,2316.6 -38.48,22.36 -0.06,22.23 38.48,-22.36 0.06,-22.23" />
      <path
         inkscape:connector-curvature="0"
         id="path1038"
         style="fill:#afefed;fill-opacity:1;fill-rule:nonzero;stroke:none"
         d="m 1228.44,2318.91 -38.47,22.36 92.48,53.4 38.48,-22.37 -92.49,-53.39" />
      <path
         inkscape:connector-curvature="0"
         id="path1040"
         style="fill:#4f5866;fill-opacity:1;fill-rule:nonzero;stroke:none"
         d="m 1306.57,2338.54 -38.48,22.37 c 5.57,10.96 10.41,22.28 14.36,33.76 l 38.48,-22.37 c -3.95,-11.46 -8.79,-22.79 -14.36,-33.76" />
      <path
         inkscape:connector-curvature="0"
         id="path1042"
         style="fill:#4f5866;fill-opacity:1;fill-rule:nonzero;stroke:none"
         d="m 1226.49,2222.58 -38.48,22.35 c 0.06,0.04 0.11,0.07 0.16,0.11 l 38.49,-22.36 c -0.06,-0.04 -0.11,-0.08 -0.17,-0.1" />
      <path
         inkscape:connector-curvature="0"
         id="path1044"
         style="fill:#afefed;fill-opacity:1;fill-rule:nonzero;stroke:none"
         d="m 1174.04,2224.68 -38.47,22.37 13.05,22.61 38.47,-22.36 -13.05,-22.62" />
      <path
         inkscape:connector-curvature="0"
         id="path1046"
         style="fill:#afefed;fill-opacity:1;fill-rule:nonzero;stroke:none"
         d="m 1206.38,2280.7 -38.48,22.36 22.07,38.21 38.47,-22.36 -22.06,-38.21" />
      <path
         inkscape:connector-curvature="0"
         id="path1048"
         style="fill:#afefed;fill-opacity:1;fill-rule:nonzero;stroke:none"
         d="m 1206.38,2280.7 22.06,38.21 92.49,53.39 c -3.95,-11.46 -8.79,-22.79 -14.36,-33.76 l -100.19,-57.84" />
      <path
         inkscape:connector-curvature="0"
         id="path1050"
         style="fill:#4f5866;fill-opacity:1;fill-rule:nonzero;stroke:none"
         d="m 1182,2266.62 -38.49,22.36 24.39,14.08 38.48,-22.36 -24.38,-14.08" />
      <path
         inkscape:connector-curvature="0"
         id="path1052"
         style="fill:#afefed;fill-opacity:1;fill-rule:nonzero;stroke:none"
         d="m 1150.9,2226.39 -38.48,22.36 11.8,6.82 38.49,-22.36 -11.81,-6.82" />
      <path
         inkscape:connector-curvature="0"
         id="path1054"
         style="fill:#4f5866;fill-opacity:1;fill-rule:nonzero;stroke:none"
         d="m 1112.42,2248.75 c 2.3,-0.6 4.67,-1.07 7.09,-1.4 12.83,-7.46 25.66,-14.91 38.49,-22.37 -2.43,0.34 -4.79,0.82 -7.1,1.41 -11.54,6.72 -26.94,15.66 -38.48,22.36" />
      <path
         inkscape:connector-curvature="0"
         id="path1056"
         style="fill:#4f5866;fill-opacity:1;fill-rule:nonzero;stroke:none"
         d="m 1130.22,2236.72 -38.48,22.37 51.77,29.89 38.49,-22.36 -51.78,-29.9" />
      <path
         inkscape:connector-curvature="0"
         id="path1058"
         style="fill:#4f5866;fill-opacity:1;fill-rule:nonzero;stroke:none"
         d="m 1129.76,2236.46 -38.49,22.36 0.47,0.27 38.48,-22.37 -0.46,-0.26" />
      <path
         inkscape:connector-curvature="0"
         id="path1060"
         style="fill:#afefed;fill-opacity:1;fill-rule:nonzero;stroke:none"
         d="m 1126.25,2240.39 -38.48,22.36 16.92,29.29 38.48,-22.37 -16.92,-29.28" />
      <path
         inkscape:connector-curvature="0"
         id="path1062"
         style="fill:#afefed;fill-opacity:1;fill-rule:nonzero;stroke:none"
         d="m 1143.17,2269.67 -38.48,22.37 60.9,35.15 38.47,-22.35 -60.89,-35.17" />
      <path
         inkscape:connector-curvature="0"
         id="path1064"
         style="fill:#4f5866;fill-opacity:1;fill-rule:nonzero;stroke:none"
         d="m 1255.89,2245.81 c 3.33,3.03 6.72,5.94 9.94,9.19 -3.22,-3.25 -6.61,-6.16 -9.94,-9.19" />
      <path
         inkscape:connector-curvature="0"
         id="path1066"
         style="fill:#afefed;fill-opacity:1;fill-rule:nonzero;stroke:none"
         d="m 1174.04,2224.68 13.05,22.62 98.95,57.11 c -18.1,-25.7 -40.05,-47.53 -63.36,-61.95 -0.71,-0.45 -1.28,-0.79 -1.83,-1.12 -0.14,-0.09 -0.3,-0.18 -0.45,-0.28 -0.62,-0.36 -1.23,-0.72 -1.86,-1.08 -0.61,-0.36 -1.23,-0.7 -1.85,-1.05 -0.16,-0.08 -0.3,-0.17 -0.46,-0.25 -0.55,-0.32 -1.1,-0.61 -1.65,-0.91 -14.29,-7.65 -27.93,-11.94 -40.54,-13.09" />
      <path
         inkscape:connector-curvature="0"
         id="path1068"
         style="fill:#afefed;fill-opacity:1;fill-rule:nonzero;stroke:none"
         d="m 1204.06,2304.84 -22.06,-38.22 -51.78,-29.9 c -5.63,4.51 -10.52,10.21 -14.54,17.08 3.08,-5.09 6.61,-9.57 10.57,-13.41 l 16.92,29.28 60.89,35.17" />
      <path
         inkscape:connector-curvature="0"
         id="path1070"
         style="fill:#4f5866;fill-opacity:1;fill-rule:nonzero;stroke:none"
         d="m 1091.96,2247.53 c 18.5,-48.92 66.76,-61.67 121.18,-32.81 -58.24,-30.94 -107.17,-13.58 -123.42,38.74 l 2.24,-5.93" />
      <path
         inkscape:connector-curvature="0"
         id="path1072"
         style="fill:#4f5866;fill-opacity:1;fill-rule:nonzero;stroke:none"
         d="m 1307.06,2338.82 0.06,-22.23 -21.08,-12.18 c -4.53,-6.42 -9.3,-12.6 -14.28,-18.49 -4.97,-5.9 -10.12,-11.48 -15.46,-16.72 -0.77,-0.76 -1.62,-1.36 -2.39,-2.13 -9.97,-9.52 -20.44,-17.93 -31.23,-24.61 -0.02,-0.02 -0.06,-0.02 -0.07,-0.05 -0.04,-0.02 -0.07,-0.05 -0.1,-0.07 -0.55,-0.35 -1.12,-0.67 -2.12,-1.3 -0.62,-0.36 -1.24,-0.72 -1.85,-1.08 -0.62,-0.34 -1.24,-0.71 -1.87,-1.04 -0.14,-0.08 -0.29,-0.17 -0.44,-0.25 -0.56,-0.31 -1.1,-0.6 -1.84,-1 -5.11,-2.74 -10.06,-4.56 -15.02,-6.45 -8.75,-3.32 -17.3,-5.81 -25.34,-6.54 -2.49,-0.24 -4.94,-0.33 -7.33,-0.33 -2.96,0.08 -5.87,0.34 -8.7,0.74 l 0.21,0.36 c -2.43,0.35 -5,0.35 -7.31,0.93 l -21.09,-12.16 0.4,22.49 c -5.63,4.51 -10.53,10.2 -14.47,17.12 l 27.43,15.84 60.87,35.14 24.4,14.08 92.49,53.4 c -3.96,-11.47 -8.8,-22.8 -14.36,-33.75 z m 21.52,60.24 -80.81,-46.66 -24.36,-14.08 -60.91,-35.16 -48.75,-28.13 -5.81,-3.36 -20.63,-11.91 2.4,-6.31 2.24,-5.93 c 18.78,-49.69 68.31,-62.06 124.23,-31.13 0.82,0.44 1.62,0.9 2.42,1.34 0.79,0.47 1.59,0.94 2.84,1.7 55.49,33.39 104.77,102.8 123.23,174.01 l 1.79,6.87 2.15,10.3 -20.03,-11.55" />
      <path
         inkscape:connector-curvature="0"
         id="path1074"
         style="fill:#4f5866;fill-opacity:1;fill-rule:nonzero;stroke:none"
         d="m 1344.73,2393.42 c -0.62,-2.33 -1.5,-4.6 -2.16,-6.92 1.32,4.6 2.86,9.19 3.93,13.81 l -1.77,-6.89" />
      <path
         inkscape:connector-curvature="0"
         id="path1076"
         style="fill:#4f5866;fill-opacity:1;fill-rule:nonzero;stroke:none"
         d="m 1338.63,2404.86 -30.66,17.81 -1.78,-6.88 25.61,-14.87 6.83,3.94" />
      <path
         inkscape:connector-curvature="0"
         id="path1078"
         style="fill:#4f5866;fill-opacity:1;fill-rule:nonzero;stroke:none"
         d="m 1246.71,2237.46 c 3.16,2.6 6.12,5.55 9.18,8.35 -3.06,-2.79 -6.04,-5.77 -9.18,-8.35" />
      <path
         inkscape:connector-curvature="0"
         id="path1080"
         style="fill:#4f5866;fill-opacity:1;fill-rule:nonzero;stroke:none"
         d="m 1226.65,2222.68 c 6.84,4.41 13.53,9.41 20.06,14.78 -6.54,-5.41 -13.24,-10.38 -20.06,-14.78" />
      <path
         inkscape:connector-curvature="0"
         id="path1082"
         style="fill:#4f5866;fill-opacity:1;fill-rule:nonzero;stroke:none"
         d="m 1328.59,2399.06 -38.47,22.37 20.01,11.55 38.48,-22.36 -20.02,-11.56" />
      <path
         inkscape:connector-curvature="0"
         id="path1084"
         style="fill:#4f5866;fill-opacity:1;fill-rule:nonzero;stroke:none"
         d="m 1328.59,2399.06 -38.47,22.37 c 2.03,9.35 3.38,18.62 3.99,27.71 l 38.48,-22.35 c -0.61,-9.1 -1.96,-18.38 -4,-27.73" />
      <path
         inkscape:connector-curvature="0"
         id="path1086"
         style="fill:#4f5866;fill-opacity:1;fill-rule:nonzero;stroke:none"
         d="m 1332.59,2426.79 -38.48,22.35 10.06,5.81 38.48,-22.36 -10.06,-5.8" />
      <path
         inkscape:connector-curvature="0"
         id="path1088"
         style="fill:#4f5866;fill-opacity:1;fill-rule:nonzero;stroke:none"
         d="m 1342.65,2432.59 -38.48,22.36 -0.06,22.3 38.47,-22.37 0.07,-22.29" />
      <path
         inkscape:connector-curvature="0"
         id="path1090"
         style="fill:#4f5866;fill-opacity:1;fill-rule:nonzero;stroke:none"
         d="m 1332.52,2449.08 -38.47,22.37 10.06,5.8 38.47,-22.37 -10.06,-5.8" />
      <path
         inkscape:connector-curvature="0"
         id="path1092"
         style="fill:#4f5866;fill-opacity:1;fill-rule:nonzero;stroke:none"
         d="m 1328.37,2472.15 -38.47,22.37 20.02,11.55 38.47,-22.36 -20.02,-11.56" />
      <path
         inkscape:connector-curvature="0"
         id="path1094"
         style="fill:#4f5866;fill-opacity:1;fill-rule:nonzero;stroke:none"
         d="m 1332.52,2449.08 -38.47,22.37 c -0.66,8.36 -2.07,16.07 -4.15,23.07 l 38.47,-22.37 c 2.08,-6.99 3.5,-14.69 4.15,-23.07" />
      <path
         inkscape:connector-curvature="0"
         id="path1096"
         style="fill:#4f5866;fill-opacity:1;fill-rule:nonzero;stroke:none"
         d="m 1247.79,2352.41 -38.47,22.36 80.8,46.66 38.47,-22.37 -80.8,-46.65" />
      <path
         inkscape:connector-curvature="0"
         id="path1098"
         style="fill:#afefed;fill-opacity:1;fill-rule:nonzero;stroke:none"
         d="m 1269.79,2390.53 -38.48,22.36 62.8,36.25 38.48,-22.35 -62.8,-36.26" />
      <path
         inkscape:connector-curvature="0"
         id="path1100"
         style="fill:#4f5866;fill-opacity:1;fill-rule:nonzero;stroke:none"
         d="m 1289.14,2424.03 -38.49,22.36 43.4,25.06 38.47,-22.37 -43.38,-25.05" />
      <path
         inkscape:connector-curvature="0"
         id="path1102"
         style="fill:#afefed;fill-opacity:1;fill-rule:nonzero;stroke:none"
         d="m 1289.14,2424.03 -38.49,22.36 22.06,38.2 38.48,-22.35 -22.05,-38.21" />
      <path
         inkscape:connector-curvature="0"
         id="path1104"
         style="fill:#afefed;fill-opacity:1;fill-rule:nonzero;stroke:none"
         d="m 1311.19,2462.24 -38.48,22.35 17.19,9.93 38.47,-22.37 -17.18,-9.91" />
      <path
         inkscape:connector-curvature="0"
         id="path1106"
         style="fill:#4f5866;fill-opacity:1;fill-rule:nonzero;stroke:none"
         d="m 1339.16,2507.62 c 1.2,-2.19 2.07,-4.77 3.11,-7.15 -1.31,3.01 -2.74,5.91 -4.28,8.61 l 1.17,-1.46" />
      <path
         inkscape:connector-curvature="0"
         id="path1108"
         style="fill:#4f5866;fill-opacity:1;fill-rule:nonzero;stroke:none"
         d="m 1336.81,2511.43 c 0.79,-1.27 1.61,-2.48 2.35,-3.81 l -1.17,1.46 c -0.42,0.76 -0.74,1.62 -1.18,2.35" />
      <path
         inkscape:connector-curvature="0"
         id="path1110"
         style="fill:#4f5866;fill-opacity:1;fill-rule:nonzero;stroke:none"
         d="m 1264.77,2409.96 -38.48,22.36 24.36,14.07 38.49,-22.36 -24.37,-14.07" />
      <path
         inkscape:connector-curvature="0"
         id="path1112"
         style="fill:#4f5866;fill-opacity:1;fill-rule:nonzero;stroke:none"
         d="m 1306.13,2481.58 -38.48,22.36 14.47,8.36 38.48,-22.36 -14.47,-8.36" />
      <path
         inkscape:connector-curvature="0"
         id="path1114"
         style="fill:#4f5866;fill-opacity:1;fill-rule:nonzero;stroke:none"
         d="m 1277.14,2519.69 c -0.06,0.1 -0.14,0.19 -0.23,0.28 12.84,-7.45 25.66,-14.9 38.49,-22.35 0.07,-0.1 0.16,-0.2 0.23,-0.3 0.13,-0.16 0.26,-0.34 0.4,-0.51 1.62,-2.15 3.15,-4.43 4.57,-6.87 l -38.48,22.36 c -1.42,2.45 -2.95,4.73 -4.58,6.88 -0.13,0.17 -0.25,0.34 -0.4,0.51" />
      <path
         inkscape:connector-curvature="0"
         id="path1116"
         style="fill:#4f5866;fill-opacity:1;fill-rule:nonzero;stroke:none"
         d="m 1322.84,2527.89 c 1.13,-1 2.32,-1.91 3.4,-2.97 -0.94,0.94 -2.03,1.63 -3.02,2.51 l -0.38,0.46" />
      <path
         inkscape:connector-curvature="0"
         id="path1118"
         style="fill:#4f5866;fill-opacity:1;fill-rule:nonzero;stroke:none"
         d="m 1321.17,2529.13 c 0.54,-0.43 1.13,-0.79 1.67,-1.24 l 0.38,-0.46 c -0.67,0.58 -1.37,1.13 -2.05,1.7" />
      <path
         inkscape:connector-curvature="0"
         id="path1120"
         style="fill:#afefed;fill-opacity:1;fill-rule:nonzero;stroke:none"
         d="m 1247.79,2352.41 -38.47,22.36 21.99,38.12 38.48,-22.36 -22,-38.12" />
      <path
         inkscape:connector-curvature="0"
         id="path1122"
         style="fill:#4f5866;fill-opacity:1;fill-rule:nonzero;stroke:none"
         d="m 1223.41,2338.34 -38.48,22.36 24.39,14.07 38.47,-22.36 -24.38,-14.07" />
      <path
         inkscape:connector-curvature="0"
         id="path1124"
         style="fill:#4f5866;fill-opacity:1;fill-rule:nonzero;stroke:none"
         d="m 1162.52,2303.18 -38.48,22.36 60.89,35.16 38.48,-22.36 -60.89,-35.16" />
      <path
         inkscape:connector-curvature="0"
         id="path1126"
         style="fill:#afefed;fill-opacity:1;fill-rule:nonzero;stroke:none"
         d="m 1184.53,2341.3 -38.48,22.36 60.89,35.16 38.48,-22.36 -60.89,-35.16" />
      <path
         inkscape:connector-curvature="0"
         id="path1128"
         style="fill:#4f5866;fill-opacity:1;fill-rule:nonzero;stroke:none"
         d="m 1203.88,2374.8 -38.48,22.36 60.89,35.16 38.48,-22.36 -60.89,-35.16" />
      <path
         inkscape:connector-curvature="0"
         id="path1130"
         style="fill:#afefed;fill-opacity:1;fill-rule:nonzero;stroke:none"
         d="m 1225.95,2413.02 -38.48,22.36 60.89,35.16 38.48,-22.36 -60.89,-35.16" />
      <path
         inkscape:connector-curvature="0"
         id="path1132"
         style="fill:#4f5866;fill-opacity:1;fill-rule:nonzero;stroke:none"
         d="m 1245.23,2446.42 -38.47,22.37 60.89,35.15 38.48,-22.36 -60.9,-35.16" />
      <path
         inkscape:connector-curvature="0"
         id="path1134"
         style="fill:#afefed;fill-opacity:1;fill-rule:nonzero;stroke:none"
         d="m 1203.88,2374.8 -38.48,22.36 22.07,38.22 38.48,-22.36 -22.07,-38.22" />
      <path
         inkscape:connector-curvature="0"
         id="path1136"
         style="fill:#afefed;fill-opacity:1;fill-rule:nonzero;stroke:none"
         d="m 1247.79,2352.41 22,38.12 62.8,36.26 c -0.61,-9.1 -1.96,-18.38 -4,-27.73 l -80.8,-46.65" />
      <path
         inkscape:connector-curvature="0"
         id="path1138"
         style="fill:#afefed;fill-opacity:1;fill-rule:nonzero;stroke:none"
         d="m 1245.23,2446.42 -38.47,22.37 22.06,38.21 38.48,-22.37 -22.07,-38.21" />
      <path
         inkscape:connector-curvature="0"
         id="path1140"
         style="fill:#afefed;fill-opacity:1;fill-rule:nonzero;stroke:none"
         d="m 1289.14,2424.03 22.05,38.21 17.18,9.91 c 2.08,-6.99 3.5,-14.69 4.15,-23.07 l -43.38,-25.05" />
      <path
         inkscape:connector-curvature="0"
         id="path1142"
         style="fill:#afefed;fill-opacity:1;fill-rule:nonzero;stroke:none"
         d="m 1245.23,2446.42 22.07,38.21 38.81,22.41 c 3.37,-2.7 6.47,-5.84 9.29,-9.41 l -9.27,-16.05 -60.9,-35.16" />
      <path
         inkscape:connector-curvature="0"
         id="path1144"
         style="fill:#afefed;fill-opacity:1;fill-rule:nonzero;stroke:none"
         d="m 1162.52,2303.18 -38.48,22.36 22.01,38.12 38.48,-22.36 -22.01,-38.12" />
      <path
         inkscape:connector-curvature="0"
         id="path1146"
         style="fill:#4f5866;fill-opacity:1;fill-rule:nonzero;stroke:none"
         d="m 1155.12,2346.65 -38.48,22.37 48.76,28.14 38.48,-22.36 -48.76,-28.15" />
      <path
         inkscape:connector-curvature="0"
         id="path1148"
         style="fill:#4f5866;fill-opacity:1;fill-rule:nonzero;stroke:none"
         d="m 1196.48,2418.28 -38.47,22.36 48.75,28.15 38.47,-22.37 -48.75,-28.14" />
      <path
         inkscape:connector-curvature="0"
         id="path1150"
         style="fill:#afefed;fill-opacity:1;fill-rule:nonzero;stroke:none"
         d="m 1162.52,2303.18 22.01,38.12 60.89,35.16 -22.01,-38.12 -60.89,-35.16" />
      <path
         inkscape:connector-curvature="0"
         id="path1152"
         style="fill:#afefed;fill-opacity:1;fill-rule:nonzero;stroke:none"
         d="m 1286.84,2448.18 -22.07,-38.22 -60.89,-35.16 22.07,38.22 60.89,35.16" />
      <path
         inkscape:connector-curvature="0"
         id="path1154"
         style="fill:#4f5866;fill-opacity:1;fill-rule:nonzero;stroke:none"
         d="m 1307.07,2338.83 0.06,-22.23 -21.09,-12.19 -98.95,-57.11 -24.38,-14.09 -11.81,-6.82 -21.08,-12.17 -0.06,22.24 0.46,0.26 51.78,29.9 24.38,14.08 100.19,57.84 0.5,0.29" />
      <path
         inkscape:connector-curvature="0"
         id="path1156"
         style="fill:#afefed;fill-opacity:1;fill-rule:nonzero;stroke:none"
         d="m 1218.55,2456.49 -22.07,-38.21 -81.12,-46.84 c 3.95,11.47 8.79,22.8 14.36,33.77 l 88.83,51.28" />
      <path
         inkscape:connector-curvature="0"
         id="path1158"
         style="fill:#4f5866;fill-opacity:1;fill-rule:nonzero;stroke:none"
         d="m 1342.58,2454.88 0.07,-22.29 -10.06,-5.8 -62.8,-36.26 -24.37,-14.07 -60.89,-35.16 -48.75,-28.15 -31.96,-18.45 -10.11,-5.83 -0.07,22.29 10.11,5.84 51.37,29.65 48.76,28.15 60.89,35.16 24.37,14.07 43.38,25.05 10.06,5.8" />
      <path
         inkscape:connector-curvature="0"
         id="path1160"
         style="fill:#4f5866;fill-opacity:1;fill-rule:nonzero;stroke:none"
         d="m 1089.83,2343.47 c 16.51,71.48 66.09,145.48 125.04,180.94 -55.47,-33.4 -104.75,-102.88 -123.21,-174.07 l -2.19,-8.45 c 0.11,0.53 0.24,1.06 0.36,1.58" />
      <path
         inkscape:connector-curvature="0"
         id="path1162"
         style="fill:#4f5866;fill-opacity:1;fill-rule:nonzero;stroke:none"
         d="m 1306.13,2481.58 -60.9,-35.16 -48.77,-28.16 -81.13,-46.84 c 3.97,11.49 8.82,22.81 13.95,33.52 l -0.08,22.22 21.04,12.17 c 18.13,25.73 40.13,47.59 63.46,62.02 0.61,0.36 1.19,0.74 2.23,1.35 0.61,0.36 1.24,0.73 1.85,1.09 0.62,0.35 1.25,0.71 2.3,1.31 0.59,0.31 1.19,0.63 1.8,0.96 23.33,12.51 45.39,16.09 63.58,11.33 l 21.04,12.15 0.09,-22.23 -0.5,-0.28 c 3.38,-2.7 6.48,-5.85 9.52,-9.73 0.13,-0.15 0.26,-0.32 0.4,-0.49 1.63,-2.15 3.17,-4.45 4.58,-6.89 z m 40.06,9.86 -1.82,4.79 c -18.79,49.71 -68.29,62.13 -124.24,31.22 -0.79,-0.45 -1.61,-0.89 -2.41,-1.36 -0.79,-0.45 -1.59,-0.94 -2.85,-1.69 -55.49,-33.41 -104.76,-102.87 -123.21,-174.07 l -2.2,-8.45 -1.79,-8.7 20.08,11.59 69.43,40.1 48.75,28.15 60.9,35.14 24.35,14.06 17.19,9.93 20.64,11.91 -2.82,7.38" />
      <path
         inkscape:connector-curvature="0"
         id="path1164"
         style="fill:#4f5866;fill-opacity:1;fill-rule:nonzero;stroke:none"
         d="m 1348.39,2483.71 c 2.53,-10.28 3.89,-21.77 3.92,-34.37 0.04,-12.59 -1.24,-25.57 -3.7,-38.72 l -20.02,-11.56 c 2.04,9.35 3.39,18.63 4,27.73 l 10.06,5.8 -0.07,22.29 -10.06,-5.8 c -0.65,8.38 -2.07,16.08 -4.15,23.07 l 20.02,11.56" />
      <path
         inkscape:connector-curvature="0"
         id="path1166"
         style="fill:#4f5866;fill-opacity:1;fill-rule:nonzero;stroke:none"
         d="m 1336.81,2511.43 c -1.17,1.87 -2.5,3.5 -3.8,5.21 1.27,-1.74 2.63,-3.34 3.8,-5.21" />
      <path
         inkscape:connector-curvature="0"
         id="path1168"
         style="fill:#4f5866;fill-opacity:1;fill-rule:nonzero;stroke:none"
         d="m 1333.01,2516.64 c -2.15,2.91 -4.32,5.82 -6.77,8.28 2.48,-2.46 4.61,-5.37 6.77,-8.28" />
      <path
         inkscape:connector-curvature="0"
         id="path1170"
         style="fill:#afefed;fill-opacity:1;fill-rule:nonzero;stroke:none"
         d="m 1162.71,2233.21 -4.7,-8.12 c 2.84,-0.4 5.73,-0.66 8.69,-0.73 -5.51,0.04 -10.8,0.73 -15.8,2.03 l 11.81,6.82" />
      <path
         inkscape:connector-curvature="0"
         id="path1172"
         style="fill:#4f5866;fill-opacity:1;fill-rule:nonzero;stroke:none"
         d="m 1321.17,2529.13 c -2.56,2.08 -5.09,4.17 -7.88,5.82 2.81,-1.65 5.32,-3.74 7.88,-5.82" />
      <path
         inkscape:connector-curvature="0"
         id="path1174"
         style="fill:#4f5866;fill-opacity:1;fill-rule:nonzero;stroke:none"
         d="m 1313.29,2534.95 c -1.93,1.13 -4.06,1.95 -6.12,2.87 2.06,-0.94 4.17,-1.74 6.12,-2.87" />
      <path
         inkscape:connector-curvature="0"
         id="path1176"
         style="fill:#4f5866;fill-opacity:1;fill-rule:nonzero;stroke:none"
         d="m 1307.17,2537.82 c -2.9,1.31 -5.73,2.7 -8.84,3.6 3.11,-0.9 5.94,-2.28 8.84,-3.6" />
      <path
         inkscape:connector-curvature="0"
         id="path1178"
         style="fill:#4f5866;fill-opacity:1;fill-rule:nonzero;stroke:none"
         d="m 1298.33,2541.42 c -2.18,0.63 -4.58,0.88 -6.87,1.29 2.31,-0.41 4.67,-0.66 6.87,-1.29" />
      <path
         inkscape:connector-curvature="0"
         id="path1180"
         style="fill:#4f5866;fill-opacity:1;fill-rule:nonzero;stroke:none"
         d="m 1291.46,2542.71 c -3.33,0.59 -6.6,1.31 -10.12,1.46 3.5,-0.17 6.8,-0.85 10.12,-1.46" />
      <path
         inkscape:connector-curvature="0"
         id="path1182"
         style="fill:#4f5866;fill-opacity:1;fill-rule:nonzero;stroke:none"
         d="m 1281.34,2544.17 c -2.21,0.1 -4.57,-0.21 -6.85,-0.31 2.28,0.1 4.64,0.41 6.85,0.31" />
      <path
         inkscape:connector-curvature="0"
         id="path1184"
         style="fill:#4f5866;fill-opacity:1;fill-rule:nonzero;stroke:none"
         d="m 1274.49,2543.86 c -3.75,-0.13 -7.47,-0.15 -11.39,-0.79 3.94,0.64 7.64,0.66 11.39,0.79" />
      <path
         inkscape:connector-curvature="0"
         id="path1186"
         style="fill:#4f5866;fill-opacity:1;fill-rule:nonzero;stroke:none"
         d="m 1263.1,2543.07 c -2.89,-0.46 -5.96,-1.47 -8.93,-2.23 2.97,0.76 6.04,1.76 8.93,2.23" />
      <path
         inkscape:connector-curvature="0"
         id="path1188"
         style="fill:#afefed;fill-opacity:1;fill-rule:nonzero;stroke:none"
         d="m 1103.82,2294.7 31.96,18.45 -22.02,-38.12 -5.81,-3.36 c -2.07,6.98 -3.47,14.67 -4.13,23.03" />
      <path
         inkscape:connector-curvature="0"
         id="path1190"
         style="fill:#4f5866;fill-opacity:1;fill-rule:nonzero;stroke:none"
         d="m 1254.17,2540.84 c -3.5,-0.86 -6.93,-1.51 -10.51,-2.76 3.59,1.28 7.01,1.9 10.51,2.76" />
      <path
         inkscape:connector-curvature="0"
         id="path1192"
         style="fill:#4f5866;fill-opacity:1;fill-rule:nonzero;stroke:none"
         d="m 1243.66,2538.08 c -6.68,-2.34 -13.49,-5.27 -20.47,-8.98 6.94,3.68 13.76,6.63 20.47,8.98" />
      <path
         inkscape:connector-curvature="0"
         id="path1194"
         style="fill:#4f5866;fill-opacity:1;fill-rule:nonzero;stroke:none"
         d="m 1093.64,2311.16 -38.48,22.36 10.11,5.84 38.48,-22.36 -10.11,-5.84" />
      <path
         inkscape:connector-curvature="0"
         id="path1196"
         style="fill:#4f5866;fill-opacity:1;fill-rule:nonzero;stroke:none"
         d="m 1215.32,2524.67 c 0.8,0.48 1.61,0.97 2.41,1.42 -0.8,-0.45 -1.6,-0.94 -2.41,-1.42" />
      <path
         inkscape:connector-curvature="0"
         id="path1198"
         style="fill:#afefed;fill-opacity:1;fill-rule:nonzero;stroke:none"
         d="m 1177.2,2384.87 -22.08,-38.22 -51.37,-29.65 c 0.61,9.11 1.98,18.41 4,27.79 l 69.45,40.08" />
      <path
         inkscape:connector-curvature="0"
         id="path1200"
         style="fill:#4f5866;fill-opacity:1;fill-rule:nonzero;stroke:none"
         d="m 914.176,2116.39 c 12.758,-7.41 25.543,-14.78 38.269,-22.24 0.067,-0.03 0.133,-0.07 0.207,-0.12 -20.41,-29.01 -45.019,-53.79 -71.191,-70.67 -12.832,7.45 -25.641,14.94 -38.488,22.36 26.175,16.87 50.793,41.66 71.203,70.67" />
      <path
         inkscape:connector-curvature="0"
         id="path1202"
         style="fill:#4f5866;fill-opacity:1;fill-rule:nonzero;stroke:none"
         d="m 915.434,2118.2 c 20.656,29.8 36.871,63.91 45.843,98.46 l 38.489,-22.36 c -8.985,-34.54 -25.196,-68.67 -45.844,-98.46 -12.832,7.45 -25.68,14.86 -38.488,22.36" />
      <path
         inkscape:connector-curvature="0"
         id="path1204"
         style="fill:#4f5866;fill-opacity:1;fill-rule:nonzero;stroke:none"
         d="m 842.973,2045.72 c 12.847,-7.42 25.656,-14.91 38.488,-22.36 -0.793,-0.51 -1.59,-1 -2.367,-1.5 l -38.485,22.36 c 0.793,0.49 1.582,0.99 2.364,1.5" />
      <path
         inkscape:connector-curvature="0"
         id="path1206"
         style="fill:#4f5866;fill-opacity:1;fill-rule:nonzero;stroke:none"
         d="m 838.012,2042.63 c 0.871,0.52 1.734,1.05 2.597,1.59 l 38.485,-22.36 c -0.871,-0.54 -1.731,-1.07 -2.606,-1.59 l -38.476,22.36 v 0" />
      <path
         inkscape:connector-curvature="0"
         id="path1208"
         style="fill:#4f5866;fill-opacity:1;fill-rule:nonzero;stroke:none"
         d="m 868.152,2015.55 -38.468,22.36 c 0.863,0.46 1.742,0.93 2.617,1.42 l 38.476,-22.37 c -0.871,-0.48 -1.754,-0.95 -2.625,-1.41" />
      <path
         inkscape:connector-curvature="0"
         id="path1210"
         style="fill:#4f5866;fill-opacity:1;fill-rule:nonzero;stroke:none"
         d="m 865.746,2014.3 -38.476,22.36 c 0.8,0.41 1.597,0.82 2.414,1.25 l 38.468,-22.36 c -0.797,-0.43 -1.605,-0.84 -2.406,-1.25" />
      <path
         inkscape:connector-curvature="0"
         id="path1212"
         style="fill:#4f5866;fill-opacity:1;fill-rule:nonzero;stroke:none"
         d="m 865.586,2014.21 -38.473,22.37 c 0.051,0.02 0.11,0.05 0.157,0.08 l 38.476,-22.36 c -0.055,-0.03 -0.105,-0.06 -0.16,-0.09" />
      <path
         inkscape:connector-curvature="0"
         id="path1214"
         style="fill:#4f5866;fill-opacity:1;fill-rule:nonzero;stroke:none"
         d="m 822.711,2034.43 c 1.461,0.68 2.926,1.4 4.402,2.15 l 38.473,-22.37 c -1.477,-0.75 -2.941,-1.47 -4.398,-2.15 -12.829,7.45 -25.657,14.91 -38.477,22.37" />
      <path
         inkscape:connector-curvature="0"
         id="path1216"
         style="fill:#4f5866;fill-opacity:1;fill-rule:nonzero;stroke:none"
         d="m 822.711,2034.43 c 12.82,-7.46 25.648,-14.92 38.477,-22.37 -24.708,-11.6 -47.911,-14.5 -67.325,-9.2 -12.675,7.37 -25.328,14.78 -38.035,22.1 -0.152,0.08 -0.246,0.26 -0.441,0.26 19.402,-5.29 42.605,-2.41 67.324,9.21" />
      <path
         inkscape:connector-curvature="0"
         id="path1218"
         style="fill:#afefed;fill-opacity:1;fill-rule:nonzero;stroke:none"
         d="m 805.961,2027.25 -38.477,22.36 0.121,0.08 38.481,-22.38 -0.125,-0.06" />
      <path
         inkscape:connector-curvature="0"
         id="path1220"
         style="fill:#4f5866;fill-opacity:1;fill-rule:nonzero;stroke:none"
         d="m 839.063,2065.54 c 23.476,14.53 45.433,36.36 63.535,62.08 l 38.488,-22.36 c -18.113,-25.72 -40.07,-47.54 -63.551,-62.08 -0.547,-0.34 -1.094,-0.68 -2.109,-1.28 -0.617,-0.37 -1.242,-0.73 -1.852,-1.1 -0.625,-0.35 -1.234,-0.69 -2.32,-1.3 -0.539,-0.29 -1.082,-0.59 -1.82,-0.99 -17.95,-9.62 -35.118,-13.92 -50.375,-13.23 -2.032,0.1 -4.036,0.29 -6,0.56 -2.43,0.33 -4.793,0.8 -7.098,1.41 l -38.477,22.36 c 2.305,-0.61 4.664,-1.09 7.094,-1.41 1.961,-0.27 3.969,-0.47 6.008,-0.56 15.242,-0.69 32.41,3.61 50.359,13.23 0.754,0.4 1.297,0.69 1.832,0.99 1.086,0.61 1.7,0.96 2.313,1.32 0.625,0.35 1.242,0.71 1.859,1.07 1.012,0.63 1.563,0.95 2.114,1.29" />
      <path
         inkscape:connector-curvature="0"
         id="path1222"
         style="fill:#afefed;fill-opacity:1;fill-rule:nonzero;stroke:none"
         d="m 915.434,2118.2 c 0.324,0.46 0.574,0.96 0.89,1.43 l -13.726,7.97 -113.782,-65.67 38.497,-22.36 112.082,64.7 c -7.985,4.62 -15.997,9.25 -23.961,13.93" />
      <path
         inkscape:connector-curvature="0"
         id="path1224"
         style="fill:#4f5866;fill-opacity:1;fill-rule:nonzero;stroke:none"
         d="m 940.027,2103.92 c -0.425,-0.62 -0.922,-1.17 -1.367,-1.77 4.61,-2.66 9.199,-5.33 13.781,-8 0.059,-0.03 0.133,-0.08 0.211,-0.13 0.414,0.6 0.832,1.21 1.254,1.82 -4.625,2.68 -9.234,5.39 -13.879,8.08" />
      <path
         inkscape:connector-curvature="0"
         id="path1226"
         style="fill:#afefed;fill-opacity:1;fill-rule:nonzero;stroke:none"
         d="m 1254.01,2517.88 -16.16,-27.99 -87.59,-50.56 c 18.12,25.73 40.12,47.6 63.44,62.02 0.61,0.38 1.21,0.74 1.81,1.1 0.13,0.08 0.28,0.17 0.43,0.26 0.61,0.36 1.24,0.73 1.86,1.08 0.62,0.37 1.24,0.71 1.85,1.07 0.14,0.07 0.3,0.16 0.44,0.24 0.59,0.33 1.19,0.64 1.79,0.96 23.35,12.53 45.39,16.11 63.58,11.33 -9.65,2.37 -20.17,2.64 -31.45,0.49" />
      <path
         inkscape:connector-curvature="0"
         id="path1228"
         style="fill:#4f5866;fill-opacity:1;fill-rule:nonzero;stroke:none"
         d="m 1103.82,2294.7 c 0.66,-8.36 2.06,-16.05 4.13,-23.03 l -20.07,-11.59 c -2.52,10.29 -3.88,21.75 -3.92,34.33 0,4.05 0.12,8.17 0.39,12.31 0.53,8.69 1.66,17.55 3.34,26.47 l 20.06,11.6 c -2.02,-9.38 -3.39,-18.68 -4,-27.79 l -10.11,-5.84 0.07,-22.29 10.11,5.83" />
      <path
         inkscape:connector-curvature="0"
         id="path1230"
         style="fill:#4f5866;fill-opacity:1;fill-rule:nonzero;stroke:none"
         d="m 840.609,2044.22 c -0.863,-0.53 -1.726,-1.07 -2.597,-1.59 0.871,0.52 1.734,1.05 2.597,1.59" />
      <path
         inkscape:connector-curvature="0"
         id="path1232"
         style="fill:#4f5866;fill-opacity:1;fill-rule:nonzero;stroke:none"
         d="m 999.766,2194.3 -38.489,22.36 1.938,7.55 38.475,-22.35 -1.924,-7.56" />
      <path
         inkscape:connector-curvature="0"
         id="path1234"
         style="fill:#4f5866;fill-opacity:1;fill-rule:nonzero;stroke:none"
         d="m 1306.53,2529.55 0.06,-22.24 -0.48,-0.27 -38.81,-22.41 -48.75,-28.14 -88.83,-51.28 -0.44,-0.27 -0.07,22.23 21.05,12.16 87.59,50.56 47.5,27.43 21.18,12.23" />
      <path
         inkscape:connector-curvature="0"
         id="path1236"
         style="fill:#4f5866;fill-opacity:1;fill-rule:nonzero;stroke:none"
         d="m 961.625,2139.39 -38.477,22.36 0.461,0.27 38.485,-22.36 -0.469,-0.27" />
      <path
         inkscape:connector-curvature="0"
         id="path1238"
         style="fill:#4f5866;fill-opacity:1;fill-rule:nonzero;stroke:none"
         d="m 941.086,2105.26 -38.488,22.36 21.078,12.17 38.48,-22.36 -21.07,-12.17" />
      <path
         inkscape:connector-curvature="0"
         id="path1240"
         style="fill:#4f5866;fill-opacity:1;fill-rule:nonzero;stroke:none"
         d="m 846.605,2072.98 -38.468,22.37 115.011,66.4 38.477,-22.36 -115.02,-66.41" />
      <path
         inkscape:connector-curvature="0"
         id="path1242"
         style="fill:#4f5866;fill-opacity:1;fill-rule:nonzero;stroke:none"
         d="m 962.156,2117.43 -38.48,22.36 -0.067,22.23 38.485,-22.36 0.062,-22.23" />
      <path
         inkscape:connector-curvature="0"
         id="path1244"
         style="fill:#afefed;fill-opacity:1;fill-rule:nonzero;stroke:none"
         d="m 868.676,2111.2 -38.477,22.35 107.344,61.99 38.477,-22.37 -107.344,-61.97" />
      <path
         inkscape:connector-curvature="0"
         id="path1246"
         style="fill:#4f5866;fill-opacity:1;fill-rule:nonzero;stroke:none"
         d="m 923.609,2162.02 c 5.121,10.69 9.977,22.04 13.934,33.52 l 38.477,-22.37 c -3.965,-11.48 -8.813,-22.81 -13.926,-33.51 -11.535,6.7 -26.938,15.65 -38.485,22.36" />
      <path
         inkscape:connector-curvature="0"
         id="path1248"
         style="fill:#4f5866;fill-opacity:1;fill-rule:nonzero;stroke:none"
         d="m 1045.86,2329.07 c -1.86,6.76 -5.46,11.69 -10.29,14.5 l 38.47,-22.36 c 4.84,-2.81 8.45,-7.74 10.31,-14.49 -11.54,6.71 -30.33,11.78 -38.49,22.35" />
      <path
         inkscape:connector-curvature="0"
         id="path1250"
         style="fill:#3b4350;fill-opacity:1;fill-rule:nonzero;stroke:none"
         d="m 1049.32,2367.13 38.48,-22.36 c -10.83,6.28 -25.82,5.42 -42.31,-4.11 l -38.47,22.37 c 16.49,9.51 31.47,10.39 42.3,4.1" />
      <path
         inkscape:connector-curvature="0"
         id="path1252"
         style="fill:#3b4350;fill-opacity:1;fill-rule:nonzero;stroke:none"
         d="m 962.805,2314.73 c 10.851,20.23 26.633,38.15 44.215,48.3 11.54,-6.71 26.93,-15.66 38.47,-22.37 -13.58,-8.13 -24.54,-18.67 -35.56,-34.16 -3.14,-4.53 -6.03,-9.27 -8.65,-14.14 -11.538,6.71 -26.928,15.66 -38.475,22.37" />
      <path
         inkscape:connector-curvature="0"
         id="path1254"
         style="fill:#4f5866;fill-opacity:1;fill-rule:nonzero;stroke:none"
         d="m 1045.49,2340.66 c 17.55,10.13 33.4,10.48 44.34,2.81 -0.12,-0.52 -0.25,-1.05 -0.36,-1.58 0,0 -4.59,-26.48 -5.12,-35.17 -4.68,16.93 -20.29,22.4 -38.8,11.71 -18.5,-10.68 -34.03,-34.13 -38.6,-56.4 -0.58,8.05 -5.5,29.79 -5.5,29.79 -0.06,0.18 -0.11,0.37 -0.17,0.54 10.85,20.24 26.64,38.15 44.21,48.3" />
      <path
         inkscape:connector-curvature="0"
         id="path1256"
         style="fill:#4f5866;fill-opacity:1;fill-rule:nonzero;stroke:none"
         d="m 983.629,2199.89 -38.488,22.37 20.086,11.58 38.473,-22.35 -20.071,-11.6" />
      <path
         inkscape:connector-curvature="0"
         id="path1258"
         style="fill:#afefed;fill-opacity:1;fill-rule:nonzero;stroke:none"
         d="m 819.059,2025.28 -38.473,22.36 8.258,14.29 38.48,-22.35 -8.265,-14.3" />
      <path
         inkscape:connector-curvature="0"
         id="path1260"
         style="fill:#afefed;fill-opacity:1;fill-rule:nonzero;stroke:none"
         d="m 819.059,2025.28 8.265,14.3 113.762,65.68 c -18.113,-25.72 -40.07,-47.54 -63.371,-61.97 -0.727,-0.45 -1.274,-0.79 -1.836,-1.12 -0.156,-0.09 -0.305,-0.18 -0.453,-0.27 -0.617,-0.37 -1.242,-0.73 -1.852,-1.1 -0.625,-0.35 -1.234,-0.69 -1.851,-1.04 -0.145,-0.08 -0.305,-0.17 -0.469,-0.26 -0.539,-0.29 -1.082,-0.59 -1.621,-0.89 -18.149,-9.72 -35.317,-14.02 -50.574,-13.33" />
      <path
         inkscape:connector-curvature="0"
         id="path1262"
         style="fill:#afefed;fill-opacity:1;fill-rule:nonzero;stroke:none"
         d="m 846.605,2072.98 22.071,38.22 107.344,61.97 c -3.965,-11.48 -8.813,-22.81 -14.395,-33.78 l -115.02,-66.41" />
      <path
         inkscape:connector-curvature="0"
         id="path1264"
         style="fill:#afefed;fill-opacity:1;fill-rule:nonzero;stroke:none"
         d="m 846.605,2072.98 -38.468,22.37 22.062,38.2 38.477,-22.35 -22.071,-38.22" />
      <path
         inkscape:connector-curvature="0"
         id="path1266"
         style="fill:#afefed;fill-opacity:1;fill-rule:nonzero;stroke:none"
         d="m 767.605,2049.69 c 2.274,-0.62 4.59,-1.13 6.973,-1.49 l 38.481,-22.36 c -2.391,0.36 -4.704,0.86 -6.973,1.47 -11.539,6.71 -26.93,15.67 -38.481,22.38" />
      <path
         inkscape:connector-curvature="0"
         id="path1268"
         style="fill:#4f5866;fill-opacity:1;fill-rule:nonzero;stroke:none"
         d="m 755.387,2025.22 c 0.945,-0.4 1.765,-1.03 2.644,-1.54 1.379,-0.79 3.203,-1.86 4.586,-2.66 4.918,-2.86 9.821,-5.71 14.731,-8.57 0.75,-0.43 1.746,-1 2.48,-1.44 1.465,-0.85 3.426,-1.99 4.891,-2.84 1.41,-0.82 3.293,-1.91 4.707,-2.73 1.332,-0.77 3.109,-1.81 4.437,-2.58 v 0 c -0.89,0.24 -1.777,0.5 -2.652,0.78 -12.832,7.45 -25.652,14.92 -38.477,22.36 0.875,-0.27 1.762,-0.54 2.653,-0.78" />
      <path
         inkscape:connector-curvature="0"
         id="path1270"
         style="fill:#4f5866;fill-opacity:1;fill-rule:nonzero;stroke:none"
         d="m 822.262,2058.92 -38.485,22.37 24.36,14.06 38.468,-22.37 -24.343,-14.06" />
      <path
         inkscape:connector-curvature="0"
         id="path1272"
         style="fill:#4f5866;fill-opacity:1;fill-rule:nonzero;stroke:none"
         d="m 784.848,2015.06 -38.477,22.36 21.113,12.19 38.477,-22.36 -21.113,-12.19" />
      <path
         inkscape:connector-curvature="0"
         id="path1274"
         style="fill:#4f5866;fill-opacity:1;fill-rule:nonzero;stroke:none"
         d="m 785.305,2037.59 -38.481,22.36 36.953,21.34 38.485,-22.37 -36.957,-21.33" />
      <path
         inkscape:connector-curvature="0"
         id="path1276"
         style="fill:#4f5866;fill-opacity:1;fill-rule:nonzero;stroke:none"
         d="m 784.848,2015.06 -38.477,22.36 -0.058,22.23 38.472,-22.36 0.063,-22.23" />
      <path
         inkscape:connector-curvature="0"
         id="path1278"
         style="fill:#4f5866;fill-opacity:1;fill-rule:nonzero;stroke:none"
         d="m 784.785,2037.29 -38.472,22.36 0.511,0.3 38.481,-22.36 -0.52,-0.3" />
      <path
         inkscape:connector-curvature="0"
         id="path1280"
         style="fill:#afefed;fill-opacity:1;fill-rule:nonzero;stroke:none"
         d="m 783.43,2061.98 -38.481,22.36 60.891,35.15 38.476,-22.36 -60.886,-35.15" />
      <path
         inkscape:connector-curvature="0"
         id="path1282"
         style="fill:#afefed;fill-opacity:1;fill-rule:nonzero;stroke:none"
         d="m 775.332,2047.94 -38.477,22.37 8.094,14.03 38.481,-22.36 -8.098,-14.04" />
      <path
         inkscape:connector-curvature="0"
         id="path1284"
         style="fill:#4f5866;fill-opacity:1;fill-rule:nonzero;stroke:none"
         d="m 752.734,2026 c 0.082,-0.03 0.192,-0.1 0.27,-0.16 12.734,-7.4 25.469,-14.79 38.207,-22.2 v 0 c -4.551,1.44 -8.875,3.36 -12.953,5.72 l -38.477,22.37 c 4.082,-2.37 8.403,-4.29 12.953,-5.73" />
      <path
         inkscape:connector-curvature="0"
         id="path1286"
         style="fill:#4f5866;fill-opacity:1;fill-rule:nonzero;stroke:none"
         d="m 746.996,2048.37 -38.484,22.35 -1.824,4.82 38.472,-22.36 1.836,-4.81" />
      <path
         inkscape:connector-curvature="0"
         id="path1288"
         style="fill:#4f5866;fill-opacity:1;fill-rule:nonzero;stroke:none"
         d="m 746.996,2048.37 c 18.199,-48.15 65.223,-61.26 118.59,-34.16 -56.637,-28.81 -104.063,-11.69 -120.426,38.97 l 1.836,-4.81" />
      <path
         inkscape:connector-curvature="0"
         id="path1290"
         style="fill:#4f5866;fill-opacity:1;fill-rule:nonzero;stroke:none"
         d="m 962.094,2139.66 c 5.113,10.7 9.961,22.03 13.926,33.51 l -107.344,-61.97 -24.36,-14.07 -60.886,-35.15 -12.649,-7.3 c 4.008,-6.88 8.899,-12.59 14.524,-17.09 l -0.52,-0.3 0.063,-22.23 21.113,12.19 c 2.305,-0.61 4.668,-1.08 7.098,-1.41 1.964,-0.27 3.968,-0.46 6,-0.56 15.257,-0.69 32.425,3.61 50.375,13.23 0.738,0.4 1.281,0.7 1.82,0.99 1.086,0.61 1.695,0.95 2.32,1.3 0.61,0.37 1.235,0.73 1.852,1.1 1.015,0.6 1.562,0.94 2.109,1.28 23.481,14.54 45.438,36.36 63.551,62.08 l 21.07,12.17 z m 41.606,71.83 -2.01,-9.63 -1.924,-7.56 c -18.512,-71.23 -67.793,-140.64 -123.278,-174.03 -1.246,-0.76 -2.039,-1.23 -2.851,-1.68 -0.801,-0.47 -1.602,-0.93 -2.399,-1.37 -55.945,-30.93 -105.457,-18.55 -124.242,31.15 l -1.836,4.81 -2.801,7.41 20.629,11.92 39.778,22.96 60.89,35.17 24.379,14.06 95.594,55.19 20.071,11.6" />
      <path
         inkscape:connector-curvature="0"
         id="path1292"
         style="fill:#4f5866;fill-opacity:1;fill-rule:nonzero;stroke:none"
         d="m 879.094,2021.86 c 54.418,33.98 102.445,102.32 120.672,172.44 l 1.924,7.56 c -16.104,-70.63 -64.6,-143.84 -122.596,-180" />
      <path
         inkscape:connector-curvature="0"
         id="path1294"
         style="fill:#4f5866;fill-opacity:1;fill-rule:nonzero;stroke:none"
         d="m 868.152,2015.55 c 0.871,0.46 1.754,0.93 2.625,1.41 -0.871,-0.48 -1.754,-0.95 -2.625,-1.41" />
      <path
         inkscape:connector-curvature="0"
         id="path1296"
         style="fill:#4f5866;fill-opacity:1;fill-rule:nonzero;stroke:none"
         d="m 865.746,2014.3 c 0.801,0.41 1.609,0.82 2.406,1.25 -0.797,-0.43 -1.605,-0.84 -2.406,-1.25" />
      <path
         inkscape:connector-curvature="0"
         id="path1298"
         style="fill:#4f5866;fill-opacity:1;fill-rule:nonzero;stroke:none"
         d="m 888.035,2144.7 -38.484,22.37 95.59,55.19 38.488,-22.37 -95.594,-55.19" />
      <path
         inkscape:connector-curvature="0"
         id="path1300"
         style="fill:#afefed;fill-opacity:1;fill-rule:nonzero;stroke:none"
         d="m 910.035,2182.82 -38.476,22.37 77.582,44.78 38.476,-22.35 -77.582,-44.8" />
      <path
         inkscape:connector-curvature="0"
         id="path1302"
         style="fill:#4f5866;fill-opacity:1;fill-rule:nonzero;stroke:none"
         d="m 983.629,2199.89 -38.488,22.37 c 2.027,9.35 3.39,18.62 4,27.71 l 38.476,-22.35 c -0.613,-9.1 -1.965,-18.38 -3.988,-27.73" />
      <path
         inkscape:connector-curvature="0"
         id="path1304"
         style="fill:#4f5866;fill-opacity:1;fill-rule:nonzero;stroke:none"
         d="m 987.617,2227.62 -38.476,22.35 10.113,5.84 38.473,-22.36 -10.11,-5.83" />
      <path
         inkscape:connector-curvature="0"
         id="path1306"
         style="fill:#4f5866;fill-opacity:1;fill-rule:nonzero;stroke:none"
         d="m 997.727,2233.45 -38.473,22.36 -0.066,22.3 38.48,-22.36 0.059,-22.3" />
      <path
         inkscape:connector-curvature="0"
         id="path1308"
         style="fill:#4f5866;fill-opacity:1;fill-rule:nonzero;stroke:none"
         d="m 987.555,2249.91 -38.473,22.36 10.106,5.84 38.48,-22.36 -10.113,-5.84" />
      <path
         inkscape:connector-curvature="0"
         id="path1310"
         style="fill:#4f5866;fill-opacity:1;fill-rule:nonzero;stroke:none"
         d="m 1003.48,2284.59 -38.48,22.35 0.563,0.33 38.487,-22.37 -0.57,-0.31" />
      <path
         inkscape:connector-curvature="0"
         id="path1312"
         style="fill:#4f5866;fill-opacity:1;fill-rule:nonzero;stroke:none"
         d="m 1006.95,2262.03 -38.473,22.36 c -0.586,8.06 -1.758,15.58 -3.477,22.55 l 38.48,-22.35 c 1.71,-6.98 2.89,-14.51 3.47,-22.56" />
      <path
         inkscape:connector-curvature="0"
         id="path1314"
         style="fill:#4f5866;fill-opacity:1;fill-rule:nonzero;stroke:none"
         d="m 1004.05,2284.9 -38.487,22.37 -2.594,6.92 38.481,-22.37 2.6,-6.92" />
      <path
         inkscape:connector-curvature="0"
         id="path1316"
         style="fill:#4f5866;fill-opacity:1;fill-rule:nonzero;stroke:none"
         d="m 1001.45,2291.82 -38.481,22.37 -1.985,5.28 38.489,-22.36 1.977,-5.29" />
      <path
         inkscape:connector-curvature="0"
         id="path1318"
         style="fill:#4f5866;fill-opacity:1;fill-rule:nonzero;stroke:none"
         d="m 962.969,2314.19 c -0.055,0.17 -0.11,0.36 -0.164,0.54 l 38.475,-22.37 c 0.06,-0.17 0.11,-0.36 0.17,-0.54 -11.552,6.72 -30.087,11.98 -38.481,22.37" />
      <path
         inkscape:connector-curvature="0"
         id="path1320"
         style="fill:#4f5866;fill-opacity:1;fill-rule:nonzero;stroke:none"
         d="m 983.402,2272.99 -38.476,22.36 20.074,11.59 38.48,-22.35 -20.078,-11.6" />
      <path
         inkscape:connector-curvature="0"
         id="path1322"
         style="fill:#4f5866;fill-opacity:1;fill-rule:nonzero;stroke:none"
         d="m 1006.95,2262.03 c 0.29,-3.82 0.44,-7.77 0.45,-11.82 0.03,-12.59 -1.25,-25.58 -3.7,-38.72 l -20.071,-11.6 c 2.023,9.35 3.375,18.63 3.988,27.73 l 10.11,5.83 -0.059,22.3 -10.113,-5.84 c -0.66,8.38 -2.071,16.07 -4.153,23.08 l 20.078,11.6 c 1.71,-6.98 2.89,-14.51 3.47,-22.56" />
      <path
         inkscape:connector-curvature="0"
         id="path1324"
         style="fill:#4f5866;fill-opacity:1;fill-rule:nonzero;stroke:none"
         d="m 987.555,2249.91 -38.473,22.36 c -0.668,8.37 -2.078,16.08 -4.156,23.08 l 38.476,-22.36 c 2.082,-7.01 3.493,-14.7 4.153,-23.08" />
      <path
         inkscape:connector-curvature="0"
         id="path1326"
         style="fill:#afefed;fill-opacity:1;fill-rule:nonzero;stroke:none"
         d="m 888.035,2144.7 -38.484,22.37 22.008,38.12 38.476,-22.37 -22,-38.12" />
      <path
         inkscape:connector-curvature="0"
         id="path1328"
         style="fill:#afefed;fill-opacity:1;fill-rule:nonzero;stroke:none"
         d="m 888.035,2144.7 22,38.12 77.582,44.8 c -0.613,-9.1 -1.965,-18.38 -3.988,-27.73 l -95.594,-55.19" />
      <path
         inkscape:connector-curvature="0"
         id="path1330"
         style="fill:#4f5866;fill-opacity:1;fill-rule:nonzero;stroke:none"
         d="m 929.391,2216.33 -38.485,22.36 58.176,33.58 38.473,-22.36 -58.164,-33.58" />
      <path
         inkscape:connector-curvature="0"
         id="path1332"
         style="fill:#afefed;fill-opacity:1;fill-rule:nonzero;stroke:none"
         d="m 951.461,2254.54 -38.488,22.36 31.953,18.45 38.476,-22.36 -31.941,-18.45" />
      <path
         inkscape:connector-curvature="0"
         id="path1334"
         style="fill:#afefed;fill-opacity:1;fill-rule:nonzero;stroke:none"
         d="m 929.391,2216.33 22.07,38.21 31.941,18.45 c 2.082,-7.01 3.493,-14.7 4.153,-23.08 l -58.164,-33.58" />
      <path
         inkscape:connector-curvature="0"
         id="path1336"
         style="fill:#afefed;fill-opacity:1;fill-rule:nonzero;stroke:none"
         d="m 929.391,2216.33 -38.485,22.36 22.067,38.21 38.488,-22.36 -22.07,-38.21" />
      <path
         inkscape:connector-curvature="0"
         id="path1338"
         style="fill:#4f5866;fill-opacity:1;fill-rule:nonzero;stroke:none"
         d="m 970.742,2287.95 -38.476,22.36 4.941,2.85 38.484,-22.36 -4.949,-2.85" />
      <path
         inkscape:connector-curvature="0"
         id="path1340"
         style="fill:#afefed;fill-opacity:1;fill-rule:nonzero;stroke:none"
         d="m 970.742,2287.95 -38.476,22.36 3.246,5.6 38.476,-22.35 -3.246,-5.61" />
      <path
         inkscape:connector-curvature="0"
         id="path1342"
         style="fill:#4f5866;fill-opacity:1;fill-rule:nonzero;stroke:none"
         d="m 946.352,2273.86 -38.481,22.37 24.395,14.08 38.476,-22.36 -24.39,-14.09" />
      <path
         inkscape:connector-curvature="0"
         id="path1344"
         style="fill:#afefed;fill-opacity:1;fill-rule:nonzero;stroke:none"
         d="m 930.195,2323.02 c -1.39,1.54 -2.828,3 -4.316,4.39 l 38.484,-22.36 c 1.489,-1.4 2.926,-2.84 4.309,-4.38 -11.543,6.71 -28.106,13.95 -38.477,22.35" />
      <path
         inkscape:connector-curvature="0"
         id="path1346"
         style="fill:#4f5866;fill-opacity:1;fill-rule:nonzero;stroke:none"
         d="m 964.352,2305.05 -3.301,-5.74 14.625,-8.52 c -0.555,0.94 -1.106,1.87 -1.696,2.76 -1.656,2.55 -3.414,4.92 -5.32,7.11 -1.363,1.57 -2.769,3.04 -4.25,4.42 -12.824,7.45 -25.664,14.92 -38.488,22.36 0.055,-0.05 0.098,-0.1 0.148,-0.15 l 38.282,-22.24" />
      <path
         inkscape:connector-curvature="0"
         id="path1348"
         style="fill:#afefed;fill-opacity:1;fill-rule:nonzero;stroke:none"
         d="m 973.988,2293.56 c 0.582,-0.9 1.145,-1.81 1.703,-2.76 l -4.949,-2.85 3.246,5.61" />
      <path
         inkscape:connector-curvature="0"
         id="path1350"
         style="fill:#4f5866;fill-opacity:1;fill-rule:nonzero;stroke:none"
         d="m 960.984,2319.47 c -6.812,17.96 -17.64,31.04 -31.312,38.99 l 38.488,-22.35 c 13.66,-7.95 24.496,-21.04 31.313,-39 -11.543,6.7 -29.848,12.18 -38.489,22.36" />
      <path
         inkscape:connector-curvature="0"
         id="path1352"
         style="fill:#4f5866;fill-opacity:1;fill-rule:nonzero;stroke:none"
         d="m 1001.28,2292.36 c 0.06,-0.17 0.11,-0.36 0.17,-0.54 l -1.977,5.29 c -4.106,10.8 -9.66,19.84 -16.407,27.06 l 0.204,-0.03 c 7.75,-8.32 13.875,-18.98 18.01,-31.78" />
      <path
         inkscape:connector-curvature="0"
         id="path1354"
         style="fill:#afefed;fill-opacity:1;fill-rule:nonzero;stroke:none"
         d="m 805.961,2027.25 c 2.305,-0.61 4.668,-1.08 7.098,-1.41 -2.391,0.36 -4.704,0.86 -6.973,1.47 l -0.125,-0.06" />
      <path
         inkscape:connector-curvature="0"
         id="path1356"
         style="fill:#4f5866;fill-opacity:1;fill-rule:nonzero;stroke:none"
         d="m 863.656,2130.64 -38.476,22.35 24.371,14.08 38.484,-22.37 -24.379,-14.06" />
      <path
         inkscape:connector-curvature="0"
         id="path1358"
         style="fill:#4f5866;fill-opacity:1;fill-rule:nonzero;stroke:none"
         d="m 905.004,2202.26 -38.477,22.35 24.379,14.08 38.485,-22.36 -24.387,-14.07" />
      <path
         inkscape:connector-curvature="0"
         id="path1360"
         style="fill:#4f5866;fill-opacity:1;fill-rule:nonzero;stroke:none"
         d="m 802.766,2095.47 -38.481,22.37 60.895,35.15 38.476,-22.35 -60.89,-35.17" />
      <path
         inkscape:connector-curvature="0"
         id="path1362"
         style="fill:#afefed;fill-opacity:1;fill-rule:nonzero;stroke:none"
         d="m 824.766,2133.59 -38.489,22.36 60.918,35.16 38.473,-22.36 -60.902,-35.16" />
      <path
         inkscape:connector-curvature="0"
         id="path1364"
         style="fill:#4f5866;fill-opacity:1;fill-rule:nonzero;stroke:none"
         d="m 844.094,2167.09 -38.481,22.35 60.914,35.17 38.477,-22.35 -60.91,-35.17" />
      <path
         inkscape:connector-curvature="0"
         id="path1366"
         style="fill:#afefed;fill-opacity:1;fill-rule:nonzero;stroke:none"
         d="m 866.145,2205.29 -38.473,22.35 60.922,35.18 38.472,-22.36 -60.921,-35.17" />
      <path
         inkscape:connector-curvature="0"
         id="path1368"
         style="fill:#4f5866;fill-opacity:1;fill-rule:nonzero;stroke:none"
         d="m 885.43,2238.69 -38.489,22.36 60.93,35.18 38.481,-22.37 -60.922,-35.17" />
      <path
         inkscape:connector-curvature="0"
         id="path1370"
         style="fill:#afefed;fill-opacity:1;fill-rule:nonzero;stroke:none"
         d="m 907.477,2276.9 -38.477,22.35 53.688,31 38.472,-22.36 -53.683,-30.99" />
      <path
         inkscape:connector-curvature="0"
         id="path1372"
         style="fill:#4f5866;fill-opacity:1;fill-rule:nonzero;stroke:none"
         d="m 925.934,2327.45 c -1.051,0.97 -2.133,1.91 -3.246,2.8 l 38.472,-22.36 c 1.113,-0.88 2.199,-1.82 3.25,-2.81 -6.398,3.73 -12.808,7.45 -19.207,11.17 -0.765,0.43 -1.765,1.02 -2.523,1.46 -0.754,0.44 -1.766,1.03 -2.52,1.47 -0.75,0.43 -1.742,1.01 -2.492,1.45 -3.172,1.84 -6.355,3.69 -9.523,5.53 -0.668,0.39 -1.598,0.83 -2.211,1.29" />
      <path
         inkscape:connector-curvature="0"
         id="path1374"
         style="fill:#4f5866;fill-opacity:1;fill-rule:nonzero;stroke:none"
         d="m 961.16,2307.89 -38.472,22.36 0.394,22.48 38.473,-22.35 -0.395,-22.49" />
      <path
         inkscape:connector-curvature="0"
         id="path1376"
         style="fill:#4f5866;fill-opacity:1;fill-rule:nonzero;stroke:none"
         d="m 962.094,2139.66 0.062,-22.23 -21.07,-12.17 -113.762,-65.68 -21.238,-12.26 -21.238,-12.26 -0.063,22.23 0.52,0.3 36.957,21.33 24.343,14.06 115.02,66.41 0.469,0.27" />
      <path
         inkscape:connector-curvature="0"
         id="path1378"
         style="fill:#4f5866;fill-opacity:1;fill-rule:nonzero;stroke:none"
         d="m 940.508,2318.22 -38.481,22.38 21.055,12.13 38.473,-22.35 -21.047,-12.16" />
      <path
         inkscape:connector-curvature="0"
         id="path1380"
         style="fill:#4f5866;fill-opacity:1;fill-rule:nonzero;stroke:none"
         d="m 926.758,2310.29 -38.477,22.35 13.746,7.96 38.481,-22.38 -13.75,-7.93" />
      <path
         inkscape:connector-curvature="0"
         id="path1382"
         style="fill:#afefed;fill-opacity:1;fill-rule:nonzero;stroke:none"
         d="m 926.758,2310.29 -38.477,22.35 5.434,9.43 38.476,-22.36 -5.433,-9.42" />
      <path
         inkscape:connector-curvature="0"
         id="path1384"
         style="fill:#afefed;fill-opacity:1;fill-rule:nonzero;stroke:none"
         d="m 885.43,2238.69 -38.489,22.36 22.059,38.2 38.477,-22.35 -22.047,-38.21" />
      <path
         inkscape:connector-curvature="0"
         id="path1386"
         style="fill:#afefed;fill-opacity:1;fill-rule:nonzero;stroke:none"
         d="m 844.094,2167.09 -38.481,22.35 22.059,38.2 38.473,-22.35 -22.051,-38.2" />
      <path
         inkscape:connector-curvature="0"
         id="path1388"
         style="fill:#afefed;fill-opacity:1;fill-rule:nonzero;stroke:none"
         d="m 802.766,2095.47 -38.481,22.37 21.992,38.11 38.489,-22.36 -22,-38.12" />
      <path
         inkscape:connector-curvature="0"
         id="path1390"
         style="fill:#4f5866;fill-opacity:1;fill-rule:nonzero;stroke:none"
         d="m 795.387,2138.97 -38.473,22.36 48.699,28.11 38.481,-22.35 -48.707,-28.12" />
      <path
         inkscape:connector-curvature="0"
         id="path1392"
         style="fill:#4f5866;fill-opacity:1;fill-rule:nonzero;stroke:none"
         d="m 836.754,2210.59 -38.477,22.36 48.664,28.1 38.489,-22.36 -48.676,-28.1" />
      <path
         inkscape:connector-curvature="0"
         id="path1394"
         style="fill:#4f5866;fill-opacity:1;fill-rule:nonzero;stroke:none"
         d="m 878.113,2282.21 -38.472,22.36 48.64,28.07 38.477,-22.35 -48.645,-28.08" />
      <path
         inkscape:connector-curvature="0"
         id="path1396"
         style="fill:#afefed;fill-opacity:1;fill-rule:nonzero;stroke:none"
         d="m 856.957,2337.44 c 16.422,5.67 31.77,6.64 45.07,3.16 l 38.481,-22.38 c -13.313,3.49 -28.653,2.53 -45.063,-3.13 -12.832,7.45 -25.656,14.89 -38.488,22.35" />
      <path
         inkscape:connector-curvature="0"
         id="path1398"
         style="fill:#afefed;fill-opacity:1;fill-rule:nonzero;stroke:none"
         d="m 802.766,2095.47 22,38.12 60.902,35.16 -22.012,-38.11 -60.89,-35.17" />
      <path
         inkscape:connector-curvature="0"
         id="path1400"
         style="fill:#afefed;fill-opacity:1;fill-rule:nonzero;stroke:none"
         d="m 927.066,2240.46 -22.062,-38.2 -60.91,-35.17 22.051,38.2 60.921,35.17" />
      <path
         inkscape:connector-curvature="0"
         id="path1402"
         style="fill:#4f5866;fill-opacity:1;fill-rule:nonzero;stroke:none"
         d="m 899.938,2339.39 -0.09,0.01 c 34.355,11.71 64,5.57 83.422,-15.26 l -0.204,0.03 c -19.644,21.03 -49.449,26.59 -83.128,15.22" />
      <path
         inkscape:connector-curvature="0"
         id="path1404"
         style="fill:#afefed;fill-opacity:1;fill-rule:nonzero;stroke:none"
         d="m 838.422,2329.26 c 6.289,3.38 12.484,6.1 18.535,8.18 12.832,-7.46 25.656,-14.9 38.488,-22.35 -6.05,-2.09 -12.246,-4.82 -18.535,-8.19 -0.601,-0.32 -1.191,-0.65 -1.789,-0.97 l -38.476,22.36 c 0.585,0.32 1.191,0.65 1.777,0.97" />
      <path
         inkscape:connector-curvature="0"
         id="path1406"
         style="fill:#afefed;fill-opacity:1;fill-rule:nonzero;stroke:none"
         d="m 874.688,2305.69 -38.477,22.35 c 0.141,0.09 0.281,0.16 0.434,0.25 l 38.476,-22.36 c -0.156,-0.09 -0.293,-0.17 -0.433,-0.24" />
      <path
         inkscape:connector-curvature="0"
         id="path1408"
         style="fill:#afefed;fill-opacity:1;fill-rule:nonzero;stroke:none"
         d="m 835.84,2327.84 c 0.121,0.07 0.246,0.13 0.371,0.2 l 38.477,-22.35 c -0.125,-0.08 -0.25,-0.15 -0.372,-0.22 -6.402,3.73 -12.808,7.46 -19.211,11.17 -6.417,3.74 -12.843,7.47 -19.265,11.2" />
      <path
         inkscape:connector-curvature="0"
         id="path1410"
         style="fill:#afefed;fill-opacity:1;fill-rule:nonzero;stroke:none"
         d="m 834.34,2326.99 c 0.508,0.28 0.996,0.57 1.5,0.85 6.422,-3.73 12.848,-7.46 19.265,-11.2 6.403,-3.71 12.809,-7.44 19.211,-11.17 -0.492,-0.27 -0.992,-0.55 -1.488,-0.85 -12.832,7.45 -25.656,14.91 -38.488,22.37" />
      <path
         inkscape:connector-curvature="0"
         id="path1412"
         style="fill:#afefed;fill-opacity:1;fill-rule:nonzero;stroke:none"
         d="m 832.496,2325.9 c 0.609,0.37 1.234,0.73 1.844,1.09 12.832,-7.46 25.656,-14.92 38.488,-22.37 -0.621,-0.35 -1.234,-0.72 -1.855,-1.08 -11.543,6.71 -26.934,15.66 -38.477,22.36" />
      <path
         inkscape:connector-curvature="0"
         id="path1414"
         style="fill:#afefed;fill-opacity:1;fill-rule:nonzero;stroke:none"
         d="m 870.527,2303.27 -38.476,22.37 c 0.14,0.08 0.297,0.16 0.445,0.26 l 38.477,-22.36 c -0.153,-0.09 -0.293,-0.18 -0.446,-0.27" />
      <path
         inkscape:connector-curvature="0"
         id="path1416"
         style="fill:#afefed;fill-opacity:1;fill-rule:nonzero;stroke:none"
         d="m 762.793,2145.61 -38.477,22.37 54.668,31.57 38.477,-22.37 -54.668,-31.57" />
      <path
         inkscape:connector-curvature="0"
         id="path1418"
         style="fill:#4f5866;fill-opacity:1;fill-rule:nonzero;stroke:none"
         d="m 770.383,2172.27 -38.481,22.36 66.375,38.32 38.477,-22.36 -66.371,-38.32" />
      <path
         inkscape:connector-curvature="0"
         id="path1420"
         style="fill:#afefed;fill-opacity:1;fill-rule:nonzero;stroke:none"
         d="m 784.773,2206.05 -38.472,22.36 74.047,42.75 38.476,-22.36 -74.051,-42.75" />
      <path
         inkscape:connector-curvature="0"
         id="path1422"
         style="fill:#4f5866;fill-opacity:1;fill-rule:nonzero;stroke:none"
         d="m 805.313,2240.17 -38.473,22.37 72.801,42.03 38.472,-22.36 -72.8,-42.04" />
      <path
         inkscape:connector-curvature="0"
         id="path1424"
         style="fill:#afefed;fill-opacity:1;fill-rule:nonzero;stroke:none"
         d="m 897.473,2315.71 -19.36,-33.5 -72.8,-42.04 c 18.109,25.74 40.082,47.58 63.421,62.01 0.621,0.39 1.207,0.75 1.793,1.09 0.153,0.09 0.293,0.18 0.446,0.27 0.621,0.36 1.234,0.73 1.855,1.08 0.625,0.36 1.235,0.71 1.86,1.07 0.14,0.07 0.277,0.15 0.433,0.24 0.598,0.32 1.188,0.65 1.789,0.97 23.348,12.53 45.391,16.1 63.598,11.32 l -13.75,-7.93 5.433,9.42 c -10.589,1.25 -22.281,0.05 -34.718,-4" />
      <path
         inkscape:connector-curvature="0"
         id="path1426"
         style="fill:#afefed;fill-opacity:1;fill-rule:nonzero;stroke:none"
         d="m 830.25,2324.55 c 0.629,0.38 1.211,0.73 1.801,1.09 l 38.476,-22.37 c -0.586,-0.34 -1.172,-0.7 -1.793,-1.09 -0.058,-0.03 -0.105,-0.07 -0.156,-0.09 -12.762,7.42 -25.547,14.84 -38.312,22.27 12.765,-7.43 25.55,-14.85 38.312,-22.27 -23.273,-14.45 -45.187,-36.23 -63.265,-61.92 l -38.473,22.37 c 18.105,25.73 40.074,47.56 63.41,62.01" />
      <path
         inkscape:connector-curvature="0"
         id="path1428"
         style="fill:#4f5866;fill-opacity:1;fill-rule:nonzero;stroke:none"
         d="m 784.309,2205.78 -38.481,22.36 -0.058,22.23 38.476,-22.35 0.063,-22.24" />
      <path
         inkscape:connector-curvature="0"
         id="path1430"
         style="fill:#afefed;fill-opacity:1;fill-rule:nonzero;stroke:none"
         d="m 731.902,2194.63 c 3.965,11.5 8.817,22.82 14.399,33.78 l 38.472,-22.36 c -5.578,-10.96 -10.418,-22.3 -14.39,-33.78 -11.539,6.71 -26.93,15.65 -38.481,22.36" />
      <path
         inkscape:connector-curvature="0"
         id="path1432"
         style="fill:#4f5866;fill-opacity:1;fill-rule:nonzero;stroke:none"
         d="m 784.246,2228.02 -38.476,22.35 21.07,12.17 38.473,-22.37 -21.067,-12.15" />
      <path
         inkscape:connector-curvature="0"
         id="path1434"
         style="fill:#4f5866;fill-opacity:1;fill-rule:nonzero;stroke:none"
         d="m 961.555,2330.38 0.062,-22.23 -0.457,-0.26 -53.683,-30.99 -48.653,-28.1 -74.051,-42.75 -0.464,-0.27 -0.063,22.24 21.067,12.15 72.8,42.04 48.645,28.08 13.75,7.93 21.047,12.16" />
      <path
         inkscape:connector-curvature="0"
         id="path1436"
         style="fill:#4f5866;fill-opacity:1;fill-rule:nonzero;stroke:none"
         d="m 970.742,2287.95 4.949,2.85 c -0.558,0.95 -1.121,1.86 -1.703,2.76 -1.644,2.54 -3.422,4.92 -5.316,7.11 -2.328,2.68 -4.832,5.08 -7.512,7.22 l 0.395,22.49 -21.047,-12.16 c -18.207,4.78 -40.25,1.21 -63.582,-11.31 -0.617,-0.33 -1.207,-0.66 -1.805,-0.98 -1.058,-0.6 -1.668,-0.95 -2.293,-1.31 -0.621,-0.35 -1.234,-0.72 -1.855,-1.08 -1.032,-0.61 -1.618,-0.97 -2.203,-1.33 -23.375,-14.46 -45.348,-36.3 -63.457,-62.04 l -21.067,-12.15 0.063,-22.24 c -5.114,-10.69 -9.954,-22.03 -13.926,-33.51 l 66.371,38.32 48.676,28.1 60.922,35.17 z m 30.708,3.87 2.6,-6.92 -20.648,-11.91 -31.941,-18.45 -24.395,-14.08 -60.921,-35.17 -48.684,-28.11 -54.668,-31.57 -20.023,-11.55 2.128,10.2 1.801,6.91 c 18.438,71.19 67.727,140.68 123.207,174.06 1.25,0.75 2.059,1.23 2.852,1.7 0.812,0.46 1.605,0.91 2.414,1.36 55.941,30.91 105.441,18.48 124.301,-31.18 l 1.977,-5.29" />
      <path
         inkscape:connector-curvature="0"
         id="path1438"
         style="fill:#afefed;fill-opacity:1;fill-rule:nonzero;stroke:none"
         d="m 961.156,2307.87 -53.679,-30.98 -22.055,-38.22 60.922,35.18 17.914,31.04 c -1.051,0.99 -1.996,2.12 -3.102,2.98 z m 3.196,-2.82 -0.094,-0.16 c 1.5,-1.39 3.039,-2.66 4.402,-4.23 -1.379,1.53 -2.832,2.97 -4.308,4.39" />
      <path
         inkscape:connector-curvature="0"
         id="path1440"
         style="fill:#4f5866;fill-opacity:1;fill-rule:nonzero;stroke:none"
         d="m 744.898,2144.26 -38.476,22.37 1.801,6.91 38.476,-22.37 -1.801,-6.91" />
      <path
         inkscape:connector-curvature="0"
         id="path1442"
         style="fill:#afefed;fill-opacity:1;fill-rule:nonzero;stroke:none"
         d="m 844.316,2097.13 -22.054,-38.21 -36.957,-21.33 c -5.625,4.5 -10.516,10.21 -14.528,17.08 1.407,-2.37 2.93,-4.62 4.555,-6.73 l 8.098,14.04 60.886,35.15" />
      <path
         inkscape:connector-curvature="0"
         id="path1444"
         style="fill:#4f5866;fill-opacity:1;fill-rule:nonzero;stroke:none"
         d="m 758.844,2095.54 c 0.664,-8.37 2.074,-16.05 4.144,-23.03 l -20.015,-11.56 c -2.528,10.28 -3.875,21.74 -3.91,34.33 -0.04,12.6 1.25,25.61 3.707,38.78 l 20.023,11.55 c -2.039,-9.37 -3.395,-18.67 -4.02,-27.78 l -10.046,-5.8 0.062,-22.3 10.055,5.81" />
      <path
         inkscape:connector-curvature="0"
         id="path1446"
         style="fill:#afefed;fill-opacity:1;fill-rule:nonzero;stroke:none"
         d="m 776.047,2105.46 -14.824,-25.68 c 0.531,-2.49 1.156,-4.89 1.847,-7.22 l -0.082,-0.05 c -2.07,6.98 -3.48,14.66 -4.144,23.03 l 17.203,9.92" />
      <path
         inkscape:connector-curvature="0"
         id="path1448"
         style="fill:#4f5866;fill-opacity:1;fill-rule:nonzero;stroke:none"
         d="m 875.625,2328.53 c 8.266,4.57 16.395,8.18 24.313,10.86 l -0.09,0.01 c -7.852,-2.68 -15.953,-6.29 -24.223,-10.87" />
      <path
         inkscape:connector-curvature="0"
         id="path1450"
         style="fill:#4f5866;fill-opacity:1;fill-rule:nonzero;stroke:none"
         d="m 997.668,2255.75 0.059,-22.3 -10.11,-5.83 -77.582,-44.8 -24.367,-14.07 -60.902,-35.16 -48.719,-28.13 -17.203,-9.92 -10.055,-5.81 -0.062,22.3 10.046,5.8 36.614,21.14 48.707,28.12 60.91,35.17 24.387,14.07 58.164,33.58 10.113,5.84" />
      <path
         inkscape:connector-curvature="0"
         id="path1452"
         style="fill:#afefed;fill-opacity:1;fill-rule:nonzero;stroke:none"
         d="m 817.461,2177.18 -22.074,-38.21 -36.614,-21.14 c 0.625,9.11 1.981,18.41 4.02,27.78 l 54.668,31.57" />
      <path
         inkscape:connector-curvature="0"
         id="path1454"
         style="fill:#afefed;fill-opacity:1;fill-rule:nonzero;stroke:none"
         d="m 858.824,2248.8 -22.07,-38.21 -66.371,-38.32 c 3.972,11.48 8.812,22.82 14.39,33.78 l 74.051,42.75" />
      <path
         inkscape:connector-curvature="0"
         id="path1456"
         style="fill:#afefed;fill-opacity:1;fill-rule:nonzero;stroke:none"
         d="m 1206.38,2280.7 22.06,38.21 92.49,53.39 c -3.95,-11.46 -8.79,-22.79 -14.36,-33.76 l -100.19,-57.84" />
      <path
         inkscape:connector-curvature="0"
         id="path1458"
         style="fill:#afefed;fill-opacity:1;fill-rule:nonzero;stroke:none"
         d="m 1174.04,2224.68 13.05,22.62 98.95,57.11 c -18.1,-25.7 -40.05,-47.53 -63.36,-61.95 -0.71,-0.45 -1.28,-0.79 -1.83,-1.12 -0.14,-0.09 -0.3,-0.18 -0.45,-0.28 -0.62,-0.36 -1.23,-0.72 -1.86,-1.08 -0.61,-0.36 -1.23,-0.7 -1.85,-1.05 -0.16,-0.08 -0.3,-0.17 -0.46,-0.25 -0.55,-0.32 -1.1,-0.61 -1.65,-0.91 -14.29,-7.65 -27.93,-11.94 -40.54,-13.09" />
      <path
         inkscape:connector-curvature="0"
         id="path1460"
         style="fill:#afefed;fill-opacity:1;fill-rule:nonzero;stroke:none"
         d="m 1204.06,2304.84 -22.06,-38.22 -51.78,-29.9 c -5.63,4.51 -10.52,10.21 -14.54,17.08 3.08,-5.09 6.61,-9.57 10.57,-13.41 l 16.92,29.28 60.89,35.17" />
      <path
         inkscape:connector-curvature="0"
         id="path1462"
         style="fill:#afefed;fill-opacity:1;fill-rule:nonzero;stroke:none"
         d="m 1247.79,2352.41 22,38.12 62.8,36.26 c -0.61,-9.1 -1.96,-18.38 -4,-27.73 l -80.8,-46.65" />
      <path
         inkscape:connector-curvature="0"
         id="path1464"
         style="fill:#afefed;fill-opacity:1;fill-rule:nonzero;stroke:none"
         d="m 1289.14,2424.03 22.05,38.21 17.18,9.91 c 2.08,-6.99 3.5,-14.69 4.15,-23.07 l -43.38,-25.05" />
      <path
         inkscape:connector-curvature="0"
         id="path1466"
         style="fill:#afefed;fill-opacity:1;fill-rule:nonzero;stroke:none"
         d="m 1245.23,2446.42 22.07,38.21 38.81,22.41 c 3.37,-2.7 6.47,-5.84 9.29,-9.41 l -9.27,-16.05 -60.9,-35.16" />
      <path
         inkscape:connector-curvature="0"
         id="path1468"
         style="fill:#afefed;fill-opacity:1;fill-rule:nonzero;stroke:none"
         d="m 1162.52,2303.18 22.01,38.12 60.89,35.16 -22.01,-38.12 -60.89,-35.16" />
      <path
         inkscape:connector-curvature="0"
         id="path1470"
         style="fill:#afefed;fill-opacity:1;fill-rule:nonzero;stroke:none"
         d="m 1286.84,2448.18 -22.07,-38.22 -60.89,-35.16 22.07,38.22 60.89,35.16" />
      <path
         inkscape:connector-curvature="0"
         id="path1472"
         style="fill:#afefed;fill-opacity:1;fill-rule:nonzero;stroke:none"
         d="m 1218.55,2456.49 -22.07,-38.21 -81.12,-46.84 c 3.95,11.47 8.79,22.8 14.36,33.77 l 88.83,51.28" />
      <path
         inkscape:connector-curvature="0"
         id="path1474"
         style="fill:#afefed;fill-opacity:1;fill-rule:nonzero;stroke:none"
         d="m 1162.71,2233.21 -4.7,-8.12 c 2.84,-0.4 5.73,-0.66 8.69,-0.73 -5.51,0.04 -10.8,0.73 -15.8,2.03 l 11.81,6.82" />
      <path
         inkscape:connector-curvature="0"
         id="path1476"
         style="fill:#afefed;fill-opacity:1;fill-rule:nonzero;stroke:none"
         d="m 1103.82,2294.7 31.96,18.45 -22.02,-38.12 -5.81,-3.36 c -2.07,6.98 -3.47,14.67 -4.13,23.03" />
      <path
         inkscape:connector-curvature="0"
         id="path1478"
         style="fill:#afefed;fill-opacity:1;fill-rule:nonzero;stroke:none"
         d="m 1177.2,2384.87 -22.08,-38.22 -51.37,-29.65 c 0.61,9.11 1.98,18.41 4,27.79 l 69.45,40.08" />
      <path
         inkscape:connector-curvature="0"
         id="path1480"
         style="fill:#afefed;fill-opacity:1;fill-rule:nonzero;stroke:none"
         d="m 1254.01,2517.88 -16.16,-27.99 -87.59,-50.56 c 18.12,25.73 40.12,47.6 63.44,62.02 0.61,0.38 1.21,0.74 1.81,1.1 0.13,0.08 0.28,0.17 0.43,0.26 0.61,0.36 1.24,0.73 1.86,1.08 0.62,0.37 1.24,0.71 1.85,1.07 0.14,0.07 0.3,0.16 0.44,0.24 0.59,0.33 1.19,0.64 1.79,0.96 23.35,12.53 45.39,16.11 63.58,11.33 -9.65,2.37 -20.17,2.64 -31.45,0.49" />
      <path
         inkscape:connector-curvature="0"
         id="path1482"
         style="fill:#afefed;fill-opacity:1;fill-rule:nonzero;stroke:none"
         d="m 819.059,2025.28 8.265,14.3 113.762,65.68 c -18.113,-25.72 -40.07,-47.54 -63.371,-61.97 -0.727,-0.45 -1.274,-0.79 -1.836,-1.12 -0.156,-0.09 -0.305,-0.18 -0.453,-0.27 -0.617,-0.37 -1.242,-0.73 -1.852,-1.1 -0.625,-0.35 -1.234,-0.69 -1.851,-1.04 -0.145,-0.08 -0.305,-0.17 -0.469,-0.26 -0.539,-0.29 -1.082,-0.59 -1.621,-0.89 -18.149,-9.72 -35.317,-14.02 -50.574,-13.33" />
      <path
         inkscape:connector-curvature="0"
         id="path1484"
         style="fill:#afefed;fill-opacity:1;fill-rule:nonzero;stroke:none"
         d="m 846.605,2072.98 22.071,38.22 107.344,61.97 c -3.965,-11.48 -8.813,-22.81 -14.395,-33.78 l -115.02,-66.41" />
      <path
         inkscape:connector-curvature="0"
         id="path1486"
         style="fill:#afefed;fill-opacity:1;fill-rule:nonzero;stroke:none"
         d="m 888.035,2144.7 22,38.12 77.582,44.8 c -0.613,-9.1 -1.965,-18.38 -3.988,-27.73 l -95.594,-55.19" />
      <path
         inkscape:connector-curvature="0"
         id="path1488"
         style="fill:#afefed;fill-opacity:1;fill-rule:nonzero;stroke:none"
         d="m 929.391,2216.33 22.07,38.21 31.941,18.45 c 2.082,-7.01 3.493,-14.7 4.153,-23.08 l -58.164,-33.58" />
      <path
         inkscape:connector-curvature="0"
         id="path1490"
         style="fill:#afefed;fill-opacity:1;fill-rule:nonzero;stroke:none"
         d="m 973.988,2293.56 c 0.582,-0.9 1.145,-1.81 1.703,-2.76 l -4.949,-2.85 3.246,5.61" />
      <path
         inkscape:connector-curvature="0"
         id="path1492"
         style="fill:#afefed;fill-opacity:1;fill-rule:nonzero;stroke:none"
         d="m 805.961,2027.25 c 2.305,-0.61 4.668,-1.08 7.098,-1.41 -2.391,0.36 -4.704,0.86 -6.973,1.47 l -0.125,-0.06" />
      <path
         inkscape:connector-curvature="0"
         id="path1494"
         style="fill:#afefed;fill-opacity:1;fill-rule:nonzero;stroke:none"
         d="m 802.766,2095.47 22,38.12 60.902,35.16 -22.012,-38.11 -60.89,-35.17" />
      <path
         inkscape:connector-curvature="0"
         id="path1496"
         style="fill:#afefed;fill-opacity:1;fill-rule:nonzero;stroke:none"
         d="m 927.066,2240.46 -22.062,-38.2 -60.91,-35.17 22.051,38.2 60.921,35.17" />
      <path
         inkscape:connector-curvature="0"
         id="path1498"
         style="fill:#afefed;fill-opacity:1;fill-rule:nonzero;stroke:none"
         d="m 897.473,2315.71 -19.36,-33.5 -72.8,-42.04 c 18.109,25.74 40.082,47.58 63.421,62.01 0.621,0.39 1.207,0.75 1.793,1.09 0.153,0.09 0.293,0.18 0.446,0.27 0.621,0.36 1.234,0.73 1.855,1.08 0.625,0.36 1.235,0.71 1.86,1.07 0.14,0.07 0.277,0.15 0.433,0.24 0.598,0.32 1.188,0.65 1.789,0.97 23.348,12.53 45.391,16.1 63.598,11.32 l -13.75,-7.93 5.433,9.42 c -10.589,1.25 -22.281,0.05 -34.718,-4" />
      <path
         inkscape:connector-curvature="0"
         id="path1500"
         style="fill:#afefed;fill-opacity:1;fill-rule:nonzero;stroke:none"
         d="m 961.156,2307.87 -53.679,-30.98 -22.055,-38.22 60.922,35.18 17.914,31.04 c -1.051,0.99 -1.996,2.12 -3.102,2.98 z m 3.196,-2.82 -0.094,-0.16 c 1.5,-1.39 3.039,-2.66 4.402,-4.23 -1.379,1.53 -2.832,2.97 -4.308,4.39" />
      <path
         inkscape:connector-curvature="0"
         id="path1502"
         style="fill:#afefed;fill-opacity:1;fill-rule:nonzero;stroke:none"
         d="m 844.316,2097.13 -22.054,-38.21 -36.957,-21.33 c -5.625,4.5 -10.516,10.21 -14.528,17.08 1.407,-2.37 2.93,-4.62 4.555,-6.73 l 8.098,14.04 60.886,35.15" />
      <path
         inkscape:connector-curvature="0"
         id="path1504"
         style="fill:#afefed;fill-opacity:1;fill-rule:nonzero;stroke:none"
         d="m 776.047,2105.46 -14.824,-25.68 c 0.531,-2.49 1.156,-4.89 1.847,-7.22 l -0.082,-0.05 c -2.07,6.98 -3.48,14.66 -4.144,23.03 l 17.203,9.92" />
      <path
         inkscape:connector-curvature="0"
         id="path1506"
         style="fill:#afefed;fill-opacity:1;fill-rule:nonzero;stroke:none"
         d="m 817.461,2177.18 -22.074,-38.21 -36.614,-21.14 c 0.625,9.11 1.981,18.41 4.02,27.78 l 54.668,31.57" />
      <path
         inkscape:connector-curvature="0"
         id="path1508"
         style="fill:#afefed;fill-opacity:1;fill-rule:nonzero;stroke:none"
         d="m 858.824,2248.8 -22.07,-38.21 -66.371,-38.32 c 3.972,11.48 8.812,22.82 14.39,33.78 l 74.051,42.75" />
      <path
         inkscape:connector-curvature="0"
         id="path1510"
         style="fill:#4f5866;fill-opacity:1;fill-rule:nonzero;stroke:none"
         d="m 753.375,2271.16 c 12.863,-7.38 25.648,-14.91 38.477,-22.36 -0.207,-0.3 -0.411,-0.59 -0.618,-0.9 -12.82,7.46 -25.652,14.91 -38.476,22.37 0.207,0.29 0.41,0.59 0.617,0.89" />
      <path
         inkscape:connector-curvature="0"
         id="path1512"
         style="fill:#4f5866;fill-opacity:1;fill-rule:nonzero;stroke:none"
         d="m 938.793,2344.76 c 3.133,-0.26 6.227,-0.6 9.203,-1.21 -2.984,0.6 -6.058,0.97 -9.203,1.21" />
      <path
         inkscape:connector-curvature="0"
         id="path1514"
         style="fill:#4f5866;fill-opacity:1;fill-rule:nonzero;stroke:none"
         d="m 929.656,2344.92 c 1.395,0.04 2.778,0.05 4.149,0.02 -1.371,0.02 -2.746,0.02 -4.149,-0.02" />
      <path
         inkscape:connector-curvature="0"
         id="path1516"
         style="fill:#4f5866;fill-opacity:1;fill-rule:nonzero;stroke:none"
         d="m 892.82,2336.63 c -2.066,-0.84 -4.132,-1.69 -6.222,-2.65 2.086,0.95 4.164,1.82 6.222,2.65" />
      <path
         inkscape:connector-curvature="0"
         id="path1518"
         style="fill:#3b4350;fill-opacity:1;fill-rule:nonzero;stroke:none"
         d="m 875.602,2328.52 -0.082,0.06 0.101,-0.05 c -0.012,0 -0.012,-0.01 -0.019,-0.01 z m 92.617,7.68 -38.489,22.37 c -3.585,2.08 -7.386,3.83 -11.371,5.2 1.211,-0.7 2.426,-1.41 3.645,-2.11 -0.766,0.45 -1.52,0.88 -2.285,1.32 -0.457,0.27 -0.891,0.57 -1.36,0.79 -0.363,0.12 -0.726,0.25 -1.093,0.37 -0.871,0.29 -1.758,0.56 -2.653,0.81 1.071,-0.63 2.149,-1.26 3.223,-1.88 -0.578,0.34 -1,0.58 -1.012,0.59 -0.738,0.43 -1.426,0.95 -2.211,1.29 -21.738,6.12 -48.508,1.97 -77.472,-14.06 l 0.031,-0.03 c -0.156,-0.09 -0.32,-0.11 -0.473,-0.21 -0.82,-0.45 -1.617,-0.91 -2.418,-1.36 -0.812,-0.48 -1.621,-0.95 -2.871,-1.7 -0.105,-0.05 -0.215,-0.14 -0.32,-0.21 -0.758,-0.45 -1.512,-0.9 -2.258,-1.38 -0.758,-0.46 -1.488,-0.93 -2.234,-1.41 -0.735,-0.46 -1.453,-0.93 -2.168,-1.41 -0.59,-0.4 -1.168,-0.84 -1.758,-1.24 -1.473,-0.99 -2.914,-2.04 -4.375,-3.08 -1.996,-1.43 -3.988,-2.88 -5.957,-4.39 -1.164,-0.9 -2.32,-1.83 -3.473,-2.75 -2.258,-1.8 -4.496,-3.64 -6.711,-5.55 -0.863,-0.74 -1.718,-1.51 -2.578,-2.27 -2.473,-2.2 -4.922,-4.45 -7.336,-6.77 -0.621,-0.59 -1.234,-1.19 -1.847,-1.79 -2.614,-2.56 -5.18,-5.17 -7.707,-7.86 -0.461,-0.47 -0.915,-0.96 -1.372,-1.46 -2.64,-2.83 -5.23,-5.74 -7.777,-8.71 -0.363,-0.43 -0.734,-0.85 -1.101,-1.29 -2.598,-3.07 -5.137,-6.19 -7.637,-9.38 -0.321,-0.41 -0.625,-0.81 -0.949,-1.22 -2.5,-3.23 -4.93,-6.51 -7.313,-9.85 -0.301,-0.44 -0.621,-0.87 -0.934,-1.3 -0.726,-1.05 -1.503,-2.05 -2.23,-3.11 0.031,-0.02 0.063,-0.03 0.102,-0.05 -0.211,-0.3 -0.395,-0.61 -0.602,-0.91 -0.031,0.03 -0.078,0.04 -0.117,0.07 -1.215,-1.79 -2.403,-3.57 -3.586,-5.38 -0.817,-1.25 -1.516,-2.58 -2.32,-3.84 -2.844,-4.47 -5.59,-9.01 -8.219,-13.63 -1.422,-2.51 -2.774,-5.03 -4.121,-7.56 -2.321,-4.33 -4.539,-8.69 -6.657,-13.12 -1.296,-2.72 -2.527,-5.45 -3.75,-8.19 -1.894,-4.26 -3.683,-8.57 -5.378,-12.9 -0.852,-2.16 -1.739,-4.31 -2.532,-6.49 -1.937,-5.32 -3.652,-10.68 -5.25,-16.05 -0.41,-1.36 -0.949,-2.7 -1.332,-4.06 -1.175,-4.14 -2.23,-8.28 -3.191,-12.42 l -2.137,-10.22 c -2.461,-13.16 -3.738,-26.18 -3.699,-38.77 0.035,-12.58 1.086,-24.22 3.598,-34.51 l 2.504,-7.59 c 6.531,-20.23 18.019,-35.11 33.07,-43.86 11.535,-6.7 26.926,-15.65 38.472,-22.36 -0.394,0.23 -0.753,0.52 -1.14,0.75 0.367,-0.21 0.781,-0.46 1.14,-0.67 -13.66,7.94 -24.457,21.02 -31.234,38.97 l -0.086,0.05 c -0.597,1.57 -1.211,3.12 -1.75,4.76 l -2.5,7.59 c -2.527,10.28 -3.562,21.92 -3.597,34.51 -0.04,12.6 1.25,25.61 3.707,38.78 l 2.128,10.2 c 0.536,2.3 1.172,4.61 1.774,6.9 l 0.023,-0.01 c 1.02,3.93 2.16,7.85 3.364,11.76 0.367,1.2 0.746,2.38 1.129,3.57 1.16,3.57 2.347,7.15 3.636,10.69 0.379,1.04 0.801,2.07 1.199,3.1 2.489,6.59 5.223,13.11 8.176,19.57 0.66,1.42 1.262,2.85 1.93,4.25 1.355,2.86 2.797,5.67 4.238,8.47 1.028,2.01 2.059,4.02 3.133,6 1.32,2.45 2.668,4.86 4.043,7.27 2.926,5.12 5.957,10.17 9.152,15.13 2.477,3.81 5.016,7.59 7.625,11.28 0.094,0.12 0.168,0.23 0.25,0.35 2.594,3.65 5.243,7.23 7.957,10.73 0.161,0.19 0.305,0.38 0.446,0.57 2.664,3.41 5.367,6.74 8.136,10 0.219,0.25 0.446,0.51 0.672,0.78 2.684,3.14 5.422,6.21 8.203,9.19 0.329,0.35 0.661,0.7 0.973,1.05 2.672,2.84 5.383,5.58 8.125,8.27 0.484,0.47 0.961,0.94 1.449,1.41 2.571,2.46 5.184,4.86 7.809,7.19 0.691,0.61 1.383,1.22 2.074,1.83 2.414,2.09 4.859,4.1 7.32,6.06 0.942,0.74 1.875,1.5 2.817,2.22 2.23,1.72 4.476,3.36 6.734,4.97 1.195,0.84 2.363,1.69 3.559,2.5 3.004,2.05 6.019,4.03 9.062,5.86 1.25,0.76 2.043,1.24 2.844,1.71 h 0.008 c 0.226,0.12 0.457,0.25 0.676,0.37 0.574,0.33 1.16,0.66 1.734,0.98 1.187,0.65 2.352,1.19 3.531,1.8 -0.902,-0.47 -1.773,-0.83 -2.679,-1.33 -0.106,-0.06 -0.215,-0.12 -0.321,-0.17 0.106,0.06 0.223,0.12 0.332,0.18 0.989,0.54 1.949,0.94 2.938,1.47 -0.09,-0.05 -0.176,-0.1 -0.27,-0.15 2.653,1.4 5.281,2.7 7.899,3.9 -0.035,-0.01 -0.051,-0.02 -0.075,-0.02 2.129,0.97 4.239,1.83 6.329,2.68 0.644,0.26 1.285,0.49 1.933,0.74 0.625,0.24 1.246,0.48 1.86,0.72 2.531,0.92 5.043,1.81 7.535,2.54 0.523,0.16 1.023,0.26 1.55,0.41 5.516,1.55 10.907,2.66 16.149,3.29 -2.461,-0.28 -4.899,-0.54 -7.43,-1.03 2.617,0.53 5.121,0.77 7.66,1.07 -0.078,-0.02 -0.16,-0.03 -0.23,-0.04 0.168,0.02 0.348,0.05 0.516,0.07 0.234,0.03 0.46,0.05 0.687,0.08 2.199,0.24 4.359,0.35 6.504,0.42 1.437,0.05 2.855,0.07 4.262,0.03 1.664,-0.02 3.324,-0.06 4.945,-0.18 -0.477,0.04 -0.91,0.15 -1.391,0.18 5.442,-0.31 10.735,-0.96 15.684,-2.36 -1.367,0.38 -2.852,0.52 -4.273,0.82 6.929,-1.49 13.421,-3.89 19.371,-7.35 l -2.813,1.63 c 0.945,-0.49 1.926,-0.94 2.848,-1.48" />
      <path
         inkscape:connector-curvature="0"
         id="path1520"
         style="fill:#4f5866;fill-opacity:1;fill-rule:nonzero;stroke:none"
         d="m 744.898,2144.26 c 16.254,70.46 64.629,143.35 122.411,179.39 -54.418,-33.99 -102.45,-102.4 -120.61,-172.48 l -1.801,-6.91" />
      <path
         inkscape:connector-curvature="0"
         id="path1522"
         style="fill:#d7f7f6;fill-opacity:1;fill-rule:nonzero;stroke:none"
         d="m 1158.01,2225.09 4.7,8.12 24.38,14.09 -13.05,-22.62 c -2.48,-0.22 -4.94,-0.32 -7.34,-0.32 -2.96,0.07 -5.85,0.33 -8.69,0.73" />
      <path
         inkscape:connector-curvature="0"
         id="path1524"
         style="fill:#d7f7f6;fill-opacity:1;fill-rule:nonzero;stroke:none"
         d="m 1223.41,2338.34 22.01,38.12 24.37,14.07 -22,-38.12 -24.38,-14.07" />
      <path
         inkscape:connector-curvature="0"
         id="path1526"
         style="fill:#d7f7f6;fill-opacity:1;fill-rule:nonzero;stroke:none"
         d="m 1264.77,2409.96 22.07,38.22 24.35,14.06 -22.05,-38.21 -24.37,-14.07" />
      <path
         inkscape:connector-curvature="0"
         id="path1528"
         style="fill:#d7f7f6;fill-opacity:1;fill-rule:nonzero;stroke:none"
         d="m 1182,2266.62 22.06,38.22 24.38,14.07 -22.06,-38.21 -24.38,-14.08" />
      <path
         inkscape:connector-curvature="0"
         id="path1530"
         style="fill:#d7f7f6;fill-opacity:1;fill-rule:nonzero;stroke:none"
         d="m 1254.01,2517.88 c 11.28,2.15 21.8,1.88 31.34,-0.56 l -47.5,-27.43 16.16,27.99" />
      <path
         inkscape:connector-curvature="0"
         id="path1532"
         style="fill:#d7f7f6;fill-opacity:1;fill-rule:nonzero;stroke:none"
         d="m 1196.48,2418.28 22.07,38.21 48.75,28.14 -22.07,-38.21 -48.75,-28.14" />
      <path
         inkscape:connector-curvature="0"
         id="path1534"
         style="fill:#d7f7f6;fill-opacity:1;fill-rule:nonzero;stroke:none"
         d="m 1155.12,2346.65 22.08,38.22 48.75,28.15 -22.07,-38.22 -48.76,-28.15" />
      <path
         inkscape:connector-curvature="0"
         id="path1536"
         style="fill:#d7f7f6;fill-opacity:1;fill-rule:nonzero;stroke:none"
         d="m 1320.6,2489.94 -14.47,-8.36 9.26,16.05 c 0.08,-0.11 0.17,-0.21 0.24,-0.31 0.13,-0.16 0.26,-0.34 0.4,-0.51 1.62,-2.15 3.15,-4.43 4.57,-6.87" />
      <path
         inkscape:connector-curvature="0"
         id="path1538"
         style="fill:#d7f7f6;fill-opacity:1;fill-rule:nonzero;stroke:none"
         d="m 1126.25,2240.39 c -3.96,3.84 -7.49,8.32 -10.51,13.45 l 27.43,15.83 -16.92,-29.28" />
      <path
         inkscape:connector-curvature="0"
         id="path1540"
         style="fill:#d7f7f6;fill-opacity:1;fill-rule:nonzero;stroke:none"
         d="m 1113.76,2275.03 22.02,38.12 48.75,28.15 -22.01,-38.12 -48.76,-28.15" />
      <path
         inkscape:connector-curvature="0"
         id="path1542"
         style="fill:#d7f7f6;fill-opacity:1;fill-rule:nonzero;stroke:none"
         d="m 813.059,2025.84 c -2.391,0.36 -4.704,0.86 -6.973,1.47 l 21.238,12.27 -8.265,-14.3 c -2.032,0.1 -4.036,0.29 -6,0.56" />
      <path
         inkscape:connector-curvature="0"
         id="path1544"
         style="fill:#d7f7f6;fill-opacity:1;fill-rule:nonzero;stroke:none"
         d="m 822.262,2058.92 22.054,38.21 24.36,14.07 -22.071,-38.22 -24.343,-14.06" />
      <path
         inkscape:connector-curvature="0"
         id="path1546"
         style="fill:#d7f7f6;fill-opacity:1;fill-rule:nonzero;stroke:none"
         d="m 775.332,2047.94 c -1.625,2.11 -3.148,4.36 -4.551,6.74 l 12.649,7.3 -8.098,-14.04" />
      <path
         inkscape:connector-curvature="0"
         id="path1548"
         style="fill:#d7f7f6;fill-opacity:1;fill-rule:nonzero;stroke:none"
         d="m 863.656,2130.64 22.012,38.11 24.367,14.07 -22,-38.12 -24.379,-14.06" />
      <path
         inkscape:connector-curvature="0"
         id="path1550"
         style="fill:#d7f7f6;fill-opacity:1;fill-rule:nonzero;stroke:none"
         d="m 905.004,2202.26 22.062,38.2 24.395,14.08 -22.07,-38.21 -24.387,-14.07" />
      <path
         inkscape:connector-curvature="0"
         id="path1552"
         style="fill:#d7f7f6;fill-opacity:1;fill-rule:nonzero;stroke:none"
         d="m 968.672,2300.67 c 1.894,-2.19 3.672,-4.57 5.316,-7.11 l -3.246,-5.61 -24.39,-14.09 18.011,31.19 c 1.489,-1.4 2.926,-2.84 4.309,-4.38" />
      <path
         inkscape:connector-curvature="0"
         id="path1554"
         style="fill:#d7f7f6;fill-opacity:1;fill-rule:nonzero;stroke:none"
         d="m 897.473,2315.71 c 12.437,4.05 24.129,5.25 34.718,4 l -5.433,-9.42 -48.645,-28.08 19.36,33.5" />
      <path
         inkscape:connector-curvature="0"
         id="path1556"
         style="fill:#d7f7f6;fill-opacity:1;fill-rule:nonzero;stroke:none"
         d="m 859.223,2337.91 -0.246,0.15 -0.133,-0.23 c 0.133,0.04 0.25,0.04 0.379,0.08" />
      <path
         inkscape:connector-curvature="0"
         id="path1558"
         style="fill:#d7f7f6;fill-opacity:1;fill-rule:nonzero;stroke:none"
         d="m 761.223,2079.78 14.824,25.68 48.719,28.13 -22,-38.12 -39.696,-22.91 c -0.691,2.33 -1.316,4.73 -1.847,7.22" />
      <path
         inkscape:connector-curvature="0"
         id="path1560"
         style="fill:#d7f7f6;fill-opacity:1;fill-rule:nonzero;stroke:none"
         d="m 795.387,2138.97 22.074,38.21 48.684,28.11 -22.051,-38.2 -48.707,-28.12" />
      <path
         inkscape:connector-curvature="0"
         id="path1562"
         style="fill:#d7f7f6;fill-opacity:1;fill-rule:nonzero;stroke:none"
         d="m 836.754,2210.59 22.07,38.21 48.653,28.1 -22.047,-38.21 -48.676,-28.1" />
      <path
         inkscape:connector-curvature="0"
         id="path1564"
         style="fill:#586577;fill-opacity:1;fill-rule:nonzero;stroke:none"
         d="m 268.152,2365.2 19.246,11.18 c 4.692,2.73 11.176,2.32 18.34,-1.81 L 286.5,2363.39 c -7.164,4.13 -13.648,4.53 -18.348,1.81" />
      <path
         inkscape:connector-curvature="0"
         id="path1566"
         style="fill:#586577;fill-opacity:1;fill-rule:nonzero;stroke:none"
         d="m 286.5,2363.39 19.238,11.18 91.789,-53 -19.234,-11.18 -91.793,53" />
      <path
         inkscape:connector-curvature="0"
         id="path1568"
         style="fill:#4f5866;fill-opacity:1;fill-rule:nonzero;stroke:none"
         d="m 378.293,2310.39 c 8.199,-4.73 15.492,-13.32 20.207,-22.89 3.496,-7.11 5.578,-14.74 5.559,-21.74 -0.016,-7.12 -2.157,-12.42 -5.696,-15.49 -4.758,-4.13 -12.058,-4.28 -20.242,0.45 l -91.789,52.99 c -14.293,8.25 -25.812,28.21 -25.769,44.63 0.046,16.68 11.644,23.3 25.937,15.05 l 91.793,-53" />
      <path
         inkscape:connector-curvature="0"
         id="path1570"
         style="fill:#586577;fill-opacity:1;fill-rule:nonzero;stroke:none"
         d="m 415.703,2260.09 -19.238,-11.17 c 0.668,0.38 1.301,0.83 1.898,1.35 3.539,3.07 5.68,8.37 5.696,15.49 0.019,7 -2.063,14.63 -5.559,21.74 -4.715,9.57 -12.008,18.16 -20.207,22.89 l 19.234,11.18 c 8.211,-4.73 15.5,-13.32 20.211,-22.89 3.5,-7.1 5.578,-14.73 5.559,-21.74 -0.02,-7.13 -2.149,-12.41 -5.699,-15.49 -0.59,-0.51 -1.227,-0.96 -1.895,-1.36" />
      <path
         inkscape:connector-curvature="0"
         id="path1572"
         style="fill:#4f5866;fill-opacity:1;fill-rule:nonzero;stroke:none"
         d="m 398.5,2287.5 19.238,11.18 324.621,-187.42 -19.25,-11.18 L 398.5,2287.5" />
      <path
         inkscape:connector-curvature="0"
         id="path1574"
         style="fill:#4f5866;fill-opacity:1;fill-rule:nonzero;stroke:none"
         d="m 723.109,2100.08 19.25,11.18 -0.109,-37.24 -19.246,-11.18 0.105,37.24" />
      <path
         inkscape:connector-curvature="0"
         id="path1576"
         style="fill:#3b4350;fill-opacity:1;fill-rule:nonzero;stroke:none"
         d="m 723.109,2100.08 -0.105,-37.24 -324.641,187.43 c 3.539,3.07 5.68,8.37 5.696,15.49 0.019,7 -2.063,14.63 -5.559,21.74 l 324.609,-187.42" />
    </g>
  </g>
</svg>
