<?xml version="1.0" encoding="UTF-8" standalone="no"?>
<svg
   xmlns:dc="http://purl.org/dc/elements/1.1/"
   xmlns:cc="http://creativecommons.org/ns#"
   xmlns:rdf="http://www.w3.org/1999/02/22-rdf-syntax-ns#"
   xmlns:svg="http://www.w3.org/2000/svg"
   xmlns="http://www.w3.org/2000/svg"
   id="svg4572"
   version="1.1"
   viewBox="0 0 52.916665 79.374997"
   height="300"
   width="200">
  <defs
     id="defs4566" />
  <metadata
     id="metadata4569">
    <rdf:RDF>
      <cc:Work
         rdf:about="">
        <dc:format>image/svg+xml</dc:format>
        <dc:type
           rdf:resource="http://purl.org/dc/dcmitype/StillImage" />
        <dc:title></dc:title>
      </cc:Work>
    </rdf:RDF>
  </metadata>
  <g
     transform="translate(0,-217.625)"
     id="layer1">
    <path
       id="path3118"
       style="fill:#603813;fill-opacity:1;fill-rule:nonzero;stroke:none;stroke-width:0.05538746"
       d="m 15.014857,292.55575 -5.3891185,0.0171 0.327493,3.32795 c 0.040776,0.29181 0.2753155,0.57375 0.7297585,0.78615 0.961307,0.45118 2.489817,0.38483 3.417373,-0.0895 0.43721,-0.22547 0.658261,-0.50946 0.674123,-0.79078 l 0.240371,-3.25099" />
    <path
       id="path3120"
       style="fill:#c69c6d;fill-opacity:1;fill-rule:nonzero;stroke:none;stroke-width:0.05538746"
       d="m 10.818829,291.40646 3.003178,0.004 c 0.142509,0.0499 0.276685,0.0993 0.402505,0.16318 0.235005,0.11317 0.411094,0.24741 0.536915,0.38163 0.193084,0.1903 0.267861,0.39408 0.25176,0.59889 l -0.0075,0.0698 c -0.0564,0.29578 -0.314249,0.57935 -0.774058,0.80886 -1.044491,0.51586 -2.755831,0.53694 -3.808429,0.0267 -0.4633315,-0.2269 -0.7255864,-0.51406 -0.7864099,-0.81714 l -0.00918,-0.0714 c -0.017713,-0.20881 0.058437,-0.41821 0.2513426,-0.61273 0.1259973,-0.13664 0.3020903,-0.27311 0.5369173,-0.38826 0.125996,-0.0643 0.260404,-0.11432 0.402984,-0.16421" />
    <path
       id="path3122"
       style="fill:#603813;fill-opacity:1;fill-rule:nonzero;stroke:none;stroke-width:0.05538746"
       d="m 9.8288411,291.40485 4.9829139,0.007 -0.05032,0.54322 -0.02517,0.33137 c -0.01673,0.092 -0.04239,0.18371 -0.100423,0.2685 -0.09922,0.19092 -0.299048,0.36778 -0.600004,0.51147 -0.944549,0.4644 -2.471212,0.47989 -3.422738,0.0185 -0.303042,-0.14247 -0.505668,-0.32111 -0.608172,-0.51507 -0.059396,-0.0863 -0.083848,-0.18006 -0.092485,-0.27307 l -0.033516,-0.33863 -0.050081,-0.55407" />
    <path
       id="path3124"
       style="fill:#603813;fill-opacity:1;fill-rule:nonzero;stroke:none;stroke-width:0.05538746"
       d="m 9.6481014,288.97103 5.3853596,0.0581 -0.0098,0.0707 -0.21151,2.31302 -4.9830931,-0.007 -0.1737622,-2.36188 -0.0073,-0.072" />
    <path
       id="path3126"
       style="fill:#c69c6d;fill-opacity:1;fill-rule:nonzero;stroke:none;stroke-width:0.05538746"
       d="m 14.264584,288.03775 c 1.044431,0.52891 1.02696,1.35205 -0.02749,1.85726 -1.05755,0.50463 -2.765132,0.50001 -3.814035,-0.0282 -1.0517053,-0.52795 -1.0335181,-1.37923 0.02797,-1.88401 1.06214,-0.50526 2.769544,-0.47227 3.813555,0.055" />
    <path
       id="path3128"
       style="fill:#603813;fill-opacity:1;fill-rule:nonzero;stroke:none;stroke-width:0.05538746"
       d="m 15.116168,285.50299 -5.387267,-0.12863 0.201493,3.32492 c 0.027487,0.28981 0.2483,0.57782 0.693682,0.80206 0.939896,0.47489 2.470496,0.48209 3.418264,0.0303 0.446753,-0.21284 0.68134,-0.49117 0.709962,-0.77509 l 0.363866,-3.25362" />
    <path
       id="path3130"
       style="fill:#c69c6d;fill-opacity:1;fill-rule:nonzero;stroke:none;stroke-width:0.05538746"
       d="m 10.965103,284.24158 3.001567,0.0842 c 0.140905,0.0541 0.272989,0.10689 0.396425,0.17384 0.230591,0.12003 0.401551,0.25888 0.522481,0.39613 0.185631,0.19611 0.25367,0.40191 0.229222,0.60672 l -0.01046,0.0698 c -0.06686,0.2952 -0.334528,0.57154 -0.801793,0.78817 -1.062139,0.48756 -2.77324,0.45942 -3.807474,-0.0787 -0.455161,-0.23934 -0.7071587,-0.53293 -0.7579659,-0.83661 l -0.00605,-0.072 c -0.00918,-0.20882 0.074303,-0.41559 0.2744199,-0.6045 0.130644,-0.13386 0.311868,-0.26545 0.551107,-0.37358 0.128144,-0.0611 0.264163,-0.10747 0.408588,-0.15376" />
    <path
       id="path3132"
       style="fill:#603813;fill-opacity:1;fill-rule:nonzero;stroke:none;stroke-width:0.05538746"
       d="m 9.9755922,284.21385 4.9805288,0.13985 -0.07054,0.54219 -0.0375,0.33138 c -0.02027,0.0915 -0.0487,0.18267 -0.110853,0.26587 -0.106017,0.18788 -0.311688,0.36012 -0.617774,0.49558 -0.95993,0.43868 -2.486535,0.41158 -3.421542,-0.0759 -0.297914,-0.15012 -0.494755,-0.33438 -0.589508,-0.53093 -0.05569,-0.0874 -0.0771,-0.18108 -0.08199,-0.27471 l -0.02099,-0.33841 -0.029823,-0.55504" />
    <path
       id="path3134"
       style="fill:#603813;fill-opacity:1;fill-rule:nonzero;stroke:none;stroke-width:0.05538746"
       d="m 9.881019,281.77734 5.380708,0.199 -0.01167,0.0707 -0.29398,2.30685 -4.9805287,-0.13986 -0.089689,-2.3639 -0.0049,-0.0726" />
    <path
       id="path3136"
       style="fill:#c69c6d;fill-opacity:1;fill-rule:nonzero;stroke:none;stroke-width:0.05538746"
       d="m 14.525468,280.96549 c 1.023977,0.55567 0.986708,1.3788 -0.09134,1.85607 -1.077288,0.47588 -2.783736,0.42665 -3.810992,-0.12863 -1.0265427,-0.55505 -0.9883178,-1.40593 0.09248,-1.88241 1.083131,-0.47687 2.788446,-0.39969 3.809858,0.15495" />
    <path
       id="path3138"
       style="fill:#603813;fill-opacity:1;fill-rule:nonzero;stroke:none;stroke-width:0.05538746"
       d="m 15.468585,278.45487 -5.379814,-0.27109 0.0827,3.32956 c 0.01819,0.29016 0.231785,0.58396 0.666911,0.81949 0.920516,0.49917 2.450398,0.54641 3.4157,0.12044 0.456056,-0.20218 0.697141,-0.47365 0.735365,-0.75661 l 0.479132,-3.24173" />
    <path
       id="path3140"
       style="fill:#c69c6d;fill-opacity:1;fill-rule:nonzero;stroke:none;stroke-width:0.05538746"
       d="m 11.364091,277.08391 2.997393,0.16499 c 0.138826,0.0573 0.268994,0.11375 0.390163,0.18428 0.226179,0.126 0.392251,0.26907 0.507993,0.40957 0.178654,0.20053 0.239476,0.40833 0.208051,0.61174 l -0.01386,0.0698 c -0.08151,0.29221 -0.355695,0.56168 -0.830416,0.76608 -1.077525,0.45881 -2.786776,0.3862 -3.802822,-0.17909 -0.446513,-0.25161 -0.691597,-0.55201 -0.726541,-0.85612 l -0.0032,-0.0725 c -0.0019,-0.20939 0.08873,-0.41414 0.295589,-0.59785 0.135294,-0.12966 0.320933,-0.2562 0.563927,-0.35812 0.130172,-0.0581 0.267862,-0.10059 0.413658,-0.14292" />
    <path
       id="path3142"
       style="fill:#603813;fill-opacity:1;fill-rule:nonzero;stroke:none;stroke-width:0.05538746"
       d="m 10.376249,277.02922 4.973076,0.27376 -0.08969,0.53977 -0.0489,0.33017 c -0.02355,0.0908 -0.05546,0.18069 -0.119978,0.26243 -0.114363,0.1851 -0.328685,0.35134 -0.637988,0.4785 -0.973887,0.41358 -2.498642,0.34568 -3.417372,-0.16576 -0.293681,-0.1584 -0.481219,-0.34726 -0.567623,-0.54625 -0.05218,-0.0896 -0.0706,-0.18366 -0.07221,-0.2773 l -0.0092,-0.33964 -0.01033,-0.55568" />
    <path
       id="path3144"
       style="fill:#603813;fill-opacity:1;fill-rule:nonzero;stroke:none;stroke-width:0.05538746"
       d="m 10.371123,274.58975 5.37069,0.34726 -0.0147,0.07 -0.377819,2.29599 -4.973074,-0.27375 -0.0029,-2.36749 -0.0023,-0.0721" />
    <path
       id="path3146"
       style="fill:#c69c6d;fill-opacity:1;fill-rule:nonzero;stroke:none;stroke-width:0.05538746"
       d="m 15.042107,273.90711 c 1.00603,0.58381 0.935188,1.40391 -0.159092,1.85102 -1.094997,0.44657 -2.798942,0.35134 -3.804731,-0.23268 -1.00603,-0.58341 -0.932624,-1.43324 0.161899,-1.87978 1.098752,-0.44657 2.800075,-0.32093 3.801927,0.26144" />
    <path
       id="path3148"
       style="fill:#603813;fill-opacity:1;fill-rule:nonzero;stroke:none;stroke-width:0.05538746"
       d="m 16.080516,271.42787 -5.366279,-0.42851 c -0.01403,1.11273 -0.04825,2.22284 -0.04263,3.3348 0.0068,0.28995 0.209424,0.59 0.635424,0.8374 0.901435,0.52427 2.428814,0.61334 3.409678,0.214 0.463509,-0.18926 0.714613,-0.45374 0.763331,-0.73511 0.186108,-1.07733 0.403639,-2.14947 0.600483,-3.22258" />
    <path
       id="path3150"
       style="fill:#c69c6d;fill-opacity:1;fill-rule:nonzero;stroke:none;stroke-width:0.05538746"
       d="m 12.034459,269.93689 2.988507,0.2542 c 0.136324,0.0611 0.263926,0.12206 0.382053,0.19597 0.220576,0.13227 0.380623,0.27992 0.490046,0.42344 0.170303,0.20537 0.220155,0.41415 0.184257,0.61633 l -0.01538,0.0696 c -0.0883,0.28996 -0.375726,0.55045 -0.857899,0.74074 -1.095715,0.42746 -2.80127,0.30667 -3.793761,-0.2882 -0.436795,-0.26444 -0.66691,-0.57152 -0.694875,-0.87758 l -0.0011,-0.0732 c 0.003,-0.20918 0.103866,-0.41157 0.318665,-0.589 0.140904,-0.126 0.332383,-0.24741 0.579254,-0.34207 0.13279,-0.0539 0.272331,-0.0926 0.420216,-0.13022" />
    <path
       id="path3152"
       style="fill:#603813;fill-opacity:1;fill-rule:nonzero;stroke:none;stroke-width:0.05538746"
       d="m 11.049183,269.8531 4.959119,0.4218 -0.113235,0.5356 -0.06357,0.32776 c -0.02797,0.0895 -0.06077,0.17905 -0.128092,0.25863 -0.11927,0.18166 -0.337568,0.34165 -0.652477,0.45962 -0.990645,0.38421 -2.511941,0.27308 -3.408964,-0.26448 -0.286466,-0.16719 -0.468874,-0.36234 -0.549676,-0.5633 -0.04942,-0.0913 -0.06643,-0.18628 -0.06315,-0.27996 l 0.0059,-0.3396 0.0142,-0.55607" />
    <path
       id="path3154"
       style="fill:#603813;fill-opacity:1;fill-rule:nonzero;stroke:none;stroke-width:0.05538746"
       d="m 11.143518,267.41042 5.352563,0.51606 -0.01795,0.069 c -0.172869,0.75683 -0.312167,1.51906 -0.469831,2.27949 l -4.95912,-0.4218 c 0.0319,-0.78976 0.0452,-1.58038 0.09314,-2.37015 l 0.0011,-0.0725" />
    <path
       id="path3156"
       style="fill:#c69c6d;fill-opacity:1;fill-rule:nonzero;stroke:none;stroke-width:0.05538746"
       d="m 15.845452,266.87687 c 0.979491,0.61536 0.864465,1.4282 -0.243412,1.84179 -1.106626,0.41218 -2.805622,0.2655 -3.792329,-0.34984 -0.985753,-0.61417 -0.866074,-1.46401 0.247586,-1.87557 1.11551,-0.41159 2.810094,-0.23013 3.788155,0.38362" />
    <path
       id="path3158"
       style="fill:#603813;fill-opacity:1;fill-rule:nonzero;stroke:none;stroke-width:0.05538746"
       d="m 16.992686,264.43878 -5.342069,-0.6121 c -0.08408,1.11269 -0.143475,2.22505 -0.194752,3.33675 -0.0068,0.29119 0.181454,0.59785 0.59541,0.85869 0.880446,0.55208 2.402876,0.68732 3.398467,0.31896 0.472632,-0.17444 0.736022,-0.43008 0.798455,-0.70945 0.240192,-1.06708 0.480802,-2.13239 0.744489,-3.19285" />
    <path
       id="path3160"
       style="fill:#c69c6d;fill-opacity:1;fill-rule:nonzero;stroke:none;stroke-width:0.05538746"
       d="m 13.010433,262.80758 2.974076,0.3595 c 0.133756,0.0658 0.259274,0.13067 0.374361,0.20902 0.215446,0.13987 0.369651,0.2932 0.474004,0.44029 0.162372,0.21082 0.206383,0.42145 0.158856,0.62138 l -0.01908,0.069 c -0.103219,0.28558 -0.403698,0.53518 -0.895651,0.70905 -1.11712,0.38882 -2.816353,0.21298 -3.778135,-0.41565 -0.422782,-0.27832 -0.636617,-0.5942 -0.648722,-0.90192 l 0.0026,-0.072 c 0.01521,-0.21 0.12182,-0.40915 0.342636,-0.58 0.145553,-0.12133 0.341027,-0.23613 0.591178,-0.32252 0.134415,-0.0495 0.274838,-0.0831 0.423914,-0.11622" />
    <path
       id="path3162"
       style="fill:#603813;fill-opacity:1;fill-rule:nonzero;stroke:none;stroke-width:0.05538746"
       d="m 12.030045,262.68982 4.934912,0.59565 -0.132081,0.53092 -0.07525,0.32519 c -0.03047,0.0884 -0.06916,0.17641 -0.140195,0.25301 -0.128801,0.17764 -0.354981,0.32937 -0.67621,0.43586 -1.009785,0.34969 -2.524999,0.1887 -3.394056,-0.37982 -0.27764,-0.17584 -0.45027,-0.37758 -0.520396,-0.58176 -0.04497,-0.0926 -0.05539,-0.1883 -0.04985,-0.28233 l 0.01842,-0.34028 0.03471,-0.55644" />
    <path
       id="path3164"
       style="fill:#603813;fill-opacity:1;fill-rule:nonzero;stroke:none;stroke-width:0.05538746"
       d="m 12.248294,260.24654 5.321377,0.71721 -0.02027,0.0685 -0.58444,2.25339 -4.93491,-0.59564 0.214311,-2.37075 0.0039,-0.0725" />
    <path
       id="path3166"
       style="fill:#c69c6d;fill-opacity:1;fill-rule:nonzero;stroke:none;stroke-width:0.05538746"
       d="m 16.971695,259.89263 c 0.932682,0.64808 0.804774,1.45799 -0.328447,1.82772 -1.129461,0.37002 -2.820348,0.16258 -3.771873,-0.48873 -0.947768,-0.65068 -0.812646,-1.50058 0.336136,-1.86893 1.141152,-0.36938 2.82387,-0.11885 3.764184,0.52994" />
    <path
       id="path3168"
       style="fill:#603813;fill-opacity:1;fill-rule:nonzero;stroke:none;stroke-width:0.05538746"
       d="m 18.245822,257.51001 -5.30152,-0.83539 -0.374062,3.33641 c -0.01842,0.29097 0.157183,0.60586 0.56017,0.8828 0.85254,0.5848 2.367097,0.77468 3.379147,0.4449 0.478476,-0.15634 0.751703,-0.4023 0.824095,-0.67861 l 0.91217,-3.15011" />
    <path
       id="path3170"
       style="fill:#c69c6d;fill-opacity:1;fill-rule:nonzero;stroke:none;stroke-width:0.05538746"
       d="m 14.373111,255.7136 2.949391,0.48874 c 0.129274,0.0721 0.250389,0.14189 0.359871,0.22487 0.206619,0.14812 0.35033,0.3075 0.444903,0.45845 0.148123,0.21601 0.178177,0.4268 0.11741,0.62337 l -0.02355,0.0675 c -0.122954,0.27875 -0.427432,0.51689 -0.927254,0.66984 -1.131361,0.34303 -2.819445,0.0995 -3.75165,-0.56853 -0.407576,-0.29686 -0.613063,-0.622 -0.603522,-0.93068 l 0.0075,-0.0732 c 0.02934,-0.20875 0.149559,-0.40431 0.382233,-0.56528 0.153785,-0.11537 0.35665,-0.22225 0.612646,-0.29742 0.137861,-0.0435 0.280679,-0.0715 0.431843,-0.0977" />
    <path
       id="path3172"
       style="fill:#603813;fill-opacity:1;fill-rule:nonzero;stroke:none;stroke-width:0.05538746"
       d="m 13.401073,255.55263 4.893705,0.81131 -0.16751,0.52172 -0.09667,0.31933 c -0.03654,0.0871 -0.08103,0.17239 -0.157487,0.24534 -0.142037,0.16982 -0.374062,0.3129 -0.698334,0.40554 -1.022068,0.30807 -2.527025,0.0867 -3.369546,-0.51867 -0.269531,-0.18829 -0.432798,-0.39669 -0.487301,-0.60388 -0.03918,-0.0947 -0.04312,-0.19091 -0.03099,-0.28496 l 0.04168,-0.33964 0.07246,-0.55609" />
    <path
       id="path3174"
       style="fill:#603813;fill-opacity:1;fill-rule:nonzero;stroke:none;stroke-width:0.05538746"
       d="m 13.767503,253.11351 5.26753,0.96833 -0.0254,0.0663 c -0.258558,0.73251 -0.485691,1.47385 -0.714851,2.2158 l -4.893703,-0.81131 c 0.108772,-0.78876 0.216161,-1.57944 0.356889,-2.36709 l 0.0094,-0.0721" />
    <path
       id="path3176"
       style="fill:#c69c6d;fill-opacity:1;fill-rule:nonzero;stroke:none;stroke-width:0.05538746"
       d="m 18.505333,252.98695 c 0.903047,0.69557 0.704596,1.48574 -0.452594,1.80103 -1.147651,0.31691 -2.823808,0.0361 -3.736217,-0.66056 -0.903582,-0.6939 -0.69088,-1.5402 0.465595,-1.85454 1.156777,-0.31588 2.819694,0.0201 3.723216,0.71407" />
    <path
       id="path3178"
       style="fill:#603813;fill-opacity:1;fill-rule:nonzero;stroke:none;stroke-width:0.05538746"
       d="m 19.942313,250.6873 -5.230022,-1.12203 c -0.225761,1.10867 -0.434468,2.21681 -0.605668,3.32703 -0.04024,0.29066 0.111818,0.61374 0.494039,0.90905 0.809248,0.6245 2.310507,0.88131 3.346767,0.6014 0.489628,-0.13228 0.780565,-0.36314 0.873532,-0.63329 0.351045,-1.03716 0.729281,-2.06299 1.121352,-3.08216" />
    <path
       id="path3180"
       style="fill:#c69c6d;fill-opacity:1;fill-rule:nonzero;stroke:none;stroke-width:0.05538746"
       d="m 16.198167,248.67731 2.9058,0.65542 c 0.122784,0.0782 0.237568,0.15485 0.340072,0.24282 0.19523,0.15949 0.330295,0.32618 0.415804,0.48205 0.135058,0.2243 0.153008,0.43576 0.08103,0.62868 l -0.02701,0.0659 c -0.137456,0.27162 -0.466313,0.48873 -0.976928,0.61425 -1.158381,0.27885 -2.827801,-0.0474 -3.704072,-0.76449 -0.385274,-0.31793 -0.557666,-0.6549 -0.530415,-0.9641 l 0.01217,-0.0731 c 0.0417,-0.20888 0.173287,-0.39872 0.414375,-0.54841 0.159988,-0.107 0.368039,-0.20373 0.628208,-0.26548 0.141868,-0.0354 0.287419,-0.055 0.440968,-0.0736" />
    <path
       id="path3182"
       style="fill:#603813;fill-opacity:1;fill-rule:nonzero;stroke:none;stroke-width:0.05538746"
       d="m 15.240559,248.46227 4.821016,1.08654 -0.201732,0.50879 -0.114363,0.31279 c -0.04151,0.0855 -0.09063,0.16824 -0.170721,0.23666 -0.149323,0.16258 -0.392967,0.29118 -0.725168,0.3658 -1.046338,0.25002 -2.533823,-0.0474 -3.325541,-0.69762 -0.253905,-0.2027 -0.399464,-0.41981 -0.443294,-0.63177 -0.03286,-0.0972 -0.03118,-0.19447 -0.01353,-0.28759 l 0.06171,-0.33953 0.111573,-0.55407" />
    <path
       id="path3184"
       style="fill:#603813;fill-opacity:1;fill-rule:nonzero;stroke:none;stroke-width:0.05538746"
       d="m 15.805618,246.03502 5.172061,1.29593 -0.02958,0.0648 -0.886528,2.15303 -4.821015,-1.08655 0.550628,-2.35521 0.01436,-0.0721" />
    <path
       id="path3186"
       style="fill:#c69c6d;fill-opacity:1;fill-rule:nonzero;stroke:none;stroke-width:0.05538746"
       d="m 20.551202,246.21509 c 0.82481,0.74494 0.569949,1.51354 -0.594221,1.75998 -1.169832,0.24385 -2.820825,-0.13373 -3.672886,-0.8859 -0.859517,-0.75267 -0.580445,-1.59433 0.61819,-1.83148 1.18957,-0.24028 2.814982,0.21091 3.648917,0.9574" />
    <path
       id="path3188"
       style="fill:#603813;fill-opacity:1;fill-rule:nonzero;stroke:none;stroke-width:0.05538746"
       d="m 22.191042,244.04252 -5.098,-1.50738 c -0.364998,1.09322 -0.618189,2.20241 -0.929819,3.29873 -0.07013,0.28912 0.06686,0.62455 0.425285,0.94404 0.762854,0.67703 2.240621,1.02172 3.288092,0.80617 0.497797,-0.10133 0.794041,-0.31589 0.913302,-0.57621 0.477046,-0.98879 0.889569,-1.9992 1.40114,-2.96535" />
    <path
       id="path3190"
       style="fill:#c69c6d;fill-opacity:1;fill-rule:nonzero;stroke:none;stroke-width:0.05538746"
       d="m 18.674208,241.75728 2.823808,0.88229 c 0.115572,0.0879 0.22296,0.17338 0.317294,0.26958 0.178415,0.17285 0.293919,0.34777 0.362196,0.50778 0.110609,0.23151 0.105309,0.44039 0.01284,0.62405 l -0.03445,0.0628 c -0.164468,0.2567 -0.523854,0.4419 -1.038408,0.53144 -1.168667,0.19703 -2.802902,-0.24181 -3.618888,-1.02482 -0.358918,-0.34624 -0.484739,-0.69505 -0.423675,-1.00372 l 0.02022,-0.0721 c 0.06643,-0.20629 0.219916,-0.38738 0.477999,-0.51909 0.17263,-0.0956 0.392012,-0.17646 0.657785,-0.21814 0.143948,-0.0246 0.289566,-0.0339 0.443294,-0.04" />
    <path
       id="path3192"
       style="fill:#603813;fill-opacity:1;fill-rule:nonzero;stroke:none;stroke-width:0.05538746"
       d="m 17.743434,241.46711 4.685655,1.46364 -0.251583,0.48618 -0.148122,0.2989 c -0.05057,0.0802 -0.109063,0.15794 -0.196362,0.21968 -0.166784,0.14816 -0.424213,0.25568 -0.764286,0.30404 -1.070071,0.16926 -2.525894,-0.22841 -3.246113,-0.9358 -0.230591,-0.22019 -0.351045,-0.44862 -0.370126,-0.66366 -0.02195,-0.0993 -0.0092,-0.19653 0.01979,-0.28861 l 0.10082,-0.33596 0.170306,-0.54841" />
    <path
       id="path3194"
       style="fill:#603813;fill-opacity:1;fill-rule:nonzero;stroke:none;stroke-width:0.05538746"
       d="m 18.594781,239.07384 4.987086,1.75481 -0.03704,0.0606 c -0.373642,0.67704 -0.781514,1.34121 -1.115743,2.04139 l -4.685654,-1.46365 c 0.231485,-0.78146 0.546455,-1.54697 0.827374,-2.32229 l 0.02396,-0.071" />
    <path
       id="path3196"
       style="fill:#c69c6d;fill-opacity:1;fill-rule:nonzero;stroke:none;stroke-width:0.05538746"
       d="m 23.273218,239.68192 c 0.738645,0.81852 0.413658,1.55009 -0.786587,1.68539 -1.196369,0.13475 -2.800073,-0.37143 -3.55291,-1.19664 -0.750749,-0.82161 -0.378057,-1.65399 0.833397,-1.78415 1.224038,-0.12907 2.776759,0.48411 3.5061,1.2954" />
    <path
       id="path3198"
       style="fill:#603813;fill-opacity:1;fill-rule:nonzero;stroke:none;stroke-width:0.05538746"
       d="m 25.183486,237.7244 -4.834731,-2.05424 c -0.483306,1.07624 -0.969951,2.14734 -1.375917,3.23185 -0.09785,0.28655 -0.01302,0.6333 0.30513,0.98415 0.67317,0.74237 2.105915,1.20643 3.176701,1.08964 0.505966,-0.0566 0.833934,-0.23562 0.975081,-0.48462 0.549734,-0.94611 1.158384,-1.85824 1.753736,-2.76678" />
    <path
       id="path3200"
       style="fill:#c69c6d;fill-opacity:1;fill-rule:nonzero;stroke:none;stroke-width:0.05538746"
       d="m 22.056159,235.06822 2.656603,1.20848 c 0.10036,0.10038 0.193561,0.19704 0.272035,0.302 0.149796,0.19086 0.23715,0.37452 0.280443,0.53863 0.07381,0.23769 0.03727,0.43883 -0.0827,0.60604 l -0.04378,0.0566 c -0.205903,0.22689 -0.557606,0.38481 -1.08474,0.41415 -1.186352,0.0658 -2.753265,-0.52835 -3.447665,-1.39626 -0.300468,-0.38223 -0.405956,-0.75575 -0.288126,-1.05773 l 0.03263,-0.07 c 0.10132,-0.19961 0.285808,-0.36476 0.565775,-0.46869 0.188014,-0.0761 0.420216,-0.13269 0.691833,-0.14348 0.147463,-0.01 0.29398,-0.001 0.447708,0.0106" />
    <path
       id="path3202"
       style="fill:#603813;fill-opacity:1;fill-rule:nonzero;stroke:none;stroke-width:0.05538746"
       d="m 21.180066,234.67055 4.408252,2.00434 -0.323078,0.44244 -0.193084,0.27214 c -0.06219,0.0721 -0.131846,0.14045 -0.228266,0.18984 -0.191713,0.12251 -0.455399,0.20218 -0.792432,0.21661 -1.069892,0.0556 -2.461849,-0.4867 -3.087553,-1.27485 -0.203579,-0.24695 -0.295589,-0.49079 -0.27436,-0.70687 -0.0048,-0.10186 0.02493,-0.19756 0.06916,-0.28758 l 0.157909,-0.32515 0.263449,-0.53092" />
    <path
       id="path3204"
       style="fill:#603813;fill-opacity:1;fill-rule:nonzero;stroke:none;stroke-width:0.05538746"
       d="M 28.244206,233.22182 23.8285,230.55639 c -0.745383,1.00011 -1.314438,2.05836 -1.934001,3.09039 -0.150268,0.27471 -0.09851,0.63741 0.169829,1.01914 0.574362,0.81181 1.940977,1.40654 3.010869,1.39677 0.508947,-0.003 0.841329,-0.15382 1.02207,-0.37607 0.71324,-0.8355 1.368284,-1.70494 2.146939,-2.4648" />
    <path
       id="path3206"
       style="fill:#c69c6d;fill-opacity:1;fill-rule:nonzero;stroke:none;stroke-width:0.05538746"
       d="m 25.607877,230.15976 2.392917,1.56549 c 0.08199,0.11374 0.157724,0.22275 0.21801,0.33801 0.116514,0.20938 0.174479,0.40386 0.192428,0.57105 0.03727,0.24489 -0.02701,0.43833 -0.16768,0.5865 l -0.05058,0.0495 c -0.231539,0.19754 -0.621942,0.28654 -1.151401,0.24435 -1.186292,-0.0932 -2.65261,-0.85554 -3.183262,-1.80422 -0.22618,-0.41567 -0.237808,-0.79329 -0.07174,-1.08653 l 0.04407,-0.0669 c 0.134413,-0.19086 0.344486,-0.33646 0.637273,-0.40643 0.197973,-0.0551 0.436077,-0.0822 0.703939,-0.0586 0.14579,0.01 0.287895,0.0364 0.436018,0.0679" />
    <path
       id="path3208"
       style="fill:#603813;fill-opacity:1;fill-rule:nonzero;stroke:none;stroke-width:0.05538746"
       d="m 24.819203,229.64374 3.970325,2.59803 -0.378296,0.39254 -0.227132,0.24283 c -0.07103,0.0622 -0.148834,0.1203 -0.249675,0.15691 -0.20197,0.0972 -0.478654,0.13533 -0.819443,0.1007 -1.078003,-0.0983 -2.374969,-0.79433 -2.837345,-1.65143 -0.151165,-0.26855 -0.191474,-0.52217 -0.137456,-0.74031 0.01251,-0.10344 0.05777,-0.19754 0.116699,-0.28244 l 0.211032,-0.31023 0.351284,-0.50672" />
    <path
       id="path3210"
       style="fill:#39b54a;fill-opacity:1;fill-rule:nonzero;stroke:none;stroke-width:0.05538746"
       d="m 38.571273,246.6925 -0.92338,-0.19753 0.901018,-0.0956 c -0.112525,-1.55932 -0.537389,-3.46849 -1.49613,-5.5459 -0.666433,0.15229 -1.324456,0.31177 -1.990648,0.48617 l 1.803347,-0.88797 c -0.773766,-1.56551 -1.883492,-3.202 -3.379147,-4.7742 -0.777523,0.36475 -1.544314,0.73979 -2.300668,1.12564 l 1.828513,-1.61953 c -0.267146,-0.2459 -0.536437,-0.49386 -0.808948,-0.74443 -0.914736,-0.80771 -1.780094,-1.39626 -2.57807,-1.79752 l -0.110191,-0.0549 -1.058204,1.15084 c 0.201724,-0.45529 0.39618,-0.91574 0.58348,-1.3803 -1.84503,-0.79587 -3.084513,-0.68577 -3.847784,-0.37657 -0.76381,0.3102 -1.097621,0.83392 -1.257372,1.06699 7.528364,3.80341 12.86763,10.64988 14.119872,18.09723 0.07198,-0.29889 0.650809,-1.83508 0.514314,-4.45216" />
    <path
       id="path3212"
       style="fill:#24a636;fill-opacity:1;fill-rule:nonzero;stroke:none;stroke-width:0.05538746"
       d="m 23.937086,233.04742 c -0.197555,0.28346 -0.611929,0.87922 -0.528744,1.71932 0.07615,0.8499 0.652419,1.867 2.19697,3.28948 l 1.797804,-1.44203 c -0.431845,0.63432 -0.874183,1.25941 -1.327258,1.87675 0.235958,0.20373 0.490104,0.41416 0.752121,0.65286 0.415805,0.35292 0.82672,0.6976 1.212409,1.0531 0.405787,0.34007 0.775199,0.69762 1.153496,1.03922 l 1.815036,-1.42969 c -0.438404,0.63278 -0.876092,1.2378 -1.360831,1.84639 1.396429,1.30984 2.64611,2.58313 3.736931,3.77102 l 1.693212,-0.58854 c -0.418846,0.36681 -0.842521,0.72333 -1.271147,1.0706 1.316764,1.4832 2.372644,2.80742 3.088449,3.76791 0.373885,0.47692 0.627315,0.86636 0.832741,1.1272 0.198929,0.25876 0.309783,0.40334 0.309783,0.40334 l 0.0189,-0.0596 c -1.252244,-7.44736 -6.59151,-14.29383 -14.119874,-18.09726" />
    <path
       id="path3214"
       style="fill:#39b54a;fill-opacity:1;fill-rule:nonzero;stroke:none;stroke-width:0.05538746"
       d="m 50.849572,240.47472 c -0.34031,-0.0217 -0.68736,-0.0319 -1.025107,-0.0422 l 0.851108,-0.29324 c -0.932205,-1.77387 -2.456963,-3.85795 -4.848447,-5.82114 -0.587241,0.33904 -1.159574,0.68372 -1.727202,1.04746 l 1.259459,-1.42403 c -1.871862,-1.44977 -4.259413,-2.7781 -7.067658,-3.71751 -0.532441,0.6297 -1.043297,1.26659 -1.532208,1.90967 l 0.643594,-2.19212 c -0.474004,-0.12805 -0.949678,-0.2742 -1.443957,-0.38018 -1.612591,-0.3766 -3.009259,-0.51138 -4.1776,-0.51343 l -0.161425,0.001 -0.166125,1.46209 c -0.161661,-0.47794 -0.336319,-0.95639 -0.523618,-1.43587 -2.598583,0.17132 -3.804252,0.92089 -4.335085,1.5619 -0.532979,0.65081 -0.438644,1.24348 -0.409962,1.51253 5.445707,-0.47125 11.054502,0.62507 15.733598,3.07339 4.679155,2.44886 8.395813,6.23479 10.427724,10.61903 -0.0436,-0.37042 -0.02329,-2.35213 -1.497089,-5.36842" />
    <path
       id="path3216"
       style="fill:#24a636;fill-opacity:1;fill-rule:nonzero;stroke:none;stroke-width:0.05538746"
       d="m 26.185339,232.15072 c 0.03239,0.33029 0.104356,1.02274 0.880029,1.64524 0.77496,0.65338 2.200728,1.15704 4.90438,1.71677 0.224986,-0.68064 0.461421,-1.35972 0.708829,-2.03676 0.05796,0.7398 0.09779,1.46827 0.11413,2.21065 0.40036,0.0868 0.820575,0.17903 1.273888,0.2778 1.390348,0.30045 2.709437,0.6688 3.956789,1.08191 l 0.829465,-2.00228 c 0.0079,0.76757 -0.0089,1.50633 -0.07728,2.25849 2.323268,0.82055 4.388158,1.8248 6.1701,2.86607 l 1.368282,-1.04385 c -0.208526,0.5011 -0.429341,0.99085 -0.661542,1.46982 2.16298,1.33658 3.821729,2.69475 4.950474,3.69488 0.564404,0.50056 1.002572,0.9106 1.29142,1.19458 0.294398,0.27935 0.456295,0.43368 0.456295,0.43368 l -0.0041,-0.0747 c -2.031789,-4.38425 -5.748446,-8.1702 -10.427602,-10.61903 -4.679095,-2.44833 -10.287891,-3.54465 -15.733597,-3.07339" />
    <path
       id="path3218"
       style="fill:#39b54a;fill-opacity:1;fill-rule:nonzero;stroke:none;stroke-width:0.05538746"
       d="m 10.256989,252.74875 c -0.186108,-0.25311 -0.3528947,-0.50366 -0.528088,-0.76037 l 0.752359,0.44656 c 1.150931,-1.66942 2.654278,-3.61153 4.498654,-5.68636 -0.468697,-0.45324 -0.935904,-0.91779 -1.378721,-1.37927 l 1.736743,0.9785 c 1.422726,-1.5655 3.068888,-3.18915 4.936997,-4.8277 -0.481517,-0.65028 -0.952717,-1.31086 -1.413246,-1.98172 l 1.996732,1.46417 c 0.318903,-0.26135 0.640552,-0.52526 0.966193,-0.79229 0.516164,-0.45271 1.030716,-0.82828 1.468405,-1.20744 0.436258,-0.3735 0.836021,-0.71561 1.21056,-1.03562 l 0.09898,-0.0896 -1.069178,-1.14363 c 0.503164,0.24643 0.99929,0.49801 1.48844,0.75368 0.791956,-0.72899 1.343123,-1.34788 1.704841,-1.89528 0.37621,-0.52834 0.557189,-0.99446 0.620992,-1.39162 0.130003,-0.79536 -0.222003,-1.30982 -0.384794,-1.5403 -10.468453,5.35556 -17.9525717,14.83042 -19.90637,25.19312 0.1183059,-0.1867 0.4698307,-0.7526 0.9720392,-1.6368 0.2743596,-0.44097 0.5955916,-0.9564 0.957311,-1.53738 0.353609,-0.5854 0.8218284,-1.22231 1.2711448,-1.93073" />
    <path
       id="path3220"
       style="fill:#24a636;fill-opacity:1;fill-rule:nonzero;stroke:none;stroke-width:0.05538746"
       d="m 26.962864,232.66054 c -0.199405,-0.28346 -0.56184,-0.90701 -1.73859,-1.06338 -0.580744,-0.0653 -1.409966,-0.0593 -2.461671,0.26648 -0.52803,0.15949 -1.135546,0.37196 -1.805437,0.6755 -0.651284,0.32411 -1.393864,0.71305 -2.186773,1.22184 l 1.284622,1.84024 c -0.728806,-0.40386 -1.468165,-0.79896 -2.217961,-1.18637 -0.452357,0.32155 -0.921233,0.6719 -1.384085,1.08551 -0.358024,0.31486 -0.712527,0.6256 -1.064765,0.9348 -0.340968,0.31691 -0.657546,0.64771 -0.978301,0.96976 -0.651046,0.63691 -1.218908,1.31084 -1.768405,1.97295 l 2.106869,1.11486 c -0.902389,-0.11828 -1.841571,-0.23408 -2.750223,-0.30405 -1.937996,2.55996 -3.2093198,5.13845 -4.0075956,7.45096 l 1.6093119,0.75522 c -0.6258838,0.0499 -1.2571341,0.10956 -1.8927947,0.17801 -0.8432375,2.86966 -0.9929699,5.24443 -0.9389441,6.85979 0.00592,0.80625 0.1118172,1.4369 0.1525333,1.8553 0.057298,0.41297 0.088793,0.63886 0.088793,0.63886 l 0.047047,-0.0732 C 9.0102976,247.49091 16.494417,238.01606 26.962869,232.6605" />
    <path
       id="path3222"
       style="fill:#39b54a;fill-opacity:1;fill-rule:nonzero;stroke:none;stroke-width:0.05538746"
       d="m 5.3199915,237.80774 c -0.06386,-0.2701 -0.1148576,-0.53606 -0.1658883,-0.81079 l 0.4677436,0.6688 c 1.5844445,-0.75728 3.5396738,-1.53413 5.7725412,-2.13861 -0.150928,-0.57931 -0.289088,-1.16784 -0.405547,-1.75072 l 0.838346,1.63701 c 1.698998,-0.4342 3.557323,-0.7542 5.571706,-0.9178 0.05058,-0.75625 0.124155,-1.5156 0.22129,-2.27753 l 0.411629,2.23175 c 0.333753,-0.0106 0.668042,-0.0428 1.009249,-0.0442 1.115091,-0.0344 2.043303,-0.0617 2.837582,-0.11479 l 0.109958,-0.01 0.144421,-1.46415 c 0.121585,0.47793 0.230115,0.95535 0.32612,1.43071 1.774249,-0.15125 2.821483,-0.53144 3.465315,-1.01605 0.644495,-0.48103 0.852069,-1.05105 0.937579,-1.31136 -4.797044,-1.24346 -10.064573,-1.08451 -14.749035,0.44346 -4.6847604,1.52899 -8.7547712,4.4182 -11.39715191,8.08889 0.34171281,-0.19549 1.95359861,-1.34275 4.60415051,-2.64588" />
    <path
       id="path3224"
       style="fill:#24a636;fill-opacity:1;fill-rule:nonzero;stroke:none;stroke-width:0.05538746"
       d="m 26.862029,231.92126 c 0.104762,-0.31845 0.392907,-0.97079 -0.146991,-1.79959 -0.273228,-0.41208 -0.764763,-0.86687 -1.627261,-1.28513 -0.86047,-0.41671 -2.099653,-0.81027 -3.826378,-0.9754 -0.158617,0.69964 -0.305367,1.39985 -0.440728,2.10104 -0.183544,-0.72281 -0.387839,-1.45438 -0.612349,-2.16845 -0.513896,-0.0149 -1.05868,-0.0175 -1.644074,0.017 -1.793569,0.0915 -3.509083,0.39202 -5.090724,0.83704 l 0.851345,1.99354 c -0.563209,-0.57774 -1.167685,-1.16217 -1.799591,-1.70544 -2.9321553,0.96101 -5.2693785,2.41437 -6.9811954,3.88778 l 0.9726948,1.33761 c -0.5315462,-0.25414 -1.0780024,-0.49903 -1.6386489,-0.73413 -1.9915968,1.90146 -3.0230163,3.75094 -3.5720412,5.0304 -0.2748606,0.64412 -0.43674571,1.15344 -0.52642544,1.5043 -0.083857,0.34315 -0.12974864,0.53298 -0.12974864,0.53298 l 0.0659223,-0.0411 c 2.64238058,-3.67069 6.71239118,-6.55992 11.39715248,-8.08889 4.68446,-1.52795 9.951991,-1.68693 14.749034,-0.44347" />
    <path
       id="path3226"
       style="fill:#39b54a;fill-opacity:1;fill-rule:nonzero;stroke:none;stroke-width:0.05538746"
       d="m 16.701269,225.12984 c 0.155154,-0.20629 0.313777,-0.40025 0.480802,-0.59935 l -0.323793,0.7151 c 0.834112,0.58135 1.725531,1.31909 2.6021,2.13914 0.419024,-0.45735 0.853196,-0.91059 1.292971,-1.34482 l -1.124335,1.50328 c 0.656353,0.62764 1.295297,1.31753 1.918435,2.04549 0.700184,-0.44242 1.415989,-0.87047 2.146702,-1.2841 l -1.94688,1.50894 c 0.09363,0.12555 0.190522,0.24899 0.292311,0.37041 0.322184,0.40436 0.633574,0.71099 0.923856,0.96256 l 0.04282,0.034 1.492196,-0.70842 c -0.426956,0.29323 -0.859993,0.5767 -1.298634,0.84938 0.733993,0.52579 1.554867,0.71099 2.313071,0.74083 0.7619,0.0282 1.430656,-0.12761 1.729942,-0.20683 -1.669179,-4.92649 -7.42562,-8.55139 -13.370734,-8.42844 0.223854,0.14452 1.415512,0.71768 2.829177,1.70289" />
    <path
       id="path3228"
       style="fill:#24a636;fill-opacity:1;fill-rule:nonzero;stroke:none;stroke-width:0.05538746"
       d="m 27.242828,231.8554 c 0.366669,-0.0977 1.155106,-0.2531 1.743302,-0.85658 0.281339,-0.29942 0.557129,-0.73876 0.59744,-1.32009 0.02307,-0.29223 0.01335,-0.63126 -0.06636,-1.00733 -0.09875,-0.36526 -0.241565,-0.78506 -0.481219,-1.22956 -0.738883,0.31023 -1.470967,0.62919 -2.197506,0.95691 0.634527,-0.47795 1.257609,-0.9708 1.868346,-1.47858 -0.165838,-0.2526 -0.355227,-0.51241 -0.596552,-0.765 -0.354266,-0.39923 -0.72976,-0.77169 -1.137873,-1.10044 -0.389924,-0.3452 -0.820397,-0.6369 -1.245504,-0.91317 l -1.524993,1.66325 c 0.360825,-0.64153 0.706743,-1.31547 0.999529,-1.98222 -1.670135,-0.94816 -3.428283,-1.43175 -4.97379,-1.60357 l -0.756831,1.43638 c 0.06105,-0.48771 0.105309,-0.9816 0.132791,-1.4801 -1.915628,-0.10805 -3.415933,0.22585 -4.367699,0.57053 -0.477759,0.15898 -0.830177,0.35395 -1.061722,0.46506 -0.231783,0.1193 -0.347288,0.18983 -0.347288,0.18983 l 0.0452,0.0263 c 5.945112,-0.12293 11.701554,3.50194 13.370733,8.42845" />
    <path
       id="path3230"
       style="fill:#39b54a;fill-opacity:1;fill-rule:nonzero;stroke:none;stroke-width:0.05538746"
       d="m 34.566244,224.24394 c -0.0032,0.24385 0.0026,0.49388 0.01183,0.73773 l -0.225194,-0.74699 c -1.135546,-0.0504 -2.549208,0.107 -4.052079,0.64257 0.299047,0.52218 0.608649,1.03561 0.935664,1.54954 l -1.226841,-1.44408 c -1.126958,0.43832 -2.278067,1.11125 -3.302521,2.04396 0.584678,0.55716 1.182831,1.09992 1.792853,1.6293 l -2.11313,-1.33348 -0.465656,0.5057 c -0.496126,0.57364 -0.804296,1.12153 -0.954327,1.61852 l -0.01979,0.0685 1.51432,0.67189 c -0.525287,-0.13431 -1.056119,-0.25981 -1.59166,-0.37607 -0.211451,1.14621 0.310733,1.85824 0.896366,2.26981 0.587182,0.41208 1.256894,0.56693 1.556179,0.64667 1.380868,-3.98862 5.601344,-7.1114 10.379247,-7.68349 -0.198934,-0.087 -1.226429,-0.67395 -3.135265,-0.79998" />
    <path
       id="path3232"
       style="fill:#24a636;fill-opacity:1;fill-rule:nonzero;stroke:none;stroke-width:0.05538746"
       d="m 27.322257,232.72743 c 0.36643,0.0988 1.141152,0.28964 1.977589,0.26288 0.843237,-0.0263 1.684804,-0.22481 2.395482,-0.85246 -0.686408,-0.37812 -1.367747,-0.76398 -2.043719,-1.15805 0.761183,0.30713 1.513365,0.62817 2.254989,0.96154 0.09248,-0.10345 0.186824,-0.2094 0.288613,-0.32412 0.290699,-0.36784 0.576508,-0.72848 0.85069,-1.09325 l -1.82082,-1.41733 c 0.68432,0.37865 1.336322,0.7686 1.985459,1.19407 0.521531,-0.69505 1.031194,-1.39266 1.55159,-2.05323 l -0.839003,-1.3983 c 0.365475,0.3735 0.716462,0.75368 1.053972,1.13953 0.661779,-0.81594 1.339601,-1.55521 1.875621,-2.0743 0.532203,-0.50932 0.888377,-0.8499 0.888377,-0.8499 l -0.03959,-0.0206 c -4.777904,0.57207 -8.998379,3.69486 -10.379247,7.68348" />
    <path
       id="path3234"
       style="fill:#39b54a;fill-opacity:1;fill-rule:nonzero;stroke:none;stroke-width:0.05538746"
       d="m 27.409139,251.18479 -0.795473,-0.44295 0.885396,0.16154 c 0.4647,-1.49348 0.937572,-3.31982 1.317003,-5.42089 l -2.001145,-0.45324 2.074729,0.0457 c 0.274658,-1.601 0.491534,-3.35788 0.606799,-5.2506 l -2.583912,-0.50572 2.617963,-0.0896 c 0.01504,-0.31226 0.02767,-0.62815 0.03703,-0.94814 0.03072,-1.049 -0.02869,-1.92408 -0.150978,-2.65874 l -0.01885,-0.10069 -1.702753,4.9e-4 1.615393,-0.43317 c -0.752841,-3.25245 -2.895786,-3.23239 -3.522384,-3.23239 l -0.07173,23.64317 c 0.153244,-0.30204 0.896545,-1.81915 1.692912,-4.31482" />
    <path
       id="path3236"
       style="fill:#24a636;fill-opacity:1;fill-rule:nonzero;stroke:none;stroke-width:0.05538746"
       d="m 25.787961,231.85644 c -0.738168,-0.001 -3.2513,-0.10747 -3.779805,4.58181 l 2.444377,0.267 -2.505618,0.44706 c -0.02283,0.34778 -0.03679,0.71562 -0.03798,1.11124 -0.0038,1.21414 0.05008,2.3866 0.145554,3.51121 l 2.452548,-0.1744 -2.388444,0.85505 c 0.21449,2.11237 0.57603,4.04161 0.988077,5.73366 l 1.825472,0.0771 -1.654988,0.59781 c 1.080805,4.14709 2.408779,6.69465 2.408779,6.69465 l 0.03028,-0.0591 0.07175,-23.64314" />
  </g>
</svg>
