<?xml version="1.0" encoding="UTF-8" standalone="no"?>
<svg
   viewBox="0 0 100 100"
   version="1.1"
   id="svg10323"
   sodipodi:docname="animalChallenge-icon.svg"
   inkscape:version="1.1.1 (3bf5ae0d25, 2021-09-20)"
   xmlns:inkscape="http://www.inkscape.org/namespaces/inkscape"
   xmlns:sodipodi="http://sodipodi.sourceforge.net/DTD/sodipodi-0.dtd"
   xmlns="http://www.w3.org/2000/svg"
   xmlns:svg="http://www.w3.org/2000/svg">
  <sodipodi:namedview
     id="namedview10325"
     pagecolor="#ffffff"
     bordercolor="#666666"
     borderopacity="1.0"
     inkscape:pageshadow="2"
     inkscape:pageopacity="0.0"
     inkscape:pagecheckerboard="0"
     showgrid="false"
     inkscape:zoom="8.39"
     inkscape:cx="59.535161"
     inkscape:cy="23.778308"
     inkscape:window-width="1868"
     inkscape:window-height="1446"
     inkscape:window-x="3344"
     inkscape:window-y="219"
     inkscape:window-maximized="0"
     inkscape:current-layer="svg10323" />
  <defs
     id="defs10313">
    <style
       id="style10311">.c{fill:#fff;}.d{stroke-miterlimit:10;}.d,.e{fill:none;stroke:#7300eb;stroke-linecap:round;stroke-width:4px;}.e{stroke-linejoin:round;}</style>
  </defs>
  <g
     id="a">
    <circle
       class="c"
       cx="50"
       cy="50"
       r="50"
       id="circle10315" />
  </g>
  <path
     d="m 37.913685,63.039162 c -0.142783,-0.07338 -0.361498,-0.270551 -0.486034,-0.438162 -0.216905,-0.291928 -0.227745,-0.447456 -0.257787,-3.698531 -0.01998,-2.161464 0.0104,-3.548865 0.08364,-3.820873 0.150224,-0.557885 0.653011,-1.049385 1.252216,-1.224108 l 0.480212,-0.140021 -0.406321,-0.387329 c -0.227517,-0.21688 -0.567957,-0.417447 -0.773632,-0.455769 -0.631144,-0.117603 -1.311278,-0.527965 -1.847566,-1.114755 -1.299162,-1.421486 -1.43646,-3.047935 -0.346702,-4.107059 1.197316,-1.163661 3.751626,-1.17696 4.941446,-0.02571 l 0.327726,0.317092 1.479889,-0.748462 c 3.195251,-1.616009 6.525905,-2.346052 10.288841,-2.25522 0.971957,0.02348 1.757656,0.03351 1.745998,0.02237 -0.178319,-0.170624 -2.872073,-1.395676 -4.126568,-1.876656 -2.093974,-0.802841 -2.63576,-1.079498 -3.05985,-1.562509 -0.280064,-0.31898 -0.341228,-0.4801 -0.340898,-0.898003 8.83e-4,-1.149415 1.133262,-2.017916 2.915798,-2.236376 l 0.594041,-0.07281 -0.03618,-0.570947 c -0.0324,-0.511424 -8.83e-4,-0.611099 0.302054,-0.95616 0.467196,-0.532107 1.161253,-0.776996 2.164288,-0.76364 2.820741,0.03757 6.002363,2.191175 7.497412,5.074944 l 0.286307,0.552263 0.960256,0.05475 c 0.77656,0.04428 1.098234,0.119323 1.681577,0.392303 1.943611,0.909527 3.751466,3.172479 4.325954,5.414968 0.236972,0.924956 0.170484,2.260297 -0.142746,2.866987 -0.322714,0.625052 -1.077605,1.275948 -1.818641,1.568111 -0.554315,0.218544 -0.861505,0.256317 -2.311283,0.284222 l -1.671996,0.03215 -0.23124,0.459415 c -0.456768,0.90746 -0.490713,0.826857 0.790441,1.876759 2.386122,1.955406 2.655695,2.308772 2.667738,3.496996 0.0086,0.849447 -0.254187,1.450837 -0.789975,1.8077 -0.575089,0.383047 -0.985782,0.319783 -2.227004,-0.343042 C 60.149181,58.669096 59.607139,58.517436 57.7555,58.425395 56.340234,58.355035 56.103552,58.314837 55.571132,58.054349 54.831516,57.692488 54.26664,57.04838 54.029693,56.2967 l -0.18077,-0.573474 -0.763331,-0.01951 c -1.294935,-0.03309 -2.990329,0.0398 -3.895546,0.167584 l -0.86406,0.121957 -0.489961,0.944469 c -0.786714,1.516493 -1.710838,2.290106 -3.065672,2.566352 -0.76555,0.156092 -1.388468,0.08664 -2.444615,-0.272579 -0.433431,-0.14742 -0.828144,-0.268036 -0.877143,-0.268036 -0.049,0 -0.08909,0.380006 -0.08909,0.844455 0,1.206186 -0.228358,1.87836 -0.848981,2.498981 -0.751499,0.751501 -1.918876,1.080676 -2.596845,0.732254 z m 1.661876,-2.128021 C 39.697595,60.675152 39.7394,60.232563 39.7394,59.176539 v -1.417768 l 0.315715,-0.315718 c 0.42396,-0.42396 0.729318,-0.408804 2.343409,0.116318 1.471007,0.478571 1.742185,0.508189 2.430247,0.265428 0.68768,-0.242629 1.12918,-0.728583 1.713062,-1.885542 0.284804,-0.564332 0.61573,-1.114349 0.735387,-1.222247 0.344053,-0.310239 1.741616,-0.513892 3.981278,-0.580146 2.674016,-0.0791 3.434216,-0.0021 3.823782,0.3875 0.183604,0.183608 0.321627,0.470306 0.371865,0.772434 0.204707,1.231128 0.51513,1.421264 2.484513,1.521784 1.826915,0.09324 2.727276,0.325947 4.146814,1.071779 0.558026,0.293187 1.062576,0.533071 1.121211,0.533071 0.166312,0 0.0044,-0.755237 -0.214056,-0.998323 -0.106503,-0.118516 -0.959606,-0.845604 -1.895789,-1.615754 -1.708447,-1.405454 -1.916095,-1.62308 -1.916095,-2.008203 0,-0.376677 1.268179,-2.914975 1.547957,-3.098292 0.222991,-0.14611 0.444429,-0.159567 1.43697,-0.08734 2.035786,0.148137 3.150391,-0.08983 3.701322,-0.790229 0.304615,-0.387252 0.307204,-1.429012 0.0059,-2.323784 -0.485163,-1.440186 -1.878054,-3.188417 -3.049744,-3.827772 -0.500489,-0.273091 -0.705306,-0.314415 -1.816953,-0.366571 -0.80163,-0.03761 -1.314721,-0.110217 -1.424571,-0.2016 -0.09443,-0.07854 -0.317416,-0.454227 -0.495529,-0.834849 -0.866677,-1.852073 -2.255857,-3.223896 -4.151682,-4.099822 -0.97031,-0.44831 -2.148845,-0.679944 -2.679131,-0.526568 l -0.364903,0.10554 0.513036,0.529537 c 0.356492,0.367955 0.513033,0.619164 0.513033,0.823291 0,0.786613 -0.376365,0.978389 -1.745396,0.889355 -1.067083,-0.0694 -2.25302,0.135631 -2.561326,0.442822 -0.193022,0.192322 0.01968,0.302633 2.172592,1.12679 2.100978,0.804281 2.812651,1.130425 4.672304,2.141214 1.664849,0.904902 1.947963,1.113 2.04608,1.503933 0.08293,0.330418 -0.117893,1.108355 -0.355006,1.375205 -0.323323,0.363864 -0.631312,0.406362 -1.621458,0.223745 -1.26883,-0.234014 -4.349312,-0.323762 -5.689132,-0.165749 -2.926832,0.345181 -5.474251,1.179608 -7.753645,2.539776 -1.435682,0.856704 -1.779445,0.828406 -2.490364,-0.20499 -0.398443,-0.579181 -1.552672,-0.777976 -2.444703,-0.421058 -0.755385,0.302248 -0.856628,0.892854 -0.296055,1.72705 0.411433,0.612266 0.921297,0.983952 1.470171,1.071753 0.216128,0.03458 0.490166,0.08262 0.608973,0.106771 0.118808,0.02416 0.714199,0.605921 1.323093,1.292804 0.944447,1.06543 1.107075,1.303098 1.107075,1.617948 0,0.234146 -0.09515,0.479858 -0.260272,0.672116 -0.242541,0.282394 -0.329,0.306722 -1.269088,0.357046 l -1.008815,0.054 -0.02869,3.054857 -0.02869,3.05486 0.323882,-0.167483 c 0.178139,-0.09212 0.397614,-0.310065 0.487725,-0.484318 z M 62.132423,47.68815 c -0.240284,-0.206684 -0.300591,-0.349822 -0.300591,-0.713511 0,-0.907405 1.025302,-1.308568 1.677519,-0.656348 0.402486,0.402485 0.414837,0.845996 0.03607,1.296108 -0.362124,0.430361 -0.962028,0.461678 -1.413017,0.07375 z m -32.751422,6.133551 c -0.284866,-0.362152 -0.285453,-0.586346 -0.0025,-0.94609 0.220255,-0.280007 0.245314,-0.284584 1.558394,-0.284584 1.441686,0 1.602729,0.05649 1.741901,0.610997 0.04649,0.185234 -1.24e-4,0.363518 -0.146271,0.559486 -0.209954,0.28152 -0.243259,0.288257 -1.569859,0.317772 -1.354783,0.03014 -1.355451,0.03005 -1.581687,-0.257581 z m -0.604358,-3.299525 c -0.526592,-0.288026 -0.626198,-0.748034 -0.262179,-1.210809 0.219563,-0.279132 0.248638,-0.284585 1.517014,-0.284585 1.228975,0 1.306317,0.01315 1.558268,0.265112 0.14581,0.145806 0.265109,0.337936 0.265109,0.426945 0,0.303482 -0.23934,0.687993 -0.503026,0.808136 -0.337798,0.153909 -2.291672,0.150268 -2.575186,-0.0049 z m 0.692412,-3.533619 c -0.180636,-0.146272 -0.249582,-0.314219 -0.249582,-0.607958 0,-0.684979 0.267764,-0.810057 1.734194,-0.810057 1.167256,0 1.249578,0.01452 1.500139,0.265112 0.337877,0.337876 0.337877,0.752014 0,1.08989 -0.250561,0.250566 -0.332883,0.265112 -1.500139,0.265112 -1.045756,0 -1.273279,-0.031 -1.484612,-0.202099 z"
     style="fill:#7300eb;fill-opacity:1;stroke-width:0.00756097"
     id="path8454"
     sodipodi:nodetypes="ssssscsscsccsccssccccccscssccsccsccsscssccccsssssssssscssssssccssscsssssccscsssccssssssssssssscccsssccccsscsccccccsssscccssssscccsscssc" />
</svg>
