<?xml version="1.0" encoding="UTF-8" standalone="no"?>
<svg
   viewBox="0 0 50 50"
   version="1.1"
   id="svg10323"
   sodipodi:docname="animalChallenge-square-app.svg"
   inkscape:version="1.1.1 (3bf5ae0d25, 2021-09-20)"
   width="50"
   height="50"
   xmlns:inkscape="http://www.inkscape.org/namespaces/inkscape"
   xmlns:sodipodi="http://sodipodi.sourceforge.net/DTD/sodipodi-0.dtd"
   xmlns="http://www.w3.org/2000/svg"
   xmlns:svg="http://www.w3.org/2000/svg">
  <sodipodi:namedview
     id="namedview10325"
     pagecolor="#ffffff"
     bordercolor="#666666"
     borderopacity="1.0"
     inkscape:pageshadow="2"
     inkscape:pageopacity="0.0"
     inkscape:pagecheckerboard="0"
     showgrid="false"
     inkscape:zoom="16.78"
     inkscape:cx="28.814064"
     inkscape:cy="22.914184"
     inkscape:window-width="1868"
     inkscape:window-height="1446"
     inkscape:window-x="3344"
     inkscape:window-y="219"
     inkscape:window-maximized="0"
     inkscape:current-layer="svg10323" />
  <defs
     id="defs10313">
    <style
       id="style10311">.c{fill:#fff;}.d{stroke-miterlimit:10;}.d,.e{fill:none;stroke:#7300eb;stroke-linecap:round;stroke-width:4px;}.e{stroke-linejoin:round;}</style>
  </defs>
  <g
     id="b"
     transform="matrix(0.92283915,0,0,0.92283915,-21.067419,-21.126175)">
    <rect
       class="e"
       x="25"
       y="25"
       width="50"
       height="50"
       id="rect10318" />
  </g>
  <path
     d="m 13.920813,37.048831 c -0.131765,-0.06772 -0.333604,-0.249675 -0.448531,-0.404353 -0.200168,-0.269403 -0.210172,-0.41293 -0.237896,-3.413149 -0.01844,-1.994684 0.0096,-3.275032 0.07719,-3.526051 0.138633,-0.514838 0.602625,-0.968414 1.155594,-1.129655 l 0.443159,-0.129217 -0.374969,-0.357442 c -0.209962,-0.200146 -0.524133,-0.385237 -0.713938,-0.420602 -0.582444,-0.108528 -1.210099,-0.487227 -1.705006,-1.028739 -1.198918,-1.311803 -1.325622,-2.812754 -0.31995,-3.790155 1.10493,-1.073872 3.462147,-1.086145 4.560159,-0.02373 l 0.302439,0.292625 1.365699,-0.69071 c 2.948703,-1.491317 6.022361,-2.165029 9.494946,-2.081206 0.89696,0.02167 1.622033,0.03092 1.611275,0.02064 -0.16456,-0.157458 -2.650462,-1.287984 -3.808159,-1.731852 -1.932401,-0.740893 -2.432382,-0.996203 -2.823749,-1.441944 -0.258454,-0.294367 -0.314899,-0.443055 -0.314594,-0.828712 8.15e-4,-1.060725 1.045819,-1.862212 2.690813,-2.063815 l 0.548204,-0.06719 -0.03339,-0.526892 c -0.0299,-0.471962 -8.15e-4,-0.563946 0.278747,-0.882382 0.431147,-0.491049 1.071649,-0.717043 1.997289,-0.704717 2.603091,0.03467 5.539216,2.022102 6.918906,4.683356 l 0.264215,0.50965 0.886162,0.05053 c 0.71664,0.04086 1.013493,0.110116 1.551825,0.362032 1.79364,0.839347 3.462,2.927688 3.99216,4.997145 0.218687,0.853585 0.157329,2.08589 -0.131732,2.645768 -0.297813,0.576822 -0.994456,1.177494 -1.678313,1.447114 -0.511544,0.201681 -0.795031,0.236539 -2.132942,0.262291 l -1.542984,0.02967 -0.213397,0.423966 c -0.421524,0.83744 -0.452849,0.763056 0.72945,1.731947 2.202007,1.804525 2.450779,2.130625 2.461893,3.227165 0.0079,0.783903 -0.234574,1.338889 -0.72902,1.668216 -0.530715,0.353491 -0.909718,0.295109 -2.055167,-0.316572 -1.546599,-0.825899 -2.046817,-0.965857 -3.755582,-1.050796 -1.306063,-0.06493 -1.524482,-0.102027 -2.01582,-0.342415 -0.682547,-0.33394 -1.203837,-0.928348 -1.422501,-1.622028 l -0.166821,-0.529224 -0.704432,-0.018 c -1.195017,-0.03054 -2.759593,0.03673 -3.594962,0.154653 l -0.797389,0.112547 -0.452155,0.871593 c -0.72601,1.399479 -1.578828,2.1134 -2.829122,2.36833 -0.70648,0.144048 -1.281333,0.07995 -2.255986,-0.251546 -0.399988,-0.136045 -0.764244,-0.247354 -0.809462,-0.247354 -0.04522,0 -0.08222,0.350684 -0.08222,0.779296 0,1.113115 -0.210738,1.733424 -0.783473,2.306157 -0.693513,0.693515 -1.770814,0.99729 -2.39647,0.675753 z m 1.533645,-1.963821 c 0.112617,-0.21778 0.151197,-0.626218 0.151197,-1.600759 V 32.17588 l 0.291354,-0.291357 c 0.391247,-0.391247 0.673043,-0.377261 2.162589,0.107342 1.357503,0.441645 1.607757,0.468977 2.242727,0.244948 0.634618,-0.223908 1.042052,-0.672365 1.580881,-1.740052 0.262828,-0.520788 0.56822,-1.028365 0.678644,-1.127938 0.317506,-0.2863 1.607231,-0.474239 3.674079,-0.535381 2.467687,-0.073 3.169229,-0.0019 3.528736,0.3576 0.169437,0.169441 0.29681,0.434017 0.343171,0.712833 0.188912,1.136133 0.475383,1.311598 2.292806,1.404361 1.685949,0.08605 2.516837,0.300797 3.826843,0.98908 0.514968,0.270564 0.980586,0.491939 1.034697,0.491939 0.153479,0 0.0041,-0.696963 -0.197539,-0.921292 -0.09828,-0.109371 -0.885562,-0.780356 -1.749509,-1.491081 -1.576621,-1.297008 -1.768247,-1.497842 -1.768247,-1.853248 0,-0.347612 1.170325,-2.690053 1.428515,-2.859225 0.205785,-0.134836 0.410137,-0.147255 1.326092,-0.0806 1.878704,0.136707 2.907305,-0.0829 3.415725,-0.729254 0.281111,-0.357372 0.2835,-1.318749 0.0054,-2.144479 -0.447727,-1.32906 -1.733142,-2.942396 -2.814423,-3.532418 -0.461871,-0.252019 -0.650884,-0.290155 -1.676755,-0.338286 -0.739776,-0.03471 -1.213276,-0.101713 -1.31465,-0.186044 -0.08714,-0.07248 -0.292924,-0.419179 -0.457294,-0.770432 -0.799758,-1.709166 -2.081748,-2.975138 -3.83129,-3.783477 -0.89544,-0.413718 -1.983038,-0.627479 -2.472407,-0.485937 l -0.336746,0.0974 0.473449,0.488677 c 0.328985,0.339564 0.473447,0.571389 0.473447,0.759765 0,0.725917 -0.347324,0.902896 -1.610719,0.820732 -0.984746,-0.06405 -2.079175,0.125165 -2.363692,0.408653 -0.178129,0.177482 0.01816,0.279282 2.004953,1.039846 1.938864,0.742222 2.595624,1.043201 4.311785,1.975997 1.536388,0.835079 1.797656,1.02712 1.888202,1.387888 0.07653,0.304922 -0.108796,1.022833 -0.327613,1.269093 -0.298375,0.335788 -0.582599,0.375007 -1.496345,0.20648 -1.170926,-0.215957 -4.013715,-0.29878 -5.250154,-0.152959 -2.700995,0.318546 -5.051853,1.088588 -7.155367,2.343805 -1.324903,0.7906 -1.642141,0.764485 -2.298205,-0.189173 -0.367699,-0.534491 -1.432867,-0.717947 -2.256068,-0.388569 -0.697099,0.278926 -0.79053,0.823961 -0.273211,1.593789 0.379687,0.565023 0.850209,0.90803 1.356731,0.989056 0.199452,0.03191 0.452345,0.07625 0.561985,0.09853 0.10964,0.0223 0.65909,0.559168 1.221002,1.193051 0.871572,0.98322 1.021652,1.202549 1.021652,1.493105 0,0.216079 -0.08781,0.442832 -0.24019,0.620255 -0.223826,0.260604 -0.303614,0.283055 -1.171164,0.329496 l -0.930974,0.04983 -0.02648,2.819141 -0.02648,2.819145 0.298891,-0.15456 c 0.164394,-0.08501 0.366934,-0.28614 0.450092,-0.446948 z M 36.270813,22.882316 c -0.221744,-0.190736 -0.277397,-0.322829 -0.277397,-0.658456 0,-0.837388 0.946189,-1.207597 1.54808,-0.605703 0.37143,0.371429 0.382828,0.780718 0.03329,1.196099 -0.334182,0.397154 -0.887797,0.426055 -1.303988,0.06806 z M 6.0465177,28.542597 c -0.2628854,-0.334208 -0.2634272,-0.541103 -0.00231,-0.873089 0.2032599,-0.258401 0.2263853,-0.262625 1.4381469,-0.262625 1.3304443,0 1.4790611,0.05213 1.6074945,0.563852 0.042903,0.170941 -1.145e-4,0.335469 -0.1349846,0.516316 -0.1937538,0.259797 -0.224489,0.266014 -1.4487274,0.293252 -1.2502468,0.02781 -1.2508632,0.02773 -1.4596427,-0.237706 z M 5.4887925,25.497666 c -0.4859597,-0.265801 -0.57788,-0.690315 -0.241949,-1.117382 0.2026213,-0.257593 0.2294529,-0.262626 1.3999599,-0.262626 1.1341462,0 1.2055205,0.01214 1.4380307,0.244656 0.1345592,0.134556 0.244653,0.311861 0.244653,0.394002 0,0.280065 -0.2208724,0.634906 -0.4642121,0.745779 -0.3117332,0.142033 -2.1148447,0.138673 -2.3764825,-0.0045 z m 0.6389849,-3.260962 c -0.1666979,-0.134985 -0.230324,-0.289973 -0.230324,-0.561047 0,-0.632125 0.2471031,-0.747552 1.6003821,-0.747552 1.0771895,0 1.1531595,0.0134 1.384387,0.244655 0.3118061,0.311806 0.3118061,0.693988 0,1.005794 -0.2312275,0.231232 -0.3071975,0.244655 -1.384387,0.244655 -0.9650646,0 -1.1750317,-0.02861 -1.3700581,-0.186505 z"
     style="fill:#7300eb;fill-opacity:1;stroke-width:0.00697756"
     id="path8454"
     sodipodi:nodetypes="ssssscsscsccsccssccccccscssccsccsccsscssccccsssssssssscssssssccssscsssssccscsssccssssssssssssscccsssccccsscsccccccsssscccssssscccsscssc" />
</svg>
