<?xml version="1.0" encoding="UTF-8" standalone="no"?>
<svg
   viewBox="0 0 100 100"
   version="1.1"
   id="svg10323"
   sodipodi:docname="apps2-app.svg"
   inkscape:version="1.1.1 (3bf5ae0d25, 2021-09-20)"
   xmlns:inkscape="http://www.inkscape.org/namespaces/inkscape"
   xmlns:sodipodi="http://sodipodi.sourceforge.net/DTD/sodipodi-0.dtd"
   xmlns="http://www.w3.org/2000/svg"
   xmlns:svg="http://www.w3.org/2000/svg">
  <sodipodi:namedview
     id="namedview10325"
     pagecolor="#ffffff"
     bordercolor="#666666"
     borderopacity="1.0"
     inkscape:pageshadow="2"
     inkscape:pageopacity="0.0"
     inkscape:pagecheckerboard="0"
     showgrid="false"
     inkscape:zoom="4.195"
     inkscape:cx="115.97139"
     inkscape:cy="64.243147"
     inkscape:window-width="1868"
     inkscape:window-height="1446"
     inkscape:window-x="3344"
     inkscape:window-y="219"
     inkscape:window-maximized="0"
     inkscape:current-layer="svg10323" />
  <defs
     id="defs10313">
    <style
       id="style10311">.c{fill:#fff;}.d{stroke-miterlimit:10;}.d,.e{fill:none;stroke:#7300eb;stroke-linecap:round;stroke-width:4px;}.e{stroke-linejoin:round;}</style>
  </defs>
  <g
     id="a">
    <circle
       class="c"
       cx="50"
       cy="50"
       r="50"
       id="circle10315" />
  </g>
  <g
     id="b">
    <rect
       class="e"
       x="25"
       y="25"
       width="50"
       height="50"
       id="rect10318" />
  </g>
  <path
     style="fill:#7300eb;fill-opacity:1;stroke-width:0.0537019"
     d="m 36.010457,55.864089 c -1.590061,-0.726416 -2.652388,-1.701925 -3.244666,-2.979518 -0.368422,-0.794718 -0.464523,-1.620155 -0.28167,-2.418948 0.127299,-0.556021 0.310664,-0.904847 0.738547,-1.405029 0.875455,-1.023356 2.439424,-1.530846 4.144303,-1.344768 0.565207,0.06175 1.694121,0.40064 2.251879,0.676109 0.501647,0.247768 1.181887,0.715545 1.517419,1.043441 0.131146,0.128181 0.250294,0.236623 0.264767,0.240999 0.01436,0.0044 0.986239,-4.122161 2.159457,-9.170053 l 2.133151,-9.177985 0.169135,-0.183751 c 0.331007,-0.359623 0.920351,-0.396331 1.340519,-0.08348 0.241112,0.179462 0.488248,0.600202 0.485332,0.826135 -0.0081,0.628996 0.11809,1.099572 0.595092,2.219617 0.438642,1.029922 0.845419,1.612773 2.312303,3.313099 1.126858,1.306203 1.5738,1.896796 1.996708,2.638487 0.575515,1.009316 0.869097,1.93274 0.981445,3.087045 0.08454,0.868543 0.02767,1.518649 -0.210295,2.403599 -0.483209,1.797016 -1.535249,3.532572 -2.859937,4.718018 -0.860384,0.769966 -1.179828,0.914981 -1.681934,0.763535 -0.641335,-0.193434 -0.997838,-0.931658 -0.721184,-1.493324 0.09905,-0.201041 0.110349,-0.21305 0.543322,-0.564062 l 0.330215,-0.267864 -0.0072,-0.377481 c -0.03719,-1.960413 -0.737758,-3.782469 -2.020321,-5.254521 -0.287907,-0.330491 -1.311137,-1.291881 -1.405062,-1.320215 -0.02333,-0.0068 -0.692611,2.768591 -1.48758,6.167971 -1.621715,6.934641 -1.464048,6.39699 -2.075778,7.078811 -0.882363,0.983461 -2.296383,1.46974 -3.931282,1.351959 -0.450164,-0.03238 -1.689911,-0.329354 -2.036761,-0.48781 z"
     id="path1750" />
  <path
     d="m 49.691121,71.466703 c -0.961341,-2.233365 -3.129954,-5.150442 -4.843286,-6.514874 -1.239943,-0.987435 -2.69553,-1.707846 -4.0673,-2.013015 -0.940465,-0.209217 -2.660088,-0.215756 -3.527732,-0.01341 -1.487279,0.346851 -3.07972,1.159104 -4.553043,2.322358 l -0.324629,0.256309 -0.418964,-0.550463 -0.418965,-0.550469 0.608308,-0.465434 c 4.392535,-3.360859 9.156451,-3.429818 13.361812,-0.193418 1.657732,1.275777 3.155785,3.083886 4.649316,5.611588 l 0.158579,0.268391 0.426325,-1.059693 c 1.142402,-2.839588 2.6788,-5.316555 4.524925,-7.295036 0.483847,-0.518549 1.121451,-1.138839 1.416888,-1.378429 l 0.537167,-0.435627 0.370386,0.506392 c 0.203717,0.278509 0.370393,0.542198 0.370393,0.58597 0,0.0438 -0.124193,0.174355 -0.275982,0.2902 -1.565003,1.194345 -3.608029,3.89375 -4.841031,6.396328 -0.706308,1.433567 -0.957046,2.044765 -1.466771,3.575366 l -0.418538,1.256778 -0.493068,0.02734 -0.493075,0.02734 z M 28.259116,69.035822 c -0.280893,-0.207629 -0.510715,-0.397939 -0.510715,-0.422918 0,-0.08755 0.743875,-1.061473 0.810744,-1.061473 0.08649,0 0.993014,0.743006 0.993014,0.813895 0,0.05231 -0.724795,1.047996 -0.762886,1.047996 -0.01065,0 -0.249265,-0.169877 -0.530157,-0.3775 z m 1.720698,-2.162905 c -0.236016,-0.215635 -0.428794,-0.435539 -0.428392,-0.488664 4.72e-4,-0.05313 0.205718,-0.304485 0.456262,-0.558573 l 0.455523,-0.46197 0.45595,0.492217 0.45595,0.492209 -0.392897,0.452537 c -0.21609,0.248891 -0.43348,0.455179 -0.483082,0.458424 -0.04961,0.0029 -0.283298,-0.170539 -0.519314,-0.38618 z"
     style="fill:#7300eb;fill-opacity:1;stroke-width:0.0242435"
     id="path2381-6"
     sodipodi:nodetypes="ssssscccssscssscsscsscccsssssssscscccscs" />
  <path
     style="fill:#7300eb;fill-opacity:1;stroke-width:0.0374101"
     d="m 59.220692,57.455285 c -0.1782,-0.01945 -0.34343,-0.139964 -0.39878,-0.290665 -0.0157,-0.04298 -0.0761,-1.586812 -0.13417,-3.43068 l -0.10556,-3.352483 3.08367,-6.659286 c 1.69602,-3.662608 3.15495,-6.764731 3.24207,-6.893611 0.53902,-0.797495 1.47721,-1.196988 2.4598,-1.047535 0.21084,0.03207 0.53271,0.159812 1.39254,0.552653 1.23533,0.564402 1.50355,0.731764 1.83892,1.14745 0.18371,0.227713 0.22676,0.308431 0.36278,0.679942 0.1358,0.370975 0.15522,0.461169 0.16187,0.751538 0.004,0.181483 -0.0188,0.449828 -0.051,0.596303 -0.0418,0.19003 -0.9523,2.193857 -3.17906,6.996047 l -3.12054,6.729718 -2.63841,2.101011 c -1.45113,1.155562 -2.66159,2.109486 -2.68992,2.119851 -0.0285,0.01017 -0.12927,0.01035 -0.22438,-5.7e-5 z m 2.32044,-5.312777 c -1.05172,-0.488221 -1.91831,-0.872395 -1.92577,-0.853725 -0.007,0.01892 0.0174,1.062369 0.0553,2.319351 0.0378,1.256977 0.0688,2.306874 0.0688,2.333132 2e-5,0.02627 0.83562,-0.617984 1.85695,-1.43167 l 1.85701,-1.479397 z m 5.17838,-5.427219 2.55553,-5.506974 -2.20757,-1.024228 -2.20756,-1.024232 -2.56113,5.518652 -2.56114,5.518646 2.1954,1.019053 c 1.20748,0.560492 2.2034,1.016135 2.21317,1.012555 0.01,-0.0034 1.16776,-2.484637 2.5733,-5.513472 z m 3.19637,-6.89078 c 0.29007,-0.641385 0.30037,-1.057055 0.038,-1.533594 -0.21483,-0.390208 -0.34161,-0.475617 -1.51938,-1.023172 -1.17659,-0.547049 -1.31263,-0.586494 -1.76007,-0.510287 -0.52162,0.08883 -0.84531,0.375294 -1.17721,1.041773 l -0.22152,0.444926 2.19911,1.020779 c 1.20951,0.561427 2.20812,1.017485 2.21913,1.013453 0.0112,-0.0038 0.11089,-0.208273 0.22195,-0.453881 z"
     id="path7301" />
</svg>
