<?xml version="1.0" encoding="UTF-8" standalone="no"?>
<svg
   viewBox="0 0 100 100"
   version="1.1"
   id="svg10323"
   sodipodi:docname="apps1-app.svg"
   inkscape:version="1.1.1 (3bf5ae0d25, 2021-09-20)"
   xmlns:inkscape="http://www.inkscape.org/namespaces/inkscape"
   xmlns:sodipodi="http://sodipodi.sourceforge.net/DTD/sodipodi-0.dtd"
   xmlns="http://www.w3.org/2000/svg"
   xmlns:svg="http://www.w3.org/2000/svg">
  <sodipodi:namedview
     id="namedview10325"
     pagecolor="#ffffff"
     bordercolor="#666666"
     borderopacity="1.0"
     inkscape:pageshadow="2"
     inkscape:pageopacity="0.0"
     inkscape:pagecheckerboard="0"
     showgrid="false"
     inkscape:zoom="4.195"
     inkscape:cx="115.97139"
     inkscape:cy="64.243147"
     inkscape:window-width="1868"
     inkscape:window-height="1446"
     inkscape:window-x="3832"
     inkscape:window-y="267"
     inkscape:window-maximized="0"
     inkscape:current-layer="svg10323" />
  <defs
     id="defs10313">
    <style
       id="style10311">.c{fill:#fff;}.d{stroke-miterlimit:10;}.d,.e{fill:none;stroke:#7300eb;stroke-linecap:round;stroke-width:4px;}.e{stroke-linejoin:round;}</style>
  </defs>
  <g
     id="a"
     style="fill:#ffffff">
    <circle
       class="c"
       cx="50"
       cy="50"
       r="50"
       id="circle10315"
       style="fill:#ffffff" />
  </g>
  <path
     style="fill:#7300eb;fill-opacity:1;stroke-width:0.0920025"
     d="m 67.087181,75.575742 c -2.923839,0.64861 -5.383379,0.411797 -7.512198,-0.723321 -1.324217,-0.706095 -2.307853,-1.735352 -2.882556,-3.016257 -0.400048,-0.891589 -0.50952,-1.5578 -0.440978,-2.683399 0.14026,-2.302958 1.754435,-4.61154 4.277353,-6.117411 0.836465,-0.499152 2.729744,-1.20143 3.776689,-1.400703 0.941636,-0.179213 2.354586,-0.24204 3.151851,-0.140192 0.311637,0.03983 0.586495,0.06507 0.610799,0.05611 0.02409,-0.0089 -2.907756,-6.653817 -6.515691,-14.766283 l -6.559845,-14.749966 0.04151,-0.425842 c 0.08122,-0.833411 0.849035,-1.492086 1.746467,-1.498202 0.514925,-0.0036 1.287199,0.316444 1.516486,0.628335 0.638363,0.868278 1.296716,1.381354 3.105292,2.420085 1.663065,0.955149 2.820967,1.331991 6.581956,2.142022 2.889199,0.622287 4.110006,0.968243 5.453964,1.545587 1.828911,0.785658 3.183698,1.74498 4.529097,3.207069 1.012337,1.100125 1.605806,2.047631 2.194181,3.503163 1.194785,2.955666 1.548444,6.414617 0.961378,9.403002 -0.381279,1.940979 -0.668276,2.469056 -1.511088,2.780425 -1.076506,0.397719 -2.326098,-0.243443 -2.527789,-1.296958 -0.07216,-0.377118 -0.06911,-0.405201 0.160408,-1.332119 l 0.17488,-0.707149 -0.399526,-0.508678 c -2.074946,-2.641743 -4.913961,-4.409408 -8.187267,-5.097668 -0.734836,-0.154565 -3.126346,-0.412442 -3.284009,-0.3542 -0.03885,0.0149 1.911643,4.500139 4.334628,9.968333 4.942821,11.154972 4.603257,10.257143 4.470912,11.820883 -0.190896,2.255548 -1.621972,4.380312 -3.978701,5.907302 -0.648882,0.420501 -2.650387,1.294538 -3.28818,1.436025 z"
     id="path1750" />
  <path
     style="fill:#7300eb;fill-opacity:1;stroke-width:0.102863"
     d="m 53.181732,22.993924 c 0.408524,0.433271 0.521414,1.114541 0.419969,2.534475 -0.273288,3.824881 -2.487283,10.185781 -5.283514,15.179653 -1.562309,2.790178 -3.900386,6.314611 -5.689498,8.576388 -0.84933,1.073722 -1.167769,1.367352 -1.521735,1.403197 -0.250196,0.02535 -0.418436,0.22843 -1.266991,1.52946 l -0.978491,1.500248 -0.60837,-0.735718 C 37.918406,52.577074 37.440948,52.069474 37.191812,51.853841 36.174477,50.973247 34.663633,50.258397 33.17788,49.95468 l -0.870685,-0.178005 0.844803,-1.507208 c 0.756044,-1.348875 0.837127,-1.541502 0.77183,-1.833662 -0.11881,-0.53173 -0.05066,-0.75912 0.766109,-2.553643 1.804057,-3.963814 3.85816,-7.58979 5.965848,-10.531038 3.702307,-5.166515 8.175788,-9.529348 10.731632,-10.466166 0.913818,-0.334964 1.403763,-0.305207 1.794298,0.108989 z M 33.909523,52.250849 c 1.675938,0.616693 3.241073,2.182328 3.794581,3.795767 0.532118,1.551148 0.519076,3.047438 -0.0392,4.505744 -0.387724,1.012636 -0.897225,1.678024 -1.908382,2.492287 -0.931942,0.75046 -1.72841,1.063062 -3.399636,1.334219 -0.551403,0.08946 -1.318337,0.274013 -1.704278,0.410079 -0.860738,0.303479 -1.965582,1.144039 -2.818209,2.14409 -0.339527,0.398241 -0.728546,0.784233 -0.864492,0.857737 -0.391242,0.211559 -0.845021,0.100463 -1.349774,-0.330556 -1.222361,-1.043774 -1.652006,-3.093323 -1.291983,-6.163005 0.275761,-2.351133 1.054928,-4.910056 1.936604,-6.360169 1.302972,-2.143037 3.738404,-3.31595 6.238899,-3.0047 0.44915,0.05591 1.081821,0.199232 1.405949,0.318507 z"
     id="path882"
     sodipodi:nodetypes="sssssscssscsssssssssssssssssss" />
</svg>
