<?xml version="1.0" encoding="UTF-8" standalone="no"?>
<svg
   viewBox="0 0 100 100"
   version="1.1"
   id="svg10323"
   sodipodi:docname="apps1-app.svg"
   inkscape:version="1.1.1 (3bf5ae0d25, 2021-09-20)"
   xmlns:inkscape="http://www.inkscape.org/namespaces/inkscape"
   xmlns:sodipodi="http://sodipodi.sourceforge.net/DTD/sodipodi-0.dtd"
   xmlns="http://www.w3.org/2000/svg"
   xmlns:svg="http://www.w3.org/2000/svg">
  <sodipodi:namedview
     id="namedview10325"
     pagecolor="#ffffff"
     bordercolor="#666666"
     borderopacity="1.0"
     inkscape:pageshadow="2"
     inkscape:pageopacity="0.0"
     inkscape:pagecheckerboard="0"
     showgrid="false"
     inkscape:zoom="4.195"
     inkscape:cx="115.97139"
     inkscape:cy="64.243147"
     inkscape:window-width="1868"
     inkscape:window-height="1446"
     inkscape:window-x="3832"
     inkscape:window-y="267"
     inkscape:window-maximized="0"
     inkscape:current-layer="svg10323" />
  <defs
     id="defs10313">
    <style
       id="style10311">.c{fill:#fff;}.d{stroke-miterlimit:10;}.d,.e{fill:none;stroke:#7300eb;stroke-linecap:round;stroke-width:4px;}.e{stroke-linejoin:round;}</style>
  </defs>
  <g
     id="a"
     style="fill:#ffffff">
    <circle
       class="c"
       cx="50"
       cy="50"
       r="50"
       id="circle10315"
       style="fill:#ffffff" />
  </g>
  <path
     style="fill:#7300eb;fill-opacity:1;stroke-width:0.0754862"
     d="m 64.915959,67.413762 c -2.398951,0.532171 -4.416953,0.337871 -6.163606,-0.59347 -1.086493,-0.579337 -1.893546,-1.423821 -2.365079,-2.474778 -0.328231,-0.73153 -0.41805,-1.278143 -0.361813,-2.201674 0.115081,-1.889531 1.439478,-3.783675 3.509481,-5.019212 0.686303,-0.409544 2.239699,-0.985748 3.098697,-1.149248 0.772593,-0.147041 1.93189,-0.198589 2.586029,-0.115025 0.255693,0.03268 0.481208,0.05339 0.501149,0.04604 0.01976,-0.0073 -2.385755,-5.459321 -5.345992,-12.115435 l -5.38222,-12.102048 0.03406,-0.349394 c 0.06664,-0.683797 0.696616,-1.224227 1.432941,-1.229245 0.422485,-0.003 1.056121,0.259637 1.244246,0.515537 0.523764,0.712404 1.063929,1.133372 2.547829,1.98563 1.364511,0.78368 2.314546,1.092872 5.400361,1.757486 2.370529,0.510574 3.372176,0.794424 4.474866,1.268123 1.500585,0.644616 2.61216,1.43172 3.716033,2.631334 0.830602,0.902631 1.317531,1.680041 1.800281,2.874275 0.980297,2.425064 1.270467,5.263063 0.788791,7.714972 -0.312832,1.592534 -0.548307,2.02581 -1.239817,2.281282 -0.883251,0.326321 -1.908516,-0.19974 -2.074,-1.064127 -0.05921,-0.309418 -0.0567,-0.332459 0.131612,-1.092977 l 0.143486,-0.580201 -0.327804,-0.417361 c -1.70245,-2.167496 -4.031805,-3.617829 -6.717486,-4.182532 -0.602918,-0.126818 -2.565103,-0.338401 -2.694462,-0.290615 -0.03188,0.01223 1.568464,3.692273 3.556474,8.178816 4.055484,9.152427 3.776878,8.415777 3.668292,9.698794 -0.156626,1.850631 -1.330795,3.593957 -3.264443,4.846821 -0.532395,0.345013 -2.174589,1.062143 -2.697885,1.17823 z"
     id="path1750" />
  <path
     style="fill:#7300eb;fill-opacity:1;stroke-width:0.102863"
     d="m 53.181732,22.993924 c 0.408524,0.433271 0.521414,1.114541 0.419969,2.534475 -0.273288,3.824881 -2.487283,10.185781 -5.283514,15.179653 -1.562309,2.790178 -3.900386,6.314611 -5.689498,8.576388 -0.84933,1.073722 -1.167769,1.367352 -1.521735,1.403197 -0.250196,0.02535 -0.418436,0.22843 -1.266991,1.52946 l -0.978491,1.500248 -0.60837,-0.735718 C 37.918406,52.577074 37.440948,52.069474 37.191812,51.853841 36.174477,50.973247 34.663633,50.258397 33.17788,49.95468 l -0.870685,-0.178005 0.844803,-1.507208 c 0.756044,-1.348875 0.837127,-1.541502 0.77183,-1.833662 -0.11881,-0.53173 -0.05066,-0.75912 0.766109,-2.553643 1.804057,-3.963814 3.85816,-7.58979 5.965848,-10.531038 3.702307,-5.166515 8.175788,-9.529348 10.731632,-10.466166 0.913818,-0.334964 1.403763,-0.305207 1.794298,0.108989 z M 33.909523,52.250849 c 1.675938,0.616693 3.241073,2.182328 3.794581,3.795767 0.532118,1.551148 0.519076,3.047438 -0.0392,4.505744 -0.387724,1.012636 -0.897225,1.678024 -1.908382,2.492287 -0.931942,0.75046 -1.72841,1.063062 -3.399636,1.334219 -0.551403,0.08946 -1.318337,0.274013 -1.704278,0.410079 -0.860738,0.303479 -1.965582,1.144039 -2.818209,2.14409 -0.339527,0.398241 -0.728546,0.784233 -0.864492,0.857737 -0.391242,0.211559 -0.845021,0.100463 -1.349774,-0.330556 -1.222361,-1.043774 -1.652006,-3.093323 -1.291983,-6.163005 0.275761,-2.351133 1.054928,-4.910056 1.936604,-6.360169 1.302972,-2.143037 3.738404,-3.31595 6.238899,-3.0047 0.44915,0.05591 1.081821,0.199232 1.405949,0.318507 z"
     id="path882"
     sodipodi:nodetypes="sssssscssscsssssssssssssssssss" />
  <path
     d="M 53.492693,56.651862 C 52.982245,55.466 51.830765,53.917104 50.921028,53.192624 50.262649,52.668321 49.489768,52.2858 48.761392,52.123763 c -0.499364,-0.111089 -1.412441,-0.114561 -1.873139,-0.0071 -0.789708,0.184169 -1.635255,0.615455 -2.417553,1.233114 l -0.17237,0.136094 -0.22246,-0.292282 -0.22246,-0.292286 0.322996,-0.247134 c 2.332328,-1.784533 4.86185,-1.821148 7.094793,-0.1027 0.880215,0.677406 1.675644,1.637468 2.468672,2.979615 l 0.0842,0.142509 0.226368,-0.562671 c 0.606587,-1.507751 1.422377,-2.822959 2.402624,-3.873484 0.25691,-0.275337 0.595462,-0.604695 0.752332,-0.731912 l 0.285223,-0.231307 0.196665,0.268882 c 0.108169,0.147881 0.19667,0.287893 0.19667,0.311135 0,0.02326 -0.06594,0.09258 -0.14654,0.154089 -0.830978,0.634168 -1.915774,2.067486 -2.570468,3.396293 -0.375032,0.761189 -0.508168,1.08572 -0.778819,1.898431 l -0.222233,0.667318 -0.261807,0.01452 -0.261811,0.01452 z M 42.112827,55.361124 C 41.96368,55.250878 41.84165,55.149828 41.84165,55.136565 c 0,-0.04649 0.394979,-0.563616 0.430485,-0.563616 0.04592,0 0.527266,0.394518 0.527266,0.432158 0,0.02777 -0.384848,0.55646 -0.405074,0.55646 -0.0057,0 -0.132353,-0.0902 -0.2815,-0.200443 z m 0.913648,-1.148449 c -0.125318,-0.114497 -0.227679,-0.231261 -0.227465,-0.259469 2.5e-4,-0.02821 0.109231,-0.161674 0.242264,-0.296588 l 0.241871,-0.245295 0.242098,0.261355 0.242098,0.261351 -0.208618,0.240286 c -0.114739,0.132155 -0.230167,0.241689 -0.256505,0.243412 -0.02634,0.0015 -0.150424,-0.09055 -0.275743,-0.205052 z"
     style="fill:#7300eb;fill-opacity:1;stroke-width:0.0128727"
     id="path2381-6"
     sodipodi:nodetypes="ssssscccssscssscsscsscccsssssssscscccscs" />
</svg>
