<?xml version="1.0" encoding="UTF-8" standalone="no"?>
<svg
   viewBox="0 0 100 100"
   version="1.1"
   id="svg10323"
   sodipodi:docname="apps1-app.svg"
   inkscape:version="1.1.1 (3bf5ae0d25, 2021-09-20)"
   xmlns:inkscape="http://www.inkscape.org/namespaces/inkscape"
   xmlns:sodipodi="http://sodipodi.sourceforge.net/DTD/sodipodi-0.dtd"
   xmlns="http://www.w3.org/2000/svg"
   xmlns:svg="http://www.w3.org/2000/svg">
  <sodipodi:namedview
     id="namedview10325"
     pagecolor="#ffffff"
     bordercolor="#666666"
     borderopacity="1.0"
     inkscape:pageshadow="2"
     inkscape:pageopacity="0.0"
     inkscape:pagecheckerboard="0"
     showgrid="false"
     inkscape:zoom="4.195"
     inkscape:cx="115.97139"
     inkscape:cy="64.243147"
     inkscape:window-width="1868"
     inkscape:window-height="1446"
     inkscape:window-x="3344"
     inkscape:window-y="219"
     inkscape:window-maximized="0"
     inkscape:current-layer="svg10323" />
  <defs
     id="defs10313">
    <style
       id="style10311">.c{fill:#fff;}.d{stroke-miterlimit:10;}.d,.e{fill:none;stroke:#7300eb;stroke-linecap:round;stroke-width:4px;}.e{stroke-linejoin:round;}</style>
  </defs>
  <g
     id="a">
    <circle
       class="c"
       cx="50"
       cy="50"
       r="50"
       id="circle10315" />
  </g>
  <g
     id="b">
    <rect
       class="e"
       x="25"
       y="25"
       width="50"
       height="50"
       id="rect10318" />
  </g>
  <path
     style="fill:#7300eb;fill-opacity:1;stroke-width:0.0537019"
     d="m 62.052217,56.648485 c -1.706647,0.378594 -3.142282,0.240366 -4.384875,-0.422203 -0.772946,-0.412148 -1.347095,-1.012926 -1.68255,-1.760591 -0.233508,-0.520421 -0.297407,-0.909289 -0.257399,-1.566302 0.08187,-1.344238 1.024065,-2.691759 2.496694,-3.570737 0.488245,-0.291355 1.593353,-0.701275 2.204456,-0.817591 0.549633,-0.104607 1.374373,-0.141279 1.839737,-0.08183 0.181903,0.02325 0.342338,0.03798 0.356524,0.03275 0.01406,-0.0052 -1.697259,-3.883837 -3.803213,-8.619089 l -3.828986,-8.609565 0.02423,-0.248564 c 0.04741,-0.486463 0.495582,-0.870932 1.019414,-0.874502 0.300562,-0.0021 0.751339,0.184709 0.885174,0.36676 0.372613,0.506814 0.756894,0.806297 1.812561,1.412605 0.970732,0.557521 1.6466,0.777484 3.841892,1.2503 1.686427,0.363229 2.399013,0.565164 3.183482,0.90216 1.067537,0.458589 1.858327,1.018546 2.643637,1.871968 0.590902,0.642144 0.93731,1.195204 1.280745,2.044799 0.697397,1.725224 0.903828,3.744216 0.561157,5.488538 -0.222553,1.132951 -0.390073,1.44119 -0.882023,1.622936 -0.628357,0.232149 -1.357745,-0.142098 -1.475472,-0.757035 -0.04212,-0.220124 -0.04034,-0.236516 0.09363,-0.777559 L 68.08311,43.12297 67.849906,42.826054 c -1.211147,-1.541987 -2.868282,-2.573774 -4.778913,-2.975512 -0.428924,-0.09022 -1.82485,-0.240743 -1.916878,-0.206747 -0.02268,0.0087 1.115827,2.626734 2.530125,5.818523 2.885128,6.511164 2.686924,5.987101 2.609674,6.899857 -0.111426,1.316565 -0.946746,2.556791 -2.32237,3.448096 -0.378753,0.245447 -1.547033,0.755623 -1.919313,0.838209 z"
     id="path1750" />
  <path
     style="fill:#7300eb;fill-opacity:1;stroke-width:0.0611223"
     d="m 52.992605,33.233327 c 0.24275,0.257455 0.30983,0.662272 0.24955,1.506012 -0.16239,2.272785 -1.47797,6.052499 -3.13952,9.019911 -0.92834,1.657953 -2.31765,3.752208 -3.38076,5.09618 -0.50468,0.638017 -0.6939,0.812495 -0.90423,0.833795 -0.14867,0.01506 -0.24864,0.135735 -0.75286,0.908821 l -0.58143,0.891463 -0.3615,-0.437171 c -0.19888,-0.24039 -0.48259,-0.542011 -0.63063,-0.670143 -0.60451,-0.523258 -1.50227,-0.948029 -2.38512,-1.128501 l -0.51737,-0.105772 0.50199,-0.895599 c 0.44925,-0.801516 0.49743,-0.915977 0.45863,-1.089582 -0.0706,-0.31596 -0.0301,-0.451077 0.45523,-1.517402 1.07199,-2.35534 2.29256,-4.509933 3.54497,-6.257654 2.19995,-3.069998 4.85814,-5.662439 6.37685,-6.219107 0.543,-0.199039 0.83413,-0.181357 1.06619,0.06476 z m -11.45175,17.384775 c 0.99586,0.366445 1.92588,1.296762 2.25478,2.255485 0.31619,0.921708 0.30844,1.81082 -0.0233,2.677361 -0.23039,0.601719 -0.53314,0.997099 -1.13398,1.480943 -0.55377,0.445931 -1.02704,0.631683 -2.0201,0.792807 -0.32765,0.05316 -0.78337,0.162821 -1.0127,0.243673 -0.51146,0.180331 -1.16797,0.6798 -1.67461,1.274041 -0.20175,0.236639 -0.43291,0.466 -0.51369,0.509677 -0.23248,0.12571 -0.50212,0.0597 -0.80205,-0.19642 -0.72634,-0.620222 -0.98164,-1.838085 -0.76771,-3.662123 0.16386,-1.397068 0.62685,-2.917607 1.15075,-3.77928 0.77424,-1.273415 2.2214,-1.970372 3.70722,-1.785424 0.26689,0.03322 0.64283,0.118386 0.83543,0.18926 z"
     id="path882"
     sodipodi:nodetypes="sssssscssscsssssssssssssssssss" />
  <path
     d="m 51.691121,71.466703 c -0.961341,-2.233365 -3.129954,-5.150442 -4.843286,-6.514874 -1.239943,-0.987435 -2.69553,-1.707846 -4.0673,-2.013015 -0.940465,-0.209217 -2.660088,-0.215756 -3.527732,-0.01341 -1.487279,0.346851 -3.07972,1.159104 -4.553043,2.322358 l -0.324629,0.256309 -0.418964,-0.550463 -0.418965,-0.550469 0.608308,-0.465434 c 4.392535,-3.360859 9.156451,-3.429818 13.361812,-0.193418 1.657732,1.275777 3.155785,3.083886 4.649316,5.611588 l 0.158579,0.268391 0.426325,-1.059693 c 1.142402,-2.839588 2.6788,-5.316555 4.524925,-7.295036 0.483847,-0.518549 1.121451,-1.138839 1.416888,-1.378429 l 0.537167,-0.435627 0.370386,0.506392 c 0.203717,0.278509 0.370393,0.542198 0.370393,0.58597 0,0.0438 -0.124193,0.174355 -0.275982,0.2902 -1.565003,1.194345 -3.608029,3.89375 -4.841031,6.396328 -0.706308,1.433567 -0.957046,2.044765 -1.466771,3.575366 l -0.418538,1.256778 -0.493068,0.02734 -0.493075,0.02734 z M 30.259116,69.035822 c -0.280893,-0.207629 -0.510715,-0.397939 -0.510715,-0.422918 0,-0.08755 0.743875,-1.061473 0.810744,-1.061473 0.08649,0 0.993014,0.743006 0.993014,0.813895 0,0.05231 -0.724795,1.047996 -0.762886,1.047996 -0.01065,0 -0.249265,-0.169877 -0.530157,-0.3775 z m 1.720698,-2.162905 c -0.236016,-0.215635 -0.428794,-0.435539 -0.428392,-0.488664 4.72e-4,-0.05313 0.205718,-0.304485 0.456262,-0.558573 l 0.455523,-0.46197 0.45595,0.492217 0.45595,0.492209 -0.392897,0.452537 c -0.21609,0.248891 -0.43348,0.455179 -0.483082,0.458424 -0.04961,0.0029 -0.283298,-0.170539 -0.519314,-0.38618 z"
     style="fill:#7300eb;fill-opacity:1;stroke-width:0.0242435"
     id="path2381-6"
     sodipodi:nodetypes="ssssscccssscssscsscsscccsssssssscscccscs" />
</svg>
