<?xml version="1.0" encoding="UTF-8" standalone="no"?>
<svg
   viewBox="0 0 50 50"
   version="1.1"
   id="svg10323"
   sodipodi:docname="apps2-square-app.svg"
   inkscape:version="1.1.1 (3bf5ae0d25, 2021-09-20)"
   width="50"
   height="50"
   xmlns:inkscape="http://www.inkscape.org/namespaces/inkscape"
   xmlns:sodipodi="http://sodipodi.sourceforge.net/DTD/sodipodi-0.dtd"
   xmlns="http://www.w3.org/2000/svg"
   xmlns:svg="http://www.w3.org/2000/svg">
  <sodipodi:namedview
     id="namedview10325"
     pagecolor="#ffffff"
     bordercolor="#666666"
     borderopacity="1.0"
     inkscape:pageshadow="2"
     inkscape:pageopacity="0.0"
     inkscape:pagecheckerboard="0"
     showgrid="false"
     inkscape:zoom="16"
     inkscape:cx="25.15625"
     inkscape:cy="30.90625"
     inkscape:window-width="1868"
     inkscape:window-height="1446"
     inkscape:window-x="3344"
     inkscape:window-y="219"
     inkscape:window-maximized="0"
     inkscape:current-layer="svg10323" />
  <defs
     id="defs10313">
    <style
       id="style10311">.c{fill:#fff;}.d{stroke-miterlimit:10;}.d,.e{fill:none;stroke:#7300eb;stroke-linecap:round;stroke-width:4px;}.e{stroke-linejoin:round;}</style>
  </defs>
  <g
     id="b"
     transform="matrix(0.92470113,0,0,0.92470113,-21.17726,-21.157782)">
    <rect
       class="e"
       x="25"
       y="25"
       width="50"
       height="50"
       id="rect10318" />
  </g>
  <path
     style="fill:#7300eb;fill-opacity:1;stroke-width:0.0496582"
     d="M 12.12165,30.499804 C 10.651319,29.828086 9.6689841,28.926032 9.1213041,27.74464 8.7806239,27.009764 8.6917592,26.246481 8.8608435,25.507837 8.9785571,24.993683 9.1481151,24.671123 9.5437786,24.208605 10.353313,23.262306 11.799517,22.79303 13.37602,22.965096 c 0.522648,0.0571 1.566556,0.370472 2.082315,0.625199 0.463874,0.229111 1.092893,0.661665 1.403159,0.964871 0.121271,0.118529 0.231448,0.218805 0.244831,0.222852 0.01328,0.0041 0.911976,-3.811767 1.996852,-8.479558 l 1.972527,-8.4868934 0.156399,-0.1699148 c 0.306083,-0.3325438 0.85105,-0.3664877 1.23958,-0.077194 0.222956,0.1659487 0.451483,0.5550075 0.448787,0.763928 -0.0075,0.5816333 0.109198,1.0167754 0.550282,2.0524822 0.405613,0.95237 0.78176,1.491333 2.138189,3.063626 1.042007,1.207848 1.455295,1.75397 1.846359,2.439812 0.532179,0.933316 0.803654,1.787207 0.907543,2.854594 0.07817,0.803143 0.02559,1.404297 -0.19446,2.222611 -0.446824,1.661703 -1.419647,3.266573 -2.644587,4.362757 -0.795598,0.711988 -1.090988,0.846084 -1.555286,0.706041 -0.593044,-0.178868 -0.922702,-0.861505 -0.66688,-1.380878 0.09159,-0.185903 0.10204,-0.197008 0.50241,-0.521589 l 0.305351,-0.247694 -0.0067,-0.349057 c -0.03439,-1.812796 -0.682206,-3.497653 -1.868193,-4.858862 -0.266228,-0.305605 -1.21241,-1.194603 -1.299263,-1.220804 -0.02157,-0.0063 -0.640458,2.560119 -1.375567,5.70353 -1.499601,6.41247 -1.353807,5.915304 -1.919474,6.545784 -0.815922,0.909408 -2.123468,1.359071 -3.635261,1.250158 -0.416267,-0.02994 -1.562662,-0.304554 -1.883395,-0.451078 z"
     id="path1750" />
  <path
     d="M 24.772176,44.927559 C 23.883223,42.862364 21.877904,40.164939 20.293584,38.903248 19.147007,37.990165 17.801024,37.324 16.532547,37.04181 15.662898,36.848347 14.07276,36.8423 13.270449,37.02941 11.89516,37.350144 10.422628,38.101235 9.0602452,39.176897 L 8.7600604,39.413906 8.3726439,38.904893 7.9852265,38.395873 8.5477296,37.965486 c 4.0617814,-3.10779 8.4669804,-3.171557 12.3556824,-0.178854 1.532907,1.179712 2.918158,2.851673 4.299228,5.189042 l 0.146638,0.248181 0.394223,-0.979899 c 1.056381,-2.62577 2.477089,-4.916224 4.184203,-6.745728 0.447414,-0.479503 1.037007,-1.053086 1.310198,-1.274635 l 0.496719,-0.402825 0.342497,0.468262 c 0.188377,0.257537 0.342502,0.501371 0.342502,0.541847 0,0.0405 -0.114841,0.161226 -0.2552,0.268348 -1.447161,1.104412 -3.336349,3.600555 -4.476507,5.914692 -0.653124,1.325621 -0.884982,1.890796 -1.356325,3.306145 l -0.387023,1.162144 -0.45594,0.02528 -0.455947,0.02528 z M 4.9539767,42.67972 C 4.6942346,42.487726 4.4817179,42.311746 4.4817179,42.288648 c 0,-0.08096 0.6878621,-0.981546 0.7496959,-0.981546 0.079977,0 0.9182412,0.687059 0.9182412,0.75261 0,0.04837 -0.6702188,0.969083 -0.7054416,0.969083 -0.00985,0 -0.2304956,-0.157085 -0.4902367,-0.349075 z M 6.545108,40.67968 C 6.3268638,40.480282 6.1486018,40.276936 6.1489735,40.227812 c 4.364e-4,-0.04913 0.1902276,-0.281558 0.421906,-0.516513 l 0.4212226,-0.427185 0.4216175,0.455154 0.4216175,0.455146 -0.3633123,0.418462 C 7.2722061,40.843025 7.0711853,41.03378 7.0253183,41.036781 6.9794439,41.039462 6.7633523,40.879083 6.545108,40.67968 Z"
     style="fill:#7300eb;fill-opacity:1;stroke-width:0.022418"
     id="path2381-6"
     sodipodi:nodetypes="ssssscccssscssscsscsscccsssssssscscccscs" />
  <path
     style="fill:#7300eb;fill-opacity:1;stroke-width:0.0345932"
     d="m 33.584181,31.971185 c -0.164782,-0.01799 -0.31757,-0.129425 -0.368753,-0.268778 -0.01452,-0.03974 -0.07037,-1.467327 -0.124067,-3.172354 l -0.09761,-3.100045 2.851473,-6.157849 c 1.568311,-3.386818 2.917386,-6.255355 2.997946,-6.37453 0.498432,-0.737445 1.365977,-1.106856 2.274579,-0.968657 0.194964,0.02965 0.492598,0.147779 1.287684,0.511039 1.142311,0.521903 1.390334,0.676663 1.700451,1.061048 0.169877,0.210567 0.209685,0.285207 0.335463,0.628743 0.125575,0.343041 0.143532,0.426444 0.149682,0.694949 0.0037,0.167817 -0.01739,0.415956 -0.04716,0.551402 -0.03865,0.175721 -0.880593,2.028662 -2.93968,6.469252 l -2.885567,6.222978 -2.439741,1.942807 c -1.341862,1.06855 -2.461175,1.950644 -2.487372,1.960229 -0.02635,0.0094 -0.119536,0.0096 -0.207485,-5.3e-5 z m 2.145713,-4.912731 c -0.972527,-0.451459 -1.773863,-0.806705 -1.780762,-0.789441 -0.0065,0.0175 0.01609,0.982374 0.05114,2.144707 0.03495,1.162328 0.06362,2.133169 0.06362,2.15745 1.8e-5,0.02429 0.772699,-0.571451 1.717124,-1.323867 l 1.717179,-1.368 z m 4.788454,-5.018556 2.363101,-5.092305 -2.041342,-0.947104 -2.041333,-0.947109 -2.36828,5.103104 -2.368289,5.103098 2.030089,0.942319 c 1.116558,0.518288 2.037486,0.939622 2.046521,0.936311 0.0092,-0.0031 1.079829,-2.297546 2.379533,-5.098314 z m 2.955687,-6.371912 c 0.268228,-0.593089 0.277752,-0.97746 0.03514,-1.418116 -0.198654,-0.360825 -0.315888,-0.439803 -1.404973,-0.946128 -1.087994,-0.505857 -1.21379,-0.542332 -1.627539,-0.471863 -0.482342,0.08214 -0.781659,0.347035 -1.088567,0.963329 l -0.20484,0.411423 2.03352,0.943916 c 1.118435,0.519152 2.041851,0.940869 2.052032,0.937141 0.01036,-0.0035 0.10254,-0.19259 0.205237,-0.419704 z"
     id="path7301" />
</svg>
