<?xml version="1.0" encoding="UTF-8" standalone="no"?>
<svg
   viewBox="0 0 50 50"
   version="1.1"
   id="svg10323"
   sodipodi:docname="apps1-square-app.svg"
   inkscape:version="1.1.1 (3bf5ae0d25, 2021-09-20)"
   width="50"
   height="50"
   xmlns:inkscape="http://www.inkscape.org/namespaces/inkscape"
   xmlns:sodipodi="http://sodipodi.sourceforge.net/DTD/sodipodi-0.dtd"
   xmlns="http://www.w3.org/2000/svg"
   xmlns:svg="http://www.w3.org/2000/svg">
  <sodipodi:namedview
     id="namedview10325"
     pagecolor="#ffffff"
     bordercolor="#666666"
     borderopacity="1.0"
     inkscape:pageshadow="2"
     inkscape:pageopacity="0.0"
     inkscape:pagecheckerboard="0"
     showgrid="false"
     inkscape:zoom="11.865252"
     inkscape:cx="32.911227"
     inkscape:cy="33.669744"
     inkscape:window-width="1868"
     inkscape:window-height="1446"
     inkscape:window-x="3344"
     inkscape:window-y="219"
     inkscape:window-maximized="0"
     inkscape:current-layer="svg10323" />
  <defs
     id="defs10313">
    <style
       id="style10311">.c{fill:#fff;}.d{stroke-miterlimit:10;}.d,.e{fill:none;stroke:#7300eb;stroke-linecap:round;stroke-width:4px;}.e{stroke-linejoin:round;}</style>
  </defs>
  <g
     id="b"
     transform="matrix(0.9237022,0,0,0.9237022,-21.151668,-21.151668)">
    <rect
       class="e"
       x="25"
       y="25"
       width="50"
       height="50"
       id="rect10318" />
  </g>
  <path
     style="fill:#7300eb;fill-opacity:1;stroke-width:0.0496045"
     d="m 36.1661,31.174661 c -1.576434,0.349708 -2.902533,0.222027 -4.050319,-0.38999 -0.713973,-0.380701 -1.244315,-0.935642 -1.554175,-1.626262 -0.215691,-0.480713 -0.274715,-0.839912 -0.237761,-1.446797 0.07562,-1.241675 0.945932,-2.486383 2.306202,-3.298298 0.450992,-0.269125 1.471784,-0.64777 2.036261,-0.75521 0.507697,-0.09663 1.269511,-0.1305 1.699369,-0.07558 0.168025,0.02148 0.316219,0.03508 0.329323,0.03025 0.01299,-0.0048 -1.567762,-3.587508 -3.513037,-7.96147 L 29.645121,7.69863 29.667501,7.4690302 c 0.04379,-0.4493465 0.457771,-0.8044807 0.941635,-0.8077792 0.277629,-0.0019 0.694014,0.1706168 0.817637,0.3387763 0.344185,0.4681467 0.699144,0.7447786 1.674267,1.3048266 0.896667,0.5149835 1.520968,0.718164 3.548763,1.1549056 1.557757,0.3355149 2.215975,0.522043 2.94059,0.8333265 0.986088,0.4236 1.716541,0.940834 2.441934,1.729142 0.545818,0.593149 0.865796,1.104012 1.183027,1.888785 0.644188,1.593593 0.834867,3.458541 0.518341,5.069773 -0.205573,1.046511 -0.360311,1.331232 -0.814726,1.499111 -0.580415,0.214436 -1.254152,-0.131256 -1.362897,-0.699276 -0.0389,-0.203329 -0.03726,-0.21847 0.08649,-0.718232 l 0.0943,-0.381271 -0.21541,-0.274261 c -1.118738,-1.424337 -2.649439,-2.3774 -4.414292,-2.748486 -0.396199,-0.08334 -1.685618,-0.222375 -1.770625,-0.190974 -0.02095,0.008 1.030692,2.426321 2.337082,5.374583 2.665,6.014377 2.481917,5.530299 2.410561,6.373414 -0.102925,1.216114 -0.87451,2.361713 -2.145179,3.185014 -0.349853,0.22672 -1.428997,0.69797 -1.772873,0.774254 z"
     id="path1750" />
  <path
     style="fill:#7300eb;fill-opacity:1;stroke-width:0.0564588"
     d="m 27.797717,9.5460292 c 0.224229,0.2378108 0.28619,0.6117418 0.23051,1.3911058 -0.149999,2.099376 -1.365204,5.590706 -2.899982,8.331711 -0.857509,1.531455 -2.140817,3.465922 -3.122816,4.707353 -0.466173,0.589338 -0.640956,0.750502 -0.835239,0.770178 -0.137326,0.01392 -0.229669,0.12538 -0.695419,0.839481 l -0.537068,0.823445 -0.333918,-0.403815 C 19.42008,25.783439 19.158015,25.504831 19.021269,25.386475 18.462883,24.90314 17.63362,24.510778 16.81813,24.344077 l -0.477896,-0.0977 0.46369,-0.827267 c 0.414973,-0.740363 0.459476,-0.846089 0.423638,-1.006449 -0.06522,-0.291853 -0.02781,-0.416661 0.420496,-1.401627 0.990199,-2.175632 2.117642,-4.165835 3.274496,-5.780209 2.032099,-2.835764 4.487475,-5.230407 5.890309,-5.744602 0.501573,-0.1838536 0.77049,-0.1675197 0.984844,0.05982 z M 17.21971,25.604384 c 0.919879,0.338485 1.778939,1.19782 2.082747,2.083394 0.292063,0.851385 0.284905,1.672659 -0.02152,2.473086 -0.212811,0.55581 -0.492463,0.921023 -1.04746,1.367951 -0.511518,0.411908 -0.948679,0.583487 -1.865972,0.732318 -0.30265,0.04911 -0.723599,0.150398 -0.935432,0.225082 -0.472436,0.166571 -1.078857,0.627932 -1.546842,1.176834 -0.186356,0.218584 -0.399879,0.430445 -0.474496,0.470789 -0.214742,0.116118 -0.463809,0.05514 -0.740855,-0.181433 -0.670921,-0.572902 -0.906743,-1.697843 -0.709136,-3.382711 0.151358,-1.290476 0.579024,-2.695 1.062951,-3.490929 0.715167,-1.176256 2.051912,-1.820038 3.424366,-1.649201 0.246528,0.03069 0.593785,0.109353 0.77169,0.174821 z"
     id="path882"
     sodipodi:nodetypes="sssssscssscsssssssssssssssssss" />
  <path
     d="m 26.595534,44.862282 c -0.887996,-2.062964 -2.891146,-4.757474 -4.473756,-6.017804 -1.145338,-0.912095 -2.489864,-1.577539 -3.756973,-1.859426 -0.868709,-0.193255 -2.457129,-0.199294 -3.258573,-0.01239 -1.373804,0.320387 -2.844744,1.070667 -4.205657,2.145167 l -0.299861,0.236754 -0.386997,-0.508465 -0.3869985,-0.50847 0.5618945,-0.429922 c 4.057394,-3.104433 8.457833,-3.168131 12.342334,-0.17866 1.531251,1.178437 2.915007,2.848592 4.294584,5.183436 l 0.14648,0.247914 0.393797,-0.978841 c 1.055239,-2.622933 2.474414,-4.910915 4.179682,-6.738443 0.446932,-0.478984 1.035887,-1.051946 1.308784,-1.273256 l 0.496183,-0.40239 0.342125,0.467756 c 0.188175,0.257259 0.342133,0.500828 0.342133,0.541261 0,0.04046 -0.114717,0.161052 -0.254925,0.268058 -1.445596,1.103223 -3.332744,3.59667 -4.471671,5.908307 -0.652418,1.32419 -0.884026,1.888755 -1.35486,3.302574 l -0.386603,1.160889 -0.455448,0.02525 -0.455454,0.02525 z M 6.7987424,42.616871 C 6.5392815,42.425084 6.3269938,42.249295 6.3269938,42.226222 c 0,-0.08088 0.6871194,-0.980485 0.7488862,-0.980485 0.079887,0 0.9172489,0.686315 0.9172489,0.751796 0,0.04833 -0.6694947,0.968036 -0.7046789,0.968036 -0.00981,0 -0.2302467,-0.156915 -0.4897076,-0.348698 z M 8.3881546,40.618992 C 8.1701463,40.419808 7.9920775,40.216683 7.992449,40.167611 c 4.356e-4,-0.04908 0.1900218,-0.281254 0.4214501,-0.515956 l 0.4207672,-0.426723 0.4211627,0.454663 0.4211618,0.454655 -0.3629197,0.41801 c -0.1996026,0.2299 -0.4004069,0.420449 -0.4462243,0.423447 -0.045821,0.0026 -0.2616829,-0.157527 -0.4796922,-0.356715 z"
     style="fill:#7300eb;fill-opacity:1;stroke-width:0.0223937"
     id="path2381-6"
     sodipodi:nodetypes="ssssscccssscssscsscsscccsssssssscscccscs" />
</svg>
