<?xml version="1.0" encoding="UTF-8" standalone="no"?>
<svg
   viewBox="0 0 50 50"
   version="1.1"
   id="svg10323"
   sodipodi:docname="avatar2-square-app.svg"
   inkscape:version="1.1.1 (3bf5ae0d25, 2021-09-20)"
   width="50"
   height="50"
   xmlns:inkscape="http://www.inkscape.org/namespaces/inkscape"
   xmlns:sodipodi="http://sodipodi.sourceforge.net/DTD/sodipodi-0.dtd"
   xmlns="http://www.w3.org/2000/svg"
   xmlns:svg="http://www.w3.org/2000/svg">
  <sodipodi:namedview
     id="namedview10325"
     pagecolor="#ffffff"
     bordercolor="#666666"
     borderopacity="1.0"
     inkscape:pageshadow="2"
     inkscape:pageopacity="0.0"
     inkscape:pagecheckerboard="0"
     showgrid="false"
     inkscape:zoom="8.39"
     inkscape:cx="21.513707"
     inkscape:cy="30.929678"
     inkscape:window-width="1868"
     inkscape:window-height="1446"
     inkscape:window-x="3344"
     inkscape:window-y="219"
     inkscape:window-maximized="0"
     inkscape:current-layer="svg10323" />
  <defs
     id="defs10313">
    <style
       id="style10311">.c{fill:#fff;}.d{stroke-miterlimit:10;}.d,.e{fill:none;stroke:#7300eb;stroke-linecap:round;stroke-width:4px;}.e{stroke-linejoin:round;}</style>
  </defs>
  <path
     style="fill:#7300eb;fill-opacity:1;stroke-width:0.0749631"
     d="m 5.8397187,43.227615 c 0.2181685,-3.926586 1.5309241,-7.533622 3.8785793,-10.6571 0.667671,-0.888315 2.11189,-2.392519 3.062709,-3.189913 1.555244,-1.304286 3.571444,-2.458459 5.720825,-3.274867 l 0.211051,-0.08017 -0.585862,-0.46525 c -2.093012,-1.662124 -3.514445,-4.016144 -4.04352,-6.696411 -0.161775,-0.819565 -0.182503,-2.866996 -0.03751,-3.707946 0.826182,-4.792686 4.441641,-8.4079629 9.229843,-9.2293788 0.72433,-0.1242572 2.723972,-0.1242572 3.44829,0 4.788203,0.8214159 8.403662,4.4366928 9.229843,9.2293788 0.144974,0.84095 0.124246,2.888381 -0.03751,3.707946 -0.529074,2.680267 -1.950497,5.034287 -4.043508,6.696411 l -0.585865,0.46525 0.211052,0.08017 c 0.846171,0.321411 1.31186,0.528114 2.205852,0.97914 4.88348,2.463707 8.537371,7.035444 9.89499,12.380569 0.27885,1.097895 0.492978,2.533181 0.561262,3.762171 l 0.05218,0.938995 h -1.498775 -1.498786 l -0.04898,-0.84333 c -0.23712,-4.08294 -1.856158,-7.696294 -4.741198,-10.581338 -2.501878,-2.501875 -5.480222,-4.016843 -9.033265,-4.594875 -1.081514,-0.175947 -3.701284,-0.175947 -4.782807,0 -3.553045,0.578032 -6.531376,2.093 -9.033254,4.594875 C 10.69031,35.626986 9.0712657,39.24034 8.8341553,43.32328 l -0.048982,0.84333 H 7.2863705 5.7875831 Z M 26.969785,24.724274 c 2.87295,-0.746117 5.10178,-2.971255 5.879589,-5.869845 0.176082,-0.656169 0.19788,-0.873718 0.19788,-1.974316 0,-1.098851 -0.02195,-1.318688 -0.196733,-1.969827 C 32.072149,12.010597 29.870743,9.8079418 26.974275,9.030696 26.318107,8.8546181 26.100559,8.8328127 24.99996,8.8328127 c -1.100586,0 -1.318146,0.021793 -1.974314,0.1978833 -2.896468,0.7772458 -5.097874,2.979901 -5.876236,5.87959 -0.174792,0.651139 -0.196754,0.870976 -0.196754,1.969827 0,1.098851 0.02195,1.318686 0.196754,1.969826 0.837976,3.121773 3.304751,5.411809 6.475381,6.011436 0.889271,0.16818 2.409424,0.105879 3.344994,-0.137101 z"
     id="path8898" />
  <g
     id="b"
     transform="matrix(0.92071708,0,0,0.92071708,-21.035854,-21.035854)">
    <rect
       class="e"
       x="25"
       y="25"
       width="50"
       height="50"
       id="rect10318" />
  </g>
  <path
     d="m 7.0483974,24.273574 c -0.4917439,-0.625156 -0.4927577,-1.012165 -0.00433,-1.633165 0.380212,-0.483359 0.4234682,-0.491257 2.6901398,-0.491257 2.4886758,0 2.7666728,0.09751 3.0069158,1.054719 0.08025,0.319757 -1.95e-4,0.627514 -0.252497,0.965802 -0.362427,0.485964 -0.419921,0.497594 -2.7099315,0.548542 -2.3386598,0.05203 -2.3398135,0.05188 -2.7303494,-0.444641 z M 6.0051402,18.577847 C 5.0961218,18.080651 4.9241797,17.286571 5.552559,16.487718 5.931574,16.005871 5.9817632,15.99646 8.171269,15.99646 c 2.121486,0 2.254996,0.0227 2.68992,0.457642 0.251702,0.251696 0.45764,0.583354 0.45764,0.737006 0,0.523877 -0.413154,1.18763 -0.868337,1.395023 -0.5831161,0.265682 -3.9559437,0.259397 -4.4453518,-0.0083 z M 7.2004004,12.478021 C 6.8885793,12.225525 6.7695638,11.935608 6.7695638,11.428549 c 0,-1.182427 0.4622202,-1.398341 2.9936109,-1.398341 2.0149483,0 2.1570553,0.02506 2.5895783,0.457645 0.583253,0.583249 0.583253,1.298144 0,1.881394 -0.432523,0.432533 -0.57463,0.457643 -2.5895783,0.457643 -1.805212,0 -2.1979678,-0.0535 -2.5627743,-0.348869 z"
     style="fill:#7300eb;fill-opacity:1;stroke-width:0.00345333"
     id="path9074" />
</svg>
