<?xml version="1.0" encoding="UTF-8" standalone="no"?>
<svg
   viewBox="0 0 50 50"
   version="1.1"
   id="svg10323"
   sodipodi:docname="flowerChallenge-square-app.svg"
   inkscape:version="1.1.1 (3bf5ae0d25, 2021-09-20)"
   width="50"
   height="50"
   xmlns:inkscape="http://www.inkscape.org/namespaces/inkscape"
   xmlns:sodipodi="http://sodipodi.sourceforge.net/DTD/sodipodi-0.dtd"
   xmlns="http://www.w3.org/2000/svg"
   xmlns:svg="http://www.w3.org/2000/svg">
  <sodipodi:namedview
     id="namedview10325"
     pagecolor="#ffffff"
     bordercolor="#666666"
     borderopacity="1.0"
     inkscape:pageshadow="2"
     inkscape:pageopacity="0.0"
     inkscape:pagecheckerboard="0"
     showgrid="false"
     inkscape:zoom="11.865252"
     inkscape:cx="14.453971"
     inkscape:cy="34.891801"
     inkscape:window-width="1868"
     inkscape:window-height="1446"
     inkscape:window-x="3344"
     inkscape:window-y="219"
     inkscape:window-maximized="0"
     inkscape:current-layer="svg10323" />
  <defs
     id="defs10313">
    <style
       id="style10311">.c{fill:#fff;}.d{stroke-miterlimit:10;}.d,.e{fill:none;stroke:#7300eb;stroke-linecap:round;stroke-width:4px;}.e{stroke-linejoin:round;}</style>
  </defs>
  <g
     id="b"
     transform="matrix(0.92475901,0,0,0.92475901,-21.237951,-21.237951)">
    <rect
       class="e"
       x="25"
       y="25"
       width="50"
       height="50"
       id="rect10318" />
  </g>
  <path
     style="fill:#7300eb;fill-opacity:1;stroke-width:0.0759929"
     d="M 17.589932,43.650325 C 16.973438,43.501298 16.003263,43.016792 15.523644,42.618418 15.06019,42.233469 14.473835,41.520826 14.211205,41.023302 14.041448,40.701706 13.993767,40.665332 13.680311,40.618333 13.490899,40.589961 13.075296,40.47157 12.756748,40.355314 10.898349,39.677082 9.6255492,38.056966 9.3383755,36.004161 9.0675516,34.068219 9.8756078,32.346202 12.032864,30.262056 c 0.402053,-0.388433 0.731005,-0.716932 0.731005,-0.730006 0,-0.01307 -0.265025,-0.04635 -0.588944,-0.07398 C 10.931762,29.352069 9.1994906,28.893238 8.3182885,28.436553 7.5219822,28.023863 6.5860484,27.058074 6.1690302,26.218734 5.7137677,25.302422 5.5868926,24.755858 5.5868926,23.710976 c 0,-1.386244 0.3980949,-2.500797 1.2160951,-3.40472 l 0.4108167,-0.453968 -0.045683,-0.825396 c -0.087427,-1.579525 0.4191969,-2.911103 1.5283815,-4.017099 0.9329137,-0.930231 1.8484551,-1.386715 3.1505791,-1.570857 1.305499,-0.184622 3.155128,0.350665 5.163367,1.494295 0.373663,0.212789 0.472944,0.244931 0.43271,0.140084 -0.181113,-0.471983 -0.364172,-1.989007 -0.374463,-3.103235 -0.01316,-1.424382 0.05008,-1.750809 0.537214,-2.7737357 0.297456,-0.6246092 0.43733,-0.814514 1.037575,-1.4087114 0.561321,-0.555672 0.81708,-0.7466283 1.339708,-1.0002684 0.846619,-0.4108769 1.469063,-0.5547426 2.400154,-0.5547426 0.832765,0 1.59377,0.168812 2.242144,0.4973669 l 0.373227,0.1891298 0.387252,-0.1962338 c 0.920462,-0.4664328 2.411414,-0.6254275 3.487231,-0.3718697 1.032684,0.243392 2.171651,0.9590019 2.873583,1.8054597 0.479041,0.577684 0.975996,1.6400281 1.126311,2.4077402 0.0975,0.497987 0.116,0.87222 0.08077,1.633845 -0.04202,0.90814 -0.269727,2.536846 -0.403385,2.885162 -0.05333,0.138974 -0.04351,0.138295 0.204735,-0.01423 0.581859,-0.357459 1.985784,-1.012219 2.713552,-1.265536 1.449995,-0.504712 2.563578,-0.531558 3.826771,-0.09226 0.793754,0.276041 1.324903,0.620234 2.012735,1.304274 0.503,0.500239 0.682373,0.745993 0.970651,1.329879 0.469033,0.94998 0.605593,1.613704 0.552488,2.68523 l -0.04107,0.829094 0.407473,0.450271 c 0.459724,0.508013 0.880329,1.300659 1.078863,2.033148 0.180491,0.665915 0.182163,2.059199 0.0034,2.735744 -0.381303,1.442115 -1.463873,2.800982 -2.714777,3.407648 -0.355269,0.172293 -0.953712,0.40109 -1.329878,0.508426 -0.776555,0.221586 -2.262227,0.491509 -2.705293,0.491509 -0.163036,0 -0.296424,0.009 -0.296424,0.02001 0,0.01102 0.405142,0.429943 0.900312,0.930916 1.921009,1.943535 2.543573,3.140413 2.549012,4.90049 0.0039,1.193681 -0.255927,2.060243 -0.915557,3.055961 -0.759725,1.146817 -2.124543,2.025695 -3.455737,2.225322 -0.312557,0.04688 -0.352661,0.07988 -0.546255,0.449643 -0.282612,0.539786 -0.911646,1.272573 -1.4195,1.653644 -0.535321,0.401677 -1.367885,0.789246 -2.027563,0.943853 -0.778719,0.182501 -2.162707,0.114328 -2.897324,-0.14272 -1.644475,-0.575422 -2.776063,-1.759343 -3.914673,-4.095712 -0.258259,-0.529943 -0.486663,-0.964297 -0.507564,-0.965235 -0.0209,-0.001 -0.208979,0.362683 -0.41796,0.808047 -1.225234,2.611136 -2.545004,3.90986 -4.450433,4.379463 -0.618899,0.152528 -1.909751,0.152626 -2.540385,1.16e-4 z m 2.634026,-2.442924 c 0.617519,-0.303998 1.105631,-0.812584 1.694845,-1.765912 0.998048,-1.614807 1.606804,-3.337508 1.861574,-5.268003 0.04315,-0.326945 0.07845,-1.135687 0.07845,-1.797205 v -1.202766 l -0.618665,-0.199549 c -0.340266,-0.109751 -0.626038,-0.190118 -0.635043,-0.178605 -0.009,0.01152 -0.744466,1.029745 -1.634343,2.262726 -1.810343,2.508347 -1.913746,2.635798 -2.258025,2.783104 -0.33191,0.142011 -0.525301,0.131778 -0.895373,-0.04738 -0.534358,-0.25868 -0.788299,-0.931878 -0.547504,-1.451444 0.05035,-0.108657 0.858235,-1.250923 1.795284,-2.538361 1.609745,-2.211679 1.697774,-2.349944 1.595851,-2.506598 -0.05933,-0.09119 -0.210464,-0.325945 -0.335851,-0.521675 -0.214627,-0.335033 -0.243288,-0.353209 -0.489359,-0.310406 -1.096079,0.190672 -3.148582,1.099933 -4.472907,1.981502 -1.475006,0.981872 -3.314591,2.956854 -3.615044,3.881129 -0.397391,1.222462 -0.112768,2.386275 0.795449,3.252569 0.241089,0.229962 0.596276,0.485805 0.789305,0.568548 0.386997,0.165885 1.116147,0.303021 1.615843,0.30392 0.419406,10e-4 0.86018,0.375574 1.002732,0.852711 0.298634,0.999589 1.037002,1.767306 2.001942,2.081523 0.20407,0.06646 0.584286,0.09692 1.048157,0.084 0.642827,-0.01793 0.785766,-0.04874 1.222682,-0.263844 z m 12.159374,0.04523 c 0.782687,-0.365967 1.31097,-0.970424 1.653686,-1.892104 0.246961,-0.664161 0.474411,-0.832864 1.232895,-0.914436 0.963785,-0.103658 1.322701,-0.209989 1.812224,-0.536886 0.505219,-0.337366 0.927923,-0.865919 1.161806,-1.45275 0.224847,-0.564151 0.220824,-1.604103 -0.0084,-2.182456 -0.235874,-0.595006 -0.822018,-1.348377 -1.833849,-2.357023 -1.037226,-1.033957 -2.09768,-1.783183 -3.44519,-2.434066 -0.815697,-0.39401 -2.644076,-1.060357 -2.909472,-1.060357 -0.0875,0 -0.792673,0.913114 -0.792673,1.026416 0,0.02715 0.770883,1.10832 1.713069,2.402711 0.942192,1.294391 1.745818,2.439551 1.785832,2.544809 0.21141,0.556048 -0.06751,1.194692 -0.622146,1.424557 -0.406538,0.168479 -0.776111,0.130866 -1.082564,-0.110183 -0.10837,-0.08524 -0.971686,-1.221395 -1.918473,-2.524769 -0.94679,-1.303369 -1.728733,-2.379142 -1.737655,-2.390603 -0.0089,-0.01147 -0.29467,0.0709 -0.634996,0.18303 l -0.61877,0.203857 0.0013,1.222843 c 0.0031,2.791173 0.647479,5.028426 2.097535,7.283383 0.878284,1.36581 1.635387,1.817022 2.992589,1.783514 0.598493,-0.01477 0.795674,-0.05231 1.153207,-0.219487 z M 26.024618,28.823717 c 2.242788,-0.69646 3.096396,-3.397457 1.681239,-5.319813 -1.014657,-1.378316 -3.056916,-1.749365 -4.525587,-0.822234 -1.23594,0.780214 -1.850238,2.321148 -1.484742,3.724391 0.496035,1.904405 2.456378,2.99919 4.32909,2.417656 z m -9.499102,-1.767235 c 0.417961,-0.09016 1.221586,-0.314638 1.785833,-0.498834 L 19.33725,26.222764 V 25.574052 24.925346 L 17.133458,24.20852 c -1.212085,-0.394249 -2.489159,-0.806779 -2.837939,-0.916735 -0.869795,-0.274211 -1.162495,-0.543672 -1.209768,-1.113717 -0.0401,-0.483501 0.08901,-0.802313 0.420469,-1.038334 0.46542,-0.33141 0.540471,-0.317442 3.57885,0.666022 1.558695,0.50452 2.861005,0.917312 2.894014,0.917312 0.07717,0 0.76462,-0.925187 0.762221,-1.025819 -0.003,-0.128543 -0.992734,-1.470804 -1.57923,-2.141869 -1.668243,-1.908783 -4.620481,-3.679894 -6.453275,-3.871455 -0.849083,-0.08875 -1.933681,0.342589 -2.50873,0.997709 -0.7206531,0.820994 -0.9284048,1.817974 -0.6228672,2.989065 l 0.1769434,0.678206 -0.1859783,0.346204 c -0.1022885,0.190415 -0.3395817,0.4611 -0.5273169,0.601522 -1.4809703,1.107745 -1.6270554,3.302916 -0.3076111,4.622362 0.5910543,0.591053 1.3895671,0.904612 3.0807201,1.209729 1.160709,0.209416 3.577775,0.172362 4.711557,-0.07223 z m 22.065999,0.0055 c 1.669301,-0.37101 2.321611,-0.677958 2.866952,-1.349043 0.825037,-1.015276 0.93096,-2.550118 0.249298,-3.612392 -0.12763,-0.198897 -0.467919,-0.570738 -0.7562,-0.826318 -0.677067,-0.600269 -0.739713,-0.797878 -0.518405,-1.635271 0.395387,-1.496048 -0.202227,-2.963859 -1.470869,-3.612624 -1.122352,-0.573963 -2.177349,-0.445271 -4.122504,0.502877 -2.019452,0.984359 -3.62284,2.371516 -5.061635,4.379021 -0.288111,0.401998 -0.523834,0.754935 -0.523834,0.784314 0,0.101428 0.697492,1.030557 0.773639,1.030557 0.04202,0 1.343392,-0.412536 2.891987,-0.916749 3.200255,-1.041979 3.218108,-1.044515 3.71346,-0.526572 0.314544,0.328893 0.405494,0.657437 0.295288,1.066707 -0.146931,0.545665 -0.393643,0.674661 -2.746426,1.43598 -1.184817,0.38338 -2.444886,0.792023 -2.800153,0.90808 l -0.645939,0.211016 v 0.670782 0.670783 l 0.759929,0.255921 c 1.925612,0.648502 2.812956,0.786345 4.825545,0.74962 1.220366,-0.02231 1.712106,-0.06272 2.269867,-0.186684 z m -15.283639,-6.913199 0.550947,-0.176228 1.49e-4,-3.013314 c 7.8e-5,-2.717154 0.01316,-3.039303 0.132988,-3.277771 0.294731,-0.586625 1.081344,-0.79847 1.622493,-0.43696 0.523147,0.349487 0.523938,0.355089 0.524072,3.710087 l 1.48e-4,3.008674 0.618773,0.203862 c 0.340323,0.112123 0.626258,0.194486 0.635414,0.18303 1.65578,-2.073132 2.597851,-3.988202 3.042724,-6.185342 0.226903,-1.120636 0.320574,-2.631591 0.198387,-3.199995 -0.346909,-1.6137882 -1.810618,-2.6496287 -3.446083,-2.4387263 -0.405869,0.052341 -0.877133,0.2592127 -1.619159,0.7107727 -0.386865,0.2354281 -0.753032,0.2354281 -1.139896,0 -1.097886,-0.668121 -1.640248,-0.8212481 -2.502813,-0.70664 -0.98413,0.1307628 -1.828363,0.7536614 -2.291482,1.6907166 -0.333522,0.674838 -0.402372,1.368873 -0.263986,2.661081 0.211419,1.97413 0.84161,3.863647 1.824849,5.471482 0.477108,0.780193 1.397734,2.0142 1.485597,1.991302 0.0418,-0.01089 0.323922,-0.09911 0.626941,-0.196031 z"
     id="path8690" />
</svg>
