<?xml version="1.0" encoding="UTF-8" standalone="no"?>
<svg
   viewBox="0 0 100 100"
   version="1.1"
   id="svg10323"
   sodipodi:docname="flowerChallenge-app.svg"
   inkscape:version="1.1.1 (3bf5ae0d25, 2021-09-20)"
   xmlns:inkscape="http://www.inkscape.org/namespaces/inkscape"
   xmlns:sodipodi="http://sodipodi.sourceforge.net/DTD/sodipodi-0.dtd"
   xmlns="http://www.w3.org/2000/svg"
   xmlns:svg="http://www.w3.org/2000/svg">
  <sodipodi:namedview
     id="namedview10325"
     pagecolor="#ffffff"
     bordercolor="#666666"
     borderopacity="1.0"
     inkscape:pageshadow="2"
     inkscape:pageopacity="0.0"
     inkscape:pagecheckerboard="0"
     showgrid="false"
     inkscape:zoom="8.39"
     inkscape:cx="59.535161"
     inkscape:cy="21.394517"
     inkscape:window-width="1868"
     inkscape:window-height="1446"
     inkscape:window-x="3344"
     inkscape:window-y="219"
     inkscape:window-maximized="0"
     inkscape:current-layer="svg10323" />
  <defs
     id="defs10313">
    <style
       id="style10311">.c{fill:#fff;}.d{stroke-miterlimit:10;}.d,.e{fill:none;stroke:#7300eb;stroke-linecap:round;stroke-width:4px;}.e{stroke-linejoin:round;}</style>
  </defs>
  <g
     id="a">
    <circle
       class="c"
       cx="50"
       cy="50"
       r="50"
       id="circle10315" />
  </g>
  <g
     id="b">
    <rect
       class="e"
       x="25"
       y="25"
       width="50"
       height="50"
       id="rect10318" />
  </g>
  <path
     style="fill:#7300eb;fill-opacity:1;stroke-width:0.0821759"
     d="M 41.987029,70.167769 C 41.320375,70.006617 40.271264,69.48269 39.752622,69.051903 39.25146,68.635633 38.617398,67.865008 38.333399,67.327004 38.14983,66.979242 38.09827,66.939908 37.75931,66.889085 37.554487,66.858405 37.105069,66.730381 36.760604,66.604666 34.751,65.871252 33.374641,64.119318 33.064102,61.899491 c -0.292859,-2.093455 0.580943,-3.95558 2.91372,-6.209298 0.434765,-0.420037 0.790482,-0.775264 0.790482,-0.789402 0,-0.01413 -0.286588,-0.05012 -0.636862,-0.08 -1.34431,-0.114625 -3.217525,-0.610787 -4.170424,-1.104629 -0.861096,-0.446268 -1.87318,-1.490636 -2.324128,-2.398267 -0.492304,-0.990866 -0.629502,-1.5819 -0.629502,-2.711797 0,-1.499033 0.430485,-2.704269 1.31504,-3.681737 l 0.444242,-0.490904 -0.0494,-0.892553 c -0.09454,-1.70804 0.453304,-3.147958 1.652735,-4.343942 1.008818,-1.005917 1.998851,-1.499541 3.406919,-1.698666 1.411719,-0.199643 3.411839,0.379196 5.583473,1.615875 0.404066,0.230102 0.511425,0.264859 0.467917,0.151482 -0.195849,-0.510385 -0.393802,-2.150838 -0.40493,-3.355723 -0.01423,-1.540274 0.05415,-1.89326 0.580923,-2.999415 0.321658,-0.675429 0.472912,-0.880785 1.121995,-1.523328 0.606992,-0.600883 0.88356,-0.807376 1.44871,-1.081653 0.915503,-0.444307 1.58859,-0.599878 2.595438,-0.599878 0.900521,0 1.723443,0.182547 2.424571,0.537834 l 0.403594,0.204518 0.41876,-0.2122 c 0.995353,-0.504383 2.607613,-0.676314 3.770961,-0.402126 1.116706,0.263195 2.348343,1.037029 3.107386,1.952357 0.518017,0.624686 1.055405,1.773465 1.217951,2.603641 0.105436,0.538504 0.125438,0.943186 0.08734,1.766779 -0.04544,0.982029 -0.291673,2.743251 -0.436207,3.119907 -0.05767,0.150281 -0.04705,0.149547 0.221394,-0.01539 0.629201,-0.386543 2.147353,-1.094576 2.934334,-1.368504 1.567971,-0.545776 2.772158,-0.574807 4.138128,-0.09977 0.858335,0.2985 1.432701,0.670697 2.176497,1.410393 0.543925,0.54094 0.737892,0.806689 1.049625,1.438082 0.507195,1.027273 0.654866,1.744999 0.59744,2.903708 l -0.04441,0.896551 0.440626,0.486906 c 0.497129,0.549347 0.951955,1.406484 1.166642,2.198571 0.195177,0.720096 0.196985,2.226741 0.0037,2.958332 -0.412327,1.559449 -1.582978,3.028877 -2.935659,3.684904 -0.384175,0.186311 -1.031309,0.433723 -1.438081,0.549793 -0.839737,0.239614 -2.446288,0.531499 -2.925403,0.531499 -0.176301,0 -0.320542,0.0097 -0.320542,0.02164 0,0.01192 0.438106,0.464925 0.973564,1.006658 2.077308,2.101667 2.750525,3.395926 2.756407,5.299208 0.0042,1.290802 -0.27675,2.22787 -0.990049,3.304602 -0.821539,1.240126 -2.297402,2.190511 -3.736906,2.40638 -0.337987,0.05069 -0.381354,0.08638 -0.5907,0.486227 -0.305606,0.583705 -0.98582,1.376113 -1.534994,1.78819 -0.578876,0.434358 -1.47918,0.85346 -2.192531,1.020648 -0.842078,0.19735 -2.338671,0.12363 -3.133059,-0.154332 -1.778274,-0.62224 -3.001931,-1.902489 -4.233182,-4.428952 -0.279271,-0.573061 -0.526259,-1.042755 -0.54886,-1.043769 -0.0226,-0.0011 -0.225983,0.392192 -0.451967,0.873792 -1.324922,2.823585 -2.752073,4.227977 -4.812533,4.735788 -0.669254,0.164938 -2.065133,0.165044 -2.747078,1.26e-4 z m 2.848338,-2.641687 c 0.667762,-0.328733 1.195588,-0.878699 1.832742,-1.909592 1.079252,-1.746192 1.737538,-3.609057 2.013037,-5.696623 0.04666,-0.353546 0.08483,-1.228089 0.08483,-1.94343 V 56.67581 l -0.668999,-0.215784 c -0.36795,-0.118681 -0.676974,-0.205587 -0.686711,-0.193137 -0.0097,0.01246 -0.805038,1.113528 -1.767318,2.446828 -1.957638,2.712433 -2.069454,2.850253 -2.441744,3.009545 -0.358915,0.153565 -0.568041,0.1425 -0.968223,-0.05123 -0.577835,-0.279727 -0.852438,-1.007698 -0.592051,-1.569537 0.05445,-0.117498 0.928063,-1.352702 1.941353,-2.74489 1.740719,-2.391627 1.83591,-2.541142 1.725694,-2.710541 -0.06416,-0.09861 -0.227588,-0.352465 -0.363176,-0.56412 -0.23209,-0.362293 -0.263083,-0.381948 -0.529175,-0.335662 -1.185259,0.206186 -3.404759,1.189427 -4.836835,2.142723 -1.595017,1.061759 -3.584276,3.197431 -3.909174,4.196908 -0.429724,1.321925 -0.121944,2.580429 0.860168,3.517207 0.260705,0.248673 0.644791,0.525332 0.853526,0.614807 0.418484,0.179382 1.206959,0.327676 1.747312,0.328648 0.45353,0.0011 0.930167,0.406131 1.084317,0.92209 0.322932,1.080918 1.121376,1.911099 2.164826,2.250881 0.220673,0.07187 0.631825,0.104806 1.133438,0.09083 0.695129,-0.01939 0.849698,-0.05271 1.322163,-0.285311 z m 13.148695,0.04891 c 0.846368,-0.395744 1.417634,-1.049381 1.788234,-2.046051 0.267055,-0.718199 0.51301,-0.900628 1.333207,-0.988837 1.042201,-0.112092 1.43032,-0.227075 1.959672,-0.580569 0.546324,-0.364815 1.003421,-0.936373 1.256333,-1.57095 0.243141,-0.610052 0.238791,-1.734617 -0.0091,-2.360026 -0.255066,-0.643418 -0.8889,-1.458085 -1.983057,-2.548797 -1.121617,-1.118083 -2.268353,-1.928268 -3.7255,-2.632109 -0.882064,-0.426068 -2.859205,-1.146631 -3.146195,-1.146631 -0.09462,0 -0.857167,0.987408 -0.857167,1.109929 0,0.02936 0.833604,1.198495 1.852449,2.598202 1.018852,1.399706 1.887863,2.63804 1.931133,2.751862 0.228611,0.601289 -0.073,1.291895 -0.672766,1.540463 -0.439615,0.182187 -0.839258,0.141513 -1.170644,-0.119148 -0.117188,-0.09218 -1.050745,-1.320771 -2.074566,-2.730191 -1.023823,-1.409415 -1.869387,-2.572716 -1.879035,-2.58511 -0.0096,-0.0124 -0.318645,0.07667 -0.686661,0.197922 l -0.669115,0.220444 0.0014,1.322336 c 0.0033,3.018271 0.70016,5.437553 2.268196,7.87598 0.949744,1.476936 1.768447,1.96486 3.236075,1.928626 0.647188,-0.01597 0.860412,-0.05657 1.247035,-0.237345 z M 51.107985,54.134826 c 2.425267,-0.753126 3.348327,-3.673883 1.818029,-5.752648 -1.097212,-1.490459 -3.305635,-1.891698 -4.893801,-0.889133 -1.3365,0.843694 -2.000779,2.510003 -1.605545,4.027418 0.536393,2.059353 2.656236,3.243212 4.681317,2.614363 z M 40.836009,52.223804 c 0.451967,-0.0975 1.320978,-0.340238 1.931133,-0.539421 l 1.109372,-0.362131 v -0.701493 -0.701486 l -2.383099,-0.775149 c -1.310705,-0.426326 -2.691685,-0.872421 -3.068843,-0.991323 -0.940563,-0.296522 -1.257079,-0.587907 -1.308198,-1.204332 -0.04336,-0.52284 0.09625,-0.867592 0.45468,-1.122816 0.503289,-0.358375 0.584445,-0.34327 3.870036,0.720211 1.685515,0.545569 3.093783,0.991947 3.129478,0.991947 0.08345,0 0.826833,-1.000463 0.824237,-1.109282 -0.0032,-0.139002 -1.073505,-1.590473 -1.707719,-2.316138 -1.803976,-2.064087 -4.996418,-3.9793 -6.978333,-4.186447 -0.918167,-0.09597 -2.09101,0.370463 -2.712847,1.078885 -0.779287,0.887793 -1.003942,1.96589 -0.673545,3.232264 l 0.19134,0.733387 -0.20111,0.374372 c -0.110611,0.205907 -0.367211,0.498616 -0.570221,0.650463 -1.601466,1.197875 -1.759437,3.571651 -0.332639,4.998451 0.639144,0.639142 1.502626,0.978214 3.331376,1.308156 1.255147,0.226454 3.868872,0.186385 5.094902,-0.07811 z m 23.861351,0.0059 c 1.80512,-0.401197 2.510503,-0.733119 3.100215,-1.458805 0.892164,-1.097882 1.006705,-2.757603 0.269582,-3.906306 -0.138015,-0.21508 -0.505991,-0.617175 -0.817727,-0.89355 -0.732155,-0.649108 -0.799899,-0.862796 -0.560584,-1.768321 0.427556,-1.617771 -0.218681,-3.205007 -1.590543,-3.906557 -1.21367,-0.620663 -2.354505,-0.4815 -4.457922,0.543792 -2.183762,1.064449 -3.917605,2.564469 -5.473464,4.73531 -0.311553,0.434706 -0.566455,0.816359 -0.566455,0.848129 0,0.10968 0.754242,1.114405 0.836584,1.114405 0.04544,0 1.452695,-0.446101 3.127288,-0.991338 3.460637,-1.126757 3.479942,-1.129499 4.015597,-0.569415 0.340136,0.355653 0.438486,0.710928 0.319314,1.153497 -0.158886,0.590062 -0.425671,0.729553 -2.969883,1.552816 -1.281217,0.414572 -2.643809,0.856464 -3.027981,0.981964 l -0.698495,0.228184 v 0.725359 0.72536 l 0.821759,0.276743 c 2.082285,0.701266 3.041826,0.850324 5.218165,0.810611 1.319658,-0.02412 1.851408,-0.06782 2.45455,-0.201873 z m -16.52716,-7.475676 0.595775,-0.190567 1.61e-4,-3.258485 c 8.4e-5,-2.93823 0.01423,-3.28659 0.143808,-3.54446 0.318711,-0.634355 1.169324,-0.863436 1.754502,-0.472512 0.565712,0.377922 0.566568,0.38398 0.566712,4.01195 l 1.6e-4,3.253468 0.669119,0.220449 c 0.368012,0.121245 0.677212,0.21031 0.687113,0.197922 1.790498,-2.241808 2.809219,-4.312694 3.290288,-6.688599 0.245365,-1.211814 0.346657,-2.845705 0.214529,-3.460356 -0.375135,-1.745091 -1.957936,-2.86521 -3.726467,-2.637148 -0.438891,0.0566 -0.948498,0.280303 -1.750898,0.768603 -0.418341,0.254583 -0.814301,0.254583 -1.232641,0 -1.187213,-0.722481 -1.773703,-0.888067 -2.706449,-0.764134 -1.064201,0.141402 -1.977124,0.814981 -2.477923,1.828278 -0.360659,0.729745 -0.43511,1.480249 -0.285465,2.877594 0.228621,2.134751 0.910086,4.178004 1.973324,5.916657 0.515927,0.843672 1.511457,2.178081 1.606469,2.15332 0.0452,-0.01177 0.350277,-0.107169 0.677951,-0.21198 z"
     id="path8690" />
</svg>
