<?xml version="1.0" encoding="UTF-8" standalone="no"?>
<svg
   viewBox="0 0 100 100"
   version="1.1"
   id="svg10323"
   sodipodi:docname="house-app.svg"
   inkscape:version="1.1.1 (3bf5ae0d25, 2021-09-20)"
   xmlns:inkscape="http://www.inkscape.org/namespaces/inkscape"
   xmlns:sodipodi="http://sodipodi.sourceforge.net/DTD/sodipodi-0.dtd"
   xmlns="http://www.w3.org/2000/svg"
   xmlns:svg="http://www.w3.org/2000/svg">
  <sodipodi:namedview
     id="namedview10325"
     pagecolor="#ffffff"
     bordercolor="#666666"
     borderopacity="1.0"
     inkscape:pageshadow="2"
     inkscape:pageopacity="0.0"
     inkscape:pagecheckerboard="0"
     showgrid="false"
     inkscape:zoom="8.39"
     inkscape:cx="50"
     inkscape:cy="30.929678"
     inkscape:window-width="1868"
     inkscape:window-height="1446"
     inkscape:window-x="3344"
     inkscape:window-y="219"
     inkscape:window-maximized="0"
     inkscape:current-layer="svg10323" />
  <defs
     id="defs10313">
    <style
       id="style10311">.c{fill:#fff;}.d{stroke-miterlimit:10;}.d,.e{fill:none;stroke:#7300eb;stroke-linecap:round;stroke-width:4px;}.e{stroke-linejoin:round;}</style>
  </defs>
  <g
     id="a">
    <circle
       class="c"
       cx="50"
       cy="50"
       r="50"
       id="circle10315" />
  </g>
  <g
     id="b">
    <rect
       class="e"
       x="25"
       y="25"
       width="50"
       height="50"
       id="rect10318" />
  </g>
  <path
     style="fill:#7300eb;fill-opacity:1;stroke-width:0.0841173"
     d="M 36.600263,71.317998 C 35.738478,71.09053 35.207711,70.780308 34.514969,70.099188 33.860547,69.45575 33.399693,68.633631 33.22772,67.80287 33.16525,67.501105 33.13544,65.184756 33.13544,60.63192 v -6.725195 h -0.571144 c -2.014445,0 -3.656375,-1.37698 -3.986996,-3.343639 -0.130945,-0.778915 -0.0045,-1.605305 0.363537,-2.376294 0.241101,-0.505055 0.967656,-1.253406 9.524932,-9.810682 10.797521,-10.797525 9.658834,-9.830572 11.57655,-9.830572 1.919066,0 0.779765,-0.967374 11.57771,9.830572 10.797745,10.797749 9.830572,9.658737 9.830572,11.577132 0,1.127205 -0.0029,1.145249 -0.288499,1.726161 -0.675214,1.373965 -2.068973,2.227322 -3.637831,2.227322 h -0.56837 l -0.02376,6.960658 -0.02376,6.96066 -0.224824,0.578658 c -0.59625,1.534625 -1.824479,2.609163 -3.374683,2.95241 -0.516251,0.114305 -1.177202,0.130661 -4.448591,0.110099 -3.729946,-0.02346 -3.849046,-0.02923 -4.074458,-0.197583 -0.127712,-0.09539 -0.310248,-0.27792 -0.405631,-0.405636 -0.170082,-0.227713 -0.174246,-0.340727 -0.215493,-5.847628 l -0.0421,-5.615424 -0.255365,-0.413866 c -0.287104,-0.46529 -0.929266,-0.905025 -1.446471,-0.990506 -0.412328,-0.06815 -4.343319,-0.06815 -4.75564,0 -0.51721,0.08548 -1.159373,0.525216 -1.446469,0.990506 l -0.255374,0.413866 -0.04206,5.615424 c -0.04123,5.506901 -0.04541,5.619915 -0.215489,5.847628 -0.09539,0.127716 -0.277927,0.310248 -0.405641,0.405636 -0.225929,0.168743 -0.33834,0.173906 -4.15858,0.191047 -3.643036,0.01637 -3.970739,0.0059 -4.541214,-0.144676 z m 6.797419,-7.060776 c 0,-3.087993 0.03173,-4.859681 0.09228,-5.152149 0.326686,-1.578129 1.602133,-2.942857 3.230337,-3.456452 0.556945,-0.175683 0.736806,-0.185736 3.32261,-0.185736 2.414788,0 2.792685,0.01802 3.238495,0.154668 1.646919,0.504697 2.868192,1.761666 3.279041,3.374878 0.106717,0.419014 0.127683,1.278886 0.127683,5.236264 v 4.734921 l 3.007173,-0.0037 c 3.234103,-0.0037 3.36283,-0.01875 3.930754,-0.451951 0.160798,-0.122649 0.397301,-0.401511 0.525553,-0.619701 l 0.233196,-0.3967 0.0421,-7.627479 c 0.04162,-7.539482 0.04409,-7.630158 0.215484,-7.859716 0.405092,-0.542437 0.513304,-0.57538 2.040494,-0.621155 1.624836,-0.0487 1.883859,-0.141499 2.196238,-0.78678 0.218553,-0.451474 0.2209,-0.830571 0.0076,-1.268549 C 68.648387,48.837842 51.043365,31.250001 50.613215,31.072078 50.192332,30.898 49.828143,30.909272 49.417375,31.109098 48.927467,31.347427 31.339617,48.952455 31.1617,49.382611 c -0.175814,0.425066 -0.1625,0.785364 0.04485,1.213692 0.312375,0.64528 0.571402,0.738075 2.196244,0.78678 1.527189,0.04577 1.635407,0.07872 2.040484,0.621164 0.17143,0.229561 0.173916,0.320242 0.215489,7.859715 l 0.04206,7.627471 0.233196,0.3967 c 0.12826,0.218191 0.36476,0.497059 0.525559,0.619702 0.567924,0.433177 0.696643,0.447976 3.930751,0.451951 l 3.007171,0.0037 z"
     id="path9261" />
</svg>
